<?xml version="1.0" encoding="UTF-8"?>
<svg id="Capa_2" data-name="Capa 2" xmlns="http://www.w3.org/2000/svg" xmlns:xlink="http://www.w3.org/1999/xlink" viewBox="0 0 555.24 47.95">
  <defs>
    <style>
      .cls-1 {
        clip-path: url(#clippath);
      }

      .cls-2 {
        fill: none;
      }

      .cls-3 {
        fill: #f2f2f2;
      }
    </style>
    <clipPath id="clippath">
      <rect class="cls-2" width="555.24" height="47.95"/>
    </clipPath>
  </defs>
  <g id="Capa_1-2" data-name="Capa 1">
    <g class="cls-1">
      <g>
        <rect class="cls-3" x="5.44" y="-20.47" width="3.04" height="88.89"/>
        <rect class="cls-3" x="15.76" y="-20.47" width="1.52" height="88.89"/>
        <rect class="cls-3" x="20.48" y="-20.47" width="1.52" height="88.89"/>
        <rect class="cls-3" x="1.4" y="-20.47" width="1.21" height="88.89"/>
        <rect class="cls-3" x="28.02" y="-20.47" width="1.52" height="88.89"/>
        <rect class="cls-3" x="328.31" y="-20.47" width="1.52" height="88.89"/>
        <rect class="cls-3" x="448.03" y="-20.47" width="1.52" height="88.89"/>
        <rect class="cls-3" x="294.31" y="-20.47" width="1.52" height="88.89"/>
        <rect class="cls-3" x="301.7" y="-20.47" width="1.52" height="88.89"/>
        <rect class="cls-3" x="308.36" y="-20.47" width=".61" height="88.89"/>
        <rect class="cls-3" x="260.77" y="-20.47" width="1.52" height="88.89"/>
        <rect class="cls-3" x="268.17" y="-20.47" width="1.52" height="88.89"/>
        <rect class="cls-3" x="276.63" y="-20.47" width=".61" height="88.89"/>
        <rect class="cls-3" x="50.28" y="-20.47" width="3.04" height="88.89"/>
        <rect class="cls-3" x="38.3" y="-20.47" width="5.47" height="88.89"/>
        <rect class="cls-3" x="98.58" y="-20.47" width="3.04" height="88.89"/>
        <rect class="cls-3" x="132.86" y="-20.47" width="5.47" height="88.89"/>
        <rect class="cls-3" x="217.35" y="-20.47" width="6.08" height="88.89"/>
        <rect class="cls-3" x="250.23" y="-20.47" width="3.04" height="88.89"/>
        <rect class="cls-3" x="240.37" y="-20.47" width=".91" height="88.89"/>
        <rect class="cls-3" x="230.15" y="-20.47" width=".91" height="88.89"/>
        <rect class="cls-3" x="72.73" y="-20.47" width="1.52" height="88.89"/>
        <rect class="cls-3" x="87.37" y="-20.47" width=".91" height="88.89"/>
        <rect class="cls-3" x="80.2" y="-20.47" width=".91" height="88.89"/>
        <rect class="cls-3" x="115.3" y="-20.47" width=".91" height="88.89"/>
        <rect class="cls-3" x="123.07" y="-20.47" width="1.52" height="88.89"/>
        <rect class="cls-3" x="140.95" y="-20.47" width=".91" height="88.89"/>
        <rect class="cls-3" x="144.69" y="-20.47" width="1.52" height="88.89"/>
        <rect class="cls-3" x="108.13" y="-20.47" width=".91" height="88.89"/>
        <rect class="cls-3" x="91.16" y="-20.47" width="3.02" height="88.89"/>
        <rect class="cls-3" x="65.21" y="-20.47" width="1.52" height="88.89"/>
        <rect class="cls-3" x="58.51" y="-20.47" width="2.13" height="88.89"/>
        <rect class="cls-3" x="284.42" y="-20.47" width="3.04" height="88.89"/>
        <rect class="cls-3" x="158.91" y="-20.47" width="1.52" height="88.89"/>
        <rect class="cls-3" x="166.31" y="-20.47" width="1.52" height="88.89"/>
        <rect class="cls-3" x="184.1" y="-20.47" width="2.74" height="88.89"/>
        <rect class="cls-3" x="194.32" y="-20.47" width="2.74" height="88.89"/>
        <rect class="cls-3" x="189.82" y="-20.47" width="1.52" height="88.89"/>
        <rect class="cls-3" x="172.96" y="-20.47" width=".61" height="88.89"/>
        <rect class="cls-3" x="202.62" y="-20.47" width=".61" height="88.89"/>
        <rect class="cls-3" x="207.73" y="-20.47" width=".61" height="88.89"/>
        <rect class="cls-3" x="233.7" y="-20.47" width=".61" height="88.89"/>
        <rect class="cls-3" x="244.67" y="-20.47" width="1.52" height="88.89"/>
        <rect class="cls-3" x="149.03" y="-20.47" width="3.04" height="88.89"/>
        <rect class="cls-3" x="315.51" y="-20.47" width="3.04" height="88.89"/>
        <rect class="cls-3" x="339.58" y="-20.47" width="3.04" height="88.89"/>
        <rect class="cls-3" x="332.55" y="-20.47" width="3.04" height="88.89"/>
        <rect class="cls-3" x="350.66" y="-20.47" width=".91" height="88.89"/>
        <rect class="cls-3" x="355.44" y="-20.47" width=".91" height="88.89"/>
        <rect class="cls-3" x="360.26" y="-20.47" width="3.04" height="88.89"/>
        <rect class="cls-3" x="370.59" y="-20.47" width="1.52" height="88.89"/>
        <rect class="cls-3" x="382.84" y="-20.47" width="1.52" height="88.89"/>
        <rect class="cls-3" x="405.1" y="-20.47" width="3.04" height="88.89"/>
        <rect class="cls-3" x="393.12" y="-20.47" width="5.47" height="88.89"/>
        <rect class="cls-3" x="453.41" y="-20.47" width="3.04" height="88.89"/>
        <rect class="cls-3" x="487.69" y="-20.47" width="5.47" height="88.89"/>
        <rect class="cls-3" x="427.55" y="-20.47" width="1.52" height="88.89"/>
        <rect class="cls-3" x="442.19" y="-20.47" width=".91" height="88.89"/>
        <rect class="cls-3" x="435.02" y="-20.47" width=".91" height="88.89"/>
        <rect class="cls-3" x="470.12" y="-20.47" width=".91" height="88.89"/>
        <rect class="cls-3" x="484.08" y="-20.47" width=".91" height="88.89"/>
        <rect class="cls-3" x="496.12" y="-20.47" width=".91" height="88.89"/>
        <rect class="cls-3" x="477.89" y="-20.47" width="1.52" height="88.89"/>
        <rect class="cls-3" x="462.95" y="-20.47" width=".91" height="88.89"/>
        <rect class="cls-3" x="420.03" y="-20.47" width="1.52" height="88.89"/>
        <rect class="cls-3" x="413.33" y="-20.47" width="2.13" height="88.89"/>
        <rect class="cls-3" x="513.73" y="-20.47" width="1.52" height="88.89"/>
        <rect class="cls-3" x="521.13" y="-20.47" width="1.52" height="88.89"/>
        <rect class="cls-3" x="538.92" y="-20.47" width="2.74" height="88.89"/>
        <rect class="cls-3" x="547.77" y="-20.47" width="5.47" height="88.89"/>
        <rect class="cls-3" x="533.43" y="-20.47" width="1.52" height="88.89"/>
        <rect class="cls-3" x="527.78" y="-20.47" width=".61" height="88.89"/>
        <rect class="cls-3" x="500.67" y="-20.47" width=".61" height="88.89"/>
        <rect class="cls-3" x="503.85" y="-20.47" width="3.04" height="88.89"/>
      </g>
    </g>
  </g>
</svg>