<?xml version="1.0" encoding="utf-8"?>
<!-- Generator: Adobe Illustrator 26.5.0, SVG Export Plug-In . SVG Version: 6.00 Build 0)  -->
<svg version="1.1" xmlns="http://www.w3.org/2000/svg" xmlns:xlink="http://www.w3.org/1999/xlink" x="0px" y="0px"
	 viewBox="0 0 2009.9 55.6" style="enable-background:new 0 0 2009.9 55.6;" xml:space="preserve">
<style type="text/css">
	.st0{fill:#CDCEC9;}
	.st1{fill:none;}
	.st2{font-family:'Gotham-Book';}
	.st3{font-size:21.1558px;}
	.st4{letter-spacing:3;}
	.st5{font-family:'GothamBlack-Italic';}
	.st6{font-size:23.9766px;}
	.st7{fill:#CCCCCC;}
	.st8{fill:#1D1E1C;}
	.st9{fill:none;stroke:#383938;stroke-width:3;stroke-linecap:round;stroke-miterlimit:10;}
</style>
<g id="Capa_1">
	<g id="fondo">
		<rect class="st0" width="2009.9" height="55.6"/>
	</g>
</g>
<g id="Capa_2">
	<g>
		<rect x="129.1" y="20.2" class="st1" width="146.2" height="18.7"/>
		<text transform="matrix(1 0 0 1 129.1067 35.5981)"><tspan x="0" y="0" class="st2 st3 st4">portafo</tspan><tspan x="137.6" y="0" class="st2 st3">-</tspan></text>
		<rect x="420.6" y="20.2" class="st1" width="83" height="18.7"/>
		<text transform="matrix(1 0 0 1 420.5764 35.5981)" class="st2 st3">MMXX</text>
		<g>
			<rect x="313.1" y="18.9" class="st1" width="65.5" height="18.1"/>
			<text transform="matrix(1 0 0 1 313.1121 36.4331)" class="st5 st6">202x</text>
		</g>
		<g>
			<g id="g5_00000021088168032133956030000001114130776004173709_">
				<circle id="circle7_00000156583927602477177040000004332489464570531499_" class="st7" cx="497.9" cy="28.1" r="9"/>
			</g>
			<g>
				<g>
					<g>
						<path class="st8" d="M496.3,28.1c0.3,0,0.5-0.7,0.5-1.6c0-0.9-0.2-1.6-0.5-1.6c-0.3,0-0.5,0.7-0.5,1.6S496,28.1,496.3,28.1z"
							/>
					</g>
					<g>
						<path class="st8" d="M499.5,28.1c0.3,0,0.5-0.7,0.5-1.6c0-0.9-0.2-1.6-0.5-1.6c-0.3,0-0.5,0.7-0.5,1.6
							C498.9,27.4,499.2,28.1,499.5,28.1z"/>
					</g>
				</g>
				<g>
					<path class="st8" d="M497.9,35.3c-4,0-7.2-3.2-7.2-7.2c0-4,3.2-7.2,7.2-7.2c4,0,7.2,3.2,7.2,7.2
						C505.1,32.1,501.8,35.3,497.9,35.3z M497.9,21.3c-3.8,0-6.9,3.1-6.9,6.9c0,3.8,3.1,6.9,6.9,6.9c3.8,0,6.9-3.1,6.9-6.9
						C504.7,24.3,501.7,21.3,497.9,21.3z"/>
				</g>
				<g>
					<path class="st8" d="M501.6,27.5c-0.6,0-1.2,0.4-1.5,0.9c-0.7,0-1.4-0.1-2.2-0.1c-0.8,0-1.5,0-2.1,0.1
						c-0.3-0.6-0.8-0.9-1.5-0.9c-0.9,0-1.6,0.7-1.6,1.6c0,0.9,0.7,1.6,1.6,1.6c0.6,0,1.2-0.4,1.5-0.9c0.7,0,1.4,0.1,2.1,0.1
						c0.7,0,1.5,0,2.2-0.1c0.3,0.6,0.8,0.9,1.5,0.9c0.9,0,1.6-0.7,1.6-1.6C503.2,28.2,502.5,27.5,501.6,27.5z M494.4,30.5
						c-0.8,0-1.4-0.6-1.4-1.4s0.6-1.4,1.4-1.4c0.5,0,1,0.3,1.2,0.7c0,0,0,0-0.1,0c0,0-0.1,0-0.1,0c0,0-0.1,0-0.1,0c0,0-0.1,0-0.1,0
						c0,0-0.1,0-0.1,0c0,0-0.1,0-0.1,0c0,0-0.1,0-0.1,0c0,0-0.1,0-0.1,0c0,0-0.1,0-0.1,0c0,0-0.1,0-0.1,0c0,0-0.1,0-0.1,0
						c0,0-0.1,0-0.1,0c0,0-0.1,0-0.1,0c0,0-0.1,0-0.1,0c0,0-0.1,0-0.1,0c0,0-0.1,0-0.1,0c0,0-0.1,0-0.1,0c0,0,0,0-0.1,0
						c0,0,0,0-0.1,0c0,0,0,0-0.1,0c0,0,0,0-0.1,0c0,0,0,0,0,0c0,0,0,0,0,0c0,0,0,0,0,0c0,0,0,0,0,0c0,0,0,0,0,0c0,0,0,0,0,0
						c0,0,0,0,0,0c0,0,0,0,0,0c0,0,0,0,0,0c0,0,0,0,0,0.1c0,0,0,0,0,0c0,0,0,0,0,0c0,0,0,0,0,0c0,0,0,0,0,0c0,0,0,0,0,0c0,0,0,0,0,0
						c0,0,0,0,0,0c0,0,0,0,0,0c0,0,0,0,0,0c0,0,0,0,0,0s0,0,0,0c0,0,0,0,0,0c0,0,0,0,0,0c0,0,0,0,0,0c0,0,0,0,0,0c0,0,0,0,0,0
						c0,0,0,0,0,0c0,0,0,0,0,0c0,0,0,0,0,0c0,0,0,0,0,0c0,0,0,0,0,0c0,0,0,0,0,0c0,0,0,0,0,0c0,0,0,0,0,0c0,0,0,0,0,0c0,0,0,0,0,0
						c0,0,0,0,0,0c0,0,0,0,0,0c0,0,0,0,0,0c0,0,0,0,0,0c0,0,0,0,0,0c0,0,0,0,0,0c0,0,0,0,0,0c0,0,0,0,0,0c0,0,0,0,0,0c0,0,0,0,0,0
						c0,0,0,0,0,0c0,0,0,0,0,0c0,0,0,0,0,0c0,0,0,0,0.1,0c0,0,0,0,0,0c0,0,0,0,0.1,0c0,0,0,0,0.1,0c0,0,0,0,0.1,0c0,0,0,0,0.1,0
						c0,0,0,0,0.1,0c0,0,0,0,0.1,0c0,0,0.1,0,0.1,0c0,0,0,0,0.1,0c0,0,0.1,0,0.1,0c0,0,0,0,0.1,0c0,0,0.1,0,0.1,0c0,0,0,0,0.1,0
						c0,0,0.1,0,0.1,0c0,0,0,0,0.1,0c0,0,0.1,0,0.1,0c0,0,0.1,0,0.1,0c0,0,0.1,0,0.1,0c0,0,0.1,0,0.1,0c0,0,0.1,0,0.1,0
						c0,0,0.1,0,0.1,0c0,0,0,0,0,0C495.4,30.2,494.9,30.5,494.4,30.5z M495.8,29.5c-1.8-0.1-2.3-0.4-2.3-0.4c0,0,0,0,0.1-0.1
						c0.2-0.1,0.8-0.3,2.3-0.4c0.7,0,1.4-0.1,2.2-0.1c0.8,0,1.6,0,2.2,0.1c0.1,0,0.2,0,0.3,0c0,0,0.1,0,0.1,0c0.1,0,0.1,0,0.2,0
						c0.1,0,0.1,0,0.2,0c0,0,0.1,0,0.1,0c1,0.1,1.4,0.3,1.5,0.3c0,0,0,0,0,0c0,0,0,0,0,0c0,0,0,0,0,0c0,0,0,0,0,0c0,0,0,0,0,0
						c0,0,0,0,0,0c0,0,0,0,0,0c0,0,0,0,0,0c0,0,0,0,0,0c0,0,0,0,0,0c0,0,0,0,0,0c0,0,0,0,0,0c0,0,0,0,0,0c0,0,0,0-0.1,0
						c0,0,0,0-0.1,0c0,0,0,0-0.1,0c0,0,0,0-0.1,0c0,0,0,0-0.1,0c0,0-0.1,0-0.1,0c0,0-0.1,0-0.1,0c0,0-0.1,0-0.1,0c0,0-0.1,0-0.1,0
						c0,0-0.1,0-0.1,0c0,0-0.1,0-0.1,0c0,0-0.1,0-0.1,0c0,0-0.1,0-0.1,0c-0.1,0-0.1,0-0.2,0c0,0-0.1,0-0.1,0c-0.1,0-0.1,0-0.2,0
						c0,0-0.1,0-0.1,0c-0.1,0-0.2,0-0.3,0l0,0C498.8,29.6,497.2,29.6,495.8,29.5z M501.6,30.5c-0.5,0-1-0.3-1.2-0.7c0,0,0,0,0,0
						c0,0,0.1,0,0.1,0c0,0,0.1,0,0.1,0c0,0,0.1,0,0.1,0c0,0,0.1,0,0.1,0c0,0,0.1,0,0.1,0c0,0,0.1,0,0.1,0c0,0,0.1,0,0.1,0
						c0,0,0.1,0,0.1,0c0,0,0,0,0.1,0c0,0,0.1,0,0.1,0c0,0,0,0,0.1,0c0,0,0.1,0,0.1,0c0,0,0,0,0.1,0c0,0,0.1,0,0.1,0c0,0,0,0,0.1,0
						c0,0,0,0,0.1,0c0,0,0,0,0.1,0c0,0,0,0,0.1,0c0,0,0,0,0,0c0,0,0,0,0.1,0c0,0,0,0,0,0c0,0,0,0,0.1,0c0,0,0,0,0,0c0,0,0,0,0,0
						c0,0,0,0,0,0c0,0,0,0,0,0c0,0,0,0,0,0c0,0,0,0,0,0c0,0,0,0,0,0c0,0,0,0,0,0c0,0,0,0,0,0c0,0,0,0,0,0c0,0,0,0,0,0c0,0,0,0,0,0
						c0,0,0,0,0,0c0,0,0,0,0,0c0,0,0,0,0,0c0,0,0,0,0,0c0,0,0,0,0,0c0,0,0,0,0,0c0,0,0,0,0,0c0,0,0,0,0,0c0,0,0,0,0,0c0,0,0,0,0,0
						c0,0,0,0,0,0c0,0,0,0,0,0c0,0,0,0,0,0c0,0,0,0,0,0c0,0,0,0,0,0c0,0,0,0,0,0c0,0,0,0,0,0c0,0,0,0,0,0c0,0,0,0,0,0c0,0,0,0,0,0
						c0,0,0,0,0,0c0,0,0,0,0,0c0,0,0,0,0,0c0,0,0,0,0,0c0,0,0,0,0,0c0,0,0,0,0,0c0,0,0,0,0,0c0,0,0,0,0-0.1c0,0,0,0,0,0c0,0,0,0,0,0
						c0,0,0,0,0,0c0,0,0,0,0,0c0,0,0,0,0,0c0,0,0,0,0,0c0,0,0,0,0,0c0,0,0,0,0,0c0,0,0,0,0,0c0,0,0,0-0.1,0c0,0,0,0-0.1,0
						c0,0,0,0-0.1,0c0,0,0,0-0.1,0c0,0-0.1,0-0.1,0c0,0-0.1,0-0.1,0c0,0-0.1,0-0.1,0c0,0-0.1,0-0.1,0c0,0-0.1,0-0.1,0
						c0,0-0.1,0-0.1,0c0,0-0.1,0-0.1,0c0,0-0.1,0-0.1,0c0,0-0.1,0-0.1,0c0,0-0.1,0-0.1,0c0,0-0.1,0-0.1,0c0,0-0.1,0-0.1,0
						c0,0-0.1,0-0.1,0c0,0-0.1,0-0.1,0c0,0-0.1,0-0.1,0c0,0-0.1,0-0.1,0c0,0,0,0-0.1,0c0.2-0.4,0.7-0.7,1.2-0.7
						c0.8,0,1.4,0.6,1.4,1.4S502.4,30.5,501.6,30.5z"/>
					<path class="st8" d="M500.3,29c0-0.1-0.1-0.1-0.1-0.1c-0.7,0.1-1.4,0.2-2.1,0.2c0,0,0,0,0,0c-0.7,0-1.4-0.1-2.1-0.2
						c-0.1,0-0.1,0-0.1,0.1c0,0.1,0,0.1,0.1,0.1c0.7,0.1,1.5,0.2,2.2,0.2c0,0,0,0,0,0c0.7,0,1.5-0.1,2.2-0.2
						C500.2,29.1,500.3,29,500.3,29z"/>
				</g>
			</g>
		</g>
		<path class="st8" d="M408.8,35.2c-5.3-5.3-8.9-5.3-14.2,0c5.3-5.3,5.3-8.9,0-14.2c5.3,5.3,8.9,5.3,14.2,0
			C403.5,26.3,403.5,29.9,408.8,35.2z"/>
		<line class="st9" x1="521.6" y1="28.8" x2="605.2" y2="28.8"/>
		<line class="st9" x1="26.3" y1="28.8" x2="109.8" y2="28.8"/>
		<rect x="617.4" y="20.2" class="st1" width="146.2" height="18.7"/>
		<text transform="matrix(1 0 0 1 617.4006 35.5981)"><tspan x="0" y="0" class="st2 st3 st4">portafo</tspan><tspan x="137.6" y="0" class="st2 st3">-</tspan></text>
		<rect x="908.9" y="20.2" class="st1" width="83" height="18.7"/>
		<text transform="matrix(1 0 0 1 908.8704 35.5981)" class="st2 st3">MMXX</text>
		<g>
			<rect x="801.4" y="18.9" class="st1" width="65.5" height="18.1"/>
			<text transform="matrix(1 0 0 1 801.4055 36.4331)" class="st5 st6">202x</text>
		</g>
		<g>
			<g id="g5_00000083065763435181394370000017723423765328228525_">
				<circle id="circle7_00000031198325418242951710000012497819806201234103_" class="st7" cx="986.2" cy="28.1" r="9"/>
			</g>
			<g>
				<g>
					<g>
						<path class="st8" d="M984.6,28.1c0.3,0,0.5-0.7,0.5-1.6c0-0.9-0.2-1.6-0.5-1.6c-0.3,0-0.5,0.7-0.5,1.6S984.3,28.1,984.6,28.1z
							"/>
					</g>
					<g>
						<path class="st8" d="M987.7,28.1c0.3,0,0.5-0.7,0.5-1.6c0-0.9-0.2-1.6-0.5-1.6c-0.3,0-0.5,0.7-0.5,1.6
							C987.2,27.4,987.5,28.1,987.7,28.1z"/>
					</g>
				</g>
				<g>
					<path class="st8" d="M986.2,35.3c-4,0-7.2-3.2-7.2-7.2c0-4,3.2-7.2,7.2-7.2c4,0,7.2,3.2,7.2,7.2
						C993.4,32.1,990.1,35.3,986.2,35.3z M986.2,21.3c-3.8,0-6.9,3.1-6.9,6.9c0,3.8,3.1,6.9,6.9,6.9c3.8,0,6.9-3.1,6.9-6.9
						C993,24.3,990,21.3,986.2,21.3z"/>
				</g>
				<g>
					<path class="st8" d="M989.9,27.5c-0.6,0-1.2,0.4-1.5,0.9c-0.7,0-1.4-0.1-2.2-0.1c-0.8,0-1.5,0-2.1,0.1
						c-0.3-0.6-0.8-0.9-1.5-0.9c-0.9,0-1.6,0.7-1.6,1.6c0,0.9,0.7,1.6,1.6,1.6c0.6,0,1.2-0.4,1.5-0.9c0.7,0,1.4,0.1,2.1,0.1
						c0.7,0,1.5,0,2.2-0.1c0.3,0.6,0.8,0.9,1.5,0.9c0.9,0,1.6-0.7,1.6-1.6C991.5,28.2,990.8,27.5,989.9,27.5z M982.7,30.5
						c-0.8,0-1.4-0.6-1.4-1.4s0.6-1.4,1.4-1.4c0.5,0,1,0.3,1.2,0.7c0,0,0,0-0.1,0c0,0-0.1,0-0.1,0c0,0-0.1,0-0.1,0c0,0-0.1,0-0.1,0
						c0,0-0.1,0-0.1,0c0,0-0.1,0-0.1,0c0,0-0.1,0-0.1,0c0,0-0.1,0-0.1,0c0,0-0.1,0-0.1,0c0,0-0.1,0-0.1,0c0,0-0.1,0-0.1,0
						c0,0-0.1,0-0.1,0c0,0-0.1,0-0.1,0c0,0-0.1,0-0.1,0c0,0-0.1,0-0.1,0c0,0-0.1,0-0.1,0c0,0-0.1,0-0.1,0c0,0,0,0-0.1,0
						c0,0,0,0-0.1,0c0,0,0,0-0.1,0c0,0,0,0-0.1,0c0,0,0,0,0,0c0,0,0,0,0,0c0,0,0,0,0,0c0,0,0,0,0,0c0,0,0,0,0,0c0,0,0,0,0,0
						c0,0,0,0,0,0c0,0,0,0,0,0c0,0,0,0,0,0c0,0,0,0,0,0.1c0,0,0,0,0,0c0,0,0,0,0,0c0,0,0,0,0,0c0,0,0,0,0,0c0,0,0,0,0,0c0,0,0,0,0,0
						c0,0,0,0,0,0c0,0,0,0,0,0c0,0,0,0,0,0c0,0,0,0,0,0c0,0,0,0,0,0c0,0,0,0,0,0c0,0,0,0,0,0c0,0,0,0,0,0c0,0,0,0,0,0c0,0,0,0,0,0
						c0,0,0,0,0,0c0,0,0,0,0,0c0,0,0,0,0,0c0,0,0,0,0,0c0,0,0,0,0,0c0,0,0,0,0,0c0,0,0,0,0,0c0,0,0,0,0,0c0,0,0,0,0,0c0,0,0,0,0,0
						c0,0,0,0,0,0c0,0,0,0,0,0c0,0,0,0,0,0c0,0,0,0,0,0c0,0,0,0,0,0c0,0,0,0,0,0c0,0,0,0,0,0c0,0,0,0,0,0c0,0,0,0,0,0c0,0,0,0,0,0
						c0,0,0,0,0,0c0,0,0,0,0,0c0,0,0,0,0,0c0,0,0,0,0.1,0c0,0,0,0,0,0c0,0,0,0,0.1,0c0,0,0,0,0.1,0c0,0,0,0,0.1,0c0,0,0,0,0.1,0
						c0,0,0,0,0.1,0c0,0,0,0,0.1,0c0,0,0.1,0,0.1,0c0,0,0,0,0.1,0c0,0,0.1,0,0.1,0c0,0,0,0,0.1,0c0,0,0.1,0,0.1,0c0,0,0,0,0.1,0
						c0,0,0.1,0,0.1,0c0,0,0,0,0.1,0c0,0,0.1,0,0.1,0c0,0,0.1,0,0.1,0c0,0,0.1,0,0.1,0c0,0,0.1,0,0.1,0c0,0,0.1,0,0.1,0
						c0,0,0.1,0,0.1,0c0,0,0,0,0,0C983.7,30.2,983.2,30.5,982.7,30.5z M984.1,29.5c-1.8-0.1-2.3-0.4-2.3-0.4c0,0,0,0,0.1-0.1
						c0.2-0.1,0.8-0.3,2.3-0.4c0.7,0,1.4-0.1,2.2-0.1c0.8,0,1.6,0,2.2,0.1c0.1,0,0.2,0,0.3,0c0,0,0.1,0,0.1,0c0.1,0,0.1,0,0.2,0
						c0.1,0,0.1,0,0.2,0c0,0,0.1,0,0.1,0c1,0.1,1.4,0.3,1.5,0.3c0,0,0,0,0,0c0,0,0,0,0,0c0,0,0,0,0,0c0,0,0,0,0,0c0,0,0,0,0,0
						c0,0,0,0,0,0c0,0,0,0,0,0c0,0,0,0,0,0c0,0,0,0,0,0c0,0,0,0,0,0c0,0,0,0,0,0c0,0,0,0,0,0c0,0,0,0,0,0c0,0,0,0-0.1,0
						c0,0,0,0-0.1,0c0,0,0,0-0.1,0c0,0,0,0-0.1,0c0,0,0,0-0.1,0c0,0-0.1,0-0.1,0c0,0-0.1,0-0.1,0c0,0-0.1,0-0.1,0c0,0-0.1,0-0.1,0
						c0,0-0.1,0-0.1,0c0,0-0.1,0-0.1,0c0,0-0.1,0-0.1,0c0,0-0.1,0-0.1,0c-0.1,0-0.1,0-0.2,0c0,0-0.1,0-0.1,0c-0.1,0-0.1,0-0.2,0
						c0,0-0.1,0-0.1,0c-0.1,0-0.2,0-0.3,0l0,0C987.1,29.6,985.5,29.6,984.1,29.5z M989.9,30.5c-0.5,0-1-0.3-1.2-0.7c0,0,0,0,0,0
						c0,0,0.1,0,0.1,0c0,0,0.1,0,0.1,0c0,0,0.1,0,0.1,0c0,0,0.1,0,0.1,0c0,0,0.1,0,0.1,0c0,0,0.1,0,0.1,0c0,0,0.1,0,0.1,0
						c0,0,0.1,0,0.1,0c0,0,0,0,0.1,0c0,0,0.1,0,0.1,0c0,0,0,0,0.1,0c0,0,0.1,0,0.1,0c0,0,0,0,0.1,0c0,0,0.1,0,0.1,0c0,0,0,0,0.1,0
						c0,0,0,0,0.1,0c0,0,0,0,0.1,0c0,0,0,0,0.1,0c0,0,0,0,0,0c0,0,0,0,0.1,0c0,0,0,0,0,0c0,0,0,0,0.1,0c0,0,0,0,0,0c0,0,0,0,0,0
						c0,0,0,0,0,0c0,0,0,0,0,0c0,0,0,0,0,0c0,0,0,0,0,0c0,0,0,0,0,0c0,0,0,0,0,0c0,0,0,0,0,0c0,0,0,0,0,0c0,0,0,0,0,0c0,0,0,0,0,0
						c0,0,0,0,0,0c0,0,0,0,0,0c0,0,0,0,0,0c0,0,0,0,0,0c0,0,0,0,0,0c0,0,0,0,0,0c0,0,0,0,0,0c0,0,0,0,0,0c0,0,0,0,0,0c0,0,0,0,0,0
						c0,0,0,0,0,0c0,0,0,0,0,0c0,0,0,0,0,0c0,0,0,0,0,0c0,0,0,0,0,0c0,0,0,0,0,0c0,0,0,0,0,0c0,0,0,0,0,0c0,0,0,0,0,0c0,0,0,0,0,0
						c0,0,0,0,0,0c0,0,0,0,0,0c0,0,0,0,0,0c0,0,0,0,0,0c0,0,0,0,0,0c0,0,0,0,0,0c0,0,0,0,0,0c0,0,0,0,0-0.1c0,0,0,0,0,0c0,0,0,0,0,0
						c0,0,0,0,0,0c0,0,0,0,0,0c0,0,0,0,0,0c0,0,0,0,0,0c0,0,0,0,0,0c0,0,0,0,0,0c0,0,0,0,0,0c0,0,0,0-0.1,0c0,0,0,0-0.1,0
						c0,0,0,0-0.1,0c0,0,0,0-0.1,0c0,0-0.1,0-0.1,0c0,0-0.1,0-0.1,0c0,0-0.1,0-0.1,0c0,0-0.1,0-0.1,0c0,0-0.1,0-0.1,0
						c0,0-0.1,0-0.1,0c0,0-0.1,0-0.1,0c0,0-0.1,0-0.1,0c0,0-0.1,0-0.1,0c0,0-0.1,0-0.1,0c0,0-0.1,0-0.1,0c0,0-0.1,0-0.1,0
						c0,0-0.1,0-0.1,0c0,0-0.1,0-0.1,0c0,0-0.1,0-0.1,0c0,0-0.1,0-0.1,0c0,0,0,0-0.1,0c0.2-0.4,0.7-0.7,1.2-0.7
						c0.8,0,1.4,0.6,1.4,1.4S990.6,30.5,989.9,30.5z"/>
					<path class="st8" d="M988.6,29c0-0.1-0.1-0.1-0.1-0.1c-0.7,0.1-1.4,0.2-2.1,0.2c0,0,0,0,0,0c-0.7,0-1.4-0.1-2.1-0.2
						c-0.1,0-0.1,0-0.1,0.1c0,0.1,0,0.1,0.1,0.1c0.7,0.1,1.5,0.2,2.2,0.2c0,0,0,0,0,0c0.7,0,1.5-0.1,2.2-0.2
						C988.5,29.1,988.6,29,988.6,29z"/>
				</g>
			</g>
		</g>
		<g>
			<g id="g5_00000003104568527377982390000015730788380089338031_">
				<circle id="circle7_00000036946728414305066940000002967394354430138527_" class="st7" cx="753" cy="28.1" r="9"/>
			</g>
			<g>
				<g>
					<g>
						<path class="st8" d="M751.4,28.1c0.3,0,0.5-0.7,0.5-1.6c0-0.9-0.2-1.6-0.5-1.6c-0.3,0-0.5,0.7-0.5,1.6S751.1,28.1,751.4,28.1z
							"/>
					</g>
					<g>
						<path class="st8" d="M754.6,28.1c0.3,0,0.5-0.7,0.5-1.6c0-0.9-0.2-1.6-0.5-1.6c-0.3,0-0.5,0.7-0.5,1.6
							C754.1,27.4,754.3,28.1,754.6,28.1z"/>
					</g>
				</g>
				<g>
					<path class="st8" d="M753,35.3c-4,0-7.2-3.2-7.2-7.2c0-4,3.2-7.2,7.2-7.2c4,0,7.2,3.2,7.2,7.2C760.2,32.1,757,35.3,753,35.3z
						 M753,21.3c-3.8,0-6.9,3.1-6.9,6.9c0,3.8,3.1,6.9,6.9,6.9c3.8,0,6.9-3.1,6.9-6.9C759.9,24.3,756.8,21.3,753,21.3z"/>
				</g>
				<g>
					<path class="st8" d="M756.8,27.5c-0.6,0-1.2,0.4-1.5,0.9c-0.7,0-1.4-0.1-2.2-0.1c-0.8,0-1.5,0-2.1,0.1
						c-0.3-0.6-0.8-0.9-1.5-0.9c-0.9,0-1.6,0.7-1.6,1.6c0,0.9,0.7,1.6,1.6,1.6c0.6,0,1.2-0.4,1.5-0.9c0.7,0,1.4,0.1,2.1,0.1
						c0.7,0,1.5,0,2.2-0.1c0.3,0.6,0.8,0.9,1.5,0.9c0.9,0,1.6-0.7,1.6-1.6C758.4,28.2,757.6,27.5,756.8,27.5z M749.6,30.5
						c-0.8,0-1.4-0.6-1.4-1.4s0.6-1.4,1.4-1.4c0.5,0,1,0.3,1.2,0.7c0,0,0,0-0.1,0c0,0-0.1,0-0.1,0c0,0-0.1,0-0.1,0c0,0-0.1,0-0.1,0
						c0,0-0.1,0-0.1,0c0,0-0.1,0-0.1,0c0,0-0.1,0-0.1,0c0,0-0.1,0-0.1,0c0,0-0.1,0-0.1,0c0,0-0.1,0-0.1,0c0,0-0.1,0-0.1,0
						c0,0-0.1,0-0.1,0c0,0-0.1,0-0.1,0c0,0-0.1,0-0.1,0c0,0-0.1,0-0.1,0c0,0-0.1,0-0.1,0c0,0-0.1,0-0.1,0c0,0,0,0-0.1,0
						c0,0,0,0-0.1,0c0,0,0,0-0.1,0c0,0,0,0-0.1,0c0,0,0,0,0,0c0,0,0,0,0,0c0,0,0,0,0,0c0,0,0,0,0,0c0,0,0,0,0,0c0,0,0,0,0,0
						c0,0,0,0,0,0c0,0,0,0,0,0c0,0,0,0,0,0c0,0,0,0,0,0.1c0,0,0,0,0,0c0,0,0,0,0,0c0,0,0,0,0,0c0,0,0,0,0,0c0,0,0,0,0,0c0,0,0,0,0,0
						c0,0,0,0,0,0c0,0,0,0,0,0c0,0,0,0,0,0c0,0,0,0,0,0c0,0,0,0,0,0c0,0,0,0,0,0c0,0,0,0,0,0c0,0,0,0,0,0c0,0,0,0,0,0c0,0,0,0,0,0
						c0,0,0,0,0,0c0,0,0,0,0,0c0,0,0,0,0,0c0,0,0,0,0,0c0,0,0,0,0,0c0,0,0,0,0,0c0,0,0,0,0,0c0,0,0,0,0,0c0,0,0,0,0,0c0,0,0,0,0,0
						c0,0,0,0,0,0c0,0,0,0,0,0c0,0,0,0,0,0c0,0,0,0,0,0c0,0,0,0,0,0c0,0,0,0,0,0c0,0,0,0,0,0c0,0,0,0,0,0c0,0,0,0,0,0c0,0,0,0,0,0
						c0,0,0,0,0,0c0,0,0,0,0,0c0,0,0,0,0,0c0,0,0,0,0.1,0c0,0,0,0,0,0c0,0,0,0,0.1,0c0,0,0,0,0.1,0c0,0,0,0,0.1,0c0,0,0,0,0.1,0
						c0,0,0,0,0.1,0c0,0,0,0,0.1,0c0,0,0.1,0,0.1,0c0,0,0,0,0.1,0c0,0,0.1,0,0.1,0c0,0,0,0,0.1,0c0,0,0.1,0,0.1,0c0,0,0,0,0.1,0
						c0,0,0.1,0,0.1,0c0,0,0,0,0.1,0c0,0,0.1,0,0.1,0c0,0,0.1,0,0.1,0c0,0,0.1,0,0.1,0c0,0,0.1,0,0.1,0c0,0,0.1,0,0.1,0
						c0,0,0.1,0,0.1,0c0,0,0,0,0,0C750.5,30.2,750.1,30.5,749.6,30.5z M750.9,29.5c-1.8-0.1-2.3-0.4-2.3-0.4c0,0,0,0,0.1-0.1
						c0.2-0.1,0.8-0.3,2.3-0.4c0.7,0,1.4-0.1,2.2-0.1c0.8,0,1.6,0,2.2,0.1c0.1,0,0.2,0,0.3,0c0,0,0.1,0,0.1,0c0.1,0,0.1,0,0.2,0
						c0.1,0,0.1,0,0.2,0c0,0,0.1,0,0.1,0c1,0.1,1.4,0.3,1.5,0.3c0,0,0,0,0,0c0,0,0,0,0,0c0,0,0,0,0,0c0,0,0,0,0,0c0,0,0,0,0,0
						c0,0,0,0,0,0c0,0,0,0,0,0c0,0,0,0,0,0c0,0,0,0,0,0c0,0,0,0,0,0c0,0,0,0,0,0c0,0,0,0,0,0c0,0,0,0,0,0c0,0,0,0-0.1,0
						c0,0,0,0-0.1,0c0,0,0,0-0.1,0c0,0,0,0-0.1,0c0,0,0,0-0.1,0c0,0-0.1,0-0.1,0c0,0-0.1,0-0.1,0c0,0-0.1,0-0.1,0c0,0-0.1,0-0.1,0
						c0,0-0.1,0-0.1,0c0,0-0.1,0-0.1,0c0,0-0.1,0-0.1,0c0,0-0.1,0-0.1,0c-0.1,0-0.1,0-0.2,0c0,0-0.1,0-0.1,0c-0.1,0-0.1,0-0.2,0
						c0,0-0.1,0-0.1,0c-0.1,0-0.2,0-0.3,0l0,0C754,29.6,752.3,29.6,750.9,29.5z M756.8,30.5c-0.5,0-1-0.3-1.2-0.7c0,0,0,0,0,0
						c0,0,0.1,0,0.1,0c0,0,0.1,0,0.1,0c0,0,0.1,0,0.1,0c0,0,0.1,0,0.1,0c0,0,0.1,0,0.1,0c0,0,0.1,0,0.1,0c0,0,0.1,0,0.1,0
						c0,0,0.1,0,0.1,0c0,0,0,0,0.1,0c0,0,0.1,0,0.1,0c0,0,0,0,0.1,0c0,0,0.1,0,0.1,0c0,0,0,0,0.1,0c0,0,0.1,0,0.1,0c0,0,0,0,0.1,0
						c0,0,0,0,0.1,0c0,0,0,0,0.1,0c0,0,0,0,0.1,0c0,0,0,0,0,0c0,0,0,0,0.1,0c0,0,0,0,0,0c0,0,0,0,0.1,0c0,0,0,0,0,0c0,0,0,0,0,0
						c0,0,0,0,0,0c0,0,0,0,0,0c0,0,0,0,0,0c0,0,0,0,0,0c0,0,0,0,0,0c0,0,0,0,0,0c0,0,0,0,0,0c0,0,0,0,0,0c0,0,0,0,0,0c0,0,0,0,0,0
						c0,0,0,0,0,0c0,0,0,0,0,0c0,0,0,0,0,0c0,0,0,0,0,0c0,0,0,0,0,0c0,0,0,0,0,0c0,0,0,0,0,0c0,0,0,0,0,0c0,0,0,0,0,0c0,0,0,0,0,0
						c0,0,0,0,0,0c0,0,0,0,0,0c0,0,0,0,0,0c0,0,0,0,0,0c0,0,0,0,0,0c0,0,0,0,0,0c0,0,0,0,0,0c0,0,0,0,0,0c0,0,0,0,0,0c0,0,0,0,0,0
						c0,0,0,0,0,0c0,0,0,0,0,0c0,0,0,0,0,0c0,0,0,0,0,0c0,0,0,0,0,0c0,0,0,0,0,0c0,0,0,0,0,0c0,0,0,0,0-0.1c0,0,0,0,0,0c0,0,0,0,0,0
						c0,0,0,0,0,0c0,0,0,0,0,0c0,0,0,0,0,0c0,0,0,0,0,0c0,0,0,0,0,0c0,0,0,0,0,0c0,0,0,0,0,0c0,0,0,0-0.1,0c0,0,0,0-0.1,0
						c0,0,0,0-0.1,0c0,0,0,0-0.1,0c0,0-0.1,0-0.1,0c0,0-0.1,0-0.1,0c0,0-0.1,0-0.1,0c0,0-0.1,0-0.1,0c0,0-0.1,0-0.1,0
						c0,0-0.1,0-0.1,0c0,0-0.1,0-0.1,0c0,0-0.1,0-0.1,0c0,0-0.1,0-0.1,0c0,0-0.1,0-0.1,0c0,0-0.1,0-0.1,0c0,0-0.1,0-0.1,0
						c0,0-0.1,0-0.1,0c0,0-0.1,0-0.1,0c0,0-0.1,0-0.1,0c0,0-0.1,0-0.1,0c0,0,0,0-0.1,0c0.2-0.4,0.7-0.7,1.2-0.7
						c0.8,0,1.4,0.6,1.4,1.4S757.5,30.5,756.8,30.5z"/>
					<path class="st8" d="M755.4,29c0-0.1-0.1-0.1-0.1-0.1c-0.7,0.1-1.4,0.2-2.1,0.2c0,0,0,0,0,0c-0.7,0-1.4-0.1-2.1-0.2
						c-0.1,0-0.1,0-0.1,0.1c0,0.1,0,0.1,0.1,0.1c0.7,0.1,1.5,0.2,2.2,0.2c0,0,0,0,0,0c0.7,0,1.5-0.1,2.2-0.2
						C755.4,29.1,755.4,29,755.4,29z"/>
				</g>
			</g>
		</g>
		<g>
			<g id="g5_00000082326434871567820490000016328433160672607403_">
				<circle id="circle7_00000138541118782759434290000007140194427215102367_" class="st7" cx="264.8" cy="28.1" r="9"/>
			</g>
			<g>
				<g>
					<g>
						<path class="st8" d="M263.2,28.1c0.3,0,0.5-0.7,0.5-1.6c0-0.9-0.2-1.6-0.5-1.6c-0.3,0-0.5,0.7-0.5,1.6
							C262.6,27.4,262.9,28.1,263.2,28.1z"/>
					</g>
					<g>
						<path class="st8" d="M266.3,28.1c0.3,0,0.5-0.7,0.5-1.6c0-0.9-0.2-1.6-0.5-1.6c-0.3,0-0.5,0.7-0.5,1.6
							C265.8,27.4,266.1,28.1,266.3,28.1z"/>
					</g>
				</g>
				<g>
					<path class="st8" d="M264.8,35.3c-4,0-7.2-3.2-7.2-7.2c0-4,3.2-7.2,7.2-7.2c4,0,7.2,3.2,7.2,7.2
						C272,32.1,268.7,35.3,264.8,35.3z M264.8,21.3c-3.8,0-6.9,3.1-6.9,6.9c0,3.8,3.1,6.9,6.9,6.9c3.8,0,6.9-3.1,6.9-6.9
						C271.6,24.3,268.5,21.3,264.8,21.3z"/>
				</g>
				<g>
					<path class="st8" d="M268.5,27.5c-0.6,0-1.2,0.4-1.5,0.9c-0.7,0-1.4-0.1-2.2-0.1c-0.8,0-1.5,0-2.1,0.1
						c-0.3-0.6-0.8-0.9-1.5-0.9c-0.9,0-1.6,0.7-1.6,1.6c0,0.9,0.7,1.6,1.6,1.6c0.6,0,1.2-0.4,1.5-0.9c0.7,0,1.4,0.1,2.1,0.1
						c0.7,0,1.5,0,2.2-0.1c0.3,0.6,0.8,0.9,1.5,0.9c0.9,0,1.6-0.7,1.6-1.6C270.1,28.2,269.4,27.5,268.5,27.5z M261.3,30.5
						c-0.8,0-1.4-0.6-1.4-1.4s0.6-1.4,1.4-1.4c0.5,0,1,0.3,1.2,0.7c0,0,0,0-0.1,0c0,0-0.1,0-0.1,0c0,0-0.1,0-0.1,0c0,0-0.1,0-0.1,0
						c0,0-0.1,0-0.1,0c0,0-0.1,0-0.1,0c0,0-0.1,0-0.1,0c0,0-0.1,0-0.1,0c0,0-0.1,0-0.1,0c0,0-0.1,0-0.1,0c0,0-0.1,0-0.1,0
						c0,0-0.1,0-0.1,0c0,0-0.1,0-0.1,0c0,0-0.1,0-0.1,0c0,0-0.1,0-0.1,0c0,0-0.1,0-0.1,0c0,0-0.1,0-0.1,0c0,0,0,0-0.1,0
						c0,0,0,0-0.1,0c0,0,0,0-0.1,0c0,0,0,0-0.1,0c0,0,0,0,0,0c0,0,0,0,0,0c0,0,0,0,0,0c0,0,0,0,0,0c0,0,0,0,0,0c0,0,0,0,0,0
						c0,0,0,0,0,0c0,0,0,0,0,0c0,0,0,0,0,0c0,0,0,0,0,0.1c0,0,0,0,0,0c0,0,0,0,0,0c0,0,0,0,0,0c0,0,0,0,0,0c0,0,0,0,0,0c0,0,0,0,0,0
						c0,0,0,0,0,0c0,0,0,0,0,0c0,0,0,0,0,0c0,0,0,0,0,0s0,0,0,0c0,0,0,0,0,0c0,0,0,0,0,0c0,0,0,0,0,0c0,0,0,0,0,0c0,0,0,0,0,0
						c0,0,0,0,0,0c0,0,0,0,0,0c0,0,0,0,0,0c0,0,0,0,0,0c0,0,0,0,0,0c0,0,0,0,0,0c0,0,0,0,0,0c0,0,0,0,0,0c0,0,0,0,0,0c0,0,0,0,0,0
						c0,0,0,0,0,0c0,0,0,0,0,0c0,0,0,0,0,0c0,0,0,0,0,0c0,0,0,0,0,0c0,0,0,0,0,0c0,0,0,0,0,0c0,0,0,0,0,0c0,0,0,0,0,0c0,0,0,0,0,0
						c0,0,0,0,0,0c0,0,0,0,0,0c0,0,0,0,0,0c0,0,0,0,0.1,0c0,0,0,0,0,0c0,0,0,0,0.1,0c0,0,0,0,0.1,0c0,0,0,0,0.1,0c0,0,0,0,0.1,0
						c0,0,0,0,0.1,0c0,0,0,0,0.1,0c0,0,0.1,0,0.1,0c0,0,0,0,0.1,0c0,0,0.1,0,0.1,0c0,0,0,0,0.1,0c0,0,0.1,0,0.1,0c0,0,0,0,0.1,0
						c0,0,0.1,0,0.1,0c0,0,0,0,0.1,0c0,0,0.1,0,0.1,0c0,0,0.1,0,0.1,0c0,0,0.1,0,0.1,0c0,0,0.1,0,0.1,0c0,0,0.1,0,0.1,0
						c0,0,0.1,0,0.1,0c0,0,0,0,0,0C262.3,30.2,261.8,30.5,261.3,30.5z M262.7,29.5c-1.8-0.1-2.3-0.4-2.3-0.4c0,0,0,0,0.1-0.1
						c0.2-0.1,0.8-0.3,2.3-0.4c0.7,0,1.4-0.1,2.2-0.1c0.8,0,1.6,0,2.2,0.1c0.1,0,0.2,0,0.3,0c0,0,0.1,0,0.1,0c0.1,0,0.1,0,0.2,0
						c0.1,0,0.1,0,0.2,0c0,0,0.1,0,0.1,0c1,0.1,1.4,0.3,1.5,0.3c0,0,0,0,0,0c0,0,0,0,0,0c0,0,0,0,0,0c0,0,0,0,0,0c0,0,0,0,0,0
						c0,0,0,0,0,0c0,0,0,0,0,0c0,0,0,0,0,0c0,0,0,0,0,0c0,0,0,0,0,0c0,0,0,0,0,0c0,0,0,0,0,0c0,0,0,0,0,0c0,0,0,0-0.1,0
						c0,0,0,0-0.1,0c0,0,0,0-0.1,0c0,0,0,0-0.1,0c0,0,0,0-0.1,0c0,0-0.1,0-0.1,0c0,0-0.1,0-0.1,0c0,0-0.1,0-0.1,0c0,0-0.1,0-0.1,0
						c0,0-0.1,0-0.1,0c0,0-0.1,0-0.1,0c0,0-0.1,0-0.1,0c0,0-0.1,0-0.1,0c-0.1,0-0.1,0-0.2,0c0,0-0.1,0-0.1,0c-0.1,0-0.1,0-0.2,0
						c0,0-0.1,0-0.1,0c-0.1,0-0.2,0-0.3,0l0,0C265.7,29.6,264,29.6,262.7,29.5z M268.5,30.5c-0.5,0-1-0.3-1.2-0.7c0,0,0,0,0,0
						c0,0,0.1,0,0.1,0c0,0,0.1,0,0.1,0c0,0,0.1,0,0.1,0c0,0,0.1,0,0.1,0c0,0,0.1,0,0.1,0c0,0,0.1,0,0.1,0c0,0,0.1,0,0.1,0
						c0,0,0.1,0,0.1,0c0,0,0,0,0.1,0c0,0,0.1,0,0.1,0c0,0,0,0,0.1,0c0,0,0.1,0,0.1,0c0,0,0,0,0.1,0c0,0,0.1,0,0.1,0c0,0,0,0,0.1,0
						c0,0,0,0,0.1,0c0,0,0,0,0.1,0c0,0,0,0,0.1,0c0,0,0,0,0,0c0,0,0,0,0.1,0c0,0,0,0,0,0c0,0,0,0,0.1,0c0,0,0,0,0,0c0,0,0,0,0,0
						c0,0,0,0,0,0c0,0,0,0,0,0c0,0,0,0,0,0c0,0,0,0,0,0c0,0,0,0,0,0c0,0,0,0,0,0c0,0,0,0,0,0c0,0,0,0,0,0c0,0,0,0,0,0c0,0,0,0,0,0
						c0,0,0,0,0,0c0,0,0,0,0,0c0,0,0,0,0,0c0,0,0,0,0,0c0,0,0,0,0,0c0,0,0,0,0,0c0,0,0,0,0,0c0,0,0,0,0,0c0,0,0,0,0,0c0,0,0,0,0,0
						c0,0,0,0,0,0c0,0,0,0,0,0c0,0,0,0,0,0c0,0,0,0,0,0c0,0,0,0,0,0c0,0,0,0,0,0c0,0,0,0,0,0c0,0,0,0,0,0c0,0,0,0,0,0c0,0,0,0,0,0
						c0,0,0,0,0,0c0,0,0,0,0,0c0,0,0,0,0,0c0,0,0,0,0,0c0,0,0,0,0,0c0,0,0,0,0,0c0,0,0,0,0,0c0,0,0,0,0-0.1c0,0,0,0,0,0c0,0,0,0,0,0
						c0,0,0,0,0,0c0,0,0,0,0,0c0,0,0,0,0,0c0,0,0,0,0,0c0,0,0,0,0,0c0,0,0,0,0,0c0,0,0,0,0,0c0,0,0,0-0.1,0c0,0,0,0-0.1,0
						c0,0,0,0-0.1,0c0,0,0,0-0.1,0c0,0-0.1,0-0.1,0c0,0-0.1,0-0.1,0c0,0-0.1,0-0.1,0c0,0-0.1,0-0.1,0c0,0-0.1,0-0.1,0
						c0,0-0.1,0-0.1,0c0,0-0.1,0-0.1,0c0,0-0.1,0-0.1,0c0,0-0.1,0-0.1,0c0,0-0.1,0-0.1,0c0,0-0.1,0-0.1,0c0,0-0.1,0-0.1,0
						c0,0-0.1,0-0.1,0c0,0-0.1,0-0.1,0c0,0-0.1,0-0.1,0c0,0-0.1,0-0.1,0c0,0,0,0-0.1,0c0.2-0.4,0.7-0.7,1.2-0.7
						c0.8,0,1.4,0.6,1.4,1.4S269.2,30.5,268.5,30.5z"/>
					<path class="st8" d="M267.2,29c0-0.1-0.1-0.1-0.1-0.1c-0.7,0.1-1.4,0.2-2.1,0.2c0,0,0,0,0,0c-0.7,0-1.4-0.1-2.1-0.2
						c-0.1,0-0.1,0-0.1,0.1c0,0.1,0,0.1,0.1,0.1c0.7,0.1,1.5,0.2,2.2,0.2c0,0,0,0,0,0c0.7,0,1.5-0.1,2.2-0.2
						C267.1,29.1,267.2,29,267.2,29z"/>
				</g>
			</g>
		</g>
		<path class="st8" d="M897.1,35.2c-5.3-5.3-8.9-5.3-14.2,0c5.3-5.3,5.3-8.9,0-14.2c5.3,5.3,8.9,5.3,14.2,0
			C891.8,26.3,891.8,29.9,897.1,35.2z"/>
		<rect x="1117.6" y="20.2" class="st1" width="146.2" height="18.7"/>
		<text transform="matrix(1 0 0 1 1117.5764 35.5981)"><tspan x="0" y="0" class="st2 st3 st4">portafo</tspan><tspan x="137.6" y="0" class="st2 st3">-</tspan></text>
		<rect x="1409" y="20.2" class="st1" width="83" height="18.7"/>
		<text transform="matrix(1 0 0 1 1409.0471 35.5981)" class="st2 st3">MMXX</text>
		<g>
			<rect x="1301.6" y="18.9" class="st1" width="65.5" height="18.1"/>
			<text transform="matrix(1 0 0 1 1301.5823 36.4331)" class="st5 st6">202x</text>
		</g>
		<g>
			<g id="g5_00000078759138588921635460000008818340436587423911_">
				<circle id="circle7_00000153687277859996124300000003012525288559294605_" class="st7" cx="1486.3" cy="28.1" r="9"/>
			</g>
			<g>
				<g>
					<g>
						<path class="st8" d="M1484.7,28.1c0.3,0,0.5-0.7,0.5-1.6c0-0.9-0.2-1.6-0.5-1.6c-0.3,0-0.5,0.7-0.5,1.6
							S1484.4,28.1,1484.7,28.1z"/>
					</g>
					<g>
						<path class="st8" d="M1487.9,28.1c0.3,0,0.5-0.7,0.5-1.6c0-0.9-0.2-1.6-0.5-1.6c-0.3,0-0.5,0.7-0.5,1.6
							C1487.4,27.4,1487.6,28.1,1487.9,28.1z"/>
					</g>
				</g>
				<g>
					<path class="st8" d="M1486.3,35.3c-4,0-7.2-3.2-7.2-7.2c0-4,3.2-7.2,7.2-7.2c4,0,7.2,3.2,7.2,7.2
						C1493.6,32.1,1490.3,35.3,1486.3,35.3z M1486.3,21.3c-3.8,0-6.9,3.1-6.9,6.9c0,3.8,3.1,6.9,6.9,6.9c3.8,0,6.9-3.1,6.9-6.9
						C1493.2,24.3,1490.1,21.3,1486.3,21.3z"/>
				</g>
				<g>
					<path class="st8" d="M1490.1,27.5c-0.6,0-1.2,0.4-1.5,0.9c-0.7,0-1.4-0.1-2.2-0.1c-0.8,0-1.5,0-2.1,0.1
						c-0.3-0.6-0.8-0.9-1.5-0.9c-0.9,0-1.6,0.7-1.6,1.6c0,0.9,0.7,1.6,1.6,1.6c0.6,0,1.2-0.4,1.5-0.9c0.7,0,1.4,0.1,2.1,0.1
						c0.7,0,1.5,0,2.2-0.1c0.3,0.6,0.8,0.9,1.5,0.9c0.9,0,1.6-0.7,1.6-1.6C1491.7,28.2,1491,27.5,1490.1,27.5z M1482.9,30.5
						c-0.8,0-1.4-0.6-1.4-1.4s0.6-1.4,1.4-1.4c0.5,0,1,0.3,1.2,0.7c0,0,0,0-0.1,0c0,0-0.1,0-0.1,0c0,0-0.1,0-0.1,0c0,0-0.1,0-0.1,0
						c0,0-0.1,0-0.1,0c0,0-0.1,0-0.1,0c0,0-0.1,0-0.1,0c0,0-0.1,0-0.1,0c0,0-0.1,0-0.1,0c0,0-0.1,0-0.1,0c0,0-0.1,0-0.1,0
						c0,0-0.1,0-0.1,0c0,0-0.1,0-0.1,0c0,0-0.1,0-0.1,0c0,0-0.1,0-0.1,0c0,0-0.1,0-0.1,0c0,0-0.1,0-0.1,0c0,0,0,0-0.1,0
						c0,0,0,0-0.1,0c0,0,0,0-0.1,0c0,0,0,0-0.1,0c0,0,0,0,0,0c0,0,0,0,0,0c0,0,0,0,0,0c0,0,0,0,0,0c0,0,0,0,0,0c0,0,0,0,0,0
						c0,0,0,0,0,0c0,0,0,0,0,0c0,0,0,0,0,0c0,0,0,0,0,0.1c0,0,0,0,0,0c0,0,0,0,0,0c0,0,0,0,0,0c0,0,0,0,0,0c0,0,0,0,0,0c0,0,0,0,0,0
						c0,0,0,0,0,0c0,0,0,0,0,0c0,0,0,0,0,0c0,0,0,0,0,0s0,0,0,0c0,0,0,0,0,0c0,0,0,0,0,0c0,0,0,0,0,0c0,0,0,0,0,0c0,0,0,0,0,0
						c0,0,0,0,0,0c0,0,0,0,0,0c0,0,0,0,0,0c0,0,0,0,0,0c0,0,0,0,0,0c0,0,0,0,0,0c0,0,0,0,0,0c0,0,0,0,0,0c0,0,0,0,0,0c0,0,0,0,0,0
						c0,0,0,0,0,0c0,0,0,0,0,0c0,0,0,0,0,0c0,0,0,0,0,0c0,0,0,0,0,0c0,0,0,0,0,0c0,0,0,0,0,0c0,0,0,0,0,0c0,0,0,0,0,0c0,0,0,0,0,0
						c0,0,0,0,0,0c0,0,0,0,0,0c0,0,0,0,0,0c0,0,0,0,0.1,0c0,0,0,0,0,0c0,0,0,0,0.1,0c0,0,0,0,0.1,0c0,0,0,0,0.1,0c0,0,0,0,0.1,0
						c0,0,0,0,0.1,0c0,0,0,0,0.1,0c0,0,0.1,0,0.1,0c0,0,0,0,0.1,0c0,0,0.1,0,0.1,0c0,0,0,0,0.1,0c0,0,0.1,0,0.1,0c0,0,0,0,0.1,0
						c0,0,0.1,0,0.1,0c0,0,0,0,0.1,0c0,0,0.1,0,0.1,0c0,0,0.1,0,0.1,0c0,0,0.1,0,0.1,0c0,0,0.1,0,0.1,0c0,0,0.1,0,0.1,0
						c0,0,0.1,0,0.1,0c0,0,0,0,0,0C1483.8,30.2,1483.4,30.5,1482.9,30.5z M1484.3,29.5c-1.8-0.1-2.3-0.4-2.3-0.4c0,0,0,0,0.1-0.1
						c0.2-0.1,0.8-0.3,2.3-0.4c0.7,0,1.4-0.1,2.2-0.1c0.8,0,1.6,0,2.2,0.1c0.1,0,0.2,0,0.3,0c0,0,0.1,0,0.1,0c0.1,0,0.1,0,0.2,0
						c0.1,0,0.1,0,0.2,0c0,0,0.1,0,0.1,0c1,0.1,1.4,0.3,1.5,0.3c0,0,0,0,0,0c0,0,0,0,0,0c0,0,0,0,0,0c0,0,0,0,0,0c0,0,0,0,0,0
						c0,0,0,0,0,0c0,0,0,0,0,0c0,0,0,0,0,0c0,0,0,0,0,0c0,0,0,0,0,0c0,0,0,0,0,0c0,0,0,0,0,0c0,0,0,0,0,0c0,0,0,0-0.1,0
						c0,0,0,0-0.1,0c0,0,0,0-0.1,0c0,0,0,0-0.1,0c0,0,0,0-0.1,0c0,0-0.1,0-0.1,0c0,0-0.1,0-0.1,0c0,0-0.1,0-0.1,0c0,0-0.1,0-0.1,0
						c0,0-0.1,0-0.1,0c0,0-0.1,0-0.1,0c0,0-0.1,0-0.1,0c0,0-0.1,0-0.1,0c-0.1,0-0.1,0-0.2,0c0,0-0.1,0-0.1,0c-0.1,0-0.1,0-0.2,0
						c0,0-0.1,0-0.1,0c-0.1,0-0.2,0-0.3,0l0,0C1487.3,29.6,1485.6,29.6,1484.3,29.5z M1490.1,30.5c-0.5,0-1-0.3-1.2-0.7c0,0,0,0,0,0
						c0,0,0.1,0,0.1,0c0,0,0.1,0,0.1,0c0,0,0.1,0,0.1,0c0,0,0.1,0,0.1,0c0,0,0.1,0,0.1,0c0,0,0.1,0,0.1,0c0,0,0.1,0,0.1,0
						c0,0,0.1,0,0.1,0c0,0,0,0,0.1,0c0,0,0.1,0,0.1,0c0,0,0,0,0.1,0c0,0,0.1,0,0.1,0c0,0,0,0,0.1,0c0,0,0.1,0,0.1,0c0,0,0,0,0.1,0
						c0,0,0,0,0.1,0c0,0,0,0,0.1,0c0,0,0,0,0.1,0c0,0,0,0,0,0c0,0,0,0,0.1,0c0,0,0,0,0,0c0,0,0,0,0.1,0c0,0,0,0,0,0c0,0,0,0,0,0
						c0,0,0,0,0,0c0,0,0,0,0,0c0,0,0,0,0,0c0,0,0,0,0,0c0,0,0,0,0,0c0,0,0,0,0,0c0,0,0,0,0,0c0,0,0,0,0,0c0,0,0,0,0,0c0,0,0,0,0,0
						c0,0,0,0,0,0c0,0,0,0,0,0c0,0,0,0,0,0c0,0,0,0,0,0c0,0,0,0,0,0c0,0,0,0,0,0c0,0,0,0,0,0c0,0,0,0,0,0c0,0,0,0,0,0c0,0,0,0,0,0
						c0,0,0,0,0,0c0,0,0,0,0,0c0,0,0,0,0,0c0,0,0,0,0,0c0,0,0,0,0,0c0,0,0,0,0,0c0,0,0,0,0,0c0,0,0,0,0,0c0,0,0,0,0,0c0,0,0,0,0,0
						c0,0,0,0,0,0c0,0,0,0,0,0c0,0,0,0,0,0c0,0,0,0,0,0c0,0,0,0,0,0c0,0,0,0,0,0c0,0,0,0,0,0c0,0,0,0,0-0.1c0,0,0,0,0,0c0,0,0,0,0,0
						c0,0,0,0,0,0c0,0,0,0,0,0c0,0,0,0,0,0c0,0,0,0,0,0c0,0,0,0,0,0c0,0,0,0,0,0c0,0,0,0,0,0c0,0,0,0-0.1,0c0,0,0,0-0.1,0
						c0,0,0,0-0.1,0c0,0,0,0-0.1,0c0,0-0.1,0-0.1,0c0,0-0.1,0-0.1,0c0,0-0.1,0-0.1,0c0,0-0.1,0-0.1,0c0,0-0.1,0-0.1,0
						c0,0-0.1,0-0.1,0c0,0-0.1,0-0.1,0c0,0-0.1,0-0.1,0c0,0-0.1,0-0.1,0c0,0-0.1,0-0.1,0c0,0-0.1,0-0.1,0c0,0-0.1,0-0.1,0
						c0,0-0.1,0-0.1,0c0,0-0.1,0-0.1,0c0,0-0.1,0-0.1,0c0,0-0.1,0-0.1,0c0,0,0,0-0.1,0c0.2-0.4,0.7-0.7,1.2-0.7
						c0.8,0,1.4,0.6,1.4,1.4S1490.8,30.5,1490.1,30.5z"/>
					<path class="st8" d="M1488.7,29c0-0.1-0.1-0.1-0.1-0.1c-0.7,0.1-1.4,0.2-2.1,0.2c0,0,0,0,0,0c-0.7,0-1.4-0.1-2.1-0.2
						c-0.1,0-0.1,0-0.1,0.1c0,0.1,0,0.1,0.1,0.1c0.7,0.1,1.5,0.2,2.2,0.2c0,0,0,0,0,0c0.7,0,1.5-0.1,2.2-0.2
						C1488.7,29.1,1488.8,29,1488.7,29z"/>
				</g>
			</g>
		</g>
		<path class="st8" d="M1397.3,35.2c-5.3-5.3-8.9-5.3-14.2,0c5.3-5.3,5.3-8.9,0-14.2c5.3,5.3,8.9,5.3,14.2,0
			C1392,26.3,1392,29.9,1397.3,35.2z"/>
		<rect x="1605.9" y="20.2" class="st1" width="146.2" height="18.7"/>
		<text transform="matrix(1 0 0 1 1605.8713 35.5981)"><tspan x="0" y="0" class="st2 st3 st4">portafo</tspan><tspan x="137.6" y="0" class="st2 st3">-</tspan></text>
		<rect x="1897.3" y="20.2" class="st1" width="83" height="18.7"/>
		<text transform="matrix(1 0 0 1 1897.3411 35.5981)" class="st2 st3">MMXX</text>
		<g>
			<rect x="1789.9" y="18.9" class="st1" width="65.5" height="18.1"/>
			<text transform="matrix(1 0 0 1 1789.8762 36.4331)" class="st5 st6">202x</text>
		</g>
		<g>
			<g id="g5_00000013882548571338669100000013156144161525904277_">
				<circle id="circle7_00000052073611584350588600000017040584133106918287_" class="st7" cx="1974.6" cy="28.1" r="9"/>
			</g>
			<g>
				<g>
					<g>
						<path class="st8" d="M1973,28.1c0.3,0,0.5-0.7,0.5-1.6c0-0.9-0.2-1.6-0.5-1.6c-0.3,0-0.5,0.7-0.5,1.6
							C1972.5,27.4,1972.7,28.1,1973,28.1z"/>
					</g>
					<g>
						<path class="st8" d="M1976.2,28.1c0.3,0,0.5-0.7,0.5-1.6c0-0.9-0.2-1.6-0.5-1.6c-0.3,0-0.5,0.7-0.5,1.6
							C1975.7,27.4,1975.9,28.1,1976.2,28.1z"/>
					</g>
				</g>
				<g>
					<path class="st8" d="M1974.6,35.3c-4,0-7.2-3.2-7.2-7.2c0-4,3.2-7.2,7.2-7.2c4,0,7.2,3.2,7.2,7.2
						C1981.8,32.1,1978.6,35.3,1974.6,35.3z M1974.6,21.3c-3.8,0-6.9,3.1-6.9,6.9c0,3.8,3.1,6.9,6.9,6.9c3.8,0,6.9-3.1,6.9-6.9
						C1981.5,24.3,1978.4,21.3,1974.6,21.3z"/>
				</g>
				<g>
					<path class="st8" d="M1978.4,27.5c-0.6,0-1.2,0.4-1.5,0.9c-0.7,0-1.4-0.1-2.2-0.1c-0.8,0-1.5,0-2.1,0.1
						c-0.3-0.6-0.8-0.9-1.5-0.9c-0.9,0-1.6,0.7-1.6,1.6c0,0.9,0.7,1.6,1.6,1.6c0.6,0,1.2-0.4,1.5-0.9c0.7,0,1.4,0.1,2.1,0.1
						c0.7,0,1.5,0,2.2-0.1c0.3,0.6,0.8,0.9,1.5,0.9c0.9,0,1.6-0.7,1.6-1.6C1980,28.2,1979.2,27.5,1978.4,27.5z M1971.2,30.5
						c-0.8,0-1.4-0.6-1.4-1.4s0.6-1.4,1.4-1.4c0.5,0,1,0.3,1.2,0.7c0,0,0,0-0.1,0c0,0-0.1,0-0.1,0c0,0-0.1,0-0.1,0c0,0-0.1,0-0.1,0
						c0,0-0.1,0-0.1,0c0,0-0.1,0-0.1,0c0,0-0.1,0-0.1,0c0,0-0.1,0-0.1,0c0,0-0.1,0-0.1,0c0,0-0.1,0-0.1,0c0,0-0.1,0-0.1,0
						c0,0-0.1,0-0.1,0c0,0-0.1,0-0.1,0c0,0-0.1,0-0.1,0c0,0-0.1,0-0.1,0c0,0-0.1,0-0.1,0c0,0-0.1,0-0.1,0c0,0,0,0-0.1,0
						c0,0,0,0-0.1,0c0,0,0,0-0.1,0c0,0,0,0-0.1,0c0,0,0,0,0,0c0,0,0,0,0,0c0,0,0,0,0,0c0,0,0,0,0,0c0,0,0,0,0,0c0,0,0,0,0,0
						c0,0,0,0,0,0c0,0,0,0,0,0c0,0,0,0,0,0c0,0,0,0,0,0.1c0,0,0,0,0,0c0,0,0,0,0,0c0,0,0,0,0,0c0,0,0,0,0,0c0,0,0,0,0,0c0,0,0,0,0,0
						c0,0,0,0,0,0c0,0,0,0,0,0c0,0,0,0,0,0c0,0,0,0,0,0c0,0,0,0,0,0c0,0,0,0,0,0c0,0,0,0,0,0c0,0,0,0,0,0c0,0,0,0,0,0c0,0,0,0,0,0
						c0,0,0,0,0,0c0,0,0,0,0,0c0,0,0,0,0,0c0,0,0,0,0,0c0,0,0,0,0,0c0,0,0,0,0,0c0,0,0,0,0,0c0,0,0,0,0,0c0,0,0,0,0,0c0,0,0,0,0,0
						c0,0,0,0,0,0c0,0,0,0,0,0c0,0,0,0,0,0c0,0,0,0,0,0c0,0,0,0,0,0c0,0,0,0,0,0c0,0,0,0,0,0c0,0,0,0,0,0c0,0,0,0,0,0c0,0,0,0,0,0
						c0,0,0,0,0,0c0,0,0,0,0,0c0,0,0,0,0,0c0,0,0,0,0.1,0c0,0,0,0,0,0c0,0,0,0,0.1,0c0,0,0,0,0.1,0c0,0,0,0,0.1,0c0,0,0,0,0.1,0
						c0,0,0,0,0.1,0c0,0,0,0,0.1,0c0,0,0.1,0,0.1,0c0,0,0,0,0.1,0c0,0,0.1,0,0.1,0c0,0,0,0,0.1,0c0,0,0.1,0,0.1,0c0,0,0,0,0.1,0
						c0,0,0.1,0,0.1,0c0,0,0,0,0.1,0c0,0,0.1,0,0.1,0c0,0,0.1,0,0.1,0c0,0,0.1,0,0.1,0c0,0,0.1,0,0.1,0c0,0,0.1,0,0.1,0
						c0,0,0.1,0,0.1,0c0,0,0,0,0,0C1972.1,30.2,1971.7,30.5,1971.2,30.5z M1972.5,29.5c-1.8-0.1-2.3-0.4-2.3-0.4c0,0,0,0,0.1-0.1
						c0.2-0.1,0.8-0.3,2.3-0.4c0.7,0,1.4-0.1,2.2-0.1c0.8,0,1.6,0,2.2,0.1c0.1,0,0.2,0,0.3,0c0,0,0.1,0,0.1,0c0.1,0,0.1,0,0.2,0
						c0.1,0,0.1,0,0.2,0c0,0,0.1,0,0.1,0c1,0.1,1.4,0.3,1.5,0.3c0,0,0,0,0,0c0,0,0,0,0,0c0,0,0,0,0,0c0,0,0,0,0,0c0,0,0,0,0,0
						c0,0,0,0,0,0c0,0,0,0,0,0c0,0,0,0,0,0c0,0,0,0,0,0c0,0,0,0,0,0c0,0,0,0,0,0c0,0,0,0,0,0c0,0,0,0,0,0c0,0,0,0-0.1,0
						c0,0,0,0-0.1,0c0,0,0,0-0.1,0c0,0,0,0-0.1,0c0,0,0,0-0.1,0c0,0-0.1,0-0.1,0c0,0-0.1,0-0.1,0c0,0-0.1,0-0.1,0c0,0-0.1,0-0.1,0
						c0,0-0.1,0-0.1,0c0,0-0.1,0-0.1,0c0,0-0.1,0-0.1,0c0,0-0.1,0-0.1,0c-0.1,0-0.1,0-0.2,0c0,0-0.1,0-0.1,0c-0.1,0-0.1,0-0.2,0
						c0,0-0.1,0-0.1,0c-0.1,0-0.2,0-0.3,0l0,0C1975.6,29.6,1973.9,29.6,1972.5,29.5z M1978.4,30.5c-0.5,0-1-0.3-1.2-0.7c0,0,0,0,0,0
						c0,0,0.1,0,0.1,0c0,0,0.1,0,0.1,0c0,0,0.1,0,0.1,0c0,0,0.1,0,0.1,0c0,0,0.1,0,0.1,0c0,0,0.1,0,0.1,0c0,0,0.1,0,0.1,0
						c0,0,0.1,0,0.1,0c0,0,0,0,0.1,0c0,0,0.1,0,0.1,0c0,0,0,0,0.1,0c0,0,0.1,0,0.1,0c0,0,0,0,0.1,0c0,0,0.1,0,0.1,0c0,0,0,0,0.1,0
						c0,0,0,0,0.1,0c0,0,0,0,0.1,0c0,0,0,0,0.1,0c0,0,0,0,0,0c0,0,0,0,0.1,0c0,0,0,0,0,0c0,0,0,0,0.1,0c0,0,0,0,0,0c0,0,0,0,0,0
						c0,0,0,0,0,0c0,0,0,0,0,0c0,0,0,0,0,0c0,0,0,0,0,0c0,0,0,0,0,0c0,0,0,0,0,0c0,0,0,0,0,0c0,0,0,0,0,0c0,0,0,0,0,0c0,0,0,0,0,0
						c0,0,0,0,0,0c0,0,0,0,0,0c0,0,0,0,0,0c0,0,0,0,0,0c0,0,0,0,0,0c0,0,0,0,0,0c0,0,0,0,0,0c0,0,0,0,0,0c0,0,0,0,0,0c0,0,0,0,0,0
						c0,0,0,0,0,0c0,0,0,0,0,0c0,0,0,0,0,0c0,0,0,0,0,0c0,0,0,0,0,0c0,0,0,0,0,0c0,0,0,0,0,0c0,0,0,0,0,0c0,0,0,0,0,0c0,0,0,0,0,0
						c0,0,0,0,0,0c0,0,0,0,0,0c0,0,0,0,0,0c0,0,0,0,0,0c0,0,0,0,0,0c0,0,0,0,0,0c0,0,0,0,0,0c0,0,0,0,0-0.1c0,0,0,0,0,0c0,0,0,0,0,0
						c0,0,0,0,0,0c0,0,0,0,0,0c0,0,0,0,0,0c0,0,0,0,0,0c0,0,0,0,0,0c0,0,0,0,0,0c0,0,0,0,0,0c0,0,0,0-0.1,0c0,0,0,0-0.1,0
						c0,0,0,0-0.1,0c0,0,0,0-0.1,0c0,0-0.1,0-0.1,0c0,0-0.1,0-0.1,0c0,0-0.1,0-0.1,0c0,0-0.1,0-0.1,0c0,0-0.1,0-0.1,0
						c0,0-0.1,0-0.1,0c0,0-0.1,0-0.1,0c0,0-0.1,0-0.1,0c0,0-0.1,0-0.1,0c0,0-0.1,0-0.1,0c0,0-0.1,0-0.1,0c0,0-0.1,0-0.1,0
						c0,0-0.1,0-0.1,0c0,0-0.1,0-0.1,0c0,0-0.1,0-0.1,0c0,0-0.1,0-0.1,0c0,0,0,0-0.1,0c0.2-0.4,0.7-0.7,1.2-0.7
						c0.8,0,1.4,0.6,1.4,1.4S1979.1,30.5,1978.4,30.5z"/>
					<path class="st8" d="M1977,29c0-0.1-0.1-0.1-0.1-0.1c-0.7,0.1-1.4,0.2-2.1,0.2c0,0,0,0,0,0c-0.7,0-1.4-0.1-2.1-0.2
						c-0.1,0-0.1,0-0.1,0.1c0,0.1,0,0.1,0.1,0.1c0.7,0.1,1.5,0.2,2.2,0.2c0,0,0,0,0,0c0.7,0,1.5-0.1,2.2-0.2
						C1977,29.1,1977,29,1977,29z"/>
				</g>
			</g>
		</g>
		<g>
			<g id="g5_00000035518589313509367520000002988640226506078122_">
				<circle id="circle7_00000035518238109234565130000016366177315927554963_" class="st7" cx="1741.5" cy="28.1" r="9"/>
			</g>
			<g>
				<g>
					<g>
						<path class="st8" d="M1739.9,28.1c0.3,0,0.5-0.7,0.5-1.6c0-0.9-0.2-1.6-0.5-1.6c-0.3,0-0.5,0.7-0.5,1.6
							C1739.4,27.4,1739.6,28.1,1739.9,28.1z"/>
					</g>
					<g>
						<path class="st8" d="M1743.1,28.1c0.3,0,0.5-0.7,0.5-1.6c0-0.9-0.2-1.6-0.5-1.6c-0.3,0-0.5,0.7-0.5,1.6
							C1742.6,27.4,1742.8,28.1,1743.1,28.1z"/>
					</g>
				</g>
				<g>
					<path class="st8" d="M1741.5,35.3c-4,0-7.2-3.2-7.2-7.2c0-4,3.2-7.2,7.2-7.2c4,0,7.2,3.2,7.2,7.2
						C1748.7,32.1,1745.5,35.3,1741.5,35.3z M1741.5,21.3c-3.8,0-6.9,3.1-6.9,6.9c0,3.8,3.1,6.9,6.9,6.9c3.8,0,6.9-3.1,6.9-6.9
						C1748.4,24.3,1745.3,21.3,1741.5,21.3z"/>
				</g>
				<g>
					<path class="st8" d="M1745.2,27.5c-0.6,0-1.2,0.4-1.5,0.9c-0.7,0-1.4-0.1-2.2-0.1c-0.8,0-1.5,0-2.1,0.1
						c-0.3-0.6-0.8-0.9-1.5-0.9c-0.9,0-1.6,0.7-1.6,1.6c0,0.9,0.7,1.6,1.6,1.6c0.6,0,1.2-0.4,1.5-0.9c0.7,0,1.4,0.1,2.1,0.1
						c0.7,0,1.5,0,2.2-0.1c0.3,0.6,0.8,0.9,1.5,0.9c0.9,0,1.6-0.7,1.6-1.6C1746.8,28.2,1746.1,27.5,1745.2,27.5z M1738,30.5
						c-0.8,0-1.4-0.6-1.4-1.4s0.6-1.4,1.4-1.4c0.5,0,1,0.3,1.2,0.7c0,0,0,0-0.1,0c0,0-0.1,0-0.1,0c0,0-0.1,0-0.1,0c0,0-0.1,0-0.1,0
						c0,0-0.1,0-0.1,0c0,0-0.1,0-0.1,0c0,0-0.1,0-0.1,0c0,0-0.1,0-0.1,0c0,0-0.1,0-0.1,0c0,0-0.1,0-0.1,0c0,0-0.1,0-0.1,0
						c0,0-0.1,0-0.1,0c0,0-0.1,0-0.1,0c0,0-0.1,0-0.1,0c0,0-0.1,0-0.1,0c0,0-0.1,0-0.1,0c0,0-0.1,0-0.1,0c0,0,0,0-0.1,0
						c0,0,0,0-0.1,0c0,0,0,0-0.1,0c0,0,0,0-0.1,0c0,0,0,0,0,0c0,0,0,0,0,0c0,0,0,0,0,0c0,0,0,0,0,0c0,0,0,0,0,0c0,0,0,0,0,0
						c0,0,0,0,0,0c0,0,0,0,0,0c0,0,0,0,0,0c0,0,0,0,0,0.1c0,0,0,0,0,0c0,0,0,0,0,0c0,0,0,0,0,0c0,0,0,0,0,0c0,0,0,0,0,0c0,0,0,0,0,0
						c0,0,0,0,0,0c0,0,0,0,0,0c0,0,0,0,0,0c0,0,0,0,0,0c0,0,0,0,0,0c0,0,0,0,0,0c0,0,0,0,0,0c0,0,0,0,0,0c0,0,0,0,0,0c0,0,0,0,0,0
						c0,0,0,0,0,0c0,0,0,0,0,0c0,0,0,0,0,0c0,0,0,0,0,0c0,0,0,0,0,0c0,0,0,0,0,0c0,0,0,0,0,0c0,0,0,0,0,0c0,0,0,0,0,0c0,0,0,0,0,0
						c0,0,0,0,0,0c0,0,0,0,0,0c0,0,0,0,0,0c0,0,0,0,0,0c0,0,0,0,0,0c0,0,0,0,0,0c0,0,0,0,0,0c0,0,0,0,0,0c0,0,0,0,0,0c0,0,0,0,0,0
						c0,0,0,0,0,0c0,0,0,0,0,0c0,0,0,0,0,0c0,0,0,0,0.1,0c0,0,0,0,0,0c0,0,0,0,0.1,0c0,0,0,0,0.1,0c0,0,0,0,0.1,0c0,0,0,0,0.1,0
						c0,0,0,0,0.1,0c0,0,0,0,0.1,0c0,0,0.1,0,0.1,0c0,0,0,0,0.1,0c0,0,0.1,0,0.1,0c0,0,0,0,0.1,0c0,0,0.1,0,0.1,0c0,0,0,0,0.1,0
						c0,0,0.1,0,0.1,0c0,0,0,0,0.1,0c0,0,0.1,0,0.1,0c0,0,0.1,0,0.1,0c0,0,0.1,0,0.1,0c0,0,0.1,0,0.1,0c0,0,0.1,0,0.1,0
						c0,0,0.1,0,0.1,0c0,0,0,0,0,0C1739,30.2,1738.5,30.5,1738,30.5z M1739.4,29.5c-1.8-0.1-2.3-0.4-2.3-0.4c0,0,0,0,0.1-0.1
						c0.2-0.1,0.8-0.3,2.3-0.4c0.7,0,1.4-0.1,2.2-0.1c0.8,0,1.6,0,2.2,0.1c0.1,0,0.2,0,0.3,0c0,0,0.1,0,0.1,0c0.1,0,0.1,0,0.2,0
						c0.1,0,0.1,0,0.2,0c0,0,0.1,0,0.1,0c1,0.1,1.4,0.3,1.5,0.3c0,0,0,0,0,0c0,0,0,0,0,0c0,0,0,0,0,0c0,0,0,0,0,0c0,0,0,0,0,0
						c0,0,0,0,0,0c0,0,0,0,0,0c0,0,0,0,0,0c0,0,0,0,0,0c0,0,0,0,0,0c0,0,0,0,0,0c0,0,0,0,0,0c0,0,0,0,0,0c0,0,0,0-0.1,0
						c0,0,0,0-0.1,0c0,0,0,0-0.1,0c0,0,0,0-0.1,0c0,0,0,0-0.1,0c0,0-0.1,0-0.1,0c0,0-0.1,0-0.1,0c0,0-0.1,0-0.1,0c0,0-0.1,0-0.1,0
						c0,0-0.1,0-0.1,0c0,0-0.1,0-0.1,0c0,0-0.1,0-0.1,0c0,0-0.1,0-0.1,0c-0.1,0-0.1,0-0.2,0c0,0-0.1,0-0.1,0c-0.1,0-0.1,0-0.2,0
						c0,0-0.1,0-0.1,0c-0.1,0-0.2,0-0.3,0l0,0C1742.5,29.6,1740.8,29.6,1739.4,29.5z M1745.2,30.5c-0.5,0-1-0.3-1.2-0.7c0,0,0,0,0,0
						c0,0,0.1,0,0.1,0c0,0,0.1,0,0.1,0c0,0,0.1,0,0.1,0c0,0,0.1,0,0.1,0c0,0,0.1,0,0.1,0c0,0,0.1,0,0.1,0c0,0,0.1,0,0.1,0
						c0,0,0.1,0,0.1,0c0,0,0,0,0.1,0c0,0,0.1,0,0.1,0c0,0,0,0,0.1,0c0,0,0.1,0,0.1,0c0,0,0,0,0.1,0c0,0,0.1,0,0.1,0c0,0,0,0,0.1,0
						c0,0,0,0,0.1,0c0,0,0,0,0.1,0c0,0,0,0,0.1,0c0,0,0,0,0,0c0,0,0,0,0.1,0c0,0,0,0,0,0c0,0,0,0,0.1,0c0,0,0,0,0,0c0,0,0,0,0,0
						c0,0,0,0,0,0c0,0,0,0,0,0c0,0,0,0,0,0c0,0,0,0,0,0c0,0,0,0,0,0c0,0,0,0,0,0c0,0,0,0,0,0c0,0,0,0,0,0c0,0,0,0,0,0c0,0,0,0,0,0
						c0,0,0,0,0,0c0,0,0,0,0,0c0,0,0,0,0,0c0,0,0,0,0,0c0,0,0,0,0,0c0,0,0,0,0,0c0,0,0,0,0,0c0,0,0,0,0,0c0,0,0,0,0,0c0,0,0,0,0,0
						c0,0,0,0,0,0c0,0,0,0,0,0c0,0,0,0,0,0c0,0,0,0,0,0c0,0,0,0,0,0c0,0,0,0,0,0c0,0,0,0,0,0c0,0,0,0,0,0c0,0,0,0,0,0c0,0,0,0,0,0
						c0,0,0,0,0,0c0,0,0,0,0,0c0,0,0,0,0,0c0,0,0,0,0,0c0,0,0,0,0,0c0,0,0,0,0,0c0,0,0,0,0,0c0,0,0,0,0-0.1c0,0,0,0,0,0c0,0,0,0,0,0
						c0,0,0,0,0,0c0,0,0,0,0,0c0,0,0,0,0,0c0,0,0,0,0,0c0,0,0,0,0,0c0,0,0,0,0,0c0,0,0,0,0,0c0,0,0,0-0.1,0c0,0,0,0-0.1,0
						c0,0,0,0-0.1,0c0,0,0,0-0.1,0c0,0-0.1,0-0.1,0c0,0-0.1,0-0.1,0c0,0-0.1,0-0.1,0c0,0-0.1,0-0.1,0c0,0-0.1,0-0.1,0
						c0,0-0.1,0-0.1,0c0,0-0.1,0-0.1,0c0,0-0.1,0-0.1,0c0,0-0.1,0-0.1,0c0,0-0.1,0-0.1,0c0,0-0.1,0-0.1,0c0,0-0.1,0-0.1,0
						c0,0-0.1,0-0.1,0c0,0-0.1,0-0.1,0c0,0-0.1,0-0.1,0c0,0-0.1,0-0.1,0c0,0,0,0-0.1,0c0.2-0.4,0.7-0.7,1.2-0.7
						c0.8,0,1.4,0.6,1.4,1.4S1746,30.5,1745.2,30.5z"/>
					<path class="st8" d="M1743.9,29c0-0.1-0.1-0.1-0.1-0.1c-0.7,0.1-1.4,0.2-2.1,0.2c0,0,0,0,0,0c-0.7,0-1.4-0.1-2.1-0.2
						c-0.1,0-0.1,0-0.1,0.1c0,0.1,0,0.1,0.1,0.1c0.7,0.1,1.5,0.2,2.2,0.2c0,0,0,0,0,0c0.7,0,1.5-0.1,2.2-0.2
						C1743.9,29.1,1743.9,29,1743.9,29z"/>
				</g>
			</g>
		</g>
		<g>
			<g id="g5_00000044156531527087328350000018289853590212719754_">
				<circle id="circle7_00000170986977497915335830000006293704501330549158_" class="st7" cx="1253.2" cy="28.1" r="9"/>
			</g>
			<g>
				<g>
					<g>
						<path class="st8" d="M1251.6,28.1c0.3,0,0.5-0.7,0.5-1.6c0-0.9-0.2-1.6-0.5-1.6c-0.3,0-0.5,0.7-0.5,1.6
							C1251.1,27.4,1251.3,28.1,1251.6,28.1z"/>
					</g>
					<g>
						<path class="st8" d="M1254.8,28.1c0.3,0,0.5-0.7,0.5-1.6c0-0.9-0.2-1.6-0.5-1.6c-0.3,0-0.5,0.7-0.5,1.6
							C1254.3,27.4,1254.5,28.1,1254.8,28.1z"/>
					</g>
				</g>
				<g>
					<path class="st8" d="M1253.2,35.3c-4,0-7.2-3.2-7.2-7.2c0-4,3.2-7.2,7.2-7.2c4,0,7.2,3.2,7.2,7.2
						C1260.4,32.1,1257.2,35.3,1253.2,35.3z M1253.2,21.3c-3.8,0-6.9,3.1-6.9,6.9c0,3.8,3.1,6.9,6.9,6.9c3.8,0,6.9-3.1,6.9-6.9
						C1260.1,24.3,1257,21.3,1253.2,21.3z"/>
				</g>
				<g>
					<path class="st8" d="M1257,27.5c-0.6,0-1.2,0.4-1.5,0.9c-0.7,0-1.4-0.1-2.2-0.1c-0.8,0-1.5,0-2.1,0.1c-0.3-0.6-0.8-0.9-1.5-0.9
						c-0.9,0-1.6,0.7-1.6,1.6c0,0.9,0.7,1.6,1.6,1.6c0.6,0,1.2-0.4,1.5-0.9c0.7,0,1.4,0.1,2.1,0.1c0.7,0,1.5,0,2.2-0.1
						c0.3,0.6,0.8,0.9,1.5,0.9c0.9,0,1.6-0.7,1.6-1.6C1258.6,28.2,1257.8,27.5,1257,27.5z M1249.8,30.5c-0.8,0-1.4-0.6-1.4-1.4
						s0.6-1.4,1.4-1.4c0.5,0,1,0.3,1.2,0.7c0,0,0,0-0.1,0c0,0-0.1,0-0.1,0c0,0-0.1,0-0.1,0c0,0-0.1,0-0.1,0c0,0-0.1,0-0.1,0
						c0,0-0.1,0-0.1,0c0,0-0.1,0-0.1,0c0,0-0.1,0-0.1,0c0,0-0.1,0-0.1,0c0,0-0.1,0-0.1,0c0,0-0.1,0-0.1,0c0,0-0.1,0-0.1,0
						c0,0-0.1,0-0.1,0c0,0-0.1,0-0.1,0c0,0-0.1,0-0.1,0c0,0-0.1,0-0.1,0c0,0-0.1,0-0.1,0c0,0,0,0-0.1,0c0,0,0,0-0.1,0c0,0,0,0-0.1,0
						c0,0,0,0-0.1,0c0,0,0,0,0,0c0,0,0,0,0,0c0,0,0,0,0,0c0,0,0,0,0,0c0,0,0,0,0,0c0,0,0,0,0,0c0,0,0,0,0,0c0,0,0,0,0,0c0,0,0,0,0,0
						c0,0,0,0,0,0.1c0,0,0,0,0,0c0,0,0,0,0,0c0,0,0,0,0,0c0,0,0,0,0,0c0,0,0,0,0,0c0,0,0,0,0,0c0,0,0,0,0,0c0,0,0,0,0,0c0,0,0,0,0,0
						c0,0,0,0,0,0c0,0,0,0,0,0c0,0,0,0,0,0c0,0,0,0,0,0c0,0,0,0,0,0c0,0,0,0,0,0c0,0,0,0,0,0c0,0,0,0,0,0c0,0,0,0,0,0c0,0,0,0,0,0
						c0,0,0,0,0,0c0,0,0,0,0,0c0,0,0,0,0,0c0,0,0,0,0,0c0,0,0,0,0,0c0,0,0,0,0,0c0,0,0,0,0,0c0,0,0,0,0,0c0,0,0,0,0,0c0,0,0,0,0,0
						c0,0,0,0,0,0c0,0,0,0,0,0c0,0,0,0,0,0c0,0,0,0,0,0c0,0,0,0,0,0c0,0,0,0,0,0c0,0,0,0,0,0c0,0,0,0,0,0c0,0,0,0,0,0c0,0,0,0,0,0
						c0,0,0,0,0.1,0c0,0,0,0,0,0c0,0,0,0,0.1,0c0,0,0,0,0.1,0c0,0,0,0,0.1,0c0,0,0,0,0.1,0c0,0,0,0,0.1,0c0,0,0,0,0.1,0
						c0,0,0.1,0,0.1,0c0,0,0,0,0.1,0c0,0,0.1,0,0.1,0c0,0,0,0,0.1,0c0,0,0.1,0,0.1,0c0,0,0,0,0.1,0c0,0,0.1,0,0.1,0c0,0,0,0,0.1,0
						c0,0,0.1,0,0.1,0c0,0,0.1,0,0.1,0c0,0,0.1,0,0.1,0c0,0,0.1,0,0.1,0c0,0,0.1,0,0.1,0c0,0,0.1,0,0.1,0c0,0,0,0,0,0
						C1250.7,30.2,1250.3,30.5,1249.8,30.5z M1251.1,29.5c-1.8-0.1-2.3-0.4-2.3-0.4c0,0,0,0,0.1-0.1c0.2-0.1,0.8-0.3,2.3-0.4
						c0.7,0,1.4-0.1,2.2-0.1c0.8,0,1.6,0,2.2,0.1c0.1,0,0.2,0,0.3,0c0,0,0.1,0,0.1,0c0.1,0,0.1,0,0.2,0c0.1,0,0.1,0,0.2,0
						c0,0,0.1,0,0.1,0c1,0.1,1.4,0.3,1.5,0.3c0,0,0,0,0,0c0,0,0,0,0,0c0,0,0,0,0,0c0,0,0,0,0,0c0,0,0,0,0,0c0,0,0,0,0,0c0,0,0,0,0,0
						c0,0,0,0,0,0c0,0,0,0,0,0c0,0,0,0,0,0c0,0,0,0,0,0c0,0,0,0,0,0c0,0,0,0,0,0c0,0,0,0-0.1,0c0,0,0,0-0.1,0c0,0,0,0-0.1,0
						c0,0,0,0-0.1,0c0,0,0,0-0.1,0c0,0-0.1,0-0.1,0c0,0-0.1,0-0.1,0c0,0-0.1,0-0.1,0c0,0-0.1,0-0.1,0c0,0-0.1,0-0.1,0
						c0,0-0.1,0-0.1,0c0,0-0.1,0-0.1,0c0,0-0.1,0-0.1,0c-0.1,0-0.1,0-0.2,0c0,0-0.1,0-0.1,0c-0.1,0-0.1,0-0.2,0c0,0-0.1,0-0.1,0
						c-0.1,0-0.2,0-0.3,0l0,0C1254.2,29.6,1252.5,29.6,1251.1,29.5z M1257,30.5c-0.5,0-1-0.3-1.2-0.7c0,0,0,0,0,0c0,0,0.1,0,0.1,0
						c0,0,0.1,0,0.1,0c0,0,0.1,0,0.1,0c0,0,0.1,0,0.1,0c0,0,0.1,0,0.1,0c0,0,0.1,0,0.1,0c0,0,0.1,0,0.1,0c0,0,0.1,0,0.1,0
						c0,0,0,0,0.1,0c0,0,0.1,0,0.1,0c0,0,0,0,0.1,0c0,0,0.1,0,0.1,0c0,0,0,0,0.1,0c0,0,0.1,0,0.1,0c0,0,0,0,0.1,0c0,0,0,0,0.1,0
						c0,0,0,0,0.1,0c0,0,0,0,0.1,0c0,0,0,0,0,0c0,0,0,0,0.1,0c0,0,0,0,0,0c0,0,0,0,0.1,0c0,0,0,0,0,0c0,0,0,0,0,0c0,0,0,0,0,0
						c0,0,0,0,0,0c0,0,0,0,0,0c0,0,0,0,0,0c0,0,0,0,0,0c0,0,0,0,0,0c0,0,0,0,0,0c0,0,0,0,0,0c0,0,0,0,0,0c0,0,0,0,0,0c0,0,0,0,0,0
						c0,0,0,0,0,0c0,0,0,0,0,0c0,0,0,0,0,0c0,0,0,0,0,0c0,0,0,0,0,0c0,0,0,0,0,0c0,0,0,0,0,0c0,0,0,0,0,0c0,0,0,0,0,0c0,0,0,0,0,0
						c0,0,0,0,0,0c0,0,0,0,0,0c0,0,0,0,0,0c0,0,0,0,0,0c0,0,0,0,0,0c0,0,0,0,0,0c0,0,0,0,0,0c0,0,0,0,0,0c0,0,0,0,0,0c0,0,0,0,0,0
						c0,0,0,0,0,0c0,0,0,0,0,0c0,0,0,0,0,0c0,0,0,0,0,0c0,0,0,0,0,0c0,0,0,0,0,0c0,0,0,0,0-0.1c0,0,0,0,0,0c0,0,0,0,0,0c0,0,0,0,0,0
						c0,0,0,0,0,0c0,0,0,0,0,0c0,0,0,0,0,0c0,0,0,0,0,0c0,0,0,0,0,0c0,0,0,0,0,0c0,0,0,0-0.1,0c0,0,0,0-0.1,0c0,0,0,0-0.1,0
						c0,0,0,0-0.1,0c0,0-0.1,0-0.1,0c0,0-0.1,0-0.1,0c0,0-0.1,0-0.1,0c0,0-0.1,0-0.1,0c0,0-0.1,0-0.1,0c0,0-0.1,0-0.1,0
						c0,0-0.1,0-0.1,0c0,0-0.1,0-0.1,0c0,0-0.1,0-0.1,0c0,0-0.1,0-0.1,0c0,0-0.1,0-0.1,0c0,0-0.1,0-0.1,0c0,0-0.1,0-0.1,0
						c0,0-0.1,0-0.1,0c0,0-0.1,0-0.1,0c0,0-0.1,0-0.1,0c0,0,0,0-0.1,0c0.2-0.4,0.7-0.7,1.2-0.7c0.8,0,1.4,0.6,1.4,1.4
						S1257.7,30.5,1257,30.5z"/>
					<path class="st8" d="M1255.6,29c0-0.1-0.1-0.1-0.1-0.1c-0.7,0.1-1.4,0.2-2.1,0.2c0,0,0,0,0,0c-0.7,0-1.4-0.1-2.1-0.2
						c-0.1,0-0.1,0-0.1,0.1c0,0.1,0,0.1,0.1,0.1c0.7,0.1,1.5,0.2,2.2,0.2c0,0,0,0,0,0c0.7,0,1.5-0.1,2.2-0.2
						C1255.6,29.1,1255.6,29,1255.6,29z"/>
				</g>
			</g>
		</g>
		<path class="st8" d="M1885.6,35.2c-5.3-5.3-8.9-5.3-14.2,0c5.3-5.3,5.3-8.9,0-14.2c5.3,5.3,8.9,5.3,14.2,0
			C1880.3,26.3,1880.3,29.9,1885.6,35.2z"/>
		<line class="st9" x1="1009.9" y1="28.8" x2="1093.5" y2="28.8"/>
	</g>
</g>
</svg>
