<?xml version="1.0" encoding="utf-8"?>
<!-- Generator: Adobe Illustrator 26.5.0, SVG Export Plug-In . SVG Version: 6.00 Build 0)  -->
<svg version="1.1" xmlns="http://www.w3.org/2000/svg" xmlns:xlink="http://www.w3.org/1999/xlink" x="0px" y="0px"
	 viewBox="0 0 2009.9 55.6" style="enable-background:new 0 0 2009.9 55.6;" xml:space="preserve">
<style type="text/css">
	.st0{fill:#CDCEC9;}
	.st1{fill:none;}
	.st2{font-family:'Gotham-Book';}
	.st3{font-size:21.1558px;}
	.st4{letter-spacing:3;}
	.st5{font-family:'GothamBlack-Italic';}
	.st6{font-size:23.9766px;}
	.st7{fill:#CCCCCC;}
	.st8{fill:#1D1E1C;}
	.st9{fill:none;stroke:#383938;stroke-width:3;stroke-linecap:round;stroke-miterlimit:10;}
</style>
<g id="fondo">
	<rect class="st0" width="2009.9" height="55.6"/>
</g>
<g id="text">
	<g>
		<rect x="129.1" y="19" class="st1" width="146.2" height="18.7"/>
		<text transform="matrix(1 0 0 1 129.0852 34.4706)"><tspan x="0" y="0" class="st2 st3 st4">portafo</tspan><tspan x="137.6" y="0" class="st2 st3">-</tspan></text>
		<rect x="420.6" y="19" class="st1" width="83" height="18.7"/>
		<text transform="matrix(1 0 0 1 420.5549 34.4706)" class="st2 st3">MMXX</text>
		<g>
			<rect x="313.1" y="17.8" class="st1" width="65.5" height="18.1"/>
			<text transform="matrix(1 0 0 1 313.0906 35.3055)" class="st5 st6">202x</text>
		</g>
		<g>
			<g id="g5_00000021088168032133956030000001114130776004173709_">
				<circle id="circle7_00000156583927602477177040000004332489464570531499_" class="st7" cx="497.8" cy="27" r="9"/>
			</g>
			<g>
				<g>
					<g>
						<path class="st8" d="M496.2,27c0.3,0,0.5-0.7,0.5-1.6c0-0.9-0.2-1.6-0.5-1.6c-0.3,0-0.5,0.7-0.5,1.6
							C495.7,26.3,496,27,496.2,27z"/>
					</g>
					<g>
						<path class="st8" d="M499.4,27c0.3,0,0.5-0.7,0.5-1.6c0-0.9-0.2-1.6-0.5-1.6c-0.3,0-0.5,0.7-0.5,1.6
							C498.9,26.2,499.1,27,499.4,27z"/>
					</g>
				</g>
				<g>
					<path class="st8" d="M497.8,34.2c-4,0-7.2-3.2-7.2-7.2c0-4,3.2-7.2,7.2-7.2c4,0,7.2,3.2,7.2,7.2
						C505.1,31,501.8,34.2,497.8,34.2z M497.8,20.1c-3.8,0-6.9,3.1-6.9,6.9c0,3.8,3.1,6.9,6.9,6.9c3.8,0,6.9-3.1,6.9-6.9
						C504.7,23.2,501.6,20.1,497.8,20.1z"/>
				</g>
				<g>
					<path class="st8" d="M501.6,26.4c-0.6,0-1.2,0.4-1.5,0.9c-0.7,0-1.4-0.1-2.2-0.1c-0.8,0-1.5,0-2.1,0.1
						c-0.3-0.6-0.8-0.9-1.5-0.9c-0.9,0-1.6,0.7-1.6,1.6c0,0.9,0.7,1.6,1.6,1.6c0.6,0,1.2-0.4,1.5-0.9c0.7,0,1.4,0.1,2.1,0.1
						c0.7,0,1.5,0,2.2-0.1c0.3,0.6,0.8,0.9,1.5,0.9c0.9,0,1.6-0.7,1.6-1.6C503.2,27.1,502.5,26.4,501.6,26.4z M494.4,29.3
						c-0.8,0-1.4-0.6-1.4-1.4c0-0.8,0.6-1.4,1.4-1.4c0.5,0,1,0.3,1.2,0.7c0,0,0,0-0.1,0c0,0-0.1,0-0.1,0c0,0-0.1,0-0.1,0
						c0,0-0.1,0-0.1,0c0,0-0.1,0-0.1,0c0,0-0.1,0-0.1,0c0,0-0.1,0-0.1,0c0,0-0.1,0-0.1,0c0,0-0.1,0-0.1,0c0,0-0.1,0-0.1,0
						c0,0-0.1,0-0.1,0c0,0-0.1,0-0.1,0c0,0-0.1,0-0.1,0c0,0-0.1,0-0.1,0c0,0-0.1,0-0.1,0c0,0-0.1,0-0.1,0c0,0-0.1,0-0.1,0
						c0,0,0,0-0.1,0c0,0,0,0-0.1,0c0,0,0,0-0.1,0c0,0,0,0-0.1,0c0,0,0,0,0,0c0,0,0,0,0,0c0,0,0,0,0,0c0,0,0,0,0,0c0,0,0,0,0,0
						c0,0,0,0,0,0c0,0,0,0,0,0c0,0,0,0,0,0c0,0,0,0,0,0c0,0,0,0,0,0.1c0,0,0,0,0,0c0,0,0,0,0,0c0,0,0,0,0,0c0,0,0,0,0,0c0,0,0,0,0,0
						c0,0,0,0,0,0c0,0,0,0,0,0c0,0,0,0,0,0c0,0,0,0,0,0c0,0,0,0,0,0s0,0,0,0c0,0,0,0,0,0c0,0,0,0,0,0c0,0,0,0,0,0c0,0,0,0,0,0
						c0,0,0,0,0,0c0,0,0,0,0,0c0,0,0,0,0,0c0,0,0,0,0,0c0,0,0,0,0,0c0,0,0,0,0,0c0,0,0,0,0,0c0,0,0,0,0,0c0,0,0,0,0,0c0,0,0,0,0,0
						c0,0,0,0,0,0c0,0,0,0,0,0c0,0,0,0,0,0c0,0,0,0,0,0c0,0,0,0,0,0c0,0,0,0,0,0c0,0,0,0,0,0c0,0,0,0,0,0c0,0,0,0,0,0c0,0,0,0,0,0
						c0,0,0,0,0,0c0,0,0,0,0,0c0,0,0,0,0,0c0,0,0,0,0,0c0,0,0,0,0.1,0c0,0,0,0,0,0c0,0,0,0,0.1,0c0,0,0,0,0.1,0c0,0,0,0,0.1,0
						c0,0,0,0,0.1,0c0,0,0,0,0.1,0c0,0,0,0,0.1,0c0,0,0.1,0,0.1,0c0,0,0,0,0.1,0c0,0,0.1,0,0.1,0c0,0,0,0,0.1,0c0,0,0.1,0,0.1,0
						c0,0,0,0,0.1,0c0,0,0.1,0,0.1,0c0,0,0,0,0.1,0c0,0,0.1,0,0.1,0c0,0,0.1,0,0.1,0c0,0,0.1,0,0.1,0c0,0,0.1,0,0.1,0
						c0,0,0.1,0,0.1,0c0,0,0.1,0,0.1,0c0,0,0,0,0,0C495.3,29,494.9,29.3,494.4,29.3z M495.8,28.4c-1.8-0.1-2.3-0.4-2.3-0.4
						c0,0,0,0,0.1-0.1c0.2-0.1,0.8-0.3,2.3-0.4c0.7,0,1.4-0.1,2.2-0.1c0.8,0,1.6,0,2.2,0.1c0.1,0,0.2,0,0.3,0c0,0,0.1,0,0.1,0
						c0.1,0,0.1,0,0.2,0c0.1,0,0.1,0,0.2,0c0,0,0.1,0,0.1,0c1,0.1,1.4,0.3,1.5,0.3c0,0,0,0,0,0c0,0,0,0,0,0c0,0,0,0,0,0c0,0,0,0,0,0
						c0,0,0,0,0,0c0,0,0,0,0,0c0,0,0,0,0,0c0,0,0,0,0,0c0,0,0,0,0,0c0,0,0,0,0,0c0,0,0,0,0,0c0,0,0,0,0,0c0,0,0,0,0,0c0,0,0,0-0.1,0
						c0,0,0,0-0.1,0c0,0,0,0-0.1,0c0,0,0,0-0.1,0c0,0,0,0-0.1,0c0,0-0.1,0-0.1,0c0,0-0.1,0-0.1,0c0,0-0.1,0-0.1,0c0,0-0.1,0-0.1,0
						c0,0-0.1,0-0.1,0c0,0-0.1,0-0.1,0c0,0-0.1,0-0.1,0c0,0-0.1,0-0.1,0c-0.1,0-0.1,0-0.2,0c0,0-0.1,0-0.1,0c-0.1,0-0.1,0-0.2,0
						c0,0-0.1,0-0.1,0c-0.1,0-0.2,0-0.3,0l0,0C498.8,28.5,497.1,28.5,495.8,28.4z M501.6,29.3c-0.5,0-1-0.3-1.2-0.7c0,0,0,0,0,0
						c0,0,0.1,0,0.1,0c0,0,0.1,0,0.1,0c0,0,0.1,0,0.1,0c0,0,0.1,0,0.1,0c0,0,0.1,0,0.1,0c0,0,0.1,0,0.1,0c0,0,0.1,0,0.1,0
						c0,0,0.1,0,0.1,0c0,0,0,0,0.1,0c0,0,0.1,0,0.1,0c0,0,0,0,0.1,0c0,0,0.1,0,0.1,0c0,0,0,0,0.1,0c0,0,0.1,0,0.1,0c0,0,0,0,0.1,0
						c0,0,0,0,0.1,0c0,0,0,0,0.1,0c0,0,0,0,0.1,0c0,0,0,0,0,0c0,0,0,0,0.1,0c0,0,0,0,0,0c0,0,0,0,0.1,0c0,0,0,0,0,0c0,0,0,0,0,0
						c0,0,0,0,0,0c0,0,0,0,0,0c0,0,0,0,0,0c0,0,0,0,0,0c0,0,0,0,0,0c0,0,0,0,0,0c0,0,0,0,0,0c0,0,0,0,0,0c0,0,0,0,0,0c0,0,0,0,0,0
						c0,0,0,0,0,0c0,0,0,0,0,0c0,0,0,0,0,0c0,0,0,0,0,0c0,0,0,0,0,0c0,0,0,0,0,0c0,0,0,0,0,0c0,0,0,0,0,0c0,0,0,0,0,0c0,0,0,0,0,0
						c0,0,0,0,0,0c0,0,0,0,0,0c0,0,0,0,0,0c0,0,0,0,0,0c0,0,0,0,0,0c0,0,0,0,0,0c0,0,0,0,0,0c0,0,0,0,0,0c0,0,0,0,0,0c0,0,0,0,0,0
						c0,0,0,0,0,0c0,0,0,0,0,0c0,0,0,0,0,0c0,0,0,0,0,0c0,0,0,0,0,0c0,0,0,0,0,0c0,0,0,0,0,0c0,0,0,0,0-0.1c0,0,0,0,0,0c0,0,0,0,0,0
						c0,0,0,0,0,0c0,0,0,0,0,0c0,0,0,0,0,0c0,0,0,0,0,0c0,0,0,0,0,0c0,0,0,0,0,0c0,0,0,0,0,0c0,0,0,0-0.1,0c0,0,0,0-0.1,0
						c0,0,0,0-0.1,0c0,0,0,0-0.1,0c0,0-0.1,0-0.1,0c0,0-0.1,0-0.1,0c0,0-0.1,0-0.1,0c0,0-0.1,0-0.1,0c0,0-0.1,0-0.1,0
						c0,0-0.1,0-0.1,0c0,0-0.1,0-0.1,0c0,0-0.1,0-0.1,0c0,0-0.1,0-0.1,0c0,0-0.1,0-0.1,0c0,0-0.1,0-0.1,0c0,0-0.1,0-0.1,0
						c0,0-0.1,0-0.1,0c0,0-0.1,0-0.1,0c0,0-0.1,0-0.1,0c0,0-0.1,0-0.1,0c0,0,0,0-0.1,0c0.2-0.4,0.7-0.7,1.2-0.7
						c0.8,0,1.4,0.6,1.4,1.4C502.9,28.7,502.3,29.3,501.6,29.3z"/>
					<path class="st8" d="M500.3,27.9c0-0.1-0.1-0.1-0.1-0.1c-0.7,0.1-1.4,0.2-2.1,0.2c0,0,0,0,0,0c-0.7,0-1.4-0.1-2.1-0.2
						c-0.1,0-0.1,0-0.1,0.1c0,0.1,0,0.1,0.1,0.1c0.7,0.1,1.5,0.2,2.2,0.2c0,0,0,0,0,0c0.7,0,1.5-0.1,2.2-0.2
						C500.2,28,500.3,27.9,500.3,27.9z"/>
				</g>
			</g>
		</g>
		<path class="st8" d="M408.8,34.1c-5.3-5.3-8.9-5.3-14.2,0c5.3-5.3,5.3-8.9,0-14.2c5.3,5.3,8.9,5.3,14.2,0
			C403.5,25.2,403.5,28.8,408.8,34.1z"/>
		<line class="st9" x1="521.6" y1="27.7" x2="605.1" y2="27.7"/>
		<line class="st9" x1="26.3" y1="27.7" x2="109.8" y2="27.7"/>
		<rect x="617.4" y="19" class="st1" width="146.2" height="18.7"/>
		<text transform="matrix(1 0 0 1 617.3792 34.4706)"><tspan x="0" y="0" class="st2 st3 st4">portafo</tspan><tspan x="137.6" y="0" class="st2 st3">-</tspan></text>
		<rect x="908.8" y="19" class="st1" width="83" height="18.7"/>
		<text transform="matrix(1 0 0 1 908.8489 34.4706)" class="st2 st3">MMXX</text>
		<g>
			<rect x="801.4" y="17.8" class="st1" width="65.5" height="18.1"/>
			<text transform="matrix(1 0 0 1 801.384 35.3055)" class="st5 st6">202x</text>
		</g>
		<g>
			<g id="g5_00000083065763435181394370000017723423765328228525_">
				<circle id="circle7_00000031198325418242951710000012497819806201234103_" class="st7" cx="986.1" cy="27" r="9"/>
			</g>
			<g>
				<g>
					<g>
						<path class="st8" d="M984.5,27c0.3,0,0.5-0.7,0.5-1.6c0-0.9-0.2-1.6-0.5-1.6c-0.3,0-0.5,0.7-0.5,1.6
							C984,26.3,984.2,27,984.5,27z"/>
					</g>
					<g>
						<path class="st8" d="M987.7,27c0.3,0,0.5-0.7,0.5-1.6s-0.2-1.6-0.5-1.6c-0.3,0-0.5,0.7-0.5,1.6C987.2,26.2,987.4,27,987.7,27z
							"/>
					</g>
				</g>
				<g>
					<path class="st8" d="M986.1,34.2c-4,0-7.2-3.2-7.2-7.2c0-4,3.2-7.2,7.2-7.2c4,0,7.2,3.2,7.2,7.2
						C993.4,31,990.1,34.2,986.1,34.2z M986.1,20.1c-3.8,0-6.9,3.1-6.9,6.9c0,3.8,3.1,6.9,6.9,6.9c3.8,0,6.9-3.1,6.9-6.9
						C993,23.2,989.9,20.1,986.1,20.1z"/>
				</g>
				<g>
					<path class="st8" d="M989.9,26.4c-0.6,0-1.2,0.4-1.5,0.9c-0.7,0-1.4-0.1-2.2-0.1c-0.8,0-1.5,0-2.1,0.1
						c-0.3-0.6-0.8-0.9-1.5-0.9c-0.9,0-1.6,0.7-1.6,1.6c0,0.9,0.7,1.6,1.6,1.6c0.6,0,1.2-0.4,1.5-0.9c0.7,0,1.4,0.1,2.1,0.1
						c0.7,0,1.5,0,2.2-0.1c0.3,0.6,0.8,0.9,1.5,0.9c0.9,0,1.6-0.7,1.6-1.6C991.5,27.1,990.8,26.4,989.9,26.4z M982.7,29.3
						c-0.8,0-1.4-0.6-1.4-1.4c0-0.8,0.6-1.4,1.4-1.4c0.5,0,1,0.3,1.2,0.7c0,0,0,0-0.1,0c0,0-0.1,0-0.1,0c0,0-0.1,0-0.1,0
						c0,0-0.1,0-0.1,0c0,0-0.1,0-0.1,0c0,0-0.1,0-0.1,0c0,0-0.1,0-0.1,0c0,0-0.1,0-0.1,0c0,0-0.1,0-0.1,0c0,0-0.1,0-0.1,0
						c0,0-0.1,0-0.1,0c0,0-0.1,0-0.1,0c0,0-0.1,0-0.1,0c0,0-0.1,0-0.1,0c0,0-0.1,0-0.1,0c0,0-0.1,0-0.1,0c0,0-0.1,0-0.1,0
						c0,0,0,0-0.1,0c0,0,0,0-0.1,0c0,0,0,0-0.1,0c0,0,0,0-0.1,0c0,0,0,0,0,0c0,0,0,0,0,0c0,0,0,0,0,0c0,0,0,0,0,0c0,0,0,0,0,0
						c0,0,0,0,0,0c0,0,0,0,0,0c0,0,0,0,0,0c0,0,0,0,0,0c0,0,0,0,0,0.1c0,0,0,0,0,0c0,0,0,0,0,0c0,0,0,0,0,0c0,0,0,0,0,0c0,0,0,0,0,0
						c0,0,0,0,0,0c0,0,0,0,0,0c0,0,0,0,0,0c0,0,0,0,0,0c0,0,0,0,0,0c0,0,0,0,0,0c0,0,0,0,0,0c0,0,0,0,0,0c0,0,0,0,0,0c0,0,0,0,0,0
						c0,0,0,0,0,0c0,0,0,0,0,0c0,0,0,0,0,0c0,0,0,0,0,0c0,0,0,0,0,0c0,0,0,0,0,0c0,0,0,0,0,0c0,0,0,0,0,0c0,0,0,0,0,0c0,0,0,0,0,0
						c0,0,0,0,0,0c0,0,0,0,0,0c0,0,0,0,0,0c0,0,0,0,0,0c0,0,0,0,0,0c0,0,0,0,0,0c0,0,0,0,0,0c0,0,0,0,0,0c0,0,0,0,0,0c0,0,0,0,0,0
						c0,0,0,0,0,0c0,0,0,0,0,0c0,0,0,0,0,0c0,0,0,0,0,0c0,0,0,0,0.1,0c0,0,0,0,0,0c0,0,0,0,0.1,0c0,0,0,0,0.1,0c0,0,0,0,0.1,0
						c0,0,0,0,0.1,0c0,0,0,0,0.1,0c0,0,0,0,0.1,0c0,0,0.1,0,0.1,0c0,0,0,0,0.1,0c0,0,0.1,0,0.1,0c0,0,0,0,0.1,0c0,0,0.1,0,0.1,0
						c0,0,0,0,0.1,0c0,0,0.1,0,0.1,0c0,0,0,0,0.1,0c0,0,0.1,0,0.1,0c0,0,0.1,0,0.1,0c0,0,0.1,0,0.1,0c0,0,0.1,0,0.1,0
						c0,0,0.1,0,0.1,0c0,0,0.1,0,0.1,0c0,0,0,0,0,0C983.6,29,983.2,29.3,982.7,29.3z M984.1,28.4c-1.8-0.1-2.3-0.4-2.3-0.4
						c0,0,0,0,0.1-0.1c0.2-0.1,0.8-0.3,2.3-0.4c0.7,0,1.4-0.1,2.2-0.1c0.8,0,1.6,0,2.2,0.1c0.1,0,0.2,0,0.3,0c0,0,0.1,0,0.1,0
						c0.1,0,0.1,0,0.2,0c0.1,0,0.1,0,0.2,0c0,0,0.1,0,0.1,0c1,0.1,1.4,0.3,1.5,0.3c0,0,0,0,0,0c0,0,0,0,0,0c0,0,0,0,0,0c0,0,0,0,0,0
						c0,0,0,0,0,0c0,0,0,0,0,0c0,0,0,0,0,0c0,0,0,0,0,0c0,0,0,0,0,0c0,0,0,0,0,0c0,0,0,0,0,0c0,0,0,0,0,0c0,0,0,0,0,0c0,0,0,0-0.1,0
						c0,0,0,0-0.1,0c0,0,0,0-0.1,0c0,0,0,0-0.1,0c0,0,0,0-0.1,0c0,0-0.1,0-0.1,0c0,0-0.1,0-0.1,0c0,0-0.1,0-0.1,0c0,0-0.1,0-0.1,0
						c0,0-0.1,0-0.1,0c0,0-0.1,0-0.1,0c0,0-0.1,0-0.1,0c0,0-0.1,0-0.1,0c-0.1,0-0.1,0-0.2,0c0,0-0.1,0-0.1,0c-0.1,0-0.1,0-0.2,0
						c0,0-0.1,0-0.1,0c-0.1,0-0.2,0-0.3,0l0,0C987.1,28.5,985.4,28.5,984.1,28.4z M989.9,29.3c-0.5,0-1-0.3-1.2-0.7c0,0,0,0,0,0
						c0,0,0.1,0,0.1,0c0,0,0.1,0,0.1,0c0,0,0.1,0,0.1,0c0,0,0.1,0,0.1,0c0,0,0.1,0,0.1,0c0,0,0.1,0,0.1,0c0,0,0.1,0,0.1,0
						c0,0,0.1,0,0.1,0c0,0,0,0,0.1,0c0,0,0.1,0,0.1,0c0,0,0,0,0.1,0c0,0,0.1,0,0.1,0c0,0,0,0,0.1,0c0,0,0.1,0,0.1,0c0,0,0,0,0.1,0
						c0,0,0,0,0.1,0c0,0,0,0,0.1,0c0,0,0,0,0.1,0c0,0,0,0,0,0c0,0,0,0,0.1,0c0,0,0,0,0,0c0,0,0,0,0.1,0c0,0,0,0,0,0c0,0,0,0,0,0
						c0,0,0,0,0,0c0,0,0,0,0,0c0,0,0,0,0,0c0,0,0,0,0,0c0,0,0,0,0,0c0,0,0,0,0,0c0,0,0,0,0,0c0,0,0,0,0,0c0,0,0,0,0,0c0,0,0,0,0,0
						c0,0,0,0,0,0c0,0,0,0,0,0c0,0,0,0,0,0c0,0,0,0,0,0c0,0,0,0,0,0c0,0,0,0,0,0c0,0,0,0,0,0c0,0,0,0,0,0c0,0,0,0,0,0c0,0,0,0,0,0
						c0,0,0,0,0,0c0,0,0,0,0,0c0,0,0,0,0,0c0,0,0,0,0,0c0,0,0,0,0,0c0,0,0,0,0,0c0,0,0,0,0,0c0,0,0,0,0,0c0,0,0,0,0,0c0,0,0,0,0,0
						c0,0,0,0,0,0c0,0,0,0,0,0c0,0,0,0,0,0c0,0,0,0,0,0c0,0,0,0,0,0c0,0,0,0,0,0c0,0,0,0,0,0c0,0,0,0,0-0.1c0,0,0,0,0,0c0,0,0,0,0,0
						c0,0,0,0,0,0c0,0,0,0,0,0c0,0,0,0,0,0c0,0,0,0,0,0c0,0,0,0,0,0c0,0,0,0,0,0c0,0,0,0,0,0c0,0,0,0-0.1,0c0,0,0,0-0.1,0
						c0,0,0,0-0.1,0c0,0,0,0-0.1,0c0,0-0.1,0-0.1,0c0,0-0.1,0-0.1,0c0,0-0.1,0-0.1,0c0,0-0.1,0-0.1,0c0,0-0.1,0-0.1,0
						c0,0-0.1,0-0.1,0c0,0-0.1,0-0.1,0c0,0-0.1,0-0.1,0c0,0-0.1,0-0.1,0c0,0-0.1,0-0.1,0c0,0-0.1,0-0.1,0c0,0-0.1,0-0.1,0
						c0,0-0.1,0-0.1,0c0,0-0.1,0-0.1,0c0,0-0.1,0-0.1,0c0,0-0.1,0-0.1,0c0,0,0,0-0.1,0c0.2-0.4,0.7-0.7,1.2-0.7
						c0.8,0,1.4,0.6,1.4,1.4C991.2,28.7,990.6,29.3,989.9,29.3z"/>
					<path class="st8" d="M988.5,27.9c0-0.1-0.1-0.1-0.1-0.1c-0.7,0.1-1.4,0.2-2.1,0.2c0,0,0,0,0,0c-0.7,0-1.4-0.1-2.1-0.2
						c-0.1,0-0.1,0-0.1,0.1c0,0.1,0,0.1,0.1,0.1c0.7,0.1,1.5,0.2,2.2,0.2c0,0,0,0,0,0c0.7,0,1.5-0.1,2.2-0.2
						C988.5,28,988.6,27.9,988.5,27.9z"/>
				</g>
			</g>
		</g>
		<g>
			<g id="g5_00000003104568527377982390000015730788380089338031_">
				<circle id="circle7_00000036946728414305066940000002967394354430138527_" class="st7" cx="753" cy="27" r="9"/>
			</g>
			<g>
				<g>
					<g>
						<path class="st8" d="M751.4,27c0.3,0,0.5-0.7,0.5-1.6c0-0.9-0.2-1.6-0.5-1.6c-0.3,0-0.5,0.7-0.5,1.6
							C750.9,26.3,751.1,27,751.4,27z"/>
					</g>
					<g>
						<path class="st8" d="M754.6,27c0.3,0,0.5-0.7,0.5-1.6s-0.2-1.6-0.5-1.6c-0.3,0-0.5,0.7-0.5,1.6C754.1,26.2,754.3,27,754.6,27z
							"/>
					</g>
				</g>
				<g>
					<path class="st8" d="M753,34.2c-4,0-7.2-3.2-7.2-7.2c0-4,3.2-7.2,7.2-7.2c4,0,7.2,3.2,7.2,7.2C760.2,31,757,34.2,753,34.2z
						 M753,20.1c-3.8,0-6.9,3.1-6.9,6.9c0,3.8,3.1,6.9,6.9,6.9c3.8,0,6.9-3.1,6.9-6.9C759.9,23.2,756.8,20.1,753,20.1z"/>
				</g>
				<g>
					<path class="st8" d="M756.7,26.4c-0.6,0-1.2,0.4-1.5,0.9c-0.7,0-1.4-0.1-2.2-0.1c-0.8,0-1.5,0-2.1,0.1
						c-0.3-0.6-0.8-0.9-1.5-0.9c-0.9,0-1.6,0.7-1.6,1.6c0,0.9,0.7,1.6,1.6,1.6c0.6,0,1.2-0.4,1.5-0.9c0.7,0,1.4,0.1,2.1,0.1
						c0.7,0,1.5,0,2.2-0.1c0.3,0.6,0.8,0.9,1.5,0.9c0.9,0,1.6-0.7,1.6-1.6C758.3,27.1,757.6,26.4,756.7,26.4z M749.5,29.3
						c-0.8,0-1.4-0.6-1.4-1.4c0-0.8,0.6-1.4,1.4-1.4c0.5,0,1,0.3,1.2,0.7c0,0,0,0-0.1,0c0,0-0.1,0-0.1,0c0,0-0.1,0-0.1,0
						c0,0-0.1,0-0.1,0c0,0-0.1,0-0.1,0c0,0-0.1,0-0.1,0c0,0-0.1,0-0.1,0c0,0-0.1,0-0.1,0c0,0-0.1,0-0.1,0c0,0-0.1,0-0.1,0
						c0,0-0.1,0-0.1,0c0,0-0.1,0-0.1,0c0,0-0.1,0-0.1,0c0,0-0.1,0-0.1,0c0,0-0.1,0-0.1,0c0,0-0.1,0-0.1,0c0,0-0.1,0-0.1,0
						c0,0,0,0-0.1,0c0,0,0,0-0.1,0c0,0,0,0-0.1,0c0,0,0,0-0.1,0c0,0,0,0,0,0c0,0,0,0,0,0c0,0,0,0,0,0c0,0,0,0,0,0c0,0,0,0,0,0
						c0,0,0,0,0,0c0,0,0,0,0,0c0,0,0,0,0,0c0,0,0,0,0,0c0,0,0,0,0,0.1c0,0,0,0,0,0c0,0,0,0,0,0c0,0,0,0,0,0c0,0,0,0,0,0c0,0,0,0,0,0
						c0,0,0,0,0,0c0,0,0,0,0,0c0,0,0,0,0,0c0,0,0,0,0,0c0,0,0,0,0,0c0,0,0,0,0,0c0,0,0,0,0,0c0,0,0,0,0,0c0,0,0,0,0,0c0,0,0,0,0,0
						c0,0,0,0,0,0c0,0,0,0,0,0c0,0,0,0,0,0c0,0,0,0,0,0c0,0,0,0,0,0c0,0,0,0,0,0c0,0,0,0,0,0c0,0,0,0,0,0c0,0,0,0,0,0c0,0,0,0,0,0
						c0,0,0,0,0,0c0,0,0,0,0,0c0,0,0,0,0,0c0,0,0,0,0,0c0,0,0,0,0,0c0,0,0,0,0,0c0,0,0,0,0,0c0,0,0,0,0,0c0,0,0,0,0,0c0,0,0,0,0,0
						c0,0,0,0,0,0c0,0,0,0,0,0c0,0,0,0,0,0c0,0,0,0,0,0c0,0,0,0,0.1,0c0,0,0,0,0,0c0,0,0,0,0.1,0c0,0,0,0,0.1,0c0,0,0,0,0.1,0
						c0,0,0,0,0.1,0c0,0,0,0,0.1,0c0,0,0,0,0.1,0c0,0,0.1,0,0.1,0c0,0,0,0,0.1,0c0,0,0.1,0,0.1,0c0,0,0,0,0.1,0c0,0,0.1,0,0.1,0
						c0,0,0,0,0.1,0c0,0,0.1,0,0.1,0c0,0,0,0,0.1,0c0,0,0.1,0,0.1,0c0,0,0.1,0,0.1,0c0,0,0.1,0,0.1,0c0,0,0.1,0,0.1,0
						c0,0,0.1,0,0.1,0c0,0,0.1,0,0.1,0c0,0,0,0,0,0C750.5,29,750,29.3,749.5,29.3z M750.9,28.4c-1.8-0.1-2.3-0.4-2.3-0.4
						c0,0,0,0,0.1-0.1c0.2-0.1,0.8-0.3,2.3-0.4c0.7,0,1.4-0.1,2.2-0.1c0.8,0,1.6,0,2.2,0.1c0.1,0,0.2,0,0.3,0c0,0,0.1,0,0.1,0
						c0.1,0,0.1,0,0.2,0c0.1,0,0.1,0,0.2,0c0,0,0.1,0,0.1,0c1,0.1,1.4,0.3,1.5,0.3c0,0,0,0,0,0c0,0,0,0,0,0c0,0,0,0,0,0c0,0,0,0,0,0
						c0,0,0,0,0,0c0,0,0,0,0,0c0,0,0,0,0,0c0,0,0,0,0,0c0,0,0,0,0,0c0,0,0,0,0,0c0,0,0,0,0,0c0,0,0,0,0,0c0,0,0,0,0,0c0,0,0,0-0.1,0
						c0,0,0,0-0.1,0c0,0,0,0-0.1,0c0,0,0,0-0.1,0c0,0,0,0-0.1,0c0,0-0.1,0-0.1,0c0,0-0.1,0-0.1,0c0,0-0.1,0-0.1,0c0,0-0.1,0-0.1,0
						c0,0-0.1,0-0.1,0c0,0-0.1,0-0.1,0c0,0-0.1,0-0.1,0c0,0-0.1,0-0.1,0c-0.1,0-0.1,0-0.2,0c0,0-0.1,0-0.1,0c-0.1,0-0.1,0-0.2,0
						c0,0-0.1,0-0.1,0c-0.1,0-0.2,0-0.3,0l0,0C754,28.5,752.3,28.5,750.9,28.4z M756.7,29.3c-0.5,0-1-0.3-1.2-0.7c0,0,0,0,0,0
						c0,0,0.1,0,0.1,0c0,0,0.1,0,0.1,0c0,0,0.1,0,0.1,0c0,0,0.1,0,0.1,0c0,0,0.1,0,0.1,0c0,0,0.1,0,0.1,0c0,0,0.1,0,0.1,0
						c0,0,0.1,0,0.1,0c0,0,0,0,0.1,0c0,0,0.1,0,0.1,0c0,0,0,0,0.1,0c0,0,0.1,0,0.1,0c0,0,0,0,0.1,0c0,0,0.1,0,0.1,0c0,0,0,0,0.1,0
						c0,0,0,0,0.1,0c0,0,0,0,0.1,0c0,0,0,0,0.1,0c0,0,0,0,0,0c0,0,0,0,0.1,0c0,0,0,0,0,0c0,0,0,0,0.1,0c0,0,0,0,0,0c0,0,0,0,0,0
						c0,0,0,0,0,0c0,0,0,0,0,0c0,0,0,0,0,0c0,0,0,0,0,0c0,0,0,0,0,0c0,0,0,0,0,0c0,0,0,0,0,0c0,0,0,0,0,0c0,0,0,0,0,0c0,0,0,0,0,0
						c0,0,0,0,0,0c0,0,0,0,0,0c0,0,0,0,0,0c0,0,0,0,0,0c0,0,0,0,0,0c0,0,0,0,0,0c0,0,0,0,0,0c0,0,0,0,0,0c0,0,0,0,0,0c0,0,0,0,0,0
						c0,0,0,0,0,0c0,0,0,0,0,0c0,0,0,0,0,0c0,0,0,0,0,0c0,0,0,0,0,0c0,0,0,0,0,0c0,0,0,0,0,0c0,0,0,0,0,0c0,0,0,0,0,0c0,0,0,0,0,0
						c0,0,0,0,0,0c0,0,0,0,0,0c0,0,0,0,0,0c0,0,0,0,0,0c0,0,0,0,0,0c0,0,0,0,0,0c0,0,0,0,0,0c0,0,0,0,0-0.1c0,0,0,0,0,0c0,0,0,0,0,0
						c0,0,0,0,0,0c0,0,0,0,0,0c0,0,0,0,0,0c0,0,0,0,0,0c0,0,0,0,0,0c0,0,0,0,0,0c0,0,0,0,0,0c0,0,0,0-0.1,0c0,0,0,0-0.1,0
						c0,0,0,0-0.1,0c0,0,0,0-0.1,0c0,0-0.1,0-0.1,0c0,0-0.1,0-0.1,0c0,0-0.1,0-0.1,0c0,0-0.1,0-0.1,0c0,0-0.1,0-0.1,0
						c0,0-0.1,0-0.1,0c0,0-0.1,0-0.1,0c0,0-0.1,0-0.1,0c0,0-0.1,0-0.1,0c0,0-0.1,0-0.1,0c0,0-0.1,0-0.1,0c0,0-0.1,0-0.1,0
						c0,0-0.1,0-0.1,0c0,0-0.1,0-0.1,0c0,0-0.1,0-0.1,0c0,0-0.1,0-0.1,0c0,0,0,0-0.1,0c0.2-0.4,0.7-0.7,1.2-0.7
						c0.8,0,1.4,0.6,1.4,1.4C758.1,28.7,757.5,29.3,756.7,29.3z"/>
					<path class="st8" d="M755.4,27.9c0-0.1-0.1-0.1-0.1-0.1c-0.7,0.1-1.4,0.2-2.1,0.2c0,0,0,0,0,0c-0.7,0-1.4-0.1-2.1-0.2
						c-0.1,0-0.1,0-0.1,0.1c0,0.1,0,0.1,0.1,0.1c0.7,0.1,1.5,0.2,2.2,0.2c0,0,0,0,0,0c0.7,0,1.5-0.1,2.2-0.2
						C755.4,28,755.4,27.9,755.4,27.9z"/>
				</g>
			</g>
		</g>
		<g>
			<g id="g5_00000082326434871567820490000016328433160672607403_">
				<circle id="circle7_00000138541118782759434290000007140194427215102367_" class="st7" cx="264.7" cy="27" r="9"/>
			</g>
			<g>
				<g>
					<g>
						<path class="st8" d="M263.1,27c0.3,0,0.5-0.7,0.5-1.6c0-0.9-0.2-1.6-0.5-1.6c-0.3,0-0.5,0.7-0.5,1.6
							C262.6,26.3,262.8,27,263.1,27z"/>
					</g>
					<g>
						<path class="st8" d="M266.3,27c0.3,0,0.5-0.7,0.5-1.6c0-0.9-0.2-1.6-0.5-1.6c-0.3,0-0.5,0.7-0.5,1.6
							C265.8,26.2,266,27,266.3,27z"/>
					</g>
				</g>
				<g>
					<path class="st8" d="M264.7,34.2c-4,0-7.2-3.2-7.2-7.2c0-4,3.2-7.2,7.2-7.2c4,0,7.2,3.2,7.2,7.2C272,31,268.7,34.2,264.7,34.2z
						 M264.7,20.1c-3.8,0-6.9,3.1-6.9,6.9c0,3.8,3.1,6.9,6.9,6.9c3.8,0,6.9-3.1,6.9-6.9C271.6,23.2,268.5,20.1,264.7,20.1z"/>
				</g>
				<g>
					<path class="st8" d="M268.5,26.4c-0.6,0-1.2,0.4-1.5,0.9c-0.7,0-1.4-0.1-2.2-0.1c-0.8,0-1.5,0-2.1,0.1
						c-0.3-0.6-0.8-0.9-1.5-0.9c-0.9,0-1.6,0.7-1.6,1.6c0,0.9,0.7,1.6,1.6,1.6c0.6,0,1.2-0.4,1.5-0.9c0.7,0,1.4,0.1,2.1,0.1
						c0.7,0,1.5,0,2.2-0.1c0.3,0.6,0.8,0.9,1.5,0.9c0.9,0,1.6-0.7,1.6-1.6C270.1,27.1,269.4,26.4,268.5,26.4z M261.3,29.3
						c-0.8,0-1.4-0.6-1.4-1.4c0-0.8,0.6-1.4,1.4-1.4c0.5,0,1,0.3,1.2,0.7c0,0,0,0-0.1,0c0,0-0.1,0-0.1,0c0,0-0.1,0-0.1,0
						c0,0-0.1,0-0.1,0c0,0-0.1,0-0.1,0c0,0-0.1,0-0.1,0c0,0-0.1,0-0.1,0c0,0-0.1,0-0.1,0c0,0-0.1,0-0.1,0c0,0-0.1,0-0.1,0
						c0,0-0.1,0-0.1,0c0,0-0.1,0-0.1,0c0,0-0.1,0-0.1,0c0,0-0.1,0-0.1,0c0,0-0.1,0-0.1,0c0,0-0.1,0-0.1,0c0,0-0.1,0-0.1,0
						c0,0,0,0-0.1,0c0,0,0,0-0.1,0c0,0,0,0-0.1,0c0,0,0,0-0.1,0c0,0,0,0,0,0c0,0,0,0,0,0c0,0,0,0,0,0c0,0,0,0,0,0c0,0,0,0,0,0
						c0,0,0,0,0,0c0,0,0,0,0,0c0,0,0,0,0,0c0,0,0,0,0,0c0,0,0,0,0,0.1c0,0,0,0,0,0c0,0,0,0,0,0c0,0,0,0,0,0c0,0,0,0,0,0c0,0,0,0,0,0
						c0,0,0,0,0,0c0,0,0,0,0,0c0,0,0,0,0,0c0,0,0,0,0,0c0,0,0,0,0,0s0,0,0,0c0,0,0,0,0,0c0,0,0,0,0,0c0,0,0,0,0,0c0,0,0,0,0,0
						c0,0,0,0,0,0c0,0,0,0,0,0c0,0,0,0,0,0c0,0,0,0,0,0c0,0,0,0,0,0c0,0,0,0,0,0c0,0,0,0,0,0c0,0,0,0,0,0c0,0,0,0,0,0c0,0,0,0,0,0
						c0,0,0,0,0,0c0,0,0,0,0,0c0,0,0,0,0,0c0,0,0,0,0,0c0,0,0,0,0,0c0,0,0,0,0,0c0,0,0,0,0,0c0,0,0,0,0,0c0,0,0,0,0,0c0,0,0,0,0,0
						c0,0,0,0,0,0c0,0,0,0,0,0c0,0,0,0,0,0c0,0,0,0,0,0c0,0,0,0,0.1,0c0,0,0,0,0,0c0,0,0,0,0.1,0c0,0,0,0,0.1,0c0,0,0,0,0.1,0
						c0,0,0,0,0.1,0c0,0,0,0,0.1,0c0,0,0,0,0.1,0c0,0,0.1,0,0.1,0c0,0,0,0,0.1,0c0,0,0.1,0,0.1,0c0,0,0,0,0.1,0c0,0,0.1,0,0.1,0
						c0,0,0,0,0.1,0c0,0,0.1,0,0.1,0c0,0,0,0,0.1,0c0,0,0.1,0,0.1,0c0,0,0.1,0,0.1,0c0,0,0.1,0,0.1,0c0,0,0.1,0,0.1,0
						c0,0,0.1,0,0.1,0c0,0,0.1,0,0.1,0c0,0,0,0,0,0C262.2,29,261.8,29.3,261.3,29.3z M262.7,28.4c-1.8-0.1-2.3-0.4-2.3-0.4
						c0,0,0,0,0.1-0.1c0.2-0.1,0.8-0.3,2.3-0.4c0.7,0,1.4-0.1,2.2-0.1c0.8,0,1.6,0,2.2,0.1c0.1,0,0.2,0,0.3,0c0,0,0.1,0,0.1,0
						c0.1,0,0.1,0,0.2,0c0.1,0,0.1,0,0.2,0c0,0,0.1,0,0.1,0c1,0.1,1.4,0.3,1.5,0.3c0,0,0,0,0,0c0,0,0,0,0,0c0,0,0,0,0,0c0,0,0,0,0,0
						c0,0,0,0,0,0c0,0,0,0,0,0c0,0,0,0,0,0c0,0,0,0,0,0c0,0,0,0,0,0c0,0,0,0,0,0c0,0,0,0,0,0c0,0,0,0,0,0c0,0,0,0,0,0c0,0,0,0-0.1,0
						c0,0,0,0-0.1,0c0,0,0,0-0.1,0c0,0,0,0-0.1,0c0,0,0,0-0.1,0c0,0-0.1,0-0.1,0c0,0-0.1,0-0.1,0c0,0-0.1,0-0.1,0c0,0-0.1,0-0.1,0
						c0,0-0.1,0-0.1,0c0,0-0.1,0-0.1,0c0,0-0.1,0-0.1,0c0,0-0.1,0-0.1,0c-0.1,0-0.1,0-0.2,0c0,0-0.1,0-0.1,0c-0.1,0-0.1,0-0.2,0
						c0,0-0.1,0-0.1,0c-0.1,0-0.2,0-0.3,0l0,0C265.7,28.5,264,28.5,262.7,28.4z M268.5,29.3c-0.5,0-1-0.3-1.2-0.7c0,0,0,0,0,0
						c0,0,0.1,0,0.1,0c0,0,0.1,0,0.1,0c0,0,0.1,0,0.1,0c0,0,0.1,0,0.1,0c0,0,0.1,0,0.1,0c0,0,0.1,0,0.1,0c0,0,0.1,0,0.1,0
						c0,0,0.1,0,0.1,0c0,0,0,0,0.1,0c0,0,0.1,0,0.1,0c0,0,0,0,0.1,0c0,0,0.1,0,0.1,0c0,0,0,0,0.1,0c0,0,0.1,0,0.1,0c0,0,0,0,0.1,0
						c0,0,0,0,0.1,0c0,0,0,0,0.1,0c0,0,0,0,0.1,0c0,0,0,0,0,0c0,0,0,0,0.1,0c0,0,0,0,0,0c0,0,0,0,0.1,0c0,0,0,0,0,0c0,0,0,0,0,0
						c0,0,0,0,0,0c0,0,0,0,0,0c0,0,0,0,0,0c0,0,0,0,0,0c0,0,0,0,0,0c0,0,0,0,0,0c0,0,0,0,0,0c0,0,0,0,0,0c0,0,0,0,0,0c0,0,0,0,0,0
						c0,0,0,0,0,0c0,0,0,0,0,0c0,0,0,0,0,0c0,0,0,0,0,0c0,0,0,0,0,0c0,0,0,0,0,0c0,0,0,0,0,0c0,0,0,0,0,0c0,0,0,0,0,0c0,0,0,0,0,0
						c0,0,0,0,0,0c0,0,0,0,0,0c0,0,0,0,0,0c0,0,0,0,0,0c0,0,0,0,0,0c0,0,0,0,0,0c0,0,0,0,0,0c0,0,0,0,0,0c0,0,0,0,0,0c0,0,0,0,0,0
						c0,0,0,0,0,0c0,0,0,0,0,0c0,0,0,0,0,0c0,0,0,0,0,0c0,0,0,0,0,0c0,0,0,0,0,0c0,0,0,0,0,0c0,0,0,0,0-0.1c0,0,0,0,0,0c0,0,0,0,0,0
						c0,0,0,0,0,0c0,0,0,0,0,0c0,0,0,0,0,0c0,0,0,0,0,0c0,0,0,0,0,0c0,0,0,0,0,0c0,0,0,0,0,0c0,0,0,0-0.1,0c0,0,0,0-0.1,0
						c0,0,0,0-0.1,0c0,0,0,0-0.1,0c0,0-0.1,0-0.1,0c0,0-0.1,0-0.1,0c0,0-0.1,0-0.1,0c0,0-0.1,0-0.1,0c0,0-0.1,0-0.1,0
						c0,0-0.1,0-0.1,0c0,0-0.1,0-0.1,0c0,0-0.1,0-0.1,0c0,0-0.1,0-0.1,0c0,0-0.1,0-0.1,0c0,0-0.1,0-0.1,0c0,0-0.1,0-0.1,0
						c0,0-0.1,0-0.1,0c0,0-0.1,0-0.1,0c0,0-0.1,0-0.1,0c0,0-0.1,0-0.1,0c0,0,0,0-0.1,0c0.2-0.4,0.7-0.7,1.2-0.7
						c0.8,0,1.4,0.6,1.4,1.4C269.8,28.7,269.2,29.3,268.5,29.3z"/>
					<path class="st8" d="M267.1,27.9c0-0.1-0.1-0.1-0.1-0.1c-0.7,0.1-1.4,0.2-2.1,0.2c0,0,0,0,0,0c-0.7,0-1.4-0.1-2.1-0.2
						c-0.1,0-0.1,0-0.1,0.1c0,0.1,0,0.1,0.1,0.1c0.7,0.1,1.5,0.2,2.2,0.2c0,0,0,0,0,0c0.7,0,1.5-0.1,2.2-0.2
						C267.1,28,267.2,27.9,267.1,27.9z"/>
				</g>
			</g>
		</g>
		<path class="st8" d="M897.1,34.1c-5.3-5.3-8.9-5.3-14.2,0c5.3-5.3,5.3-8.9,0-14.2c5.3,5.3,8.9,5.3,14.2,0
			C891.8,25.2,891.8,28.8,897.1,34.1z"/>
		<rect x="1117.6" y="19" class="st1" width="146.2" height="18.7"/>
		<text transform="matrix(1 0 0 1 1117.5549 34.4706)"><tspan x="0" y="0" class="st2 st3 st4">portafo</tspan><tspan x="137.6" y="0" class="st2 st3">-</tspan></text>
		<rect x="1409" y="19" class="st1" width="83" height="18.7"/>
		<text transform="matrix(1 0 0 1 1409.0256 34.4706)" class="st2 st3">MMXX</text>
		<g>
			<rect x="1301.6" y="17.8" class="st1" width="65.5" height="18.1"/>
			<text transform="matrix(1 0 0 1 1301.5608 35.3055)" class="st5 st6">202x</text>
		</g>
		<g>
			<g id="g5_00000078759138588921635460000008818340436587423911_">
				<circle id="circle7_00000153687277859996124300000003012525288559294605_" class="st7" cx="1486.3" cy="27" r="9"/>
			</g>
			<g>
				<g>
					<g>
						<path class="st8" d="M1484.7,27c0.3,0,0.5-0.7,0.5-1.6c0-0.9-0.2-1.6-0.5-1.6c-0.3,0-0.5,0.7-0.5,1.6
							C1484.2,26.3,1484.4,27,1484.7,27z"/>
					</g>
					<g>
						<path class="st8" d="M1487.9,27c0.3,0,0.5-0.7,0.5-1.6s-0.2-1.6-0.5-1.6c-0.3,0-0.5,0.7-0.5,1.6
							C1487.4,26.2,1487.6,27,1487.9,27z"/>
					</g>
				</g>
				<g>
					<path class="st8" d="M1486.3,34.2c-4,0-7.2-3.2-7.2-7.2c0-4,3.2-7.2,7.2-7.2c4,0,7.2,3.2,7.2,7.2
						C1493.5,31,1490.3,34.2,1486.3,34.2z M1486.3,20.1c-3.8,0-6.9,3.1-6.9,6.9c0,3.8,3.1,6.9,6.9,6.9c3.8,0,6.9-3.1,6.9-6.9
						C1493.2,23.2,1490.1,20.1,1486.3,20.1z"/>
				</g>
				<g>
					<path class="st8" d="M1490,26.4c-0.6,0-1.2,0.4-1.5,0.9c-0.7,0-1.4-0.1-2.2-0.1c-0.8,0-1.5,0-2.1,0.1c-0.3-0.6-0.8-0.9-1.5-0.9
						c-0.9,0-1.6,0.7-1.6,1.6c0,0.9,0.7,1.6,1.6,1.6c0.6,0,1.2-0.4,1.5-0.9c0.7,0,1.4,0.1,2.1,0.1c0.7,0,1.5,0,2.2-0.1
						c0.3,0.6,0.8,0.9,1.5,0.9c0.9,0,1.6-0.7,1.6-1.6C1491.7,27.1,1490.9,26.4,1490,26.4z M1482.8,29.3c-0.8,0-1.4-0.6-1.4-1.4
						c0-0.8,0.6-1.4,1.4-1.4c0.5,0,1,0.3,1.2,0.7c0,0,0,0-0.1,0c0,0-0.1,0-0.1,0c0,0-0.1,0-0.1,0c0,0-0.1,0-0.1,0c0,0-0.1,0-0.1,0
						c0,0-0.1,0-0.1,0c0,0-0.1,0-0.1,0c0,0-0.1,0-0.1,0c0,0-0.1,0-0.1,0c0,0-0.1,0-0.1,0c0,0-0.1,0-0.1,0c0,0-0.1,0-0.1,0
						c0,0-0.1,0-0.1,0c0,0-0.1,0-0.1,0c0,0-0.1,0-0.1,0c0,0-0.1,0-0.1,0c0,0-0.1,0-0.1,0c0,0,0,0-0.1,0c0,0,0,0-0.1,0c0,0,0,0-0.1,0
						c0,0,0,0-0.1,0c0,0,0,0,0,0c0,0,0,0,0,0c0,0,0,0,0,0c0,0,0,0,0,0c0,0,0,0,0,0c0,0,0,0,0,0c0,0,0,0,0,0c0,0,0,0,0,0c0,0,0,0,0,0
						c0,0,0,0,0,0.1c0,0,0,0,0,0c0,0,0,0,0,0c0,0,0,0,0,0c0,0,0,0,0,0c0,0,0,0,0,0c0,0,0,0,0,0c0,0,0,0,0,0c0,0,0,0,0,0c0,0,0,0,0,0
						c0,0,0,0,0,0s0,0,0,0c0,0,0,0,0,0c0,0,0,0,0,0c0,0,0,0,0,0c0,0,0,0,0,0c0,0,0,0,0,0c0,0,0,0,0,0c0,0,0,0,0,0c0,0,0,0,0,0
						c0,0,0,0,0,0c0,0,0,0,0,0c0,0,0,0,0,0c0,0,0,0,0,0c0,0,0,0,0,0c0,0,0,0,0,0c0,0,0,0,0,0c0,0,0,0,0,0c0,0,0,0,0,0c0,0,0,0,0,0
						c0,0,0,0,0,0c0,0,0,0,0,0c0,0,0,0,0,0c0,0,0,0,0,0c0,0,0,0,0,0c0,0,0,0,0,0c0,0,0,0,0,0c0,0,0,0,0,0c0,0,0,0,0,0c0,0,0,0,0,0
						c0,0,0,0,0.1,0c0,0,0,0,0,0c0,0,0,0,0.1,0c0,0,0,0,0.1,0c0,0,0,0,0.1,0c0,0,0,0,0.1,0c0,0,0,0,0.1,0c0,0,0,0,0.1,0
						c0,0,0.1,0,0.1,0c0,0,0,0,0.1,0c0,0,0.1,0,0.1,0c0,0,0,0,0.1,0c0,0,0.1,0,0.1,0c0,0,0,0,0.1,0c0,0,0.1,0,0.1,0c0,0,0,0,0.1,0
						c0,0,0.1,0,0.1,0c0,0,0.1,0,0.1,0c0,0,0.1,0,0.1,0c0,0,0.1,0,0.1,0c0,0,0.1,0,0.1,0c0,0,0.1,0,0.1,0c0,0,0,0,0,0
						C1483.8,29,1483.4,29.3,1482.8,29.3z M1484.2,28.4c-1.8-0.1-2.3-0.4-2.3-0.4c0,0,0,0,0.1-0.1c0.2-0.1,0.8-0.3,2.3-0.4
						c0.7,0,1.4-0.1,2.2-0.1c0.8,0,1.6,0,2.2,0.1c0.1,0,0.2,0,0.3,0c0,0,0.1,0,0.1,0c0.1,0,0.1,0,0.2,0c0.1,0,0.1,0,0.2,0
						c0,0,0.1,0,0.1,0c1,0.1,1.4,0.3,1.5,0.3c0,0,0,0,0,0c0,0,0,0,0,0c0,0,0,0,0,0c0,0,0,0,0,0c0,0,0,0,0,0c0,0,0,0,0,0c0,0,0,0,0,0
						c0,0,0,0,0,0c0,0,0,0,0,0c0,0,0,0,0,0c0,0,0,0,0,0c0,0,0,0,0,0c0,0,0,0,0,0c0,0,0,0-0.1,0c0,0,0,0-0.1,0c0,0,0,0-0.1,0
						c0,0,0,0-0.1,0c0,0,0,0-0.1,0c0,0-0.1,0-0.1,0c0,0-0.1,0-0.1,0c0,0-0.1,0-0.1,0c0,0-0.1,0-0.1,0c0,0-0.1,0-0.1,0
						c0,0-0.1,0-0.1,0c0,0-0.1,0-0.1,0c0,0-0.1,0-0.1,0c-0.1,0-0.1,0-0.2,0c0,0-0.1,0-0.1,0c-0.1,0-0.1,0-0.2,0c0,0-0.1,0-0.1,0
						c-0.1,0-0.2,0-0.3,0l0,0C1487.3,28.5,1485.6,28.5,1484.2,28.4z M1490,29.3c-0.5,0-1-0.3-1.2-0.7c0,0,0,0,0,0c0,0,0.1,0,0.1,0
						c0,0,0.1,0,0.1,0c0,0,0.1,0,0.1,0c0,0,0.1,0,0.1,0c0,0,0.1,0,0.1,0c0,0,0.1,0,0.1,0c0,0,0.1,0,0.1,0c0,0,0.1,0,0.1,0
						c0,0,0,0,0.1,0c0,0,0.1,0,0.1,0c0,0,0,0,0.1,0c0,0,0.1,0,0.1,0c0,0,0,0,0.1,0c0,0,0.1,0,0.1,0c0,0,0,0,0.1,0c0,0,0,0,0.1,0
						c0,0,0,0,0.1,0c0,0,0,0,0.1,0c0,0,0,0,0,0c0,0,0,0,0.1,0c0,0,0,0,0,0c0,0,0,0,0.1,0c0,0,0,0,0,0c0,0,0,0,0,0c0,0,0,0,0,0
						c0,0,0,0,0,0c0,0,0,0,0,0c0,0,0,0,0,0c0,0,0,0,0,0c0,0,0,0,0,0c0,0,0,0,0,0c0,0,0,0,0,0c0,0,0,0,0,0c0,0,0,0,0,0c0,0,0,0,0,0
						c0,0,0,0,0,0c0,0,0,0,0,0c0,0,0,0,0,0c0,0,0,0,0,0c0,0,0,0,0,0c0,0,0,0,0,0c0,0,0,0,0,0c0,0,0,0,0,0c0,0,0,0,0,0c0,0,0,0,0,0
						c0,0,0,0,0,0c0,0,0,0,0,0c0,0,0,0,0,0c0,0,0,0,0,0c0,0,0,0,0,0c0,0,0,0,0,0c0,0,0,0,0,0c0,0,0,0,0,0c0,0,0,0,0,0c0,0,0,0,0,0
						c0,0,0,0,0,0c0,0,0,0,0,0c0,0,0,0,0,0c0,0,0,0,0,0c0,0,0,0,0,0c0,0,0,0,0,0c0,0,0,0,0-0.1c0,0,0,0,0,0c0,0,0,0,0,0c0,0,0,0,0,0
						c0,0,0,0,0,0c0,0,0,0,0,0c0,0,0,0,0,0c0,0,0,0,0,0c0,0,0,0,0,0c0,0,0,0,0,0c0,0,0,0-0.1,0c0,0,0,0-0.1,0c0,0,0,0-0.1,0
						c0,0,0,0-0.1,0c0,0-0.1,0-0.1,0c0,0-0.1,0-0.1,0c0,0-0.1,0-0.1,0c0,0-0.1,0-0.1,0c0,0-0.1,0-0.1,0c0,0-0.1,0-0.1,0
						c0,0-0.1,0-0.1,0c0,0-0.1,0-0.1,0c0,0-0.1,0-0.1,0c0,0-0.1,0-0.1,0c0,0-0.1,0-0.1,0c0,0-0.1,0-0.1,0c0,0-0.1,0-0.1,0
						c0,0-0.1,0-0.1,0c0,0-0.1,0-0.1,0c0,0-0.1,0-0.1,0c0,0,0,0-0.1,0c0.2-0.4,0.7-0.7,1.2-0.7c0.8,0,1.4,0.6,1.4,1.4
						C1491.4,28.7,1490.8,29.3,1490,29.3z"/>
					<path class="st8" d="M1488.7,27.9c0-0.1-0.1-0.1-0.1-0.1c-0.7,0.1-1.4,0.2-2.1,0.2c0,0,0,0,0,0c-0.7,0-1.4-0.1-2.1-0.2
						c-0.1,0-0.1,0-0.1,0.1c0,0.1,0,0.1,0.1,0.1c0.7,0.1,1.5,0.2,2.2,0.2c0,0,0,0,0,0c0.7,0,1.5-0.1,2.2-0.2
						C1488.7,28,1488.7,27.9,1488.7,27.9z"/>
				</g>
			</g>
		</g>
		<path class="st8" d="M1397.3,34.1c-5.3-5.3-8.9-5.3-14.2,0c5.3-5.3,5.3-8.9,0-14.2c5.3,5.3,8.9,5.3,14.2,0
			C1392,25.2,1392,28.8,1397.3,34.1z"/>
		<rect x="1605.8" y="19" class="st1" width="146.2" height="18.7"/>
		<text transform="matrix(1 0 0 1 1605.8499 34.4706)"><tspan x="0" y="0" class="st2 st3 st4">portafo</tspan><tspan x="137.6" y="0" class="st2 st3">-</tspan></text>
		<rect x="1897.3" y="19" class="st1" width="83" height="18.7"/>
		<text transform="matrix(1 0 0 1 1897.3196 34.4706)" class="st2 st3">MMXX</text>
		<g>
			<rect x="1789.9" y="17.8" class="st1" width="65.5" height="18.1"/>
			<text transform="matrix(1 0 0 1 1789.8547 35.3055)" class="st5 st6">202x</text>
		</g>
		<g>
			<g id="g5_00000013882548571338669100000013156144161525904277_">
				<circle id="circle7_00000052073611584350588600000017040584133106918287_" class="st7" cx="1974.6" cy="27" r="9"/>
			</g>
			<g>
				<g>
					<g>
						<path class="st8" d="M1973,27c0.3,0,0.5-0.7,0.5-1.6c0-0.9-0.2-1.6-0.5-1.6c-0.3,0-0.5,0.7-0.5,1.6
							C1972.5,26.3,1972.7,27,1973,27z"/>
					</g>
					<g>
						<path class="st8" d="M1976.2,27c0.3,0,0.5-0.7,0.5-1.6c0-0.9-0.2-1.6-0.5-1.6c-0.3,0-0.5,0.7-0.5,1.6
							C1975.7,26.2,1975.9,27,1976.2,27z"/>
					</g>
				</g>
				<g>
					<path class="st8" d="M1974.6,34.2c-4,0-7.2-3.2-7.2-7.2c0-4,3.2-7.2,7.2-7.2c4,0,7.2,3.2,7.2,7.2
						C1981.8,31,1978.6,34.2,1974.6,34.2z M1974.6,20.1c-3.8,0-6.9,3.1-6.9,6.9c0,3.8,3.1,6.9,6.9,6.9c3.8,0,6.9-3.1,6.9-6.9
						C1981.5,23.2,1978.4,20.1,1974.6,20.1z"/>
				</g>
				<g>
					<path class="st8" d="M1978.3,26.4c-0.6,0-1.2,0.4-1.5,0.9c-0.7,0-1.4-0.1-2.2-0.1c-0.8,0-1.5,0-2.1,0.1
						c-0.3-0.6-0.8-0.9-1.5-0.9c-0.9,0-1.6,0.7-1.6,1.6c0,0.9,0.7,1.6,1.6,1.6c0.6,0,1.2-0.4,1.5-0.9c0.7,0,1.4,0.1,2.1,0.1
						c0.7,0,1.5,0,2.2-0.1c0.3,0.6,0.8,0.9,1.5,0.9c0.9,0,1.6-0.7,1.6-1.6C1979.9,27.1,1979.2,26.4,1978.3,26.4z M1971.1,29.3
						c-0.8,0-1.4-0.6-1.4-1.4c0-0.8,0.6-1.4,1.4-1.4c0.5,0,1,0.3,1.2,0.7c0,0,0,0-0.1,0c0,0-0.1,0-0.1,0c0,0-0.1,0-0.1,0
						c0,0-0.1,0-0.1,0c0,0-0.1,0-0.1,0c0,0-0.1,0-0.1,0c0,0-0.1,0-0.1,0c0,0-0.1,0-0.1,0c0,0-0.1,0-0.1,0c0,0-0.1,0-0.1,0
						c0,0-0.1,0-0.1,0c0,0-0.1,0-0.1,0c0,0-0.1,0-0.1,0c0,0-0.1,0-0.1,0c0,0-0.1,0-0.1,0c0,0-0.1,0-0.1,0c0,0-0.1,0-0.1,0
						c0,0,0,0-0.1,0c0,0,0,0-0.1,0c0,0,0,0-0.1,0c0,0,0,0-0.1,0c0,0,0,0,0,0c0,0,0,0,0,0c0,0,0,0,0,0c0,0,0,0,0,0c0,0,0,0,0,0
						c0,0,0,0,0,0c0,0,0,0,0,0c0,0,0,0,0,0c0,0,0,0,0,0c0,0,0,0,0,0.1c0,0,0,0,0,0c0,0,0,0,0,0c0,0,0,0,0,0c0,0,0,0,0,0c0,0,0,0,0,0
						c0,0,0,0,0,0c0,0,0,0,0,0c0,0,0,0,0,0c0,0,0,0,0,0c0,0,0,0,0,0c0,0,0,0,0,0c0,0,0,0,0,0c0,0,0,0,0,0c0,0,0,0,0,0c0,0,0,0,0,0
						c0,0,0,0,0,0c0,0,0,0,0,0c0,0,0,0,0,0c0,0,0,0,0,0c0,0,0,0,0,0c0,0,0,0,0,0c0,0,0,0,0,0c0,0,0,0,0,0c0,0,0,0,0,0c0,0,0,0,0,0
						c0,0,0,0,0,0c0,0,0,0,0,0c0,0,0,0,0,0c0,0,0,0,0,0c0,0,0,0,0,0c0,0,0,0,0,0c0,0,0,0,0,0c0,0,0,0,0,0c0,0,0,0,0,0c0,0,0,0,0,0
						c0,0,0,0,0,0c0,0,0,0,0,0c0,0,0,0,0,0c0,0,0,0,0,0c0,0,0,0,0.1,0c0,0,0,0,0,0c0,0,0,0,0.1,0c0,0,0,0,0.1,0c0,0,0,0,0.1,0
						c0,0,0,0,0.1,0c0,0,0,0,0.1,0c0,0,0,0,0.1,0c0,0,0.1,0,0.1,0c0,0,0,0,0.1,0c0,0,0.1,0,0.1,0c0,0,0,0,0.1,0c0,0,0.1,0,0.1,0
						c0,0,0,0,0.1,0c0,0,0.1,0,0.1,0c0,0,0,0,0.1,0c0,0,0.1,0,0.1,0c0,0,0.1,0,0.1,0c0,0,0.1,0,0.1,0c0,0,0.1,0,0.1,0
						c0,0,0.1,0,0.1,0c0,0,0.1,0,0.1,0c0,0,0,0,0,0C1972.1,29,1971.6,29.3,1971.1,29.3z M1972.5,28.4c-1.8-0.1-2.3-0.4-2.3-0.4
						c0,0,0,0,0.1-0.1c0.2-0.1,0.8-0.3,2.3-0.4c0.7,0,1.4-0.1,2.2-0.1c0.8,0,1.6,0,2.2,0.1c0.1,0,0.2,0,0.3,0c0,0,0.1,0,0.1,0
						c0.1,0,0.1,0,0.2,0c0.1,0,0.1,0,0.2,0c0,0,0.1,0,0.1,0c1,0.1,1.4,0.3,1.5,0.3c0,0,0,0,0,0c0,0,0,0,0,0c0,0,0,0,0,0c0,0,0,0,0,0
						c0,0,0,0,0,0c0,0,0,0,0,0c0,0,0,0,0,0c0,0,0,0,0,0c0,0,0,0,0,0c0,0,0,0,0,0c0,0,0,0,0,0c0,0,0,0,0,0c0,0,0,0,0,0c0,0,0,0-0.1,0
						c0,0,0,0-0.1,0c0,0,0,0-0.1,0c0,0,0,0-0.1,0c0,0,0,0-0.1,0c0,0-0.1,0-0.1,0c0,0-0.1,0-0.1,0c0,0-0.1,0-0.1,0c0,0-0.1,0-0.1,0
						c0,0-0.1,0-0.1,0c0,0-0.1,0-0.1,0c0,0-0.1,0-0.1,0c0,0-0.1,0-0.1,0c-0.1,0-0.1,0-0.2,0c0,0-0.1,0-0.1,0c-0.1,0-0.1,0-0.2,0
						c0,0-0.1,0-0.1,0c-0.1,0-0.2,0-0.3,0l0,0C1975.6,28.5,1973.9,28.5,1972.5,28.4z M1978.3,29.3c-0.5,0-1-0.3-1.2-0.7c0,0,0,0,0,0
						c0,0,0.1,0,0.1,0c0,0,0.1,0,0.1,0c0,0,0.1,0,0.1,0c0,0,0.1,0,0.1,0c0,0,0.1,0,0.1,0c0,0,0.1,0,0.1,0c0,0,0.1,0,0.1,0
						c0,0,0.1,0,0.1,0c0,0,0,0,0.1,0c0,0,0.1,0,0.1,0c0,0,0,0,0.1,0c0,0,0.1,0,0.1,0c0,0,0,0,0.1,0c0,0,0.1,0,0.1,0c0,0,0,0,0.1,0
						c0,0,0,0,0.1,0c0,0,0,0,0.1,0c0,0,0,0,0.1,0c0,0,0,0,0,0c0,0,0,0,0.1,0c0,0,0,0,0,0c0,0,0,0,0.1,0c0,0,0,0,0,0c0,0,0,0,0,0
						c0,0,0,0,0,0c0,0,0,0,0,0c0,0,0,0,0,0c0,0,0,0,0,0c0,0,0,0,0,0c0,0,0,0,0,0c0,0,0,0,0,0c0,0,0,0,0,0c0,0,0,0,0,0c0,0,0,0,0,0
						c0,0,0,0,0,0c0,0,0,0,0,0c0,0,0,0,0,0c0,0,0,0,0,0c0,0,0,0,0,0c0,0,0,0,0,0c0,0,0,0,0,0c0,0,0,0,0,0c0,0,0,0,0,0c0,0,0,0,0,0
						c0,0,0,0,0,0c0,0,0,0,0,0c0,0,0,0,0,0c0,0,0,0,0,0c0,0,0,0,0,0c0,0,0,0,0,0c0,0,0,0,0,0c0,0,0,0,0,0c0,0,0,0,0,0c0,0,0,0,0,0
						c0,0,0,0,0,0c0,0,0,0,0,0c0,0,0,0,0,0c0,0,0,0,0,0c0,0,0,0,0,0c0,0,0,0,0,0c0,0,0,0,0,0c0,0,0,0,0-0.1c0,0,0,0,0,0c0,0,0,0,0,0
						c0,0,0,0,0,0c0,0,0,0,0,0c0,0,0,0,0,0c0,0,0,0,0,0c0,0,0,0,0,0c0,0,0,0,0,0c0,0,0,0,0,0c0,0,0,0-0.1,0c0,0,0,0-0.1,0
						c0,0,0,0-0.1,0c0,0,0,0-0.1,0c0,0-0.1,0-0.1,0c0,0-0.1,0-0.1,0c0,0-0.1,0-0.1,0c0,0-0.1,0-0.1,0c0,0-0.1,0-0.1,0
						c0,0-0.1,0-0.1,0c0,0-0.1,0-0.1,0c0,0-0.1,0-0.1,0c0,0-0.1,0-0.1,0c0,0-0.1,0-0.1,0c0,0-0.1,0-0.1,0c0,0-0.1,0-0.1,0
						c0,0-0.1,0-0.1,0c0,0-0.1,0-0.1,0c0,0-0.1,0-0.1,0c0,0-0.1,0-0.1,0c0,0,0,0-0.1,0c0.2-0.4,0.7-0.7,1.2-0.7
						c0.8,0,1.4,0.6,1.4,1.4C1979.7,28.7,1979.1,29.3,1978.3,29.3z"/>
					<path class="st8" d="M1977,27.9c0-0.1-0.1-0.1-0.1-0.1c-0.7,0.1-1.4,0.2-2.1,0.2c0,0,0,0,0,0c-0.7,0-1.4-0.1-2.1-0.2
						c-0.1,0-0.1,0-0.1,0.1c0,0.1,0,0.1,0.1,0.1c0.7,0.1,1.5,0.2,2.2,0.2c0,0,0,0,0,0c0.7,0,1.5-0.1,2.2-0.2
						C1977,28,1977,27.9,1977,27.9z"/>
				</g>
			</g>
		</g>
		<g>
			<g id="g5_00000035518589313509367520000002988640226506078122_">
				<circle id="circle7_00000035518238109234565130000016366177315927554963_" class="st7" cx="1741.5" cy="27" r="9"/>
			</g>
			<g>
				<g>
					<g>
						<path class="st8" d="M1739.9,27c0.3,0,0.5-0.7,0.5-1.6c0-0.9-0.2-1.6-0.5-1.6c-0.3,0-0.5,0.7-0.5,1.6
							C1739.4,26.3,1739.6,27,1739.9,27z"/>
					</g>
					<g>
						<path class="st8" d="M1743.1,27c0.3,0,0.5-0.7,0.5-1.6c0-0.9-0.2-1.6-0.5-1.6c-0.3,0-0.5,0.7-0.5,1.6
							C1742.5,26.2,1742.8,27,1743.1,27z"/>
					</g>
				</g>
				<g>
					<path class="st8" d="M1741.5,34.2c-4,0-7.2-3.2-7.2-7.2c0-4,3.2-7.2,7.2-7.2c4,0,7.2,3.2,7.2,7.2
						C1748.7,31,1745.5,34.2,1741.5,34.2z M1741.5,20.1c-3.8,0-6.9,3.1-6.9,6.9c0,3.8,3.1,6.9,6.9,6.9c3.8,0,6.9-3.1,6.9-6.9
						C1748.3,23.2,1745.3,20.1,1741.5,20.1z"/>
				</g>
				<g>
					<path class="st8" d="M1745.2,26.4c-0.6,0-1.2,0.4-1.5,0.9c-0.7,0-1.4-0.1-2.2-0.1c-0.8,0-1.5,0-2.1,0.1
						c-0.3-0.6-0.8-0.9-1.5-0.9c-0.9,0-1.6,0.7-1.6,1.6c0,0.9,0.7,1.6,1.6,1.6c0.6,0,1.2-0.4,1.5-0.9c0.7,0,1.4,0.1,2.1,0.1
						c0.7,0,1.5,0,2.2-0.1c0.3,0.6,0.8,0.9,1.5,0.9c0.9,0,1.6-0.7,1.6-1.6C1746.8,27.1,1746.1,26.4,1745.2,26.4z M1738,29.3
						c-0.8,0-1.4-0.6-1.4-1.4c0-0.8,0.6-1.4,1.4-1.4c0.5,0,1,0.3,1.2,0.7c0,0,0,0-0.1,0c0,0-0.1,0-0.1,0c0,0-0.1,0-0.1,0
						c0,0-0.1,0-0.1,0c0,0-0.1,0-0.1,0c0,0-0.1,0-0.1,0c0,0-0.1,0-0.1,0c0,0-0.1,0-0.1,0c0,0-0.1,0-0.1,0c0,0-0.1,0-0.1,0
						c0,0-0.1,0-0.1,0c0,0-0.1,0-0.1,0c0,0-0.1,0-0.1,0c0,0-0.1,0-0.1,0c0,0-0.1,0-0.1,0c0,0-0.1,0-0.1,0c0,0-0.1,0-0.1,0
						c0,0,0,0-0.1,0c0,0,0,0-0.1,0c0,0,0,0-0.1,0c0,0,0,0-0.1,0c0,0,0,0,0,0c0,0,0,0,0,0c0,0,0,0,0,0c0,0,0,0,0,0c0,0,0,0,0,0
						c0,0,0,0,0,0c0,0,0,0,0,0c0,0,0,0,0,0c0,0,0,0,0,0c0,0,0,0,0,0.1c0,0,0,0,0,0c0,0,0,0,0,0c0,0,0,0,0,0c0,0,0,0,0,0c0,0,0,0,0,0
						c0,0,0,0,0,0c0,0,0,0,0,0c0,0,0,0,0,0c0,0,0,0,0,0c0,0,0,0,0,0c0,0,0,0,0,0c0,0,0,0,0,0c0,0,0,0,0,0c0,0,0,0,0,0c0,0,0,0,0,0
						c0,0,0,0,0,0c0,0,0,0,0,0c0,0,0,0,0,0c0,0,0,0,0,0c0,0,0,0,0,0c0,0,0,0,0,0c0,0,0,0,0,0c0,0,0,0,0,0c0,0,0,0,0,0c0,0,0,0,0,0
						c0,0,0,0,0,0c0,0,0,0,0,0c0,0,0,0,0,0c0,0,0,0,0,0c0,0,0,0,0,0c0,0,0,0,0,0c0,0,0,0,0,0c0,0,0,0,0,0c0,0,0,0,0,0c0,0,0,0,0,0
						c0,0,0,0,0,0c0,0,0,0,0,0c0,0,0,0,0,0c0,0,0,0,0,0c0,0,0,0,0.1,0c0,0,0,0,0,0c0,0,0,0,0.1,0c0,0,0,0,0.1,0c0,0,0,0,0.1,0
						c0,0,0,0,0.1,0c0,0,0,0,0.1,0c0,0,0,0,0.1,0c0,0,0.1,0,0.1,0c0,0,0,0,0.1,0c0,0,0.1,0,0.1,0c0,0,0,0,0.1,0c0,0,0.1,0,0.1,0
						c0,0,0,0,0.1,0c0,0,0.1,0,0.1,0c0,0,0,0,0.1,0c0,0,0.1,0,0.1,0c0,0,0.1,0,0.1,0c0,0,0.1,0,0.1,0c0,0,0.1,0,0.1,0
						c0,0,0.1,0,0.1,0c0,0,0.1,0,0.1,0c0,0,0,0,0,0C1739,29,1738.5,29.3,1738,29.3z M1739.4,28.4c-1.8-0.1-2.3-0.4-2.3-0.4
						c0,0,0,0,0.1-0.1c0.2-0.1,0.8-0.3,2.3-0.4c0.7,0,1.4-0.1,2.2-0.1c0.8,0,1.6,0,2.2,0.1c0.1,0,0.2,0,0.3,0c0,0,0.1,0,0.1,0
						c0.1,0,0.1,0,0.2,0c0.1,0,0.1,0,0.2,0c0,0,0.1,0,0.1,0c1,0.1,1.4,0.3,1.5,0.3c0,0,0,0,0,0c0,0,0,0,0,0c0,0,0,0,0,0c0,0,0,0,0,0
						c0,0,0,0,0,0c0,0,0,0,0,0c0,0,0,0,0,0c0,0,0,0,0,0c0,0,0,0,0,0c0,0,0,0,0,0c0,0,0,0,0,0c0,0,0,0,0,0c0,0,0,0,0,0c0,0,0,0-0.1,0
						c0,0,0,0-0.1,0c0,0,0,0-0.1,0c0,0,0,0-0.1,0c0,0,0,0-0.1,0c0,0-0.1,0-0.1,0c0,0-0.1,0-0.1,0c0,0-0.1,0-0.1,0c0,0-0.1,0-0.1,0
						c0,0-0.1,0-0.1,0c0,0-0.1,0-0.1,0c0,0-0.1,0-0.1,0c0,0-0.1,0-0.1,0c-0.1,0-0.1,0-0.2,0c0,0-0.1,0-0.1,0c-0.1,0-0.1,0-0.2,0
						c0,0-0.1,0-0.1,0c-0.1,0-0.2,0-0.3,0l0,0C1742.4,28.5,1740.8,28.5,1739.4,28.4z M1745.2,29.3c-0.5,0-1-0.3-1.2-0.7c0,0,0,0,0,0
						c0,0,0.1,0,0.1,0c0,0,0.1,0,0.1,0c0,0,0.1,0,0.1,0c0,0,0.1,0,0.1,0c0,0,0.1,0,0.1,0c0,0,0.1,0,0.1,0c0,0,0.1,0,0.1,0
						c0,0,0.1,0,0.1,0c0,0,0,0,0.1,0c0,0,0.1,0,0.1,0c0,0,0,0,0.1,0c0,0,0.1,0,0.1,0c0,0,0,0,0.1,0c0,0,0.1,0,0.1,0c0,0,0,0,0.1,0
						c0,0,0,0,0.1,0c0,0,0,0,0.1,0c0,0,0,0,0.1,0c0,0,0,0,0,0c0,0,0,0,0.1,0c0,0,0,0,0,0c0,0,0,0,0.1,0c0,0,0,0,0,0c0,0,0,0,0,0
						c0,0,0,0,0,0c0,0,0,0,0,0c0,0,0,0,0,0c0,0,0,0,0,0c0,0,0,0,0,0c0,0,0,0,0,0c0,0,0,0,0,0c0,0,0,0,0,0c0,0,0,0,0,0c0,0,0,0,0,0
						c0,0,0,0,0,0c0,0,0,0,0,0c0,0,0,0,0,0c0,0,0,0,0,0c0,0,0,0,0,0c0,0,0,0,0,0c0,0,0,0,0,0c0,0,0,0,0,0c0,0,0,0,0,0c0,0,0,0,0,0
						c0,0,0,0,0,0c0,0,0,0,0,0c0,0,0,0,0,0c0,0,0,0,0,0c0,0,0,0,0,0c0,0,0,0,0,0c0,0,0,0,0,0c0,0,0,0,0,0c0,0,0,0,0,0c0,0,0,0,0,0
						c0,0,0,0,0,0c0,0,0,0,0,0c0,0,0,0,0,0c0,0,0,0,0,0c0,0,0,0,0,0c0,0,0,0,0,0c0,0,0,0,0,0c0,0,0,0,0-0.1c0,0,0,0,0,0c0,0,0,0,0,0
						c0,0,0,0,0,0c0,0,0,0,0,0c0,0,0,0,0,0c0,0,0,0,0,0c0,0,0,0,0,0c0,0,0,0,0,0c0,0,0,0,0,0c0,0,0,0-0.1,0c0,0,0,0-0.1,0
						c0,0,0,0-0.1,0c0,0,0,0-0.1,0c0,0-0.1,0-0.1,0c0,0-0.1,0-0.1,0c0,0-0.1,0-0.1,0c0,0-0.1,0-0.1,0c0,0-0.1,0-0.1,0
						c0,0-0.1,0-0.1,0c0,0-0.1,0-0.1,0c0,0-0.1,0-0.1,0c0,0-0.1,0-0.1,0c0,0-0.1,0-0.1,0c0,0-0.1,0-0.1,0c0,0-0.1,0-0.1,0
						c0,0-0.1,0-0.1,0c0,0-0.1,0-0.1,0c0,0-0.1,0-0.1,0c0,0-0.1,0-0.1,0c0,0,0,0-0.1,0c0.2-0.4,0.7-0.7,1.2-0.7
						c0.8,0,1.4,0.6,1.4,1.4C1746.6,28.7,1746,29.3,1745.2,29.3z"/>
					<path class="st8" d="M1743.9,27.9c0-0.1-0.1-0.1-0.1-0.1c-0.7,0.1-1.4,0.2-2.1,0.2c0,0,0,0,0,0c-0.7,0-1.4-0.1-2.1-0.2
						c-0.1,0-0.1,0-0.1,0.1c0,0.1,0,0.1,0.1,0.1c0.7,0.1,1.5,0.2,2.2,0.2c0,0,0,0,0,0c0.7,0,1.5-0.1,2.2-0.2
						C1743.8,28,1743.9,27.9,1743.9,27.9z"/>
				</g>
			</g>
		</g>
		<g>
			<g id="g5_00000044156531527087328350000018289853590212719754_">
				<circle id="circle7_00000170986977497915335830000006293704501330549158_" class="st7" cx="1253.2" cy="27" r="9"/>
			</g>
			<g>
				<g>
					<g>
						<path class="st8" d="M1251.6,27c0.3,0,0.5-0.7,0.5-1.6c0-0.9-0.2-1.6-0.5-1.6c-0.3,0-0.5,0.7-0.5,1.6
							C1251.1,26.3,1251.3,27,1251.6,27z"/>
					</g>
					<g>
						<path class="st8" d="M1254.8,27c0.3,0,0.5-0.7,0.5-1.6c0-0.9-0.2-1.6-0.5-1.6c-0.3,0-0.5,0.7-0.5,1.6
							C1254.3,26.2,1254.5,27,1254.8,27z"/>
					</g>
				</g>
				<g>
					<path class="st8" d="M1253.2,34.2c-4,0-7.2-3.2-7.2-7.2c0-4,3.2-7.2,7.2-7.2c4,0,7.2,3.2,7.2,7.2
						C1260.4,31,1257.2,34.2,1253.2,34.2z M1253.2,20.1c-3.8,0-6.9,3.1-6.9,6.9c0,3.8,3.1,6.9,6.9,6.9c3.8,0,6.9-3.1,6.9-6.9
						C1260.1,23.2,1257,20.1,1253.2,20.1z"/>
				</g>
				<g>
					<path class="st8" d="M1256.9,26.4c-0.6,0-1.2,0.4-1.5,0.9c-0.7,0-1.4-0.1-2.2-0.1c-0.8,0-1.5,0-2.1,0.1
						c-0.3-0.6-0.8-0.9-1.5-0.9c-0.9,0-1.6,0.7-1.6,1.6c0,0.9,0.7,1.6,1.6,1.6c0.6,0,1.2-0.4,1.5-0.9c0.7,0,1.4,0.1,2.1,0.1
						c0.7,0,1.5,0,2.2-0.1c0.3,0.6,0.8,0.9,1.5,0.9c0.9,0,1.6-0.7,1.6-1.6C1258.5,27.1,1257.8,26.4,1256.9,26.4z M1249.7,29.3
						c-0.8,0-1.4-0.6-1.4-1.4c0-0.8,0.6-1.4,1.4-1.4c0.5,0,1,0.3,1.2,0.7c0,0,0,0-0.1,0c0,0-0.1,0-0.1,0c0,0-0.1,0-0.1,0
						c0,0-0.1,0-0.1,0c0,0-0.1,0-0.1,0c0,0-0.1,0-0.1,0c0,0-0.1,0-0.1,0c0,0-0.1,0-0.1,0c0,0-0.1,0-0.1,0c0,0-0.1,0-0.1,0
						c0,0-0.1,0-0.1,0c0,0-0.1,0-0.1,0c0,0-0.1,0-0.1,0c0,0-0.1,0-0.1,0c0,0-0.1,0-0.1,0c0,0-0.1,0-0.1,0c0,0-0.1,0-0.1,0
						c0,0,0,0-0.1,0c0,0,0,0-0.1,0c0,0,0,0-0.1,0c0,0,0,0-0.1,0c0,0,0,0,0,0c0,0,0,0,0,0c0,0,0,0,0,0c0,0,0,0,0,0c0,0,0,0,0,0
						c0,0,0,0,0,0c0,0,0,0,0,0c0,0,0,0,0,0c0,0,0,0,0,0c0,0,0,0,0,0.1c0,0,0,0,0,0c0,0,0,0,0,0c0,0,0,0,0,0c0,0,0,0,0,0c0,0,0,0,0,0
						c0,0,0,0,0,0c0,0,0,0,0,0c0,0,0,0,0,0c0,0,0,0,0,0c0,0,0,0,0,0c0,0,0,0,0,0c0,0,0,0,0,0c0,0,0,0,0,0c0,0,0,0,0,0c0,0,0,0,0,0
						c0,0,0,0,0,0c0,0,0,0,0,0c0,0,0,0,0,0c0,0,0,0,0,0c0,0,0,0,0,0c0,0,0,0,0,0c0,0,0,0,0,0c0,0,0,0,0,0c0,0,0,0,0,0c0,0,0,0,0,0
						c0,0,0,0,0,0c0,0,0,0,0,0c0,0,0,0,0,0c0,0,0,0,0,0c0,0,0,0,0,0c0,0,0,0,0,0c0,0,0,0,0,0c0,0,0,0,0,0c0,0,0,0,0,0c0,0,0,0,0,0
						c0,0,0,0,0,0c0,0,0,0,0,0c0,0,0,0,0,0c0,0,0,0,0,0c0,0,0,0,0.1,0c0,0,0,0,0,0c0,0,0,0,0.1,0c0,0,0,0,0.1,0c0,0,0,0,0.1,0
						c0,0,0,0,0.1,0c0,0,0,0,0.1,0c0,0,0,0,0.1,0c0,0,0.1,0,0.1,0c0,0,0,0,0.1,0c0,0,0.1,0,0.1,0c0,0,0,0,0.1,0c0,0,0.1,0,0.1,0
						c0,0,0,0,0.1,0c0,0,0.1,0,0.1,0c0,0,0,0,0.1,0c0,0,0.1,0,0.1,0c0,0,0.1,0,0.1,0c0,0,0.1,0,0.1,0c0,0,0.1,0,0.1,0
						c0,0,0.1,0,0.1,0c0,0,0.1,0,0.1,0c0,0,0,0,0,0C1250.7,29,1250.2,29.3,1249.7,29.3z M1251.1,28.4c-1.8-0.1-2.3-0.4-2.3-0.4
						c0,0,0,0,0.1-0.1c0.2-0.1,0.8-0.3,2.3-0.4c0.7,0,1.4-0.1,2.2-0.1c0.8,0,1.6,0,2.2,0.1c0.1,0,0.2,0,0.3,0c0,0,0.1,0,0.1,0
						c0.1,0,0.1,0,0.2,0c0.1,0,0.1,0,0.2,0c0,0,0.1,0,0.1,0c1,0.1,1.4,0.3,1.5,0.3c0,0,0,0,0,0c0,0,0,0,0,0c0,0,0,0,0,0c0,0,0,0,0,0
						c0,0,0,0,0,0c0,0,0,0,0,0c0,0,0,0,0,0c0,0,0,0,0,0c0,0,0,0,0,0c0,0,0,0,0,0c0,0,0,0,0,0c0,0,0,0,0,0c0,0,0,0,0,0c0,0,0,0-0.1,0
						c0,0,0,0-0.1,0c0,0,0,0-0.1,0c0,0,0,0-0.1,0c0,0,0,0-0.1,0c0,0-0.1,0-0.1,0c0,0-0.1,0-0.1,0c0,0-0.1,0-0.1,0c0,0-0.1,0-0.1,0
						c0,0-0.1,0-0.1,0c0,0-0.1,0-0.1,0c0,0-0.1,0-0.1,0c0,0-0.1,0-0.1,0c-0.1,0-0.1,0-0.2,0c0,0-0.1,0-0.1,0c-0.1,0-0.1,0-0.2,0
						c0,0-0.1,0-0.1,0c-0.1,0-0.2,0-0.3,0l0,0C1254.2,28.5,1252.5,28.5,1251.1,28.4z M1256.9,29.3c-0.5,0-1-0.3-1.2-0.7c0,0,0,0,0,0
						c0,0,0.1,0,0.1,0c0,0,0.1,0,0.1,0c0,0,0.1,0,0.1,0c0,0,0.1,0,0.1,0c0,0,0.1,0,0.1,0c0,0,0.1,0,0.1,0c0,0,0.1,0,0.1,0
						c0,0,0.1,0,0.1,0c0,0,0,0,0.1,0c0,0,0.1,0,0.1,0c0,0,0,0,0.1,0c0,0,0.1,0,0.1,0c0,0,0,0,0.1,0c0,0,0.1,0,0.1,0c0,0,0,0,0.1,0
						c0,0,0,0,0.1,0c0,0,0,0,0.1,0c0,0,0,0,0.1,0c0,0,0,0,0,0c0,0,0,0,0.1,0c0,0,0,0,0,0c0,0,0,0,0.1,0c0,0,0,0,0,0c0,0,0,0,0,0
						c0,0,0,0,0,0c0,0,0,0,0,0c0,0,0,0,0,0c0,0,0,0,0,0c0,0,0,0,0,0c0,0,0,0,0,0c0,0,0,0,0,0c0,0,0,0,0,0c0,0,0,0,0,0c0,0,0,0,0,0
						c0,0,0,0,0,0c0,0,0,0,0,0c0,0,0,0,0,0c0,0,0,0,0,0c0,0,0,0,0,0c0,0,0,0,0,0c0,0,0,0,0,0c0,0,0,0,0,0c0,0,0,0,0,0c0,0,0,0,0,0
						c0,0,0,0,0,0c0,0,0,0,0,0c0,0,0,0,0,0c0,0,0,0,0,0c0,0,0,0,0,0c0,0,0,0,0,0c0,0,0,0,0,0c0,0,0,0,0,0c0,0,0,0,0,0c0,0,0,0,0,0
						c0,0,0,0,0,0c0,0,0,0,0,0c0,0,0,0,0,0c0,0,0,0,0,0c0,0,0,0,0,0c0,0,0,0,0,0c0,0,0,0,0,0c0,0,0,0,0-0.1c0,0,0,0,0,0c0,0,0,0,0,0
						c0,0,0,0,0,0c0,0,0,0,0,0c0,0,0,0,0,0c0,0,0,0,0,0c0,0,0,0,0,0c0,0,0,0,0,0c0,0,0,0,0,0c0,0,0,0-0.1,0c0,0,0,0-0.1,0
						c0,0,0,0-0.1,0c0,0,0,0-0.1,0c0,0-0.1,0-0.1,0c0,0-0.1,0-0.1,0c0,0-0.1,0-0.1,0c0,0-0.1,0-0.1,0c0,0-0.1,0-0.1,0
						c0,0-0.1,0-0.1,0c0,0-0.1,0-0.1,0c0,0-0.1,0-0.1,0c0,0-0.1,0-0.1,0c0,0-0.1,0-0.1,0c0,0-0.1,0-0.1,0c0,0-0.1,0-0.1,0
						c0,0-0.1,0-0.1,0c0,0-0.1,0-0.1,0c0,0-0.1,0-0.1,0c0,0-0.1,0-0.1,0c0,0,0,0-0.1,0c0.2-0.4,0.7-0.7,1.2-0.7
						c0.8,0,1.4,0.6,1.4,1.4C1258.3,28.7,1257.7,29.3,1256.9,29.3z"/>
					<path class="st8" d="M1255.6,27.9c0-0.1-0.1-0.1-0.1-0.1c-0.7,0.1-1.4,0.2-2.1,0.2c0,0,0,0,0,0c-0.7,0-1.4-0.1-2.1-0.2
						c-0.1,0-0.1,0-0.1,0.1c0,0.1,0,0.1,0.1,0.1c0.7,0.1,1.5,0.2,2.2,0.2c0,0,0,0,0,0c0.7,0,1.5-0.1,2.2-0.2
						C1255.6,28,1255.6,27.9,1255.6,27.9z"/>
				</g>
			</g>
		</g>
		<path class="st8" d="M1885.6,34.1c-5.3-5.3-8.9-5.3-14.2,0c5.3-5.3,5.3-8.9,0-14.2c5.3,5.3,8.9,5.3,14.2,0
			C1880.3,25.2,1880.3,28.8,1885.6,34.1z"/>
		<line class="st9" x1="1009.9" y1="27.7" x2="1093.4" y2="27.7"/>
	</g>
</g>
</svg>
