<?xml version="1.0" encoding="utf-8"?>
<!-- Generator: Adobe Illustrator 26.5.0, SVG Export Plug-In . SVG Version: 6.00 Build 0)  -->
<svg version="1.1" xmlns="http://www.w3.org/2000/svg" xmlns:xlink="http://www.w3.org/1999/xlink" x="0px" y="0px"
	 viewBox="0 0 2009.9 55.6" style="enable-background:new 0 0 2009.9 55.6;" xml:space="preserve">
<style type="text/css">
	.st0{fill:#CDCEC9;}
	.st1{fill:#CCCCCC;}
	.st2{fill:#1D1E1C;}
	.st3{fill:#383938;}
</style>
<g id="Capa_1">
	<g id="fondo">
		<rect class="st0" width="2009.9" height="55.6"/>
	</g>
</g>
<g id="Capa_2">
	<g>
		<path d="M131.2,20.8h5.5c3.3,0,5.5,1.8,5.5,4.7v0c0,3.2-2.7,4.8-5.8,4.8h-3.6v5.2h-1.7V20.8z M136.5,28.9c2.5,0,4.1-1.3,4.1-3.3v0
			c0-2.1-1.6-3.2-4-3.2h-3.7v6.5H136.5z"/>
		<path d="M144.7,28.2L144.7,28.2c0-4.1,3.1-7.7,7.6-7.7s7.5,3.5,7.5,7.6v0c0,4.1-3.1,7.7-7.6,7.7C147.7,35.9,144.7,32.3,144.7,28.2
			z M158,28.2L158,28.2c0-3.4-2.5-6.2-5.8-6.2s-5.8,2.7-5.8,6.1v0c0,3.4,2.5,6.1,5.8,6.1S158,31.6,158,28.2z"/>
		<path d="M163.3,20.8h6.4c1.8,0,3.3,0.5,4.2,1.5c0.7,0.7,1.1,1.8,1.1,2.9v0c0,2.5-1.7,3.9-4,4.3l4.5,6h-2.1l-4.3-5.8H165v5.8h-1.7
			V20.8z M169.5,28.3c2.2,0,3.8-1.1,3.8-3v0c0-1.8-1.4-2.9-3.8-2.9H165v6H169.5z"/>
		<path d="M182.4,22.3h-5v-1.5H189v1.5h-5v13.3h-1.7V22.3z"/>
		<path d="M195.7,20.7h1.6l6.7,14.9h-1.8l-1.7-3.9h-8.1l-1.8,3.9H189L195.7,20.7z M199.9,30.2l-3.4-7.5l-3.4,7.5H199.9z"/>
		<path d="M207,20.8h10.6v1.5h-9v5.3h8v1.5h-8v6.4H207V20.8z"/>
		<path d="M219.9,28.2L219.9,28.2c0-4.1,3.1-7.7,7.6-7.7c4.5,0,7.5,3.5,7.5,7.6v0c0,4.1-3.1,7.7-7.6,7.7S219.9,32.3,219.9,28.2z
			 M233.3,28.2L233.3,28.2c0-3.4-2.5-6.2-5.8-6.2s-5.8,2.7-5.8,6.1v0c0,3.4,2.5,6.1,5.8,6.1S233.3,31.6,233.3,28.2z"/>
		<path d="M238.5,20.8h1.7v13.3h8.3v1.5h-10V20.8z"/>
		<path d="M251.8,20.8h1.7v14.8h-1.7V20.8z"/>
		<path d="M257.1,28.2L257.1,28.2c0-4.1,3.1-7.7,7.6-7.7s7.5,3.5,7.5,7.6v0c0,4.1-3.1,7.7-7.6,7.7C260.1,35.9,257.1,32.3,257.1,28.2
			z M270.5,28.2L270.5,28.2c0-3.4-2.5-6.2-5.8-6.2s-5.8,2.7-5.8,6.1v0c0,3.4,2.5,6.1,5.8,6.1S270.5,31.6,270.5,28.2z"/>
	</g>
	<g>
		<path d="M422.7,20.8h1.7l5.4,8.1l5.4-8.1h1.7v14.8h-1.7v-12l-5.4,7.9h-0.1l-5.4-7.9v12h-1.6V20.8z"/>
		<path d="M441,20.8h1.7l5.4,8.1l5.4-8.1h1.7v14.8h-1.7v-12l-5.4,7.9h-0.1l-5.4-7.9v12H441V20.8z"/>
		<path d="M471.5,20.8L466,28l5.7,7.5h-2l-4.7-6.4l-4.7,6.4h-1.9l5.7-7.5l-5.5-7.3h2l4.5,6.1l4.5-6.1H471.5z"/>
		<path d="M486.8,20.8l-5.5,7.3l5.7,7.5h-2l-4.7-6.4l-4.7,6.4h-1.9l5.7-7.5l-5.5-7.3h2l4.5,6.1l4.5-6.1H486.8z"/>
	</g>
	<g>
		<g>
			<path d="M313.3,32.8l8.5-5.6c0.7-0.5,1.2-0.9,1.5-1.3c0.3-0.4,0.4-0.8,0.4-1.2c0-0.4-0.1-0.7-0.4-1c-0.3-0.2-0.7-0.4-1.2-0.4
				c-0.6,0-1.2,0.2-1.9,0.6c-0.6,0.4-1.3,0.9-1.9,1.5l-2.7-2.8c0.9-1,1.9-1.7,3-2.3c1.1-0.6,2.4-0.9,3.9-0.9c0.9,0,1.7,0.1,2.5,0.4
				c0.7,0.2,1.3,0.6,1.9,1c0.5,0.4,0.9,0.9,1.2,1.5c0.3,0.6,0.4,1.2,0.4,1.9c0,0.5-0.1,1-0.2,1.5c-0.1,0.5-0.4,1-0.7,1.4
				c-0.3,0.5-0.8,0.9-1.4,1.4c-0.6,0.5-1.3,1-2.1,1.5l-4.1,2.6h6.7l-1,3.8h-13.3L313.3,32.8z"/>
			<path d="M336.1,36.8c-1,0-2-0.2-2.8-0.5s-1.5-0.8-2.1-1.4s-1-1.3-1.3-2.2c-0.3-0.8-0.5-1.7-0.5-2.7c0-1.3,0.2-2.6,0.7-3.9
				c0.4-1.3,1.1-2.4,1.9-3.4c0.8-1,1.8-1.8,2.9-2.4c1.1-0.6,2.4-0.9,3.8-0.9c1.1,0,2,0.2,2.8,0.5s1.5,0.8,2.1,1.4
				c0.6,0.6,1,1.3,1.3,2.2c0.3,0.8,0.5,1.7,0.5,2.7c0,1.3-0.2,2.6-0.7,3.9c-0.4,1.3-1.1,2.4-1.9,3.4c-0.8,1-1.8,1.8-2.9,2.4
				S337.5,36.8,336.1,36.8z M336.5,32.7c0.6,0,1.2-0.2,1.7-0.6c0.5-0.4,1-0.9,1.3-1.5c0.4-0.6,0.6-1.3,0.8-2
				c0.2-0.7,0.3-1.4,0.3-2.1c0-1-0.2-1.8-0.7-2.2c-0.4-0.5-1-0.7-1.8-0.7c-0.6,0-1.2,0.2-1.7,0.6c-0.5,0.4-0.9,0.9-1.3,1.5
				c-0.4,0.6-0.6,1.3-0.8,2c-0.2,0.7-0.3,1.4-0.3,2.1c0,1,0.2,1.7,0.7,2.2S335.7,32.7,336.5,32.7z"/>
			<path d="M345.7,32.8l8.5-5.6c0.7-0.5,1.2-0.9,1.5-1.3c0.3-0.4,0.4-0.8,0.4-1.2c0-0.4-0.1-0.7-0.4-1s-0.7-0.4-1.2-0.4
				c-0.6,0-1.2,0.2-1.9,0.6c-0.6,0.4-1.3,0.9-1.9,1.5l-2.7-2.8c0.9-1,1.9-1.7,3-2.3c1.1-0.6,2.4-0.9,3.9-0.9c0.9,0,1.7,0.1,2.5,0.4
				c0.7,0.2,1.3,0.6,1.9,1c0.5,0.4,0.9,0.9,1.2,1.5c0.3,0.6,0.4,1.2,0.4,1.9c0,0.5-0.1,1-0.2,1.5s-0.4,1-0.7,1.4
				c-0.3,0.5-0.8,0.9-1.4,1.4c-0.6,0.5-1.3,1-2.1,1.5l-4.1,2.6h6.7l-1,3.8h-13.3L345.7,32.8z"/>
			<path d="M367,27.7l-3.5-8h5.1l1.8,4.7l4.1-4.7h5.6l-7.8,8.3l3.7,8.4H371l-2-5.2l-4.6,5.2h-5.6L367,27.7z"/>
		</g>
	</g>
	<g>
		<g id="g5_00000021088168032133956030000001114130776004173709_">
			<circle id="circle7_00000156583927602477177040000004332489464570531499_" class="st1" cx="497.9" cy="28.1" r="9"/>
		</g>
		<g>
			<g>
				<g>
					<path class="st2" d="M496.3,28.1c0.3,0,0.5-0.7,0.5-1.6c0-0.9-0.2-1.6-0.5-1.6c-0.3,0-0.5,0.7-0.5,1.6S496,28.1,496.3,28.1z"/>
				</g>
				<g>
					<path class="st2" d="M499.5,28.1c0.3,0,0.5-0.7,0.5-1.6c0-0.9-0.2-1.6-0.5-1.6c-0.3,0-0.5,0.7-0.5,1.6
						C498.9,27.4,499.2,28.1,499.5,28.1z"/>
				</g>
			</g>
			<g>
				<path class="st2" d="M497.9,35.3c-4,0-7.2-3.2-7.2-7.2c0-4,3.2-7.2,7.2-7.2c4,0,7.2,3.2,7.2,7.2
					C505.1,32.1,501.8,35.3,497.9,35.3z M497.9,21.3c-3.8,0-6.9,3.1-6.9,6.9c0,3.8,3.1,6.9,6.9,6.9c3.8,0,6.9-3.1,6.9-6.9
					C504.7,24.3,501.7,21.3,497.9,21.3z"/>
			</g>
			<g>
				<path class="st2" d="M501.6,27.5c-0.6,0-1.2,0.4-1.5,0.9c-0.7,0-1.4-0.1-2.2-0.1c-0.8,0-1.5,0-2.1,0.1c-0.3-0.6-0.8-0.9-1.5-0.9
					c-0.9,0-1.6,0.7-1.6,1.6c0,0.9,0.7,1.6,1.6,1.6c0.6,0,1.2-0.4,1.5-0.9c0.7,0,1.4,0.1,2.1,0.1c0.7,0,1.5,0,2.2-0.1
					c0.3,0.6,0.8,0.9,1.5,0.9c0.9,0,1.6-0.7,1.6-1.6C503.2,28.2,502.5,27.5,501.6,27.5z M494.4,30.5c-0.8,0-1.4-0.6-1.4-1.4
					s0.6-1.4,1.4-1.4c0.5,0,1,0.3,1.2,0.7c0,0,0,0-0.1,0c0,0-0.1,0-0.1,0c0,0-0.1,0-0.1,0c0,0-0.1,0-0.1,0c0,0-0.1,0-0.1,0
					c0,0-0.1,0-0.1,0c0,0-0.1,0-0.1,0c0,0-0.1,0-0.1,0c0,0-0.1,0-0.1,0c0,0-0.1,0-0.1,0c0,0-0.1,0-0.1,0c0,0-0.1,0-0.1,0
					c0,0-0.1,0-0.1,0c0,0-0.1,0-0.1,0c0,0-0.1,0-0.1,0c0,0-0.1,0-0.1,0c0,0-0.1,0-0.1,0c0,0,0,0-0.1,0c0,0,0,0-0.1,0c0,0,0,0-0.1,0
					c0,0,0,0-0.1,0c0,0,0,0,0,0c0,0,0,0,0,0c0,0,0,0,0,0c0,0,0,0,0,0c0,0,0,0,0,0c0,0,0,0,0,0c0,0,0,0,0,0c0,0,0,0,0,0c0,0,0,0,0,0
					c0,0,0,0,0,0.1c0,0,0,0,0,0c0,0,0,0,0,0c0,0,0,0,0,0c0,0,0,0,0,0c0,0,0,0,0,0c0,0,0,0,0,0c0,0,0,0,0,0c0,0,0,0,0,0c0,0,0,0,0,0
					c0,0,0,0,0,0s0,0,0,0c0,0,0,0,0,0c0,0,0,0,0,0c0,0,0,0,0,0c0,0,0,0,0,0c0,0,0,0,0,0c0,0,0,0,0,0c0,0,0,0,0,0c0,0,0,0,0,0
					c0,0,0,0,0,0c0,0,0,0,0,0c0,0,0,0,0,0c0,0,0,0,0,0c0,0,0,0,0,0c0,0,0,0,0,0c0,0,0,0,0,0c0,0,0,0,0,0c0,0,0,0,0,0c0,0,0,0,0,0
					c0,0,0,0,0,0c0,0,0,0,0,0c0,0,0,0,0,0c0,0,0,0,0,0c0,0,0,0,0,0c0,0,0,0,0,0c0,0,0,0,0,0c0,0,0,0,0,0c0,0,0,0,0,0c0,0,0,0,0,0
					c0,0,0,0,0.1,0c0,0,0,0,0,0c0,0,0,0,0.1,0c0,0,0,0,0.1,0c0,0,0,0,0.1,0c0,0,0,0,0.1,0c0,0,0,0,0.1,0c0,0,0,0,0.1,0
					c0,0,0.1,0,0.1,0c0,0,0,0,0.1,0c0,0,0.1,0,0.1,0c0,0,0,0,0.1,0c0,0,0.1,0,0.1,0c0,0,0,0,0.1,0c0,0,0.1,0,0.1,0c0,0,0,0,0.1,0
					c0,0,0.1,0,0.1,0c0,0,0.1,0,0.1,0c0,0,0.1,0,0.1,0c0,0,0.1,0,0.1,0c0,0,0.1,0,0.1,0c0,0,0.1,0,0.1,0c0,0,0,0,0,0
					C495.4,30.2,494.9,30.5,494.4,30.5z M495.8,29.5c-1.8-0.1-2.3-0.4-2.3-0.4c0,0,0,0,0.1-0.1c0.2-0.1,0.8-0.3,2.3-0.4
					c0.7,0,1.4-0.1,2.2-0.1c0.8,0,1.6,0,2.2,0.1c0.1,0,0.2,0,0.3,0c0,0,0.1,0,0.1,0c0.1,0,0.1,0,0.2,0c0.1,0,0.1,0,0.2,0
					c0,0,0.1,0,0.1,0c1,0.1,1.4,0.3,1.5,0.3c0,0,0,0,0,0c0,0,0,0,0,0c0,0,0,0,0,0c0,0,0,0,0,0c0,0,0,0,0,0c0,0,0,0,0,0c0,0,0,0,0,0
					c0,0,0,0,0,0c0,0,0,0,0,0c0,0,0,0,0,0c0,0,0,0,0,0c0,0,0,0,0,0c0,0,0,0,0,0c0,0,0,0-0.1,0c0,0,0,0-0.1,0c0,0,0,0-0.1,0
					c0,0,0,0-0.1,0c0,0,0,0-0.1,0c0,0-0.1,0-0.1,0c0,0-0.1,0-0.1,0c0,0-0.1,0-0.1,0c0,0-0.1,0-0.1,0c0,0-0.1,0-0.1,0
					c0,0-0.1,0-0.1,0c0,0-0.1,0-0.1,0c0,0-0.1,0-0.1,0c-0.1,0-0.1,0-0.2,0c0,0-0.1,0-0.1,0c-0.1,0-0.1,0-0.2,0c0,0-0.1,0-0.1,0
					c-0.1,0-0.2,0-0.3,0l0,0C498.8,29.6,497.2,29.6,495.8,29.5z M501.6,30.5c-0.5,0-1-0.3-1.2-0.7c0,0,0,0,0,0c0,0,0.1,0,0.1,0
					c0,0,0.1,0,0.1,0c0,0,0.1,0,0.1,0c0,0,0.1,0,0.1,0c0,0,0.1,0,0.1,0c0,0,0.1,0,0.1,0c0,0,0.1,0,0.1,0c0,0,0.1,0,0.1,0
					c0,0,0,0,0.1,0c0,0,0.1,0,0.1,0c0,0,0,0,0.1,0c0,0,0.1,0,0.1,0c0,0,0,0,0.1,0c0,0,0.1,0,0.1,0c0,0,0,0,0.1,0c0,0,0,0,0.1,0
					c0,0,0,0,0.1,0c0,0,0,0,0.1,0c0,0,0,0,0,0c0,0,0,0,0.1,0c0,0,0,0,0,0c0,0,0,0,0.1,0c0,0,0,0,0,0c0,0,0,0,0,0c0,0,0,0,0,0
					c0,0,0,0,0,0c0,0,0,0,0,0c0,0,0,0,0,0c0,0,0,0,0,0c0,0,0,0,0,0c0,0,0,0,0,0c0,0,0,0,0,0c0,0,0,0,0,0c0,0,0,0,0,0c0,0,0,0,0,0
					c0,0,0,0,0,0c0,0,0,0,0,0c0,0,0,0,0,0c0,0,0,0,0,0c0,0,0,0,0,0c0,0,0,0,0,0c0,0,0,0,0,0c0,0,0,0,0,0c0,0,0,0,0,0c0,0,0,0,0,0
					c0,0,0,0,0,0c0,0,0,0,0,0c0,0,0,0,0,0c0,0,0,0,0,0c0,0,0,0,0,0c0,0,0,0,0,0c0,0,0,0,0,0c0,0,0,0,0,0c0,0,0,0,0,0c0,0,0,0,0,0
					c0,0,0,0,0,0c0,0,0,0,0,0c0,0,0,0,0,0c0,0,0,0,0,0c0,0,0,0,0,0c0,0,0,0,0,0c0,0,0,0,0-0.1c0,0,0,0,0,0c0,0,0,0,0,0c0,0,0,0,0,0
					c0,0,0,0,0,0c0,0,0,0,0,0c0,0,0,0,0,0c0,0,0,0,0,0c0,0,0,0,0,0c0,0,0,0,0,0c0,0,0,0-0.1,0c0,0,0,0-0.1,0c0,0,0,0-0.1,0
					c0,0,0,0-0.1,0c0,0-0.1,0-0.1,0c0,0-0.1,0-0.1,0c0,0-0.1,0-0.1,0c0,0-0.1,0-0.1,0c0,0-0.1,0-0.1,0c0,0-0.1,0-0.1,0
					c0,0-0.1,0-0.1,0c0,0-0.1,0-0.1,0c0,0-0.1,0-0.1,0c0,0-0.1,0-0.1,0c0,0-0.1,0-0.1,0c0,0-0.1,0-0.1,0c0,0-0.1,0-0.1,0
					c0,0-0.1,0-0.1,0c0,0-0.1,0-0.1,0c0,0-0.1,0-0.1,0c0,0,0,0-0.1,0c0.2-0.4,0.7-0.7,1.2-0.7c0.8,0,1.4,0.6,1.4,1.4
					S502.4,30.5,501.6,30.5z"/>
				<path class="st2" d="M500.3,29c0-0.1-0.1-0.1-0.1-0.1c-0.7,0.1-1.4,0.2-2.1,0.2c0,0,0,0,0,0c-0.7,0-1.4-0.1-2.1-0.2
					c-0.1,0-0.1,0-0.1,0.1c0,0.1,0,0.1,0.1,0.1c0.7,0.1,1.5,0.2,2.2,0.2c0,0,0,0,0,0c0.7,0,1.5-0.1,2.2-0.2
					C500.2,29.1,500.3,29,500.3,29z"/>
			</g>
		</g>
	</g>
	<path class="st2" d="M408.8,35.2c-5.3-5.3-8.9-5.3-14.2,0c5.3-5.3,5.3-8.9,0-14.2c5.3,5.3,8.9,5.3,14.2,0
		C403.5,26.3,403.5,29.9,408.8,35.2z"/>
	<g>
		<path class="st3" d="M605.2,30.3h-83.5c-0.8,0-1.5-0.7-1.5-1.5s0.7-1.5,1.5-1.5h83.5c0.8,0,1.5,0.7,1.5,1.5S606,30.3,605.2,30.3z"
			/>
	</g>
	<g>
		<path class="st3" d="M109.8,30.3H26.3c-0.8,0-1.5-0.7-1.5-1.5s0.7-1.5,1.5-1.5h83.5c0.8,0,1.5,0.7,1.5,1.5S110.7,30.3,109.8,30.3z
			"/>
	</g>
	<g>
		<path d="M619.5,20.8h5.5c3.3,0,5.5,1.8,5.5,4.7v0c0,3.2-2.7,4.8-5.8,4.8h-3.6v5.2h-1.7V20.8z M624.8,28.9c2.5,0,4.1-1.3,4.1-3.3v0
			c0-2.1-1.6-3.2-4-3.2h-3.7v6.5H624.8z"/>
		<path d="M633,28.2L633,28.2c0-4.1,3.1-7.7,7.6-7.7s7.5,3.5,7.5,7.6v0c0,4.1-3.1,7.7-7.6,7.7C636,35.9,633,32.3,633,28.2z
			 M646.3,28.2L646.3,28.2c0-3.4-2.5-6.2-5.8-6.2s-5.8,2.7-5.8,6.1v0c0,3.4,2.5,6.1,5.8,6.1S646.3,31.6,646.3,28.2z"/>
		<path d="M651.6,20.8h6.4c1.8,0,3.3,0.5,4.2,1.5c0.7,0.7,1.1,1.8,1.1,2.9v0c0,2.5-1.7,3.9-4,4.3l4.5,6h-2.1l-4.3-5.8h-4.2v5.8h-1.7
			V20.8z M657.8,28.3c2.2,0,3.8-1.1,3.8-3v0c0-1.8-1.4-2.9-3.8-2.9h-4.6v6H657.8z"/>
		<path d="M670.7,22.3h-5v-1.5h11.6v1.5h-5v13.3h-1.7V22.3z"/>
		<path d="M684,20.7h1.6l6.7,14.9h-1.8l-1.7-3.9h-8.1l-1.8,3.9h-1.7L684,20.7z M688.2,30.2l-3.4-7.5l-3.4,7.5H688.2z"/>
		<path d="M695.3,20.8h10.6v1.5h-9v5.3h8v1.5h-8v6.4h-1.7V20.8z"/>
		<path d="M708.2,28.2L708.2,28.2c0-4.1,3.1-7.7,7.6-7.7c4.5,0,7.5,3.5,7.5,7.6v0c0,4.1-3.1,7.7-7.6,7.7S708.2,32.3,708.2,28.2z
			 M721.5,28.2L721.5,28.2c0-3.4-2.5-6.2-5.8-6.2s-5.8,2.7-5.8,6.1v0c0,3.4,2.5,6.1,5.8,6.1S721.5,31.6,721.5,28.2z"/>
		<path d="M726.8,20.8h1.7v13.3h8.3v1.5h-10V20.8z"/>
		<path d="M740.1,20.8h1.7v14.8h-1.7V20.8z"/>
		<path d="M745.4,28.2L745.4,28.2c0-4.1,3.1-7.7,7.6-7.7s7.5,3.5,7.5,7.6v0c0,4.1-3.1,7.7-7.6,7.7C748.4,35.9,745.4,32.3,745.4,28.2
			z M758.8,28.2L758.8,28.2c0-3.4-2.5-6.2-5.8-6.2s-5.8,2.7-5.8,6.1v0c0,3.4,2.5,6.1,5.8,6.1S758.8,31.6,758.8,28.2z"/>
	</g>
	<g>
		<path d="M911,20.8h1.7l5.4,8.1l5.4-8.1h1.7v14.8h-1.7v-12l-5.4,7.9H918l-5.4-7.9v12H911V20.8z"/>
		<path d="M929.3,20.8h1.7l5.4,8.1l5.4-8.1h1.7v14.8h-1.7v-12l-5.4,7.9h-0.1l-5.4-7.9v12h-1.6V20.8z"/>
		<path d="M959.7,20.8l-5.5,7.3l5.7,7.5h-2l-4.7-6.4l-4.7,6.4h-1.9l5.7-7.5l-5.5-7.3h2l4.5,6.1l4.5-6.1H959.7z"/>
		<path d="M975.1,20.8l-5.5,7.3l5.7,7.5h-2l-4.7-6.4l-4.7,6.4h-1.9l5.7-7.5l-5.5-7.3h2l4.5,6.1l4.5-6.1H975.1z"/>
	</g>
	<g>
		<g>
			<path d="M801.6,32.8l8.5-5.6c0.7-0.5,1.2-0.9,1.5-1.3c0.3-0.4,0.4-0.8,0.4-1.2c0-0.4-0.1-0.7-0.4-1s-0.7-0.4-1.2-0.4
				c-0.6,0-1.2,0.2-1.9,0.6c-0.6,0.4-1.3,0.9-1.9,1.5l-2.7-2.8c0.9-1,1.9-1.7,3-2.3c1.1-0.6,2.4-0.9,3.9-0.9c0.9,0,1.7,0.1,2.5,0.4
				c0.7,0.2,1.3,0.6,1.9,1c0.5,0.4,0.9,0.9,1.2,1.5c0.3,0.6,0.4,1.2,0.4,1.9c0,0.5-0.1,1-0.2,1.5s-0.4,1-0.7,1.4
				c-0.3,0.5-0.8,0.9-1.4,1.4c-0.6,0.5-1.3,1-2.1,1.5l-4.1,2.6h6.7l-1,3.8h-13.3L801.6,32.8z"/>
			<path d="M824.4,36.8c-1,0-2-0.2-2.8-0.5s-1.5-0.8-2.1-1.4s-1-1.3-1.3-2.2c-0.3-0.8-0.5-1.7-0.5-2.7c0-1.3,0.2-2.6,0.7-3.9
				c0.4-1.3,1.1-2.4,1.9-3.4c0.8-1,1.8-1.8,2.9-2.4s2.4-0.9,3.8-0.9c1.1,0,2,0.2,2.8,0.5c0.8,0.3,1.5,0.8,2.1,1.4s1,1.3,1.3,2.2
				s0.5,1.7,0.5,2.7c0,1.3-0.2,2.6-0.7,3.9c-0.4,1.3-1.1,2.4-1.9,3.4c-0.8,1-1.8,1.8-2.9,2.4C827,36.5,825.8,36.8,824.4,36.8z
				 M824.8,32.7c0.6,0,1.2-0.2,1.7-0.6c0.5-0.4,1-0.9,1.3-1.5s0.6-1.3,0.8-2c0.2-0.7,0.3-1.4,0.3-2.1c0-1-0.2-1.8-0.7-2.2
				s-1-0.7-1.8-0.7c-0.6,0-1.2,0.2-1.7,0.6s-0.9,0.9-1.3,1.5c-0.4,0.6-0.6,1.3-0.8,2c-0.2,0.7-0.3,1.4-0.3,2.1c0,1,0.2,1.7,0.7,2.2
				C823.5,32.4,824,32.7,824.8,32.7z"/>
			<path d="M834,32.8l8.5-5.6c0.7-0.5,1.2-0.9,1.5-1.3c0.3-0.4,0.4-0.8,0.4-1.2c0-0.4-0.1-0.7-0.4-1c-0.3-0.2-0.7-0.4-1.2-0.4
				c-0.6,0-1.2,0.2-1.9,0.6c-0.6,0.4-1.3,0.9-1.9,1.5l-2.7-2.8c0.9-1,1.9-1.7,3-2.3c1.1-0.6,2.4-0.9,3.9-0.9c0.9,0,1.7,0.1,2.5,0.4
				c0.7,0.2,1.3,0.6,1.9,1c0.5,0.4,0.9,0.9,1.2,1.5c0.3,0.6,0.4,1.2,0.4,1.9c0,0.5-0.1,1-0.2,1.5c-0.1,0.5-0.4,1-0.7,1.4
				c-0.3,0.5-0.8,0.9-1.4,1.4c-0.6,0.5-1.3,1-2.1,1.5l-4.1,2.6h6.7l-1,3.8h-13.3L834,32.8z"/>
			<path d="M855.3,27.7l-3.5-8h5.1l1.8,4.7l4.1-4.7h5.6l-7.8,8.3l3.7,8.4h-5.1l-2-5.2l-4.6,5.2h-5.6L855.3,27.7z"/>
		</g>
	</g>
	<g>
		<g id="g5_00000083065763435181394370000017723423765328228525_">
			<circle id="circle7_00000031198325418242951710000012497819806201234103_" class="st1" cx="986.2" cy="28.1" r="9"/>
		</g>
		<g>
			<g>
				<g>
					<path class="st2" d="M984.6,28.1c0.3,0,0.5-0.7,0.5-1.6c0-0.9-0.2-1.6-0.5-1.6c-0.3,0-0.5,0.7-0.5,1.6S984.3,28.1,984.6,28.1z"
						/>
				</g>
				<g>
					<path class="st2" d="M987.7,28.1c0.3,0,0.5-0.7,0.5-1.6c0-0.9-0.2-1.6-0.5-1.6c-0.3,0-0.5,0.7-0.5,1.6
						C987.2,27.4,987.5,28.1,987.7,28.1z"/>
				</g>
			</g>
			<g>
				<path class="st2" d="M986.2,35.3c-4,0-7.2-3.2-7.2-7.2c0-4,3.2-7.2,7.2-7.2c4,0,7.2,3.2,7.2,7.2
					C993.4,32.1,990.1,35.3,986.2,35.3z M986.2,21.3c-3.8,0-6.9,3.1-6.9,6.9c0,3.8,3.1,6.9,6.9,6.9c3.8,0,6.9-3.1,6.9-6.9
					C993,24.3,990,21.3,986.2,21.3z"/>
			</g>
			<g>
				<path class="st2" d="M989.9,27.5c-0.6,0-1.2,0.4-1.5,0.9c-0.7,0-1.4-0.1-2.2-0.1c-0.8,0-1.5,0-2.1,0.1c-0.3-0.6-0.8-0.9-1.5-0.9
					c-0.9,0-1.6,0.7-1.6,1.6c0,0.9,0.7,1.6,1.6,1.6c0.6,0,1.2-0.4,1.5-0.9c0.7,0,1.4,0.1,2.1,0.1c0.7,0,1.5,0,2.2-0.1
					c0.3,0.6,0.8,0.9,1.5,0.9c0.9,0,1.6-0.7,1.6-1.6C991.5,28.2,990.8,27.5,989.9,27.5z M982.7,30.5c-0.8,0-1.4-0.6-1.4-1.4
					s0.6-1.4,1.4-1.4c0.5,0,1,0.3,1.2,0.7c0,0,0,0-0.1,0c0,0-0.1,0-0.1,0c0,0-0.1,0-0.1,0c0,0-0.1,0-0.1,0c0,0-0.1,0-0.1,0
					c0,0-0.1,0-0.1,0c0,0-0.1,0-0.1,0c0,0-0.1,0-0.1,0c0,0-0.1,0-0.1,0c0,0-0.1,0-0.1,0c0,0-0.1,0-0.1,0c0,0-0.1,0-0.1,0
					c0,0-0.1,0-0.1,0c0,0-0.1,0-0.1,0c0,0-0.1,0-0.1,0c0,0-0.1,0-0.1,0c0,0-0.1,0-0.1,0c0,0,0,0-0.1,0c0,0,0,0-0.1,0c0,0,0,0-0.1,0
					c0,0,0,0-0.1,0c0,0,0,0,0,0c0,0,0,0,0,0c0,0,0,0,0,0c0,0,0,0,0,0c0,0,0,0,0,0c0,0,0,0,0,0c0,0,0,0,0,0c0,0,0,0,0,0c0,0,0,0,0,0
					c0,0,0,0,0,0.1c0,0,0,0,0,0c0,0,0,0,0,0c0,0,0,0,0,0c0,0,0,0,0,0c0,0,0,0,0,0c0,0,0,0,0,0c0,0,0,0,0,0c0,0,0,0,0,0c0,0,0,0,0,0
					c0,0,0,0,0,0c0,0,0,0,0,0c0,0,0,0,0,0c0,0,0,0,0,0c0,0,0,0,0,0c0,0,0,0,0,0c0,0,0,0,0,0c0,0,0,0,0,0c0,0,0,0,0,0c0,0,0,0,0,0
					c0,0,0,0,0,0c0,0,0,0,0,0c0,0,0,0,0,0c0,0,0,0,0,0c0,0,0,0,0,0c0,0,0,0,0,0c0,0,0,0,0,0c0,0,0,0,0,0c0,0,0,0,0,0c0,0,0,0,0,0
					c0,0,0,0,0,0c0,0,0,0,0,0c0,0,0,0,0,0c0,0,0,0,0,0c0,0,0,0,0,0c0,0,0,0,0,0c0,0,0,0,0,0c0,0,0,0,0,0c0,0,0,0,0,0c0,0,0,0,0,0
					c0,0,0,0,0.1,0c0,0,0,0,0,0c0,0,0,0,0.1,0c0,0,0,0,0.1,0c0,0,0,0,0.1,0c0,0,0,0,0.1,0c0,0,0,0,0.1,0c0,0,0,0,0.1,0
					c0,0,0.1,0,0.1,0c0,0,0,0,0.1,0c0,0,0.1,0,0.1,0c0,0,0,0,0.1,0c0,0,0.1,0,0.1,0c0,0,0,0,0.1,0c0,0,0.1,0,0.1,0c0,0,0,0,0.1,0
					c0,0,0.1,0,0.1,0c0,0,0.1,0,0.1,0c0,0,0.1,0,0.1,0c0,0,0.1,0,0.1,0c0,0,0.1,0,0.1,0c0,0,0.1,0,0.1,0c0,0,0,0,0,0
					C983.7,30.2,983.2,30.5,982.7,30.5z M984.1,29.5c-1.8-0.1-2.3-0.4-2.3-0.4c0,0,0,0,0.1-0.1c0.2-0.1,0.8-0.3,2.3-0.4
					c0.7,0,1.4-0.1,2.2-0.1c0.8,0,1.6,0,2.2,0.1c0.1,0,0.2,0,0.3,0c0,0,0.1,0,0.1,0c0.1,0,0.1,0,0.2,0c0.1,0,0.1,0,0.2,0
					c0,0,0.1,0,0.1,0c1,0.1,1.4,0.3,1.5,0.3c0,0,0,0,0,0c0,0,0,0,0,0c0,0,0,0,0,0c0,0,0,0,0,0c0,0,0,0,0,0c0,0,0,0,0,0c0,0,0,0,0,0
					c0,0,0,0,0,0c0,0,0,0,0,0c0,0,0,0,0,0c0,0,0,0,0,0c0,0,0,0,0,0c0,0,0,0,0,0c0,0,0,0-0.1,0c0,0,0,0-0.1,0c0,0,0,0-0.1,0
					c0,0,0,0-0.1,0c0,0,0,0-0.1,0c0,0-0.1,0-0.1,0c0,0-0.1,0-0.1,0c0,0-0.1,0-0.1,0c0,0-0.1,0-0.1,0c0,0-0.1,0-0.1,0
					c0,0-0.1,0-0.1,0c0,0-0.1,0-0.1,0c0,0-0.1,0-0.1,0c-0.1,0-0.1,0-0.2,0c0,0-0.1,0-0.1,0c-0.1,0-0.1,0-0.2,0c0,0-0.1,0-0.1,0
					c-0.1,0-0.2,0-0.3,0l0,0C987.1,29.6,985.5,29.6,984.1,29.5z M989.9,30.5c-0.5,0-1-0.3-1.2-0.7c0,0,0,0,0,0c0,0,0.1,0,0.1,0
					c0,0,0.1,0,0.1,0c0,0,0.1,0,0.1,0c0,0,0.1,0,0.1,0c0,0,0.1,0,0.1,0c0,0,0.1,0,0.1,0c0,0,0.1,0,0.1,0c0,0,0.1,0,0.1,0
					c0,0,0,0,0.1,0c0,0,0.1,0,0.1,0c0,0,0,0,0.1,0c0,0,0.1,0,0.1,0c0,0,0,0,0.1,0c0,0,0.1,0,0.1,0c0,0,0,0,0.1,0c0,0,0,0,0.1,0
					c0,0,0,0,0.1,0c0,0,0,0,0.1,0c0,0,0,0,0,0c0,0,0,0,0.1,0c0,0,0,0,0,0c0,0,0,0,0.1,0c0,0,0,0,0,0c0,0,0,0,0,0c0,0,0,0,0,0
					c0,0,0,0,0,0c0,0,0,0,0,0c0,0,0,0,0,0c0,0,0,0,0,0c0,0,0,0,0,0c0,0,0,0,0,0c0,0,0,0,0,0c0,0,0,0,0,0c0,0,0,0,0,0c0,0,0,0,0,0
					c0,0,0,0,0,0c0,0,0,0,0,0c0,0,0,0,0,0c0,0,0,0,0,0c0,0,0,0,0,0c0,0,0,0,0,0c0,0,0,0,0,0c0,0,0,0,0,0c0,0,0,0,0,0c0,0,0,0,0,0
					c0,0,0,0,0,0c0,0,0,0,0,0c0,0,0,0,0,0c0,0,0,0,0,0c0,0,0,0,0,0c0,0,0,0,0,0c0,0,0,0,0,0c0,0,0,0,0,0c0,0,0,0,0,0c0,0,0,0,0,0
					c0,0,0,0,0,0c0,0,0,0,0,0c0,0,0,0,0,0c0,0,0,0,0,0c0,0,0,0,0,0c0,0,0,0,0,0c0,0,0,0,0-0.1c0,0,0,0,0,0c0,0,0,0,0,0c0,0,0,0,0,0
					c0,0,0,0,0,0c0,0,0,0,0,0c0,0,0,0,0,0c0,0,0,0,0,0c0,0,0,0,0,0c0,0,0,0,0,0c0,0,0,0-0.1,0c0,0,0,0-0.1,0c0,0,0,0-0.1,0
					c0,0,0,0-0.1,0c0,0-0.1,0-0.1,0c0,0-0.1,0-0.1,0c0,0-0.1,0-0.1,0c0,0-0.1,0-0.1,0c0,0-0.1,0-0.1,0c0,0-0.1,0-0.1,0
					c0,0-0.1,0-0.1,0c0,0-0.1,0-0.1,0c0,0-0.1,0-0.1,0c0,0-0.1,0-0.1,0c0,0-0.1,0-0.1,0c0,0-0.1,0-0.1,0c0,0-0.1,0-0.1,0
					c0,0-0.1,0-0.1,0c0,0-0.1,0-0.1,0c0,0-0.1,0-0.1,0c0,0,0,0-0.1,0c0.2-0.4,0.7-0.7,1.2-0.7c0.8,0,1.4,0.6,1.4,1.4
					S990.6,30.5,989.9,30.5z"/>
				<path class="st2" d="M988.6,29c0-0.1-0.1-0.1-0.1-0.1c-0.7,0.1-1.4,0.2-2.1,0.2c0,0,0,0,0,0c-0.7,0-1.4-0.1-2.1-0.2
					c-0.1,0-0.1,0-0.1,0.1c0,0.1,0,0.1,0.1,0.1c0.7,0.1,1.5,0.2,2.2,0.2c0,0,0,0,0,0c0.7,0,1.5-0.1,2.2-0.2
					C988.5,29.1,988.6,29,988.6,29z"/>
			</g>
		</g>
	</g>
	<g>
		<g id="g5_00000003104568527377982390000015730788380089338031_">
			<circle id="circle7_00000036946728414305066940000002967394354430138527_" class="st1" cx="753" cy="28.1" r="9"/>
		</g>
		<g>
			<g>
				<g>
					<path class="st2" d="M751.4,28.1c0.3,0,0.5-0.7,0.5-1.6c0-0.9-0.2-1.6-0.5-1.6c-0.3,0-0.5,0.7-0.5,1.6S751.1,28.1,751.4,28.1z"
						/>
				</g>
				<g>
					<path class="st2" d="M754.6,28.1c0.3,0,0.5-0.7,0.5-1.6c0-0.9-0.2-1.6-0.5-1.6c-0.3,0-0.5,0.7-0.5,1.6
						C754.1,27.4,754.3,28.1,754.6,28.1z"/>
				</g>
			</g>
			<g>
				<path class="st2" d="M753,35.3c-4,0-7.2-3.2-7.2-7.2c0-4,3.2-7.2,7.2-7.2c4,0,7.2,3.2,7.2,7.2C760.2,32.1,757,35.3,753,35.3z
					 M753,21.3c-3.8,0-6.9,3.1-6.9,6.9c0,3.8,3.1,6.9,6.9,6.9c3.8,0,6.9-3.1,6.9-6.9C759.9,24.3,756.8,21.3,753,21.3z"/>
			</g>
			<g>
				<path class="st2" d="M756.8,27.5c-0.6,0-1.2,0.4-1.5,0.9c-0.7,0-1.4-0.1-2.2-0.1c-0.8,0-1.5,0-2.1,0.1c-0.3-0.6-0.8-0.9-1.5-0.9
					c-0.9,0-1.6,0.7-1.6,1.6c0,0.9,0.7,1.6,1.6,1.6c0.6,0,1.2-0.4,1.5-0.9c0.7,0,1.4,0.1,2.1,0.1c0.7,0,1.5,0,2.2-0.1
					c0.3,0.6,0.8,0.9,1.5,0.9c0.9,0,1.6-0.7,1.6-1.6C758.4,28.2,757.6,27.5,756.8,27.5z M749.6,30.5c-0.8,0-1.4-0.6-1.4-1.4
					s0.6-1.4,1.4-1.4c0.5,0,1,0.3,1.2,0.7c0,0,0,0-0.1,0c0,0-0.1,0-0.1,0c0,0-0.1,0-0.1,0c0,0-0.1,0-0.1,0c0,0-0.1,0-0.1,0
					c0,0-0.1,0-0.1,0c0,0-0.1,0-0.1,0c0,0-0.1,0-0.1,0c0,0-0.1,0-0.1,0c0,0-0.1,0-0.1,0c0,0-0.1,0-0.1,0c0,0-0.1,0-0.1,0
					c0,0-0.1,0-0.1,0c0,0-0.1,0-0.1,0c0,0-0.1,0-0.1,0c0,0-0.1,0-0.1,0c0,0-0.1,0-0.1,0c0,0,0,0-0.1,0c0,0,0,0-0.1,0c0,0,0,0-0.1,0
					c0,0,0,0-0.1,0c0,0,0,0,0,0c0,0,0,0,0,0c0,0,0,0,0,0c0,0,0,0,0,0c0,0,0,0,0,0c0,0,0,0,0,0c0,0,0,0,0,0c0,0,0,0,0,0c0,0,0,0,0,0
					c0,0,0,0,0,0.1c0,0,0,0,0,0c0,0,0,0,0,0c0,0,0,0,0,0c0,0,0,0,0,0c0,0,0,0,0,0c0,0,0,0,0,0c0,0,0,0,0,0c0,0,0,0,0,0c0,0,0,0,0,0
					c0,0,0,0,0,0c0,0,0,0,0,0c0,0,0,0,0,0c0,0,0,0,0,0c0,0,0,0,0,0c0,0,0,0,0,0c0,0,0,0,0,0c0,0,0,0,0,0c0,0,0,0,0,0c0,0,0,0,0,0
					c0,0,0,0,0,0c0,0,0,0,0,0c0,0,0,0,0,0c0,0,0,0,0,0c0,0,0,0,0,0c0,0,0,0,0,0c0,0,0,0,0,0c0,0,0,0,0,0c0,0,0,0,0,0c0,0,0,0,0,0
					c0,0,0,0,0,0c0,0,0,0,0,0c0,0,0,0,0,0c0,0,0,0,0,0c0,0,0,0,0,0c0,0,0,0,0,0c0,0,0,0,0,0c0,0,0,0,0,0c0,0,0,0,0,0c0,0,0,0,0,0
					c0,0,0,0,0.1,0c0,0,0,0,0,0c0,0,0,0,0.1,0c0,0,0,0,0.1,0c0,0,0,0,0.1,0c0,0,0,0,0.1,0c0,0,0,0,0.1,0c0,0,0,0,0.1,0
					c0,0,0.1,0,0.1,0c0,0,0,0,0.1,0c0,0,0.1,0,0.1,0c0,0,0,0,0.1,0c0,0,0.1,0,0.1,0c0,0,0,0,0.1,0c0,0,0.1,0,0.1,0c0,0,0,0,0.1,0
					c0,0,0.1,0,0.1,0c0,0,0.1,0,0.1,0c0,0,0.1,0,0.1,0c0,0,0.1,0,0.1,0c0,0,0.1,0,0.1,0c0,0,0.1,0,0.1,0c0,0,0,0,0,0
					C750.5,30.2,750.1,30.5,749.6,30.5z M750.9,29.5c-1.8-0.1-2.3-0.4-2.3-0.4c0,0,0,0,0.1-0.1c0.2-0.1,0.8-0.3,2.3-0.4
					c0.7,0,1.4-0.1,2.2-0.1c0.8,0,1.6,0,2.2,0.1c0.1,0,0.2,0,0.3,0c0,0,0.1,0,0.1,0c0.1,0,0.1,0,0.2,0c0.1,0,0.1,0,0.2,0
					c0,0,0.1,0,0.1,0c1,0.1,1.4,0.3,1.5,0.3c0,0,0,0,0,0c0,0,0,0,0,0c0,0,0,0,0,0c0,0,0,0,0,0c0,0,0,0,0,0c0,0,0,0,0,0c0,0,0,0,0,0
					c0,0,0,0,0,0c0,0,0,0,0,0c0,0,0,0,0,0c0,0,0,0,0,0c0,0,0,0,0,0c0,0,0,0,0,0c0,0,0,0-0.1,0c0,0,0,0-0.1,0c0,0,0,0-0.1,0
					c0,0,0,0-0.1,0c0,0,0,0-0.1,0c0,0-0.1,0-0.1,0c0,0-0.1,0-0.1,0c0,0-0.1,0-0.1,0c0,0-0.1,0-0.1,0c0,0-0.1,0-0.1,0
					c0,0-0.1,0-0.1,0c0,0-0.1,0-0.1,0c0,0-0.1,0-0.1,0c-0.1,0-0.1,0-0.2,0c0,0-0.1,0-0.1,0c-0.1,0-0.1,0-0.2,0c0,0-0.1,0-0.1,0
					c-0.1,0-0.2,0-0.3,0l0,0C754,29.6,752.3,29.6,750.9,29.5z M756.8,30.5c-0.5,0-1-0.3-1.2-0.7c0,0,0,0,0,0c0,0,0.1,0,0.1,0
					c0,0,0.1,0,0.1,0c0,0,0.1,0,0.1,0c0,0,0.1,0,0.1,0c0,0,0.1,0,0.1,0c0,0,0.1,0,0.1,0c0,0,0.1,0,0.1,0c0,0,0.1,0,0.1,0
					c0,0,0,0,0.1,0c0,0,0.1,0,0.1,0c0,0,0,0,0.1,0c0,0,0.1,0,0.1,0c0,0,0,0,0.1,0c0,0,0.1,0,0.1,0c0,0,0,0,0.1,0c0,0,0,0,0.1,0
					c0,0,0,0,0.1,0c0,0,0,0,0.1,0c0,0,0,0,0,0c0,0,0,0,0.1,0c0,0,0,0,0,0c0,0,0,0,0.1,0c0,0,0,0,0,0c0,0,0,0,0,0c0,0,0,0,0,0
					c0,0,0,0,0,0c0,0,0,0,0,0c0,0,0,0,0,0c0,0,0,0,0,0c0,0,0,0,0,0c0,0,0,0,0,0c0,0,0,0,0,0c0,0,0,0,0,0c0,0,0,0,0,0c0,0,0,0,0,0
					c0,0,0,0,0,0c0,0,0,0,0,0c0,0,0,0,0,0c0,0,0,0,0,0c0,0,0,0,0,0c0,0,0,0,0,0c0,0,0,0,0,0c0,0,0,0,0,0c0,0,0,0,0,0c0,0,0,0,0,0
					c0,0,0,0,0,0c0,0,0,0,0,0c0,0,0,0,0,0c0,0,0,0,0,0c0,0,0,0,0,0c0,0,0,0,0,0c0,0,0,0,0,0c0,0,0,0,0,0c0,0,0,0,0,0c0,0,0,0,0,0
					c0,0,0,0,0,0c0,0,0,0,0,0c0,0,0,0,0,0c0,0,0,0,0,0c0,0,0,0,0,0c0,0,0,0,0,0c0,0,0,0,0-0.1c0,0,0,0,0,0c0,0,0,0,0,0c0,0,0,0,0,0
					c0,0,0,0,0,0c0,0,0,0,0,0c0,0,0,0,0,0c0,0,0,0,0,0c0,0,0,0,0,0c0,0,0,0,0,0c0,0,0,0-0.1,0c0,0,0,0-0.1,0c0,0,0,0-0.1,0
					c0,0,0,0-0.1,0c0,0-0.1,0-0.1,0c0,0-0.1,0-0.1,0c0,0-0.1,0-0.1,0c0,0-0.1,0-0.1,0c0,0-0.1,0-0.1,0c0,0-0.1,0-0.1,0
					c0,0-0.1,0-0.1,0c0,0-0.1,0-0.1,0c0,0-0.1,0-0.1,0c0,0-0.1,0-0.1,0c0,0-0.1,0-0.1,0c0,0-0.1,0-0.1,0c0,0-0.1,0-0.1,0
					c0,0-0.1,0-0.1,0c0,0-0.1,0-0.1,0c0,0-0.1,0-0.1,0c0,0,0,0-0.1,0c0.2-0.4,0.7-0.7,1.2-0.7c0.8,0,1.4,0.6,1.4,1.4
					S757.5,30.5,756.8,30.5z"/>
				<path class="st2" d="M755.4,29c0-0.1-0.1-0.1-0.1-0.1c-0.7,0.1-1.4,0.2-2.1,0.2c0,0,0,0,0,0c-0.7,0-1.4-0.1-2.1-0.2
					c-0.1,0-0.1,0-0.1,0.1c0,0.1,0,0.1,0.1,0.1c0.7,0.1,1.5,0.2,2.2,0.2c0,0,0,0,0,0c0.7,0,1.5-0.1,2.2-0.2
					C755.4,29.1,755.4,29,755.4,29z"/>
			</g>
		</g>
	</g>
	<g>
		<g id="g5_00000082326434871567820490000016328433160672607403_">
			<circle id="circle7_00000138541118782759434290000007140194427215102367_" class="st1" cx="264.8" cy="28.1" r="9"/>
		</g>
		<g>
			<g>
				<g>
					<path class="st2" d="M263.2,28.1c0.3,0,0.5-0.7,0.5-1.6c0-0.9-0.2-1.6-0.5-1.6c-0.3,0-0.5,0.7-0.5,1.6
						C262.6,27.4,262.9,28.1,263.2,28.1z"/>
				</g>
				<g>
					<path class="st2" d="M266.3,28.1c0.3,0,0.5-0.7,0.5-1.6c0-0.9-0.2-1.6-0.5-1.6c-0.3,0-0.5,0.7-0.5,1.6
						C265.8,27.4,266.1,28.1,266.3,28.1z"/>
				</g>
			</g>
			<g>
				<path class="st2" d="M264.8,35.3c-4,0-7.2-3.2-7.2-7.2c0-4,3.2-7.2,7.2-7.2c4,0,7.2,3.2,7.2,7.2C272,32.1,268.7,35.3,264.8,35.3
					z M264.8,21.3c-3.8,0-6.9,3.1-6.9,6.9c0,3.8,3.1,6.9,6.9,6.9c3.8,0,6.9-3.1,6.9-6.9C271.6,24.3,268.5,21.3,264.8,21.3z"/>
			</g>
			<g>
				<path class="st2" d="M268.5,27.5c-0.6,0-1.2,0.4-1.5,0.9c-0.7,0-1.4-0.1-2.2-0.1c-0.8,0-1.5,0-2.1,0.1c-0.3-0.6-0.8-0.9-1.5-0.9
					c-0.9,0-1.6,0.7-1.6,1.6c0,0.9,0.7,1.6,1.6,1.6c0.6,0,1.2-0.4,1.5-0.9c0.7,0,1.4,0.1,2.1,0.1c0.7,0,1.5,0,2.2-0.1
					c0.3,0.6,0.8,0.9,1.5,0.9c0.9,0,1.6-0.7,1.6-1.6C270.1,28.2,269.4,27.5,268.5,27.5z M261.3,30.5c-0.8,0-1.4-0.6-1.4-1.4
					s0.6-1.4,1.4-1.4c0.5,0,1,0.3,1.2,0.7c0,0,0,0-0.1,0c0,0-0.1,0-0.1,0c0,0-0.1,0-0.1,0c0,0-0.1,0-0.1,0c0,0-0.1,0-0.1,0
					c0,0-0.1,0-0.1,0c0,0-0.1,0-0.1,0c0,0-0.1,0-0.1,0c0,0-0.1,0-0.1,0c0,0-0.1,0-0.1,0c0,0-0.1,0-0.1,0c0,0-0.1,0-0.1,0
					c0,0-0.1,0-0.1,0c0,0-0.1,0-0.1,0c0,0-0.1,0-0.1,0c0,0-0.1,0-0.1,0c0,0-0.1,0-0.1,0c0,0,0,0-0.1,0c0,0,0,0-0.1,0c0,0,0,0-0.1,0
					c0,0,0,0-0.1,0c0,0,0,0,0,0c0,0,0,0,0,0c0,0,0,0,0,0c0,0,0,0,0,0c0,0,0,0,0,0c0,0,0,0,0,0c0,0,0,0,0,0c0,0,0,0,0,0c0,0,0,0,0,0
					c0,0,0,0,0,0.1c0,0,0,0,0,0c0,0,0,0,0,0c0,0,0,0,0,0c0,0,0,0,0,0c0,0,0,0,0,0c0,0,0,0,0,0c0,0,0,0,0,0c0,0,0,0,0,0c0,0,0,0,0,0
					c0,0,0,0,0,0s0,0,0,0c0,0,0,0,0,0c0,0,0,0,0,0c0,0,0,0,0,0c0,0,0,0,0,0c0,0,0,0,0,0c0,0,0,0,0,0c0,0,0,0,0,0c0,0,0,0,0,0
					c0,0,0,0,0,0c0,0,0,0,0,0c0,0,0,0,0,0c0,0,0,0,0,0c0,0,0,0,0,0c0,0,0,0,0,0c0,0,0,0,0,0c0,0,0,0,0,0c0,0,0,0,0,0c0,0,0,0,0,0
					c0,0,0,0,0,0c0,0,0,0,0,0c0,0,0,0,0,0c0,0,0,0,0,0c0,0,0,0,0,0c0,0,0,0,0,0c0,0,0,0,0,0c0,0,0,0,0,0c0,0,0,0,0,0c0,0,0,0,0,0
					c0,0,0,0,0.1,0c0,0,0,0,0,0c0,0,0,0,0.1,0c0,0,0,0,0.1,0c0,0,0,0,0.1,0c0,0,0,0,0.1,0c0,0,0,0,0.1,0c0,0,0,0,0.1,0
					c0,0,0.1,0,0.1,0c0,0,0,0,0.1,0c0,0,0.1,0,0.1,0c0,0,0,0,0.1,0c0,0,0.1,0,0.1,0c0,0,0,0,0.1,0c0,0,0.1,0,0.1,0c0,0,0,0,0.1,0
					c0,0,0.1,0,0.1,0c0,0,0.1,0,0.1,0c0,0,0.1,0,0.1,0c0,0,0.1,0,0.1,0c0,0,0.1,0,0.1,0c0,0,0.1,0,0.1,0c0,0,0,0,0,0
					C262.3,30.2,261.8,30.5,261.3,30.5z M262.7,29.5c-1.8-0.1-2.3-0.4-2.3-0.4c0,0,0,0,0.1-0.1c0.2-0.1,0.8-0.3,2.3-0.4
					c0.7,0,1.4-0.1,2.2-0.1c0.8,0,1.6,0,2.2,0.1c0.1,0,0.2,0,0.3,0c0,0,0.1,0,0.1,0c0.1,0,0.1,0,0.2,0c0.1,0,0.1,0,0.2,0
					c0,0,0.1,0,0.1,0c1,0.1,1.4,0.3,1.5,0.3c0,0,0,0,0,0c0,0,0,0,0,0c0,0,0,0,0,0c0,0,0,0,0,0c0,0,0,0,0,0c0,0,0,0,0,0c0,0,0,0,0,0
					c0,0,0,0,0,0c0,0,0,0,0,0c0,0,0,0,0,0c0,0,0,0,0,0c0,0,0,0,0,0c0,0,0,0,0,0c0,0,0,0-0.1,0c0,0,0,0-0.1,0c0,0,0,0-0.1,0
					c0,0,0,0-0.1,0c0,0,0,0-0.1,0c0,0-0.1,0-0.1,0c0,0-0.1,0-0.1,0c0,0-0.1,0-0.1,0c0,0-0.1,0-0.1,0c0,0-0.1,0-0.1,0
					c0,0-0.1,0-0.1,0c0,0-0.1,0-0.1,0c0,0-0.1,0-0.1,0c-0.1,0-0.1,0-0.2,0c0,0-0.1,0-0.1,0c-0.1,0-0.1,0-0.2,0c0,0-0.1,0-0.1,0
					c-0.1,0-0.2,0-0.3,0l0,0C265.7,29.6,264,29.6,262.7,29.5z M268.5,30.5c-0.5,0-1-0.3-1.2-0.7c0,0,0,0,0,0c0,0,0.1,0,0.1,0
					c0,0,0.1,0,0.1,0c0,0,0.1,0,0.1,0c0,0,0.1,0,0.1,0c0,0,0.1,0,0.1,0c0,0,0.1,0,0.1,0c0,0,0.1,0,0.1,0c0,0,0.1,0,0.1,0
					c0,0,0,0,0.1,0c0,0,0.1,0,0.1,0c0,0,0,0,0.1,0c0,0,0.1,0,0.1,0c0,0,0,0,0.1,0c0,0,0.1,0,0.1,0c0,0,0,0,0.1,0c0,0,0,0,0.1,0
					c0,0,0,0,0.1,0c0,0,0,0,0.1,0c0,0,0,0,0,0c0,0,0,0,0.1,0c0,0,0,0,0,0c0,0,0,0,0.1,0c0,0,0,0,0,0c0,0,0,0,0,0c0,0,0,0,0,0
					c0,0,0,0,0,0c0,0,0,0,0,0c0,0,0,0,0,0c0,0,0,0,0,0c0,0,0,0,0,0c0,0,0,0,0,0c0,0,0,0,0,0c0,0,0,0,0,0c0,0,0,0,0,0c0,0,0,0,0,0
					c0,0,0,0,0,0c0,0,0,0,0,0c0,0,0,0,0,0c0,0,0,0,0,0c0,0,0,0,0,0c0,0,0,0,0,0c0,0,0,0,0,0c0,0,0,0,0,0c0,0,0,0,0,0c0,0,0,0,0,0
					c0,0,0,0,0,0c0,0,0,0,0,0c0,0,0,0,0,0c0,0,0,0,0,0c0,0,0,0,0,0c0,0,0,0,0,0c0,0,0,0,0,0c0,0,0,0,0,0c0,0,0,0,0,0c0,0,0,0,0,0
					c0,0,0,0,0,0c0,0,0,0,0,0c0,0,0,0,0,0c0,0,0,0,0,0c0,0,0,0,0,0c0,0,0,0,0,0c0,0,0,0,0-0.1c0,0,0,0,0,0c0,0,0,0,0,0c0,0,0,0,0,0
					c0,0,0,0,0,0c0,0,0,0,0,0c0,0,0,0,0,0c0,0,0,0,0,0c0,0,0,0,0,0c0,0,0,0,0,0c0,0,0,0-0.1,0c0,0,0,0-0.1,0c0,0,0,0-0.1,0
					c0,0,0,0-0.1,0c0,0-0.1,0-0.1,0c0,0-0.1,0-0.1,0c0,0-0.1,0-0.1,0c0,0-0.1,0-0.1,0c0,0-0.1,0-0.1,0c0,0-0.1,0-0.1,0
					c0,0-0.1,0-0.1,0c0,0-0.1,0-0.1,0c0,0-0.1,0-0.1,0c0,0-0.1,0-0.1,0c0,0-0.1,0-0.1,0c0,0-0.1,0-0.1,0c0,0-0.1,0-0.1,0
					c0,0-0.1,0-0.1,0c0,0-0.1,0-0.1,0c0,0-0.1,0-0.1,0c0,0,0,0-0.1,0c0.2-0.4,0.7-0.7,1.2-0.7c0.8,0,1.4,0.6,1.4,1.4
					S269.2,30.5,268.5,30.5z"/>
				<path class="st2" d="M267.2,29c0-0.1-0.1-0.1-0.1-0.1c-0.7,0.1-1.4,0.2-2.1,0.2c0,0,0,0,0,0c-0.7,0-1.4-0.1-2.1-0.2
					c-0.1,0-0.1,0-0.1,0.1c0,0.1,0,0.1,0.1,0.1c0.7,0.1,1.5,0.2,2.2,0.2c0,0,0,0,0,0c0.7,0,1.5-0.1,2.2-0.2
					C267.1,29.1,267.2,29,267.2,29z"/>
			</g>
		</g>
	</g>
	<path class="st2" d="M897.1,35.2c-5.3-5.3-8.9-5.3-14.2,0c5.3-5.3,5.3-8.9,0-14.2c5.3,5.3,8.9,5.3,14.2,0
		C891.8,26.3,891.8,29.9,897.1,35.2z"/>
	<g>
		<path d="M1119.7,20.8h5.5c3.3,0,5.5,1.8,5.5,4.7v0c0,3.2-2.7,4.8-5.8,4.8h-3.6v5.2h-1.7V20.8z M1125,28.9c2.5,0,4.1-1.3,4.1-3.3v0
			c0-2.1-1.6-3.2-4-3.2h-3.7v6.5H1125z"/>
		<path d="M1133.1,28.2L1133.1,28.2c0-4.1,3.1-7.7,7.6-7.7c4.5,0,7.5,3.5,7.5,7.6v0c0,4.1-3.1,7.7-7.6,7.7S1133.1,32.3,1133.1,28.2z
			 M1146.5,28.2L1146.5,28.2c0-3.4-2.5-6.2-5.8-6.2s-5.8,2.7-5.8,6.1v0c0,3.4,2.5,6.1,5.8,6.1S1146.5,31.6,1146.5,28.2z"/>
		<path d="M1151.8,20.8h6.4c1.8,0,3.3,0.5,4.2,1.5c0.7,0.7,1.1,1.8,1.1,2.9v0c0,2.5-1.7,3.9-4,4.3l4.5,6h-2.1l-4.3-5.8h-4.2v5.8
			h-1.7V20.8z M1158,28.3c2.2,0,3.8-1.1,3.8-3v0c0-1.8-1.4-2.9-3.8-2.9h-4.6v6H1158z"/>
		<path d="M1170.8,22.3h-5v-1.5h11.6v1.5h-5v13.3h-1.7V22.3z"/>
		<path d="M1184.2,20.7h1.6l6.7,14.9h-1.8l-1.7-3.9h-8.1l-1.8,3.9h-1.7L1184.2,20.7z M1188.3,30.2l-3.4-7.5l-3.4,7.5H1188.3z"/>
		<path d="M1195.5,20.8h10.6v1.5h-9v5.3h8v1.5h-8v6.4h-1.7V20.8z"/>
		<path d="M1208.4,28.2L1208.4,28.2c0-4.1,3.1-7.7,7.6-7.7c4.5,0,7.5,3.5,7.5,7.6v0c0,4.1-3.1,7.7-7.6,7.7S1208.4,32.3,1208.4,28.2z
			 M1221.7,28.2L1221.7,28.2c0-3.4-2.5-6.2-5.8-6.2s-5.8,2.7-5.8,6.1v0c0,3.4,2.5,6.1,5.8,6.1S1221.7,31.6,1221.7,28.2z"/>
		<path d="M1227,20.8h1.7v13.3h8.3v1.5h-10V20.8z"/>
		<path d="M1240.2,20.8h1.7v14.8h-1.7V20.8z"/>
		<path d="M1245.6,28.2L1245.6,28.2c0-4.1,3.1-7.7,7.6-7.7c4.5,0,7.5,3.5,7.5,7.6v0c0,4.1-3.1,7.7-7.6,7.7S1245.6,32.3,1245.6,28.2z
			 M1259,28.2L1259,28.2c0-3.4-2.5-6.2-5.8-6.2s-5.8,2.7-5.8,6.1v0c0,3.4,2.5,6.1,5.8,6.1S1259,31.6,1259,28.2z"/>
	</g>
	<g>
		<path d="M1411.1,20.8h1.7l5.4,8.1l5.4-8.1h1.7v14.8h-1.7v-12l-5.4,7.9h-0.1l-5.4-7.9v12h-1.6V20.8z"/>
		<path d="M1429.5,20.8h1.7l5.4,8.1l5.4-8.1h1.7v14.8h-1.7v-12l-5.4,7.9h-0.1l-5.4-7.9v12h-1.6V20.8z"/>
		<path d="M1459.9,20.8l-5.5,7.3l5.7,7.5h-2l-4.7-6.4l-4.7,6.4h-1.9l5.7-7.5l-5.5-7.3h2l4.5,6.1l4.5-6.1H1459.9z"/>
		<path d="M1475.3,20.8l-5.5,7.3l5.7,7.5h-2l-4.7-6.4l-4.7,6.4h-1.9l5.7-7.5l-5.5-7.3h2l4.5,6.1l4.5-6.1H1475.3z"/>
	</g>
	<g>
		<g>
			<path d="M1301.8,32.8l8.5-5.6c0.7-0.5,1.2-0.9,1.5-1.3c0.3-0.4,0.4-0.8,0.4-1.2c0-0.4-0.1-0.7-0.4-1c-0.3-0.2-0.7-0.4-1.2-0.4
				c-0.6,0-1.2,0.2-1.9,0.6c-0.6,0.4-1.3,0.9-1.9,1.5l-2.7-2.8c0.9-1,1.9-1.7,3-2.3c1.1-0.6,2.4-0.9,3.9-0.9c0.9,0,1.7,0.1,2.5,0.4
				c0.7,0.2,1.3,0.6,1.9,1c0.5,0.4,0.9,0.9,1.2,1.5c0.3,0.6,0.4,1.2,0.4,1.9c0,0.5-0.1,1-0.2,1.5s-0.4,1-0.7,1.4
				c-0.3,0.5-0.8,0.9-1.4,1.4c-0.6,0.5-1.3,1-2.1,1.5l-4.1,2.6h6.7l-1,3.8h-13.3L1301.8,32.8z"/>
			<path d="M1324.5,36.8c-1,0-2-0.2-2.8-0.5c-0.8-0.3-1.5-0.8-2.1-1.4s-1-1.3-1.3-2.2c-0.3-0.8-0.5-1.7-0.5-2.7
				c0-1.3,0.2-2.6,0.7-3.9c0.4-1.3,1.1-2.4,1.9-3.4c0.8-1,1.8-1.8,2.9-2.4s2.4-0.9,3.8-0.9c1.1,0,2,0.2,2.8,0.5s1.5,0.8,2.1,1.4
				s1,1.3,1.3,2.2c0.3,0.8,0.5,1.7,0.5,2.7c0,1.3-0.2,2.6-0.7,3.9c-0.4,1.3-1.1,2.4-1.9,3.4c-0.8,1-1.8,1.8-2.9,2.4
				S1325.9,36.8,1324.5,36.8z M1324.9,32.7c0.6,0,1.2-0.2,1.7-0.6c0.5-0.4,1-0.9,1.3-1.5s0.6-1.3,0.8-2c0.2-0.7,0.3-1.4,0.3-2.1
				c0-1-0.2-1.8-0.7-2.2s-1-0.7-1.8-0.7c-0.6,0-1.2,0.2-1.7,0.6s-0.9,0.9-1.3,1.5s-0.6,1.3-0.8,2c-0.2,0.7-0.3,1.4-0.3,2.1
				c0,1,0.2,1.7,0.7,2.2C1323.6,32.4,1324.2,32.7,1324.9,32.7z"/>
			<path d="M1334.2,32.8l8.5-5.6c0.7-0.5,1.2-0.9,1.5-1.3c0.3-0.4,0.4-0.8,0.4-1.2c0-0.4-0.1-0.7-0.4-1c-0.3-0.2-0.7-0.4-1.2-0.4
				c-0.6,0-1.2,0.2-1.9,0.6c-0.6,0.4-1.3,0.9-1.9,1.5l-2.7-2.8c0.9-1,1.9-1.7,3-2.3c1.1-0.6,2.4-0.9,3.9-0.9c0.9,0,1.7,0.1,2.5,0.4
				c0.7,0.2,1.3,0.6,1.9,1c0.5,0.4,0.9,0.9,1.2,1.5c0.3,0.6,0.4,1.2,0.4,1.9c0,0.5-0.1,1-0.2,1.5s-0.4,1-0.7,1.4
				c-0.3,0.5-0.8,0.9-1.4,1.4c-0.6,0.5-1.3,1-2.1,1.5l-4.1,2.6h6.7l-1,3.8h-13.3L1334.2,32.8z"/>
			<path d="M1355.4,27.7l-3.5-8h5.1l1.8,4.7l4.1-4.7h5.6l-7.8,8.3l3.7,8.4h-5.1l-2-5.2l-4.6,5.2h-5.6L1355.4,27.7z"/>
		</g>
	</g>
	<g>
		<g id="g5_00000078759138588921635460000008818340436587423911_">
			<circle id="circle7_00000153687277859996124300000003012525288559294605_" class="st1" cx="1486.3" cy="28.1" r="9"/>
		</g>
		<g>
			<g>
				<g>
					<path class="st2" d="M1484.7,28.1c0.3,0,0.5-0.7,0.5-1.6c0-0.9-0.2-1.6-0.5-1.6c-0.3,0-0.5,0.7-0.5,1.6
						S1484.4,28.1,1484.7,28.1z"/>
				</g>
				<g>
					<path class="st2" d="M1487.9,28.1c0.3,0,0.5-0.7,0.5-1.6c0-0.9-0.2-1.6-0.5-1.6c-0.3,0-0.5,0.7-0.5,1.6
						C1487.4,27.4,1487.6,28.1,1487.9,28.1z"/>
				</g>
			</g>
			<g>
				<path class="st2" d="M1486.3,35.3c-4,0-7.2-3.2-7.2-7.2c0-4,3.2-7.2,7.2-7.2c4,0,7.2,3.2,7.2,7.2
					C1493.6,32.1,1490.3,35.3,1486.3,35.3z M1486.3,21.3c-3.8,0-6.9,3.1-6.9,6.9c0,3.8,3.1,6.9,6.9,6.9c3.8,0,6.9-3.1,6.9-6.9
					C1493.2,24.3,1490.1,21.3,1486.3,21.3z"/>
			</g>
			<g>
				<path class="st2" d="M1490.1,27.5c-0.6,0-1.2,0.4-1.5,0.9c-0.7,0-1.4-0.1-2.2-0.1c-0.8,0-1.5,0-2.1,0.1
					c-0.3-0.6-0.8-0.9-1.5-0.9c-0.9,0-1.6,0.7-1.6,1.6c0,0.9,0.7,1.6,1.6,1.6c0.6,0,1.2-0.4,1.5-0.9c0.7,0,1.4,0.1,2.1,0.1
					c0.7,0,1.5,0,2.2-0.1c0.3,0.6,0.8,0.9,1.5,0.9c0.9,0,1.6-0.7,1.6-1.6C1491.7,28.2,1491,27.5,1490.1,27.5z M1482.9,30.5
					c-0.8,0-1.4-0.6-1.4-1.4s0.6-1.4,1.4-1.4c0.5,0,1,0.3,1.2,0.7c0,0,0,0-0.1,0c0,0-0.1,0-0.1,0c0,0-0.1,0-0.1,0c0,0-0.1,0-0.1,0
					c0,0-0.1,0-0.1,0c0,0-0.1,0-0.1,0c0,0-0.1,0-0.1,0c0,0-0.1,0-0.1,0c0,0-0.1,0-0.1,0c0,0-0.1,0-0.1,0c0,0-0.1,0-0.1,0
					c0,0-0.1,0-0.1,0c0,0-0.1,0-0.1,0c0,0-0.1,0-0.1,0c0,0-0.1,0-0.1,0c0,0-0.1,0-0.1,0c0,0-0.1,0-0.1,0c0,0,0,0-0.1,0
					c0,0,0,0-0.1,0c0,0,0,0-0.1,0c0,0,0,0-0.1,0c0,0,0,0,0,0c0,0,0,0,0,0c0,0,0,0,0,0c0,0,0,0,0,0c0,0,0,0,0,0c0,0,0,0,0,0
					c0,0,0,0,0,0c0,0,0,0,0,0c0,0,0,0,0,0c0,0,0,0,0,0.1c0,0,0,0,0,0c0,0,0,0,0,0c0,0,0,0,0,0c0,0,0,0,0,0c0,0,0,0,0,0c0,0,0,0,0,0
					c0,0,0,0,0,0c0,0,0,0,0,0c0,0,0,0,0,0c0,0,0,0,0,0s0,0,0,0c0,0,0,0,0,0c0,0,0,0,0,0c0,0,0,0,0,0c0,0,0,0,0,0c0,0,0,0,0,0
					c0,0,0,0,0,0c0,0,0,0,0,0c0,0,0,0,0,0c0,0,0,0,0,0c0,0,0,0,0,0c0,0,0,0,0,0c0,0,0,0,0,0c0,0,0,0,0,0c0,0,0,0,0,0c0,0,0,0,0,0
					c0,0,0,0,0,0c0,0,0,0,0,0c0,0,0,0,0,0c0,0,0,0,0,0c0,0,0,0,0,0c0,0,0,0,0,0c0,0,0,0,0,0c0,0,0,0,0,0c0,0,0,0,0,0c0,0,0,0,0,0
					c0,0,0,0,0,0c0,0,0,0,0,0c0,0,0,0,0,0c0,0,0,0,0.1,0c0,0,0,0,0,0c0,0,0,0,0.1,0c0,0,0,0,0.1,0c0,0,0,0,0.1,0c0,0,0,0,0.1,0
					c0,0,0,0,0.1,0c0,0,0,0,0.1,0c0,0,0.1,0,0.1,0c0,0,0,0,0.1,0c0,0,0.1,0,0.1,0c0,0,0,0,0.1,0c0,0,0.1,0,0.1,0c0,0,0,0,0.1,0
					c0,0,0.1,0,0.1,0c0,0,0,0,0.1,0c0,0,0.1,0,0.1,0c0,0,0.1,0,0.1,0c0,0,0.1,0,0.1,0c0,0,0.1,0,0.1,0c0,0,0.1,0,0.1,0
					c0,0,0.1,0,0.1,0c0,0,0,0,0,0C1483.8,30.2,1483.4,30.5,1482.9,30.5z M1484.3,29.5c-1.8-0.1-2.3-0.4-2.3-0.4c0,0,0,0,0.1-0.1
					c0.2-0.1,0.8-0.3,2.3-0.4c0.7,0,1.4-0.1,2.2-0.1c0.8,0,1.6,0,2.2,0.1c0.1,0,0.2,0,0.3,0c0,0,0.1,0,0.1,0c0.1,0,0.1,0,0.2,0
					c0.1,0,0.1,0,0.2,0c0,0,0.1,0,0.1,0c1,0.1,1.4,0.3,1.5,0.3c0,0,0,0,0,0c0,0,0,0,0,0c0,0,0,0,0,0c0,0,0,0,0,0c0,0,0,0,0,0
					c0,0,0,0,0,0c0,0,0,0,0,0c0,0,0,0,0,0c0,0,0,0,0,0c0,0,0,0,0,0c0,0,0,0,0,0c0,0,0,0,0,0c0,0,0,0,0,0c0,0,0,0-0.1,0
					c0,0,0,0-0.1,0c0,0,0,0-0.1,0c0,0,0,0-0.1,0c0,0,0,0-0.1,0c0,0-0.1,0-0.1,0c0,0-0.1,0-0.1,0c0,0-0.1,0-0.1,0c0,0-0.1,0-0.1,0
					c0,0-0.1,0-0.1,0c0,0-0.1,0-0.1,0c0,0-0.1,0-0.1,0c0,0-0.1,0-0.1,0c-0.1,0-0.1,0-0.2,0c0,0-0.1,0-0.1,0c-0.1,0-0.1,0-0.2,0
					c0,0-0.1,0-0.1,0c-0.1,0-0.2,0-0.3,0l0,0C1487.3,29.6,1485.6,29.6,1484.3,29.5z M1490.1,30.5c-0.5,0-1-0.3-1.2-0.7c0,0,0,0,0,0
					c0,0,0.1,0,0.1,0c0,0,0.1,0,0.1,0c0,0,0.1,0,0.1,0c0,0,0.1,0,0.1,0c0,0,0.1,0,0.1,0c0,0,0.1,0,0.1,0c0,0,0.1,0,0.1,0
					c0,0,0.1,0,0.1,0c0,0,0,0,0.1,0c0,0,0.1,0,0.1,0c0,0,0,0,0.1,0c0,0,0.1,0,0.1,0c0,0,0,0,0.1,0c0,0,0.1,0,0.1,0c0,0,0,0,0.1,0
					c0,0,0,0,0.1,0c0,0,0,0,0.1,0c0,0,0,0,0.1,0c0,0,0,0,0,0c0,0,0,0,0.1,0c0,0,0,0,0,0c0,0,0,0,0.1,0c0,0,0,0,0,0c0,0,0,0,0,0
					c0,0,0,0,0,0c0,0,0,0,0,0c0,0,0,0,0,0c0,0,0,0,0,0c0,0,0,0,0,0c0,0,0,0,0,0c0,0,0,0,0,0c0,0,0,0,0,0c0,0,0,0,0,0c0,0,0,0,0,0
					c0,0,0,0,0,0c0,0,0,0,0,0c0,0,0,0,0,0c0,0,0,0,0,0c0,0,0,0,0,0c0,0,0,0,0,0c0,0,0,0,0,0c0,0,0,0,0,0c0,0,0,0,0,0c0,0,0,0,0,0
					c0,0,0,0,0,0c0,0,0,0,0,0c0,0,0,0,0,0c0,0,0,0,0,0c0,0,0,0,0,0c0,0,0,0,0,0c0,0,0,0,0,0c0,0,0,0,0,0c0,0,0,0,0,0c0,0,0,0,0,0
					c0,0,0,0,0,0c0,0,0,0,0,0c0,0,0,0,0,0c0,0,0,0,0,0c0,0,0,0,0,0c0,0,0,0,0,0c0,0,0,0,0,0c0,0,0,0,0-0.1c0,0,0,0,0,0c0,0,0,0,0,0
					c0,0,0,0,0,0c0,0,0,0,0,0c0,0,0,0,0,0c0,0,0,0,0,0c0,0,0,0,0,0c0,0,0,0,0,0c0,0,0,0,0,0c0,0,0,0-0.1,0c0,0,0,0-0.1,0
					c0,0,0,0-0.1,0c0,0,0,0-0.1,0c0,0-0.1,0-0.1,0c0,0-0.1,0-0.1,0c0,0-0.1,0-0.1,0c0,0-0.1,0-0.1,0c0,0-0.1,0-0.1,0
					c0,0-0.1,0-0.1,0c0,0-0.1,0-0.1,0c0,0-0.1,0-0.1,0c0,0-0.1,0-0.1,0c0,0-0.1,0-0.1,0c0,0-0.1,0-0.1,0c0,0-0.1,0-0.1,0
					c0,0-0.1,0-0.1,0c0,0-0.1,0-0.1,0c0,0-0.1,0-0.1,0c0,0-0.1,0-0.1,0c0,0,0,0-0.1,0c0.2-0.4,0.7-0.7,1.2-0.7
					c0.8,0,1.4,0.6,1.4,1.4S1490.8,30.5,1490.1,30.5z"/>
				<path class="st2" d="M1488.7,29c0-0.1-0.1-0.1-0.1-0.1c-0.7,0.1-1.4,0.2-2.1,0.2c0,0,0,0,0,0c-0.7,0-1.4-0.1-2.1-0.2
					c-0.1,0-0.1,0-0.1,0.1c0,0.1,0,0.1,0.1,0.1c0.7,0.1,1.5,0.2,2.2,0.2c0,0,0,0,0,0c0.7,0,1.5-0.1,2.2-0.2
					C1488.7,29.1,1488.8,29,1488.7,29z"/>
			</g>
		</g>
	</g>
	<path class="st2" d="M1397.3,35.2c-5.3-5.3-8.9-5.3-14.2,0c5.3-5.3,5.3-8.9,0-14.2c5.3,5.3,8.9,5.3,14.2,0
		C1392,26.3,1392,29.9,1397.3,35.2z"/>
	<g>
		<path d="M1608,20.8h5.5c3.3,0,5.5,1.8,5.5,4.7v0c0,3.2-2.7,4.8-5.8,4.8h-3.6v5.2h-1.7V20.8z M1613.3,28.9c2.5,0,4.1-1.3,4.1-3.3v0
			c0-2.1-1.6-3.2-4-3.2h-3.7v6.5H1613.3z"/>
		<path d="M1621.4,28.2L1621.4,28.2c0-4.1,3.1-7.7,7.6-7.7c4.5,0,7.5,3.5,7.5,7.6v0c0,4.1-3.1,7.7-7.6,7.7S1621.4,32.3,1621.4,28.2z
			 M1634.8,28.2L1634.8,28.2c0-3.4-2.5-6.2-5.8-6.2s-5.8,2.7-5.8,6.1v0c0,3.4,2.5,6.1,5.8,6.1S1634.8,31.6,1634.8,28.2z"/>
		<path d="M1640.1,20.8h6.4c1.8,0,3.3,0.5,4.2,1.5c0.7,0.7,1.1,1.8,1.1,2.9v0c0,2.5-1.7,3.9-4,4.3l4.5,6h-2.1l-4.3-5.8h-4.2v5.8
			h-1.7V20.8z M1646.3,28.3c2.2,0,3.8-1.1,3.8-3v0c0-1.8-1.4-2.9-3.8-2.9h-4.6v6H1646.3z"/>
		<path d="M1659.1,22.3h-5v-1.5h11.6v1.5h-5v13.3h-1.7V22.3z"/>
		<path d="M1672.5,20.7h1.6l6.7,14.9h-1.8l-1.7-3.9h-8.1l-1.8,3.9h-1.7L1672.5,20.7z M1676.6,30.2l-3.4-7.5l-3.4,7.5H1676.6z"/>
		<path d="M1683.7,20.8h10.6v1.5h-9v5.3h8v1.5h-8v6.4h-1.7V20.8z"/>
		<path d="M1696.7,28.2L1696.7,28.2c0-4.1,3.1-7.7,7.6-7.7c4.5,0,7.5,3.5,7.5,7.6v0c0,4.1-3.1,7.7-7.6,7.7S1696.7,32.3,1696.7,28.2z
			 M1710,28.2L1710,28.2c0-3.4-2.5-6.2-5.8-6.2s-5.8,2.7-5.8,6.1v0c0,3.4,2.5,6.1,5.8,6.1S1710,31.6,1710,28.2z"/>
		<path d="M1715.3,20.8h1.7v13.3h8.3v1.5h-10V20.8z"/>
		<path d="M1728.5,20.8h1.7v14.8h-1.7V20.8z"/>
		<path d="M1733.9,28.2L1733.9,28.2c0-4.1,3.1-7.7,7.6-7.7c4.5,0,7.5,3.5,7.5,7.6v0c0,4.1-3.1,7.7-7.6,7.7S1733.9,32.3,1733.9,28.2z
			 M1747.2,28.2L1747.2,28.2c0-3.4-2.5-6.2-5.8-6.2s-5.8,2.7-5.8,6.1v0c0,3.4,2.5,6.1,5.8,6.1S1747.2,31.6,1747.2,28.2z"/>
	</g>
	<g>
		<path d="M1899.4,20.8h1.7l5.4,8.1l5.4-8.1h1.7v14.8h-1.7v-12l-5.4,7.9h-0.1l-5.4-7.9v12h-1.6V20.8z"/>
		<path d="M1917.8,20.8h1.7l5.4,8.1l5.4-8.1h1.7v14.8h-1.7v-12l-5.4,7.9h-0.1l-5.4-7.9v12h-1.6V20.8z"/>
		<path d="M1948.2,20.8l-5.5,7.3l5.7,7.5h-2l-4.7-6.4l-4.7,6.4h-1.9l5.7-7.5l-5.5-7.3h2l4.5,6.1l4.5-6.1H1948.2z"/>
		<path d="M1963.6,20.8l-5.5,7.3l5.7,7.5h-2l-4.7-6.4l-4.7,6.4h-1.9l5.7-7.5l-5.5-7.3h2l4.5,6.1l4.5-6.1H1963.6z"/>
	</g>
	<g>
		<g>
			<path d="M1790.1,32.8l8.5-5.6c0.7-0.5,1.2-0.9,1.5-1.3c0.3-0.4,0.4-0.8,0.4-1.2c0-0.4-0.1-0.7-0.4-1c-0.3-0.2-0.7-0.4-1.2-0.4
				c-0.6,0-1.2,0.2-1.9,0.6c-0.6,0.4-1.3,0.9-1.9,1.5l-2.7-2.8c0.9-1,1.9-1.7,3-2.3c1.1-0.6,2.4-0.9,3.9-0.9c0.9,0,1.7,0.1,2.5,0.4
				c0.7,0.2,1.3,0.6,1.9,1c0.5,0.4,0.9,0.9,1.2,1.5c0.3,0.6,0.4,1.2,0.4,1.9c0,0.5-0.1,1-0.2,1.5s-0.4,1-0.7,1.4
				c-0.3,0.5-0.8,0.9-1.4,1.4c-0.6,0.5-1.3,1-2.1,1.5l-4.1,2.6h6.7l-1,3.8h-13.3L1790.1,32.8z"/>
			<path d="M1812.8,36.8c-1,0-2-0.2-2.8-0.5c-0.8-0.3-1.5-0.8-2.1-1.4s-1-1.3-1.3-2.2c-0.3-0.8-0.5-1.7-0.5-2.7
				c0-1.3,0.2-2.6,0.7-3.9c0.4-1.3,1.1-2.4,1.9-3.4c0.8-1,1.8-1.8,2.9-2.4s2.4-0.9,3.8-0.9c1.1,0,2,0.2,2.8,0.5s1.5,0.8,2.1,1.4
				s1,1.3,1.3,2.2c0.3,0.8,0.5,1.7,0.5,2.7c0,1.3-0.2,2.6-0.7,3.9c-0.4,1.3-1.1,2.4-1.9,3.4c-0.8,1-1.8,1.8-2.9,2.4
				S1814.2,36.8,1812.8,36.8z M1813.2,32.7c0.6,0,1.2-0.2,1.7-0.6c0.5-0.4,1-0.9,1.3-1.5s0.6-1.3,0.8-2c0.2-0.7,0.3-1.4,0.3-2.1
				c0-1-0.2-1.8-0.7-2.2s-1-0.7-1.8-0.7c-0.6,0-1.2,0.2-1.7,0.6s-0.9,0.9-1.3,1.5s-0.6,1.3-0.8,2c-0.2,0.7-0.3,1.4-0.3,2.1
				c0,1,0.2,1.7,0.7,2.2C1811.9,32.4,1812.5,32.7,1813.2,32.7z"/>
			<path d="M1822.5,32.8l8.5-5.6c0.7-0.5,1.2-0.9,1.5-1.3c0.3-0.4,0.4-0.8,0.4-1.2c0-0.4-0.1-0.7-0.4-1c-0.3-0.2-0.7-0.4-1.2-0.4
				c-0.6,0-1.2,0.2-1.9,0.6c-0.6,0.4-1.3,0.9-1.9,1.5l-2.7-2.8c0.9-1,1.9-1.7,3-2.3c1.1-0.6,2.4-0.9,3.9-0.9c0.9,0,1.7,0.1,2.5,0.4
				c0.7,0.2,1.3,0.6,1.9,1c0.5,0.4,0.9,0.9,1.2,1.5c0.3,0.6,0.4,1.2,0.4,1.9c0,0.5-0.1,1-0.2,1.5s-0.4,1-0.7,1.4
				c-0.3,0.5-0.8,0.9-1.4,1.4c-0.6,0.5-1.3,1-2.1,1.5l-4.1,2.6h6.7l-1,3.8h-13.3L1822.5,32.8z"/>
			<path d="M1843.7,27.7l-3.5-8h5.1l1.8,4.7l4.1-4.7h5.6l-7.8,8.3l3.7,8.4h-5.1l-2-5.2l-4.6,5.2h-5.6L1843.7,27.7z"/>
		</g>
	</g>
	<g>
		<g id="g5_00000013882548571338669100000013156144161525904277_">
			<circle id="circle7_00000052073611584350588600000017040584133106918287_" class="st1" cx="1974.6" cy="28.1" r="9"/>
		</g>
		<g>
			<g>
				<g>
					<path class="st2" d="M1973,28.1c0.3,0,0.5-0.7,0.5-1.6c0-0.9-0.2-1.6-0.5-1.6c-0.3,0-0.5,0.7-0.5,1.6
						C1972.5,27.4,1972.7,28.1,1973,28.1z"/>
				</g>
				<g>
					<path class="st2" d="M1976.2,28.1c0.3,0,0.5-0.7,0.5-1.6c0-0.9-0.2-1.6-0.5-1.6c-0.3,0-0.5,0.7-0.5,1.6
						C1975.7,27.4,1975.9,28.1,1976.2,28.1z"/>
				</g>
			</g>
			<g>
				<path class="st2" d="M1974.6,35.3c-4,0-7.2-3.2-7.2-7.2c0-4,3.2-7.2,7.2-7.2c4,0,7.2,3.2,7.2,7.2
					C1981.8,32.1,1978.6,35.3,1974.6,35.3z M1974.6,21.3c-3.8,0-6.9,3.1-6.9,6.9c0,3.8,3.1,6.9,6.9,6.9c3.8,0,6.9-3.1,6.9-6.9
					C1981.5,24.3,1978.4,21.3,1974.6,21.3z"/>
			</g>
			<g>
				<path class="st2" d="M1978.4,27.5c-0.6,0-1.2,0.4-1.5,0.9c-0.7,0-1.4-0.1-2.2-0.1c-0.8,0-1.5,0-2.1,0.1
					c-0.3-0.6-0.8-0.9-1.5-0.9c-0.9,0-1.6,0.7-1.6,1.6c0,0.9,0.7,1.6,1.6,1.6c0.6,0,1.2-0.4,1.5-0.9c0.7,0,1.4,0.1,2.1,0.1
					c0.7,0,1.5,0,2.2-0.1c0.3,0.6,0.8,0.9,1.5,0.9c0.9,0,1.6-0.7,1.6-1.6C1980,28.2,1979.2,27.5,1978.4,27.5z M1971.2,30.5
					c-0.8,0-1.4-0.6-1.4-1.4s0.6-1.4,1.4-1.4c0.5,0,1,0.3,1.2,0.7c0,0,0,0-0.1,0c0,0-0.1,0-0.1,0c0,0-0.1,0-0.1,0c0,0-0.1,0-0.1,0
					c0,0-0.1,0-0.1,0c0,0-0.1,0-0.1,0c0,0-0.1,0-0.1,0c0,0-0.1,0-0.1,0c0,0-0.1,0-0.1,0c0,0-0.1,0-0.1,0c0,0-0.1,0-0.1,0
					c0,0-0.1,0-0.1,0c0,0-0.1,0-0.1,0c0,0-0.1,0-0.1,0c0,0-0.1,0-0.1,0c0,0-0.1,0-0.1,0c0,0-0.1,0-0.1,0c0,0,0,0-0.1,0
					c0,0,0,0-0.1,0c0,0,0,0-0.1,0c0,0,0,0-0.1,0c0,0,0,0,0,0c0,0,0,0,0,0c0,0,0,0,0,0c0,0,0,0,0,0c0,0,0,0,0,0c0,0,0,0,0,0
					c0,0,0,0,0,0c0,0,0,0,0,0c0,0,0,0,0,0c0,0,0,0,0,0.1c0,0,0,0,0,0c0,0,0,0,0,0c0,0,0,0,0,0c0,0,0,0,0,0c0,0,0,0,0,0c0,0,0,0,0,0
					c0,0,0,0,0,0c0,0,0,0,0,0c0,0,0,0,0,0c0,0,0,0,0,0c0,0,0,0,0,0c0,0,0,0,0,0c0,0,0,0,0,0c0,0,0,0,0,0c0,0,0,0,0,0c0,0,0,0,0,0
					c0,0,0,0,0,0c0,0,0,0,0,0c0,0,0,0,0,0c0,0,0,0,0,0c0,0,0,0,0,0c0,0,0,0,0,0c0,0,0,0,0,0c0,0,0,0,0,0c0,0,0,0,0,0c0,0,0,0,0,0
					c0,0,0,0,0,0c0,0,0,0,0,0c0,0,0,0,0,0c0,0,0,0,0,0c0,0,0,0,0,0c0,0,0,0,0,0c0,0,0,0,0,0c0,0,0,0,0,0c0,0,0,0,0,0c0,0,0,0,0,0
					c0,0,0,0,0,0c0,0,0,0,0,0c0,0,0,0,0,0c0,0,0,0,0.1,0c0,0,0,0,0,0c0,0,0,0,0.1,0c0,0,0,0,0.1,0c0,0,0,0,0.1,0c0,0,0,0,0.1,0
					c0,0,0,0,0.1,0c0,0,0,0,0.1,0c0,0,0.1,0,0.1,0c0,0,0,0,0.1,0c0,0,0.1,0,0.1,0c0,0,0,0,0.1,0c0,0,0.1,0,0.1,0c0,0,0,0,0.1,0
					c0,0,0.1,0,0.1,0c0,0,0,0,0.1,0c0,0,0.1,0,0.1,0c0,0,0.1,0,0.1,0c0,0,0.1,0,0.1,0c0,0,0.1,0,0.1,0c0,0,0.1,0,0.1,0
					c0,0,0.1,0,0.1,0c0,0,0,0,0,0C1972.1,30.2,1971.7,30.5,1971.2,30.5z M1972.5,29.5c-1.8-0.1-2.3-0.4-2.3-0.4c0,0,0,0,0.1-0.1
					c0.2-0.1,0.8-0.3,2.3-0.4c0.7,0,1.4-0.1,2.2-0.1c0.8,0,1.6,0,2.2,0.1c0.1,0,0.2,0,0.3,0c0,0,0.1,0,0.1,0c0.1,0,0.1,0,0.2,0
					c0.1,0,0.1,0,0.2,0c0,0,0.1,0,0.1,0c1,0.1,1.4,0.3,1.5,0.3c0,0,0,0,0,0c0,0,0,0,0,0c0,0,0,0,0,0c0,0,0,0,0,0c0,0,0,0,0,0
					c0,0,0,0,0,0c0,0,0,0,0,0c0,0,0,0,0,0c0,0,0,0,0,0c0,0,0,0,0,0c0,0,0,0,0,0c0,0,0,0,0,0c0,0,0,0,0,0c0,0,0,0-0.1,0
					c0,0,0,0-0.1,0c0,0,0,0-0.1,0c0,0,0,0-0.1,0c0,0,0,0-0.1,0c0,0-0.1,0-0.1,0c0,0-0.1,0-0.1,0c0,0-0.1,0-0.1,0c0,0-0.1,0-0.1,0
					c0,0-0.1,0-0.1,0c0,0-0.1,0-0.1,0c0,0-0.1,0-0.1,0c0,0-0.1,0-0.1,0c-0.1,0-0.1,0-0.2,0c0,0-0.1,0-0.1,0c-0.1,0-0.1,0-0.2,0
					c0,0-0.1,0-0.1,0c-0.1,0-0.2,0-0.3,0l0,0C1975.6,29.6,1973.9,29.6,1972.5,29.5z M1978.4,30.5c-0.5,0-1-0.3-1.2-0.7c0,0,0,0,0,0
					c0,0,0.1,0,0.1,0c0,0,0.1,0,0.1,0c0,0,0.1,0,0.1,0c0,0,0.1,0,0.1,0c0,0,0.1,0,0.1,0c0,0,0.1,0,0.1,0c0,0,0.1,0,0.1,0
					c0,0,0.1,0,0.1,0c0,0,0,0,0.1,0c0,0,0.1,0,0.1,0c0,0,0,0,0.1,0c0,0,0.1,0,0.1,0c0,0,0,0,0.1,0c0,0,0.1,0,0.1,0c0,0,0,0,0.1,0
					c0,0,0,0,0.1,0c0,0,0,0,0.1,0c0,0,0,0,0.1,0c0,0,0,0,0,0c0,0,0,0,0.1,0c0,0,0,0,0,0c0,0,0,0,0.1,0c0,0,0,0,0,0c0,0,0,0,0,0
					c0,0,0,0,0,0c0,0,0,0,0,0c0,0,0,0,0,0c0,0,0,0,0,0c0,0,0,0,0,0c0,0,0,0,0,0c0,0,0,0,0,0c0,0,0,0,0,0c0,0,0,0,0,0c0,0,0,0,0,0
					c0,0,0,0,0,0c0,0,0,0,0,0c0,0,0,0,0,0c0,0,0,0,0,0c0,0,0,0,0,0c0,0,0,0,0,0c0,0,0,0,0,0c0,0,0,0,0,0c0,0,0,0,0,0c0,0,0,0,0,0
					c0,0,0,0,0,0c0,0,0,0,0,0c0,0,0,0,0,0c0,0,0,0,0,0c0,0,0,0,0,0c0,0,0,0,0,0c0,0,0,0,0,0c0,0,0,0,0,0c0,0,0,0,0,0c0,0,0,0,0,0
					c0,0,0,0,0,0c0,0,0,0,0,0c0,0,0,0,0,0c0,0,0,0,0,0c0,0,0,0,0,0c0,0,0,0,0,0c0,0,0,0,0,0c0,0,0,0,0-0.1c0,0,0,0,0,0c0,0,0,0,0,0
					c0,0,0,0,0,0c0,0,0,0,0,0c0,0,0,0,0,0c0,0,0,0,0,0c0,0,0,0,0,0c0,0,0,0,0,0c0,0,0,0,0,0c0,0,0,0-0.1,0c0,0,0,0-0.1,0
					c0,0,0,0-0.1,0c0,0,0,0-0.1,0c0,0-0.1,0-0.1,0c0,0-0.1,0-0.1,0c0,0-0.1,0-0.1,0c0,0-0.1,0-0.1,0c0,0-0.1,0-0.1,0
					c0,0-0.1,0-0.1,0c0,0-0.1,0-0.1,0c0,0-0.1,0-0.1,0c0,0-0.1,0-0.1,0c0,0-0.1,0-0.1,0c0,0-0.1,0-0.1,0c0,0-0.1,0-0.1,0
					c0,0-0.1,0-0.1,0c0,0-0.1,0-0.1,0c0,0-0.1,0-0.1,0c0,0-0.1,0-0.1,0c0,0,0,0-0.1,0c0.2-0.4,0.7-0.7,1.2-0.7
					c0.8,0,1.4,0.6,1.4,1.4S1979.1,30.5,1978.4,30.5z"/>
				<path class="st2" d="M1977,29c0-0.1-0.1-0.1-0.1-0.1c-0.7,0.1-1.4,0.2-2.1,0.2c0,0,0,0,0,0c-0.7,0-1.4-0.1-2.1-0.2
					c-0.1,0-0.1,0-0.1,0.1c0,0.1,0,0.1,0.1,0.1c0.7,0.1,1.5,0.2,2.2,0.2c0,0,0,0,0,0c0.7,0,1.5-0.1,2.2-0.2
					C1977,29.1,1977,29,1977,29z"/>
			</g>
		</g>
	</g>
	<g>
		<g id="g5_00000035518589313509367520000002988640226506078122_">
			<circle id="circle7_00000035518238109234565130000016366177315927554963_" class="st1" cx="1741.5" cy="28.1" r="9"/>
		</g>
		<g>
			<g>
				<g>
					<path class="st2" d="M1739.9,28.1c0.3,0,0.5-0.7,0.5-1.6c0-0.9-0.2-1.6-0.5-1.6c-0.3,0-0.5,0.7-0.5,1.6
						C1739.4,27.4,1739.6,28.1,1739.9,28.1z"/>
				</g>
				<g>
					<path class="st2" d="M1743.1,28.1c0.3,0,0.5-0.7,0.5-1.6c0-0.9-0.2-1.6-0.5-1.6c-0.3,0-0.5,0.7-0.5,1.6
						C1742.6,27.4,1742.8,28.1,1743.1,28.1z"/>
				</g>
			</g>
			<g>
				<path class="st2" d="M1741.5,35.3c-4,0-7.2-3.2-7.2-7.2c0-4,3.2-7.2,7.2-7.2c4,0,7.2,3.2,7.2,7.2
					C1748.7,32.1,1745.5,35.3,1741.5,35.3z M1741.5,21.3c-3.8,0-6.9,3.1-6.9,6.9c0,3.8,3.1,6.9,6.9,6.9c3.8,0,6.9-3.1,6.9-6.9
					C1748.4,24.3,1745.3,21.3,1741.5,21.3z"/>
			</g>
			<g>
				<path class="st2" d="M1745.2,27.5c-0.6,0-1.2,0.4-1.5,0.9c-0.7,0-1.4-0.1-2.2-0.1c-0.8,0-1.5,0-2.1,0.1
					c-0.3-0.6-0.8-0.9-1.5-0.9c-0.9,0-1.6,0.7-1.6,1.6c0,0.9,0.7,1.6,1.6,1.6c0.6,0,1.2-0.4,1.5-0.9c0.7,0,1.4,0.1,2.1,0.1
					c0.7,0,1.5,0,2.2-0.1c0.3,0.6,0.8,0.9,1.5,0.9c0.9,0,1.6-0.7,1.6-1.6C1746.8,28.2,1746.1,27.5,1745.2,27.5z M1738,30.5
					c-0.8,0-1.4-0.6-1.4-1.4s0.6-1.4,1.4-1.4c0.5,0,1,0.3,1.2,0.7c0,0,0,0-0.1,0c0,0-0.1,0-0.1,0c0,0-0.1,0-0.1,0c0,0-0.1,0-0.1,0
					c0,0-0.1,0-0.1,0c0,0-0.1,0-0.1,0c0,0-0.1,0-0.1,0c0,0-0.1,0-0.1,0c0,0-0.1,0-0.1,0c0,0-0.1,0-0.1,0c0,0-0.1,0-0.1,0
					c0,0-0.1,0-0.1,0c0,0-0.1,0-0.1,0c0,0-0.1,0-0.1,0c0,0-0.1,0-0.1,0c0,0-0.1,0-0.1,0c0,0-0.1,0-0.1,0c0,0,0,0-0.1,0
					c0,0,0,0-0.1,0c0,0,0,0-0.1,0c0,0,0,0-0.1,0c0,0,0,0,0,0c0,0,0,0,0,0c0,0,0,0,0,0c0,0,0,0,0,0c0,0,0,0,0,0c0,0,0,0,0,0
					c0,0,0,0,0,0c0,0,0,0,0,0c0,0,0,0,0,0c0,0,0,0,0,0.1c0,0,0,0,0,0c0,0,0,0,0,0c0,0,0,0,0,0c0,0,0,0,0,0c0,0,0,0,0,0c0,0,0,0,0,0
					c0,0,0,0,0,0c0,0,0,0,0,0c0,0,0,0,0,0c0,0,0,0,0,0c0,0,0,0,0,0c0,0,0,0,0,0c0,0,0,0,0,0c0,0,0,0,0,0c0,0,0,0,0,0c0,0,0,0,0,0
					c0,0,0,0,0,0c0,0,0,0,0,0c0,0,0,0,0,0c0,0,0,0,0,0c0,0,0,0,0,0c0,0,0,0,0,0c0,0,0,0,0,0c0,0,0,0,0,0c0,0,0,0,0,0c0,0,0,0,0,0
					c0,0,0,0,0,0c0,0,0,0,0,0c0,0,0,0,0,0c0,0,0,0,0,0c0,0,0,0,0,0c0,0,0,0,0,0c0,0,0,0,0,0c0,0,0,0,0,0c0,0,0,0,0,0c0,0,0,0,0,0
					c0,0,0,0,0,0c0,0,0,0,0,0c0,0,0,0,0,0c0,0,0,0,0.1,0c0,0,0,0,0,0c0,0,0,0,0.1,0c0,0,0,0,0.1,0c0,0,0,0,0.1,0c0,0,0,0,0.1,0
					c0,0,0,0,0.1,0c0,0,0,0,0.1,0c0,0,0.1,0,0.1,0c0,0,0,0,0.1,0c0,0,0.1,0,0.1,0c0,0,0,0,0.1,0c0,0,0.1,0,0.1,0c0,0,0,0,0.1,0
					c0,0,0.1,0,0.1,0c0,0,0,0,0.1,0c0,0,0.1,0,0.1,0c0,0,0.1,0,0.1,0c0,0,0.1,0,0.1,0c0,0,0.1,0,0.1,0c0,0,0.1,0,0.1,0
					c0,0,0.1,0,0.1,0c0,0,0,0,0,0C1739,30.2,1738.5,30.5,1738,30.5z M1739.4,29.5c-1.8-0.1-2.3-0.4-2.3-0.4c0,0,0,0,0.1-0.1
					c0.2-0.1,0.8-0.3,2.3-0.4c0.7,0,1.4-0.1,2.2-0.1c0.8,0,1.6,0,2.2,0.1c0.1,0,0.2,0,0.3,0c0,0,0.1,0,0.1,0c0.1,0,0.1,0,0.2,0
					c0.1,0,0.1,0,0.2,0c0,0,0.1,0,0.1,0c1,0.1,1.4,0.3,1.5,0.3c0,0,0,0,0,0c0,0,0,0,0,0c0,0,0,0,0,0c0,0,0,0,0,0c0,0,0,0,0,0
					c0,0,0,0,0,0c0,0,0,0,0,0c0,0,0,0,0,0c0,0,0,0,0,0c0,0,0,0,0,0c0,0,0,0,0,0c0,0,0,0,0,0c0,0,0,0,0,0c0,0,0,0-0.1,0
					c0,0,0,0-0.1,0c0,0,0,0-0.1,0c0,0,0,0-0.1,0c0,0,0,0-0.1,0c0,0-0.1,0-0.1,0c0,0-0.1,0-0.1,0c0,0-0.1,0-0.1,0c0,0-0.1,0-0.1,0
					c0,0-0.1,0-0.1,0c0,0-0.1,0-0.1,0c0,0-0.1,0-0.1,0c0,0-0.1,0-0.1,0c-0.1,0-0.1,0-0.2,0c0,0-0.1,0-0.1,0c-0.1,0-0.1,0-0.2,0
					c0,0-0.1,0-0.1,0c-0.1,0-0.2,0-0.3,0l0,0C1742.5,29.6,1740.8,29.6,1739.4,29.5z M1745.2,30.5c-0.5,0-1-0.3-1.2-0.7c0,0,0,0,0,0
					c0,0,0.1,0,0.1,0c0,0,0.1,0,0.1,0c0,0,0.1,0,0.1,0c0,0,0.1,0,0.1,0c0,0,0.1,0,0.1,0c0,0,0.1,0,0.1,0c0,0,0.1,0,0.1,0
					c0,0,0.1,0,0.1,0c0,0,0,0,0.1,0c0,0,0.1,0,0.1,0c0,0,0,0,0.1,0c0,0,0.1,0,0.1,0c0,0,0,0,0.1,0c0,0,0.1,0,0.1,0c0,0,0,0,0.1,0
					c0,0,0,0,0.1,0c0,0,0,0,0.1,0c0,0,0,0,0.1,0c0,0,0,0,0,0c0,0,0,0,0.1,0c0,0,0,0,0,0c0,0,0,0,0.1,0c0,0,0,0,0,0c0,0,0,0,0,0
					c0,0,0,0,0,0c0,0,0,0,0,0c0,0,0,0,0,0c0,0,0,0,0,0c0,0,0,0,0,0c0,0,0,0,0,0c0,0,0,0,0,0c0,0,0,0,0,0c0,0,0,0,0,0c0,0,0,0,0,0
					c0,0,0,0,0,0c0,0,0,0,0,0c0,0,0,0,0,0c0,0,0,0,0,0c0,0,0,0,0,0c0,0,0,0,0,0c0,0,0,0,0,0c0,0,0,0,0,0c0,0,0,0,0,0c0,0,0,0,0,0
					c0,0,0,0,0,0c0,0,0,0,0,0c0,0,0,0,0,0c0,0,0,0,0,0c0,0,0,0,0,0c0,0,0,0,0,0c0,0,0,0,0,0c0,0,0,0,0,0c0,0,0,0,0,0c0,0,0,0,0,0
					c0,0,0,0,0,0c0,0,0,0,0,0c0,0,0,0,0,0c0,0,0,0,0,0c0,0,0,0,0,0c0,0,0,0,0,0c0,0,0,0,0,0c0,0,0,0,0-0.1c0,0,0,0,0,0c0,0,0,0,0,0
					c0,0,0,0,0,0c0,0,0,0,0,0c0,0,0,0,0,0c0,0,0,0,0,0c0,0,0,0,0,0c0,0,0,0,0,0c0,0,0,0,0,0c0,0,0,0-0.1,0c0,0,0,0-0.1,0
					c0,0,0,0-0.1,0c0,0,0,0-0.1,0c0,0-0.1,0-0.1,0c0,0-0.1,0-0.1,0c0,0-0.1,0-0.1,0c0,0-0.1,0-0.1,0c0,0-0.1,0-0.1,0
					c0,0-0.1,0-0.1,0c0,0-0.1,0-0.1,0c0,0-0.1,0-0.1,0c0,0-0.1,0-0.1,0c0,0-0.1,0-0.1,0c0,0-0.1,0-0.1,0c0,0-0.1,0-0.1,0
					c0,0-0.1,0-0.1,0c0,0-0.1,0-0.1,0c0,0-0.1,0-0.1,0c0,0-0.1,0-0.1,0c0,0,0,0-0.1,0c0.2-0.4,0.7-0.7,1.2-0.7
					c0.8,0,1.4,0.6,1.4,1.4S1746,30.5,1745.2,30.5z"/>
				<path class="st2" d="M1743.9,29c0-0.1-0.1-0.1-0.1-0.1c-0.7,0.1-1.4,0.2-2.1,0.2c0,0,0,0,0,0c-0.7,0-1.4-0.1-2.1-0.2
					c-0.1,0-0.1,0-0.1,0.1c0,0.1,0,0.1,0.1,0.1c0.7,0.1,1.5,0.2,2.2,0.2c0,0,0,0,0,0c0.7,0,1.5-0.1,2.2-0.2
					C1743.9,29.1,1743.9,29,1743.9,29z"/>
			</g>
		</g>
	</g>
	<g>
		<g id="g5_00000044156531527087328350000018289853590212719754_">
			<circle id="circle7_00000170986977497915335830000006293704501330549158_" class="st1" cx="1253.2" cy="28.1" r="9"/>
		</g>
		<g>
			<g>
				<g>
					<path class="st2" d="M1251.6,28.1c0.3,0,0.5-0.7,0.5-1.6c0-0.9-0.2-1.6-0.5-1.6c-0.3,0-0.5,0.7-0.5,1.6
						C1251.1,27.4,1251.3,28.1,1251.6,28.1z"/>
				</g>
				<g>
					<path class="st2" d="M1254.8,28.1c0.3,0,0.5-0.7,0.5-1.6c0-0.9-0.2-1.6-0.5-1.6c-0.3,0-0.5,0.7-0.5,1.6
						C1254.3,27.4,1254.5,28.1,1254.8,28.1z"/>
				</g>
			</g>
			<g>
				<path class="st2" d="M1253.2,35.3c-4,0-7.2-3.2-7.2-7.2c0-4,3.2-7.2,7.2-7.2c4,0,7.2,3.2,7.2,7.2
					C1260.4,32.1,1257.2,35.3,1253.2,35.3z M1253.2,21.3c-3.8,0-6.9,3.1-6.9,6.9c0,3.8,3.1,6.9,6.9,6.9c3.8,0,6.9-3.1,6.9-6.9
					C1260.1,24.3,1257,21.3,1253.2,21.3z"/>
			</g>
			<g>
				<path class="st2" d="M1257,27.5c-0.6,0-1.2,0.4-1.5,0.9c-0.7,0-1.4-0.1-2.2-0.1c-0.8,0-1.5,0-2.1,0.1c-0.3-0.6-0.8-0.9-1.5-0.9
					c-0.9,0-1.6,0.7-1.6,1.6c0,0.9,0.7,1.6,1.6,1.6c0.6,0,1.2-0.4,1.5-0.9c0.7,0,1.4,0.1,2.1,0.1c0.7,0,1.5,0,2.2-0.1
					c0.3,0.6,0.8,0.9,1.5,0.9c0.9,0,1.6-0.7,1.6-1.6C1258.6,28.2,1257.8,27.5,1257,27.5z M1249.8,30.5c-0.8,0-1.4-0.6-1.4-1.4
					s0.6-1.4,1.4-1.4c0.5,0,1,0.3,1.2,0.7c0,0,0,0-0.1,0c0,0-0.1,0-0.1,0c0,0-0.1,0-0.1,0c0,0-0.1,0-0.1,0c0,0-0.1,0-0.1,0
					c0,0-0.1,0-0.1,0c0,0-0.1,0-0.1,0c0,0-0.1,0-0.1,0c0,0-0.1,0-0.1,0c0,0-0.1,0-0.1,0c0,0-0.1,0-0.1,0c0,0-0.1,0-0.1,0
					c0,0-0.1,0-0.1,0c0,0-0.1,0-0.1,0c0,0-0.1,0-0.1,0c0,0-0.1,0-0.1,0c0,0-0.1,0-0.1,0c0,0,0,0-0.1,0c0,0,0,0-0.1,0c0,0,0,0-0.1,0
					c0,0,0,0-0.1,0c0,0,0,0,0,0c0,0,0,0,0,0c0,0,0,0,0,0c0,0,0,0,0,0c0,0,0,0,0,0c0,0,0,0,0,0c0,0,0,0,0,0c0,0,0,0,0,0c0,0,0,0,0,0
					c0,0,0,0,0,0.1c0,0,0,0,0,0c0,0,0,0,0,0c0,0,0,0,0,0c0,0,0,0,0,0c0,0,0,0,0,0c0,0,0,0,0,0c0,0,0,0,0,0c0,0,0,0,0,0c0,0,0,0,0,0
					c0,0,0,0,0,0c0,0,0,0,0,0c0,0,0,0,0,0c0,0,0,0,0,0c0,0,0,0,0,0c0,0,0,0,0,0c0,0,0,0,0,0c0,0,0,0,0,0c0,0,0,0,0,0c0,0,0,0,0,0
					c0,0,0,0,0,0c0,0,0,0,0,0c0,0,0,0,0,0c0,0,0,0,0,0c0,0,0,0,0,0c0,0,0,0,0,0c0,0,0,0,0,0c0,0,0,0,0,0c0,0,0,0,0,0c0,0,0,0,0,0
					c0,0,0,0,0,0c0,0,0,0,0,0c0,0,0,0,0,0c0,0,0,0,0,0c0,0,0,0,0,0c0,0,0,0,0,0c0,0,0,0,0,0c0,0,0,0,0,0c0,0,0,0,0,0c0,0,0,0,0,0
					c0,0,0,0,0.1,0c0,0,0,0,0,0c0,0,0,0,0.1,0c0,0,0,0,0.1,0c0,0,0,0,0.1,0c0,0,0,0,0.1,0c0,0,0,0,0.1,0c0,0,0,0,0.1,0
					c0,0,0.1,0,0.1,0c0,0,0,0,0.1,0c0,0,0.1,0,0.1,0c0,0,0,0,0.1,0c0,0,0.1,0,0.1,0c0,0,0,0,0.1,0c0,0,0.1,0,0.1,0c0,0,0,0,0.1,0
					c0,0,0.1,0,0.1,0c0,0,0.1,0,0.1,0c0,0,0.1,0,0.1,0c0,0,0.1,0,0.1,0c0,0,0.1,0,0.1,0c0,0,0.1,0,0.1,0c0,0,0,0,0,0
					C1250.7,30.2,1250.3,30.5,1249.8,30.5z M1251.1,29.5c-1.8-0.1-2.3-0.4-2.3-0.4c0,0,0,0,0.1-0.1c0.2-0.1,0.8-0.3,2.3-0.4
					c0.7,0,1.4-0.1,2.2-0.1c0.8,0,1.6,0,2.2,0.1c0.1,0,0.2,0,0.3,0c0,0,0.1,0,0.1,0c0.1,0,0.1,0,0.2,0c0.1,0,0.1,0,0.2,0
					c0,0,0.1,0,0.1,0c1,0.1,1.4,0.3,1.5,0.3c0,0,0,0,0,0c0,0,0,0,0,0c0,0,0,0,0,0c0,0,0,0,0,0c0,0,0,0,0,0c0,0,0,0,0,0c0,0,0,0,0,0
					c0,0,0,0,0,0c0,0,0,0,0,0c0,0,0,0,0,0c0,0,0,0,0,0c0,0,0,0,0,0c0,0,0,0,0,0c0,0,0,0-0.1,0c0,0,0,0-0.1,0c0,0,0,0-0.1,0
					c0,0,0,0-0.1,0c0,0,0,0-0.1,0c0,0-0.1,0-0.1,0c0,0-0.1,0-0.1,0c0,0-0.1,0-0.1,0c0,0-0.1,0-0.1,0c0,0-0.1,0-0.1,0
					c0,0-0.1,0-0.1,0c0,0-0.1,0-0.1,0c0,0-0.1,0-0.1,0c-0.1,0-0.1,0-0.2,0c0,0-0.1,0-0.1,0c-0.1,0-0.1,0-0.2,0c0,0-0.1,0-0.1,0
					c-0.1,0-0.2,0-0.3,0l0,0C1254.2,29.6,1252.5,29.6,1251.1,29.5z M1257,30.5c-0.5,0-1-0.3-1.2-0.7c0,0,0,0,0,0c0,0,0.1,0,0.1,0
					c0,0,0.1,0,0.1,0c0,0,0.1,0,0.1,0c0,0,0.1,0,0.1,0c0,0,0.1,0,0.1,0c0,0,0.1,0,0.1,0c0,0,0.1,0,0.1,0c0,0,0.1,0,0.1,0
					c0,0,0,0,0.1,0c0,0,0.1,0,0.1,0c0,0,0,0,0.1,0c0,0,0.1,0,0.1,0c0,0,0,0,0.1,0c0,0,0.1,0,0.1,0c0,0,0,0,0.1,0c0,0,0,0,0.1,0
					c0,0,0,0,0.1,0c0,0,0,0,0.1,0c0,0,0,0,0,0c0,0,0,0,0.1,0c0,0,0,0,0,0c0,0,0,0,0.1,0c0,0,0,0,0,0c0,0,0,0,0,0c0,0,0,0,0,0
					c0,0,0,0,0,0c0,0,0,0,0,0c0,0,0,0,0,0c0,0,0,0,0,0c0,0,0,0,0,0c0,0,0,0,0,0c0,0,0,0,0,0c0,0,0,0,0,0c0,0,0,0,0,0c0,0,0,0,0,0
					c0,0,0,0,0,0c0,0,0,0,0,0c0,0,0,0,0,0c0,0,0,0,0,0c0,0,0,0,0,0c0,0,0,0,0,0c0,0,0,0,0,0c0,0,0,0,0,0c0,0,0,0,0,0c0,0,0,0,0,0
					c0,0,0,0,0,0c0,0,0,0,0,0c0,0,0,0,0,0c0,0,0,0,0,0c0,0,0,0,0,0c0,0,0,0,0,0c0,0,0,0,0,0c0,0,0,0,0,0c0,0,0,0,0,0c0,0,0,0,0,0
					c0,0,0,0,0,0c0,0,0,0,0,0c0,0,0,0,0,0c0,0,0,0,0,0c0,0,0,0,0,0c0,0,0,0,0,0c0,0,0,0,0-0.1c0,0,0,0,0,0c0,0,0,0,0,0c0,0,0,0,0,0
					c0,0,0,0,0,0c0,0,0,0,0,0c0,0,0,0,0,0c0,0,0,0,0,0c0,0,0,0,0,0c0,0,0,0,0,0c0,0,0,0-0.1,0c0,0,0,0-0.1,0c0,0,0,0-0.1,0
					c0,0,0,0-0.1,0c0,0-0.1,0-0.1,0c0,0-0.1,0-0.1,0c0,0-0.1,0-0.1,0c0,0-0.1,0-0.1,0c0,0-0.1,0-0.1,0c0,0-0.1,0-0.1,0
					c0,0-0.1,0-0.1,0c0,0-0.1,0-0.1,0c0,0-0.1,0-0.1,0c0,0-0.1,0-0.1,0c0,0-0.1,0-0.1,0c0,0-0.1,0-0.1,0c0,0-0.1,0-0.1,0
					c0,0-0.1,0-0.1,0c0,0-0.1,0-0.1,0c0,0-0.1,0-0.1,0c0,0,0,0-0.1,0c0.2-0.4,0.7-0.7,1.2-0.7c0.8,0,1.4,0.6,1.4,1.4
					S1257.7,30.5,1257,30.5z"/>
				<path class="st2" d="M1255.6,29c0-0.1-0.1-0.1-0.1-0.1c-0.7,0.1-1.4,0.2-2.1,0.2c0,0,0,0,0,0c-0.7,0-1.4-0.1-2.1-0.2
					c-0.1,0-0.1,0-0.1,0.1c0,0.1,0,0.1,0.1,0.1c0.7,0.1,1.5,0.2,2.2,0.2c0,0,0,0,0,0c0.7,0,1.5-0.1,2.2-0.2
					C1255.6,29.1,1255.6,29,1255.6,29z"/>
			</g>
		</g>
	</g>
	<path class="st2" d="M1885.6,35.2c-5.3-5.3-8.9-5.3-14.2,0c5.3-5.3,5.3-8.9,0-14.2c5.3,5.3,8.9,5.3,14.2,0
		C1880.3,26.3,1880.3,29.9,1885.6,35.2z"/>
	<g>
		<path class="st3" d="M1093.5,30.3h-83.5c-0.8,0-1.5-0.7-1.5-1.5s0.7-1.5,1.5-1.5h83.5c0.8,0,1.5,0.7,1.5,1.5
			S1094.3,30.3,1093.5,30.3z"/>
	</g>
</g>
</svg>
