<?xml version="1.0" encoding="utf-8"?>
<!-- Generator: Adobe Illustrator 26.5.0, SVG Export Plug-In . SVG Version: 6.00 Build 0)  -->
<svg version="1.1" xmlns="http://www.w3.org/2000/svg" xmlns:xlink="http://www.w3.org/1999/xlink" x="0px" y="0px"
	 viewBox="0 0 1582.5 733.8" style="enable-background:new 0 0 1582.5 733.8;" xml:space="preserve">
<style type="text/css">
	.st0{fill:#B3B3B3;}
</style>
<g id="_x31_">
	<path class="st0" d="M466.5,286.5h-65.9c-33.4,0-60.5-27.1-60.5-60.5V57.4c0-22.4-18.2-40.6-40.6-40.6H51.3
		c-22.4,0-40.6,18.2-40.6,40.6v248.2c0,22.4,18.2,40.6,40.6,40.6h139.4c33.4,0,60.5,27.1,60.5,60.5v95c0,22.4,18.2,40.6,40.6,40.6
		h174.6c22.4,0,40.6-18.2,40.6-40.6V327.1C507.1,304.6,488.9,286.5,466.5,286.5z"/>
</g>
<g id="_x32_">
	<path class="st0" d="M471.1,583.7H284.2c-36,0-65.1-29.1-65.1-65.1v-95c0-19.9-16.1-36-36-36H36c-19.9,0-36,16.1-36,36v272.7
		c0,19.9,16.1,36,36,36h158.6h24.5h252c19.9,0,36-16.1,36-36v-76.6C507.1,599.8,490.9,583.7,471.1,583.7z"/>
</g>
<g id="_x33_">
	<path class="st0" d="M590.6,262H411.3c-19.9,0-36-16.1-36-36V46.7c0-19.9,16.1-36,36-36h179.2c19.9,0,36,16.1,36,36V226
		C626.6,245.8,610.4,262,590.6,262z"/>
</g>
<g id="_x34_">
	<path class="st0" d="M1011.8,0H714.6c-26.7,0-48.3,21.6-48.3,48.3v196.1c0,26.7-21.6,48.3-48.3,48.3h-23
		c-26.7,0-48.3,21.6-48.3,48.3v332.4c0,26.7,21.6,48.3,48.3,48.3h188.4c26.7,0,48.3-21.6,48.3-48.3V392.9
		c0-26.7,21.6-48.3,48.3-48.3h131.7c26.7,0,48.3-21.6,48.3-48.3V48.3C1060.1,21.6,1038.5,0,1011.8,0z"/>
</g>
<g id="_x35_">
	<path class="st0" d="M1196.4,733.8H906.9c-22.8,0-41.4-18.5-41.4-41.4V424.3c0-22.8,18.5-41.4,41.4-41.4h289.5
		c22.8,0,41.4,18.5,41.4,41.4v268.1C1237.8,715.3,1219.3,733.8,1196.4,733.8z"/>
</g>
<g id="_x36_">
	<path class="st0" d="M1404.8,289.5V55.1c0-26.2-21.3-47.5-47.5-47.5h-211.4c-26.2,0-47.5,21.3-47.5,47.5v254.3
		c0,26.2,21.3,47.5,47.5,47.5h82.7c26.2,0,47.5,21.3,47.5,47.5v280.3c0,26.2,21.3,47.5,47.5,47.5H1535c26.2,0,47.5-21.3,47.5-47.5
		V384.5c0-26.2-21.3-47.5-47.5-47.5h-82.7C1426,337,1404.8,315.8,1404.8,289.5z"/>
</g>
<g id="_x37_">
	<path class="st0" d="M1529.6,317.1h-49c-20.7,0-37.5-16.8-37.5-37.5v-239c0-20.7,16.8-37.5,37.5-37.5h49
		c20.7,0,37.5,16.8,37.5,37.5v239C1567.1,300.3,1550.3,317.1,1529.6,317.1z"/>
</g>
</svg>
