<?xml version="1.0" encoding="UTF-8"?>
<svg id="Capa_2" data-name="Capa 2" xmlns="http://www.w3.org/2000/svg" viewBox="0 0 1582.47 733.79">
  <defs>
    <style>
      .cls-1 {
        fill: #b3b3b3;
      }
    </style>
  </defs>
  <g id="Capa_1-2" data-name="Capa 1">
    <path class="cls-1" d="M466.47,286.47h-65.87c-33.42,0-60.51-27.09-60.51-60.51V57.45c0-22.42-18.18-40.6-40.6-40.6H51.32c-22.42,0-40.6,18.18-40.6,40.6v248.17c0,22.42,18.18,40.6,40.6,40.6H190.72c33.42,0,60.51,27.09,60.51,60.51v94.98c0,22.42,18.18,40.6,40.6,40.6h174.64c22.42,0,40.6-18.18,40.6-40.6v-174.64c0-22.42-18.18-40.6-40.6-40.6Z"/>
    <path class="cls-1" d="M471.06,583.66h-186.89c-35.96,0-65.11-29.15-65.11-65.11v-94.98c0-19.88-16.12-36-36-36H36c-19.88,0-36,16.12-36,36v272.68c0,19.88,16.12,36,36,36H471.06c19.88,0,36-16.12,36-36v-76.6c0-19.88-16.12-36-36-36Z"/>
    <rect class="cls-1" x="375.32" y="10.72" width="251.23" height="251.23" rx="36" ry="36"/>
    <path class="cls-1" d="M1011.83,0h-297.19c-26.65,0-48.26,21.6-48.26,48.26V244.34c0,26.65-21.6,48.26-48.26,48.26h-22.98c-26.65,0-48.26,21.6-48.26,48.26v332.43c0,26.65,21.6,48.26,48.26,48.26h188.43c26.65,0,48.26-21.6,48.26-48.26V392.94c0-26.65,21.6-48.26,48.26-48.26h131.74c26.65,0,48.26-21.6,48.26-48.26V48.26c0-26.65-21.6-48.26-48.26-48.26Z"/>
    <rect class="cls-1" x="865.53" y="382.98" width="372.26" height="350.81" rx="41.36" ry="41.36"/>
    <path class="cls-1" d="M1404.77,289.53V55.15c0-26.23-21.26-47.49-47.49-47.49h-211.4c-26.23,0-47.49,21.26-47.49,47.49v254.3c0,26.23,21.26,47.49,47.49,47.49h82.72c26.23,0,47.49,21.26,47.49,47.49v280.34c0,26.23,21.26,47.49,47.49,47.49h211.4c26.23,0,47.49-21.26,47.49-47.49V384.51c0-26.23-21.26-47.49-47.49-47.49h-82.72c-26.23,0-47.49-21.26-47.49-47.49Z"/>
    <rect class="cls-1" x="1443.06" y="3.06" width="124.09" height="314.04" rx="37.53" ry="37.53"/>
  </g>
</svg>