<?xml version="1.0" encoding="UTF-8"?>
<svg id="Capa_2" data-name="Capa 2" xmlns="http://www.w3.org/2000/svg" viewBox="0 0 84.6 84.6">
  <defs>
    <style>
      .cls-1 {
        fill: #f2f2f2;
      }
    </style>
  </defs>
  <g id="Capa_1-2" data-name="Capa 1">
    <path class="cls-1" d="M42.3,17.04c1.86,7.78,4.25,13.05,8.23,17.03,3.98,3.98,9.25,6.38,17.03,8.23-7.78,1.86-13.05,4.25-17.03,8.23-3.98,3.98-6.38,9.25-8.23,17.03-1.86-7.78-4.25-13.05-8.23-17.03-3.98-3.98-9.25-6.38-17.03-8.23,7.78-1.86,13.05-4.25,17.03-8.23,3.98-3.98,6.38-9.25,8.23-17.03m0-17.04C37.52,33.64,33.64,37.52,0,42.3c33.64,4.79,37.52,8.66,42.3,42.3,4.79-33.64,8.66-37.52,42.3-42.3C50.97,37.52,47.09,33.64,42.3,0h0Z"/>
  </g>
</svg>