<?xml version="1.0" encoding="UTF-8"?>
<svg id="Capa_2" data-name="Capa 2" xmlns="http://www.w3.org/2000/svg" viewBox="0 0 129.26 130.88">
  <defs>
    <style>
      .cls-1 {
        fill: #f2f2f2;
      }
    </style>
  </defs>
  <g id="Capa_1-2" data-name="Capa 1">
    <g>
      <path class="cls-1" d="M67.43,58.45c-2.75-.92-5.12-.2-5.7,0,0,0-2.19,.73-3.93,2.82-.22,.27-.51,.65-.48,1.14,.04,.56,.43,.91,1.09,1.39l3.69,2.68c1.48,1.08,3.49,1.08,4.97,0l3.69-2.68c.66-.48,1.05-.83,1.09-1.39,.03-.49-.26-.87-.48-1.14-1.75-2.09-3.93-2.82-3.93-2.82Z"/>
      <path class="cls-1" d="M27.02,23.48c.62,.36,1.41,.15,1.77-.47l9.21-15.95c.42-.73,1.18-1.17,2.03-1.17s1.61,.44,2.03,1.17l9.21,15.95,.49,.85,.95-.24,.09-.03c7.25-2.38,16.33-2.37,23.69,0l1.03,.26,9.7-16.79c.42-.73,1.18-1.17,2.03-1.17s1.61,.44,2.03,1.17l9.21,15.95c.36,.62,1.15,.83,1.77,.47,.62-.36,.83-1.15,.47-1.77l-9.21-15.95c-.89-1.55-2.49-2.47-4.28-2.47s-3.38,.92-4.28,2.47l-8.69,15.05c-7.42-2.16-15.97-2.16-23.29,0l-8.69-15.05c-.89-1.55-2.49-2.47-4.28-2.47s-3.38,.92-4.28,2.47l-9.21,15.95c-.36,.62-.15,1.41,.47,1.77Z"/>
      <path class="cls-1" d="M26.97,110.71v-12.83c0-1.49,.06-3.72,.18-6.69,.12-2.97,.18-5.19,.18-6.67,0-.4-.12-.6-.37-.6-.78,0-1.95,.03-3.52,.1-1.57,.07-2.74,.1-3.52,.1-.27,0-.41,.24-.41,.72,0,1.38,.07,3.43,.22,6.17,.15,2.74,.22,4.79,.22,6.15,0,1.01-.08,1.52-.25,1.52-.23,0-.51-.2-.84-.6-1.31-1.73-2.29-3.04-2.94-3.93l-7.26-9.95c-.32-.44-.56-.66-.72-.66-.38,0-.89,.06-1.54,.18-.77,.14-1.28,.23-1.54,.25-1.1,.1-2.03,.16-2.78,.16-.51,0-.76,.14-.76,.43,0,1.48,.06,3.71,.18,6.68,.12,2.97,.18,5.2,.18,6.7,0,1.41-.07,3.54-.2,6.37-.14,2.83-.2,4.94-.2,6.35,0,.4,.19,.6,.56,.6h6.74c.35,0,.53-.23,.53-.68,0-1.5-.04-3.76-.13-6.77-.08-3.01-.13-5.27-.13-6.77,0-.19,.05-.34,.16-.43,.14,.08,.24,.16,.29,.23,1.83,2.35,3.19,4.13,4.09,5.33,3.27,4.32,5.37,7.11,6.31,8.37,.32,.43,.6,.64,.84,.64,.34,0,.84,.03,1.52,.08,.68,.05,1.18,.08,1.52,.08,.31,0,.78-.01,1.41-.04,.63-.03,1.1-.04,1.41-.04,.38,0,.56-.18,.56-.53Z"/>
      <path class="cls-1" d="M57.58,110.75c0-.35-1.54-4.54-4.63-12.58-3.08-7.98-4.93-12.65-5.57-14.02-.21-.43-.44-.64-.68-.64-.34,0-.85,.02-1.53,.07-.68,.05-1.2,.07-1.55,.07s-.91-.03-1.64-.1c-.73-.06-1.27-.1-1.63-.1-.21,0-.39,.25-.55,.74-.27,.86-2,5.59-5.18,14.19-2.93,7.96-4.4,12.1-4.4,12.44,0,.38,.99,.56,2.98,.56,2.52,0,4-.05,4.44-.16,.35-.09,.65-.67,.9-1.75,.27-1.18,.52-1.88,.74-2.08,.14-.12,1.32-.18,3.52-.18,3.27,0,5.01,.05,5.22,.14,.25,.13,.59,1.13,1.03,3,.12,.49,.4,.79,.84,.88,.53,.1,1.73,.16,3.58,.16,2.02,0,3.23-.05,3.62-.16,.32-.09,.49-.25,.49-.49Zm-11.66-10.34c-.09,.21-.56,.31-1.42,.31-.92,0-1.58-.01-1.99-.04-.78-.03-1.17-.16-1.17-.39,0-.35,.35-1.54,1.05-3.56,.65-1.91,1.11-3.15,1.38-3.72,.27,.52,.7,1.71,1.29,3.58,.6,1.93,.89,3.11,.89,3.54,0,.12-.01,.21-.04,.27Z"/>
      <path class="cls-1" d="M83.13,111.31c.31,0,.78-.01,1.41-.04,.63-.03,1.1-.04,1.41-.04,.38,0,.56-.18,.56-.53v-12.83c0-1.49,.06-3.72,.18-6.69,.12-2.97,.18-5.19,.18-6.67,0-.4-.12-.6-.37-.6-.78,0-1.95,.03-3.52,.1-1.57,.07-2.74,.1-3.52,.1-.27,0-.41,.24-.41,.72,0,1.38,.07,3.43,.22,6.17,.15,2.74,.22,4.79,.22,6.15,0,1.01-.08,1.52-.25,1.52-.23,0-.51-.2-.84-.6-1.31-1.73-2.29-3.04-2.94-3.93l-7.26-9.95c-.32-.44-.56-.66-.72-.66-.38,0-.89,.06-1.54,.18-.77,.14-1.28,.23-1.54,.25-1.1,.1-2.03,.16-2.78,.16-.51,0-.76,.14-.76,.43,0,1.48,.06,3.71,.18,6.68,.12,2.97,.18,5.2,.18,6.7,0,1.41-.07,3.54-.2,6.37-.14,2.83-.2,4.94-.2,6.35,0,.4,.19,.6,.56,.6h6.74c.35,0,.53-.23,.53-.68,0-1.5-.04-3.76-.13-6.77-.08-3.01-.13-5.27-.13-6.77,0-.19,.05-.34,.16-.43,.14,.08,.24,.16,.29,.23,1.83,2.35,3.19,4.13,4.09,5.33,3.27,4.32,5.37,7.11,6.31,8.37,.32,.43,.6,.64,.84,.64,.34,0,.84,.03,1.52,.08,.68,.05,1.18,.08,1.52,.08Z"/>
      <path class="cls-1" d="M106.95,84.16c-.21-.43-.44-.64-.68-.64-.34,0-.85,.02-1.53,.07-.68,.05-1.2,.07-1.55,.07s-.91-.03-1.64-.1c-.73-.06-1.27-.1-1.63-.1-.21,0-.39,.25-.55,.74-.27,.86-2,5.59-5.18,14.19-2.93,7.96-4.4,12.1-4.4,12.44,0,.38,.99,.56,2.98,.56,2.52,0,4-.05,4.44-.16,.35-.09,.65-.67,.9-1.75,.27-1.18,.52-1.88,.74-2.08,.14-.12,1.32-.18,3.52-.18,3.27,0,5.01,.05,5.22,.14,.25,.13,.59,1.13,1.03,3,.12,.49,.4,.79,.84,.88,.53,.1,1.73,.16,3.58,.16,2.02,0,3.23-.05,3.62-.16,.32-.09,.49-.25,.49-.49,0-.35-1.54-4.54-4.63-12.58-3.08-7.98-4.93-12.65-5.57-14.02Zm-1.46,16.25c-.09,.21-.56,.31-1.42,.31-.92,0-1.58-.01-1.99-.04-.78-.03-1.17-.16-1.17-.39,0-.35,.35-1.54,1.05-3.56,.65-1.91,1.11-3.15,1.38-3.72,.27,.52,.7,1.71,1.29,3.58,.6,1.93,.89,3.11,.89,3.54,0,.12-.01,.21-.04,.27Z"/>
      <path class="cls-1" d="M127.97,84.35c0-.29-.19-.43-.56-.43-.4,0-1,.02-1.78,.06-.79,.04-1.38,.06-1.78,.06s-1.01-.02-1.82-.06c-.81-.04-1.42-.06-1.82-.06-.3,0-.45,.14-.45,.43,0,1.39,.05,3.47,.14,6.25,.09,2.78,.14,4.86,.14,6.25,0,1.65-.12,5.1-.35,10.36-.11,2.27-.16,3.42-.17,3.45,0,.31,.19,.51,.56,.58,.52,.1,1.73,.16,3.62,.16,1.41,0,2.54-.05,3.39-.16,.31-.04,.48-.06,.51-.08,.12-.07,.18-.23,.18-.49,0-1.53-.04-3.84-.12-6.91s-.12-5.38-.12-6.91c0-1.39,.07-3.47,.22-6.25,.15-2.78,.22-4.86,.22-6.25Z"/>
      <path class="cls-1" d="M119.5,110.65s0-.01,0-.02c0,.02,0,.02,0,.02Z"/>
      <path class="cls-1" d="M10.85,128c-.03-.08-.06-.13-.1-.16-.04-.03-.09-.05-.14-.05-.1,0-.23,.07-.4,.21-.17,.14-.39,.3-.64,.47-.25,.17-.55,.33-.9,.48-.35,.14-.75,.22-1.2,.22-.48,0-.91-.09-1.28-.26-.37-.17-.69-.44-.94-.79-.26-.35-.45-.79-.58-1.32-.13-.53-.2-1.14-.2-1.84,0-1.4,.25-2.46,.76-3.19,.51-.73,1.24-1.1,2.2-1.1,.47,0,.87,.07,1.21,.2,.34,.13,.63,.28,.87,.44,.24,.16,.44,.31,.6,.44,.16,.13,.29,.2,.42,.2,.1,0,.19-.06,.26-.19,.07-.12,.11-.34,.11-.66,0-.14,0-.26-.01-.36,0-.1-.02-.18-.05-.26-.02-.08-.05-.14-.09-.2-.04-.06-.1-.13-.2-.23-.1-.1-.25-.21-.46-.35-.21-.14-.46-.26-.73-.36-.27-.1-.57-.19-.9-.25-.33-.06-.66-.1-1-.1-.71,0-1.38,.12-1.99,.35-.61,.24-1.15,.6-1.6,1.09-.45,.49-.81,1.12-1.07,1.88-.26,.77-.39,1.68-.39,2.75,0,.94,.11,1.77,.32,2.48,.21,.72,.52,1.32,.93,1.82,.41,.49,.91,.87,1.51,1.12,.6,.26,1.29,.39,2.07,.39,.38,0,.74-.04,1.1-.11,.35-.07,.68-.17,.98-.28,.3-.12,.57-.25,.81-.4,.24-.15,.41-.27,.51-.37,.1-.1,.16-.18,.19-.23,.03-.05,.05-.11,.07-.18,.02-.07,.03-.15,.04-.25,0-.1,.01-.22,.01-.35,0-.16,0-.3-.02-.42-.01-.12-.03-.21-.06-.29Z"/>
      <path class="cls-1" d="M22.1,120.53c-.44-.51-.99-.89-1.65-1.16-.66-.26-1.44-.4-2.33-.4s-1.73,.15-2.42,.45c-.69,.3-1.27,.71-1.73,1.25-.46,.54-.81,1.18-1.03,1.92-.23,.74-.34,1.55-.34,2.44s.11,1.73,.33,2.45c.22,.72,.55,1.34,.99,1.84,.44,.51,.99,.89,1.65,1.15s1.44,.4,2.33,.4,1.72-.15,2.41-.45c.69-.3,1.27-.72,1.73-1.26,.46-.54,.81-1.18,1.04-1.92,.23-.74,.35-1.55,.35-2.44s-.11-1.72-.33-2.44c-.22-.72-.55-1.34-.99-1.84Zm-.93,6.14c-.13,.52-.33,.97-.61,1.35-.27,.38-.63,.67-1.06,.88-.43,.21-.93,.31-1.52,.31-.64,0-1.17-.11-1.6-.34-.43-.23-.77-.54-1.03-.93-.25-.39-.44-.84-.55-1.37-.11-.52-.16-1.08-.16-1.67s.07-1.19,.2-1.71c.13-.52,.34-.97,.61-1.35,.28-.38,.63-.68,1.05-.88,.43-.21,.93-.31,1.52-.31,.64,0,1.17,.11,1.6,.34,.43,.23,.77,.54,1.02,.93,.25,.39,.43,.85,.54,1.37,.11,.52,.16,1.08,.16,1.66,0,.63-.07,1.2-.19,1.72Z"/>
      <path class="cls-1" d="M32.65,119.54c-.01-.06-.03-.1-.04-.14-.02-.04-.05-.07-.1-.11-.05-.04-.13-.08-.25-.12s-.25-.08-.39-.11c-.14-.03-.28-.05-.42-.07-.13-.01-.25-.02-.35-.02-.23,0-.46,.03-.69,.09-.23,.06-.46,.17-.69,.32-.23,.16-.48,.37-.74,.64-.26,.27-.54,.63-.84,1.06v-1.58c0-.06-.01-.12-.04-.16-.03-.04-.07-.08-.14-.12-.06-.04-.15-.06-.27-.07-.12-.01-.26-.02-.44-.02s-.33,0-.45,.02c-.11,.01-.2,.04-.28,.07-.07,.04-.12,.08-.14,.12-.02,.04-.04,.1-.04,.16v10.83c0,.06,.01,.12,.04,.16,.03,.04,.08,.08,.16,.11,.08,.03,.18,.06,.31,.07,.13,.02,.29,.02,.48,.02s.37,0,.49-.02c.13-.02,.23-.04,.3-.07,.07-.03,.12-.07,.16-.11,.03-.04,.05-.1,.05-.16v-7.12c.28-.44,.54-.81,.77-1.12,.23-.3,.46-.55,.67-.73,.21-.18,.42-.32,.61-.4,.19-.08,.39-.12,.59-.12,.17,0,.33,.02,.47,.05,.14,.03,.27,.07,.39,.1,.12,.04,.22,.07,.31,.11,.09,.04,.17,.05,.23,.05s.11-.02,.15-.05c.04-.04,.07-.09,.09-.16,.02-.07,.04-.16,.05-.28,0-.12,.01-.27,.01-.45s0-.33,0-.44c0-.11-.01-.19-.02-.25Z"/>
      <path class="cls-1" d="M41.24,119.54c-.01-.06-.03-.1-.04-.14-.02-.04-.05-.07-.1-.11-.05-.04-.13-.08-.25-.12s-.25-.08-.39-.11c-.14-.03-.28-.05-.42-.07-.13-.01-.25-.02-.35-.02-.23,0-.46,.03-.69,.09-.23,.06-.46,.17-.69,.32-.23,.16-.48,.37-.74,.64-.26,.27-.54,.63-.84,1.06v-1.58c0-.06-.01-.12-.04-.16-.03-.04-.07-.08-.14-.12-.06-.04-.15-.06-.27-.07-.12-.01-.26-.02-.44-.02s-.33,0-.44,.02c-.11,.01-.2,.04-.28,.07-.07,.04-.12,.08-.14,.12-.02,.04-.04,.1-.04,.16v10.83c0,.06,.01,.12,.04,.16,.03,.04,.08,.08,.16,.11,.08,.03,.18,.06,.31,.07,.13,.02,.29,.02,.48,.02s.37,0,.49-.02c.13-.02,.23-.04,.3-.07,.07-.03,.12-.07,.16-.11,.03-.04,.05-.1,.05-.16v-7.12c.28-.44,.54-.81,.77-1.12s.46-.55,.67-.73c.21-.18,.42-.32,.61-.4,.19-.08,.39-.12,.59-.12,.17,0,.33,.02,.47,.05,.14,.03,.27,.07,.39,.1,.12,.04,.22,.07,.31,.11,.09,.04,.17,.05,.23,.05s.11-.02,.15-.05c.04-.04,.07-.09,.09-.16,.02-.07,.04-.16,.05-.28,0-.12,.01-.27,.01-.45s0-.33,0-.44c0-.11-.01-.19-.02-.25Z"/>
      <path class="cls-1" d="M51.33,120.49c-.38-.46-.88-.83-1.47-1.1-.6-.27-1.32-.41-2.17-.41-.79,0-1.51,.14-2.15,.42-.64,.28-1.19,.67-1.64,1.19-.45,.52-.8,1.15-1.04,1.89-.24,.74-.36,1.58-.36,2.51,0,.98,.12,1.84,.35,2.57,.23,.74,.58,1.35,1.03,1.84,.46,.49,1.02,.86,1.69,1.11,.67,.25,1.45,.37,2.34,.37,.51,0,1-.04,1.45-.11,.45-.08,.85-.16,1.2-.26,.34-.1,.63-.19,.84-.3,.22-.1,.35-.17,.39-.22,.04-.04,.08-.09,.11-.14,.03-.05,.05-.1,.06-.16,.01-.06,.02-.13,.03-.2,0-.08,.01-.17,.01-.27,0-.14,0-.27-.02-.37-.01-.1-.03-.18-.05-.23-.02-.06-.06-.1-.1-.13-.04-.03-.09-.04-.15-.04-.1,0-.24,.04-.43,.13-.19,.08-.43,.18-.73,.28-.29,.1-.64,.2-1.05,.28-.4,.08-.86,.13-1.38,.13-.65,0-1.2-.09-1.66-.28-.45-.18-.82-.45-1.1-.79-.28-.34-.48-.76-.6-1.24-.12-.48-.18-1.02-.18-1.62h7.13c.2,0,.38-.07,.54-.2,.16-.13,.24-.36,.24-.67v-.36c0-.71-.09-1.37-.27-1.99-.18-.62-.46-1.16-.85-1.62Zm-6.79,3.39c.02-.44,.09-.86,.23-1.27,.14-.4,.33-.76,.58-1.06,.25-.3,.56-.55,.93-.73,.37-.18,.8-.28,1.3-.28,.96,0,1.68,.3,2.17,.89,.49,.59,.72,1.41,.7,2.45h-5.91Z"/>
      <path class="cls-1" d="M63.18,128c-.03-.08-.06-.13-.1-.16-.04-.03-.09-.05-.14-.05-.1,0-.23,.07-.4,.21-.17,.14-.39,.3-.64,.47-.25,.17-.55,.33-.9,.48-.35,.14-.75,.22-1.2,.22-.48,0-.91-.09-1.28-.26-.37-.17-.69-.44-.94-.79-.26-.35-.45-.79-.58-1.32-.13-.53-.2-1.14-.2-1.84,0-1.4,.25-2.46,.76-3.19,.51-.73,1.24-1.1,2.2-1.1,.47,0,.87,.07,1.21,.2,.34,.13,.63,.28,.87,.44,.24,.16,.44,.31,.6,.44,.16,.13,.29,.2,.42,.2,.1,0,.19-.06,.26-.19,.07-.12,.11-.34,.11-.66,0-.14,0-.26-.01-.36,0-.1-.02-.18-.05-.26-.02-.08-.05-.14-.09-.2-.04-.06-.1-.13-.2-.23-.1-.1-.25-.21-.46-.35-.21-.14-.46-.26-.73-.36-.27-.1-.57-.19-.9-.25-.33-.06-.66-.1-1-.1-.71,0-1.38,.12-1.99,.35-.61,.24-1.15,.6-1.6,1.09-.45,.49-.81,1.12-1.07,1.88-.26,.77-.39,1.68-.39,2.75,0,.94,.11,1.77,.32,2.48,.21,.72,.52,1.32,.93,1.82,.41,.49,.91,.87,1.51,1.12,.6,.26,1.29,.39,2.07,.39,.38,0,.74-.04,1.1-.11,.35-.07,.68-.17,.98-.28,.3-.12,.57-.25,.81-.4,.24-.15,.41-.27,.51-.37,.1-.1,.16-.18,.19-.23,.03-.05,.05-.11,.07-.18,.02-.07,.03-.15,.04-.25,0-.1,.01-.22,.01-.35,0-.16,0-.3-.02-.42-.01-.12-.03-.21-.06-.29Z"/>
      <path class="cls-1" d="M73.6,128c-.03-.08-.06-.13-.1-.16-.04-.03-.09-.05-.14-.05-.1,0-.23,.07-.4,.21-.17,.14-.39,.3-.64,.47-.25,.17-.55,.33-.9,.48-.35,.14-.75,.22-1.2,.22-.48,0-.91-.09-1.28-.26-.37-.17-.69-.44-.94-.79-.26-.35-.45-.79-.58-1.32-.13-.53-.2-1.14-.2-1.84,0-1.4,.25-2.46,.76-3.19,.51-.73,1.24-1.1,2.2-1.1,.47,0,.87,.07,1.21,.2,.34,.13,.63,.28,.87,.44,.24,.16,.44,.31,.6,.44,.16,.13,.29,.2,.42,.2,.1,0,.19-.06,.26-.19,.07-.12,.11-.34,.11-.66,0-.14,0-.26-.01-.36,0-.1-.02-.18-.05-.26-.02-.08-.05-.14-.09-.2-.04-.06-.1-.13-.2-.23-.1-.1-.25-.21-.46-.35-.21-.14-.46-.26-.73-.36-.27-.1-.57-.19-.9-.25-.33-.06-.66-.1-1-.1-.71,0-1.38,.12-1.99,.35-.61,.24-1.15,.6-1.6,1.09-.45,.49-.81,1.12-1.07,1.88-.26,.77-.39,1.68-.39,2.75,0,.94,.11,1.77,.32,2.48,.21,.72,.52,1.32,.93,1.82,.41,.49,.91,.87,1.51,1.12,.6,.26,1.29,.39,2.07,.39,.38,0,.74-.04,1.1-.11,.35-.07,.68-.17,.98-.28,.3-.12,.57-.25,.81-.4,.24-.15,.41-.27,.51-.37,.1-.1,.16-.18,.19-.23,.03-.05,.05-.11,.07-.18,.02-.07,.03-.15,.04-.25,0-.1,.01-.22,.01-.35,0-.16,0-.3-.02-.42-.01-.12-.03-.21-.06-.29Z"/>
      <path class="cls-1" d="M78.09,119.24c-.07-.03-.17-.06-.3-.07-.13-.02-.29-.02-.49-.02s-.35,0-.48,.02c-.13,.02-.23,.04-.31,.07-.08,.03-.13,.07-.16,.12-.03,.05-.04,.1-.04,.16v10.83c0,.06,.01,.12,.04,.16,.03,.04,.08,.08,.16,.11,.08,.03,.18,.06,.31,.07,.13,.02,.29,.02,.48,.02s.37,0,.49-.02c.13-.02,.23-.04,.3-.07,.07-.03,.12-.07,.16-.11,.03-.04,.05-.1,.05-.16v-10.83c0-.06-.02-.11-.05-.16-.03-.05-.08-.09-.16-.12Z"/>
      <path class="cls-1" d="M77.31,114.68c-.47,0-.8,.08-.97,.25-.18,.17-.26,.49-.26,.95s.09,.77,.26,.93c.17,.16,.49,.25,.96,.25s.8-.08,.97-.25c.18-.17,.26-.48,.26-.95s-.09-.77-.26-.93c-.17-.16-.49-.25-.96-.25Z"/>
      <path class="cls-1" d="M90.71,120.53c-.44-.51-.99-.89-1.65-1.16-.66-.26-1.44-.4-2.33-.4s-1.73,.15-2.42,.45c-.69,.3-1.27,.71-1.73,1.25-.46,.54-.81,1.18-1.03,1.92-.23,.74-.34,1.55-.34,2.44s.11,1.73,.33,2.45c.22,.72,.55,1.34,.99,1.84,.44,.51,.99,.89,1.65,1.15s1.44,.4,2.33,.4,1.72-.15,2.41-.45c.69-.3,1.27-.72,1.73-1.26,.46-.54,.81-1.18,1.04-1.92,.23-.74,.35-1.55,.35-2.44s-.11-1.72-.33-2.44c-.22-.72-.55-1.34-.99-1.84Zm-.93,6.14c-.13,.52-.33,.97-.61,1.35-.27,.38-.63,.67-1.06,.88-.43,.21-.93,.31-1.52,.31-.64,0-1.17-.11-1.6-.34-.43-.23-.77-.54-1.03-.93-.25-.39-.44-.84-.55-1.37-.11-.52-.16-1.08-.16-1.67s.07-1.19,.2-1.71c.13-.52,.34-.97,.61-1.35,.28-.38,.63-.68,1.05-.88,.43-.21,.93-.31,1.52-.31,.64,0,1.17,.11,1.6,.34,.43,.23,.77,.54,1.02,.93,.25,.39,.43,.85,.54,1.37,.11,.52,.16,1.08,.16,1.66,0,.63-.07,1.2-.19,1.72Z"/>
      <path class="cls-1" d="M103.43,120.33c-.31-.41-.7-.74-1.2-.98-.49-.24-1.1-.37-1.82-.37-.62,0-1.23,.16-1.83,.47-.61,.32-1.21,.82-1.82,1.5v-1.43c0-.06-.01-.12-.04-.16-.03-.04-.07-.08-.14-.12-.06-.04-.15-.06-.27-.07-.12-.01-.26-.02-.44-.02-.18,0-.33,0-.45,.02-.11,.01-.2,.04-.28,.07-.07,.04-.12,.08-.14,.12-.02,.04-.04,.1-.04,.16v10.83c0,.06,.01,.12,.04,.16,.03,.04,.08,.08,.16,.11,.08,.03,.18,.06,.31,.07,.13,.02,.29,.02,.48,.02s.37,0,.49-.02c.13-.02,.23-.04,.3-.07,.07-.03,.12-.07,.16-.11,.03-.04,.05-.1,.05-.16v-7.57c.55-.68,1.07-1.2,1.56-1.55,.5-.35,.99-.53,1.49-.53,.39,0,.72,.07,1.02,.22,.29,.14,.53,.35,.72,.63,.18,.27,.33,.6,.42,.97,.1,.38,.14,.87,.14,1.49v6.34c0,.06,.02,.12,.05,.16,.03,.04,.08,.08,.16,.11,.07,.03,.17,.06,.3,.07,.13,.02,.29,.02,.49,.02s.35,0,.48-.02c.13-.02,.23-.04,.3-.07,.07-.03,.12-.07,.16-.11,.03-.04,.05-.1,.05-.16v-6.61c0-.77-.07-1.43-.2-1.98s-.35-1.03-.66-1.44Z"/>
      <path class="cls-1" d="M116.03,120.49c-.38-.46-.88-.83-1.47-1.1-.6-.27-1.32-.41-2.17-.41-.79,0-1.51,.14-2.15,.42-.64,.28-1.19,.67-1.64,1.19-.45,.52-.8,1.15-1.04,1.89-.24,.74-.36,1.58-.36,2.51,0,.98,.12,1.84,.35,2.57,.23,.74,.58,1.35,1.03,1.84,.46,.49,1.02,.86,1.69,1.11,.67,.25,1.45,.37,2.34,.37,.51,0,1-.04,1.45-.11,.45-.08,.85-.16,1.2-.26,.34-.1,.63-.19,.84-.3,.22-.1,.35-.17,.39-.22,.04-.04,.08-.09,.11-.14,.03-.05,.05-.1,.06-.16,.01-.06,.02-.13,.03-.2,0-.08,.01-.17,.01-.27,0-.14,0-.27-.02-.37-.01-.1-.03-.18-.05-.23-.02-.06-.06-.1-.1-.13-.04-.03-.09-.04-.15-.04-.1,0-.24,.04-.43,.13-.19,.08-.43,.18-.73,.28-.29,.1-.64,.2-1.05,.28-.4,.08-.86,.13-1.38,.13-.65,0-1.2-.09-1.66-.28-.45-.18-.82-.45-1.1-.79-.28-.34-.48-.76-.6-1.24-.12-.48-.18-1.02-.18-1.62h7.13c.2,0,.38-.07,.54-.2,.16-.13,.24-.36,.24-.67v-.36c0-.71-.09-1.37-.27-1.99-.18-.62-.46-1.16-.85-1.62Zm-6.79,3.39c.02-.44,.09-.86,.23-1.27,.14-.4,.33-.76,.58-1.06,.25-.3,.56-.55,.93-.73,.37-.18,.8-.28,1.3-.28,.96,0,1.68,.3,2.17,.89,.49,.59,.72,1.41,.7,2.45h-5.91Z"/>
      <path class="cls-1" d="M126.11,125.33c-.26-.24-.55-.45-.88-.61-.33-.17-.67-.32-1.01-.46-.34-.14-.68-.27-1-.4-.33-.13-.62-.27-.88-.43-.26-.16-.47-.35-.63-.56-.16-.21-.24-.47-.24-.79,0-.22,.04-.43,.13-.63,.08-.19,.21-.36,.37-.5,.16-.14,.37-.25,.63-.32,.26-.08,.55-.11,.89-.11,.38,0,.71,.04,1,.13,.29,.09,.55,.18,.76,.28,.22,.1,.39,.19,.53,.28,.14,.09,.24,.13,.31,.13,.05,0,.09-.01,.13-.04,.04-.03,.07-.07,.1-.14,.03-.06,.05-.15,.06-.25,.01-.1,.02-.22,.02-.35,0-.13,0-.24-.02-.33-.01-.09-.02-.16-.04-.22-.01-.06-.03-.11-.06-.16-.03-.05-.08-.1-.17-.17-.08-.06-.21-.14-.37-.22-.16-.08-.36-.16-.6-.23-.23-.07-.49-.13-.78-.18-.29-.05-.58-.07-.87-.07-.66,0-1.23,.09-1.73,.26-.49,.18-.9,.41-1.23,.7-.33,.29-.58,.63-.74,1.02-.16,.39-.25,.8-.25,1.22,0,.48,.08,.89,.23,1.24,.16,.34,.36,.64,.62,.89,.26,.25,.55,.46,.87,.63,.32,.17,.66,.33,1,.46,.34,.14,.67,.27,.99,.39,.32,.12,.61,.27,.87,.43,.26,.16,.46,.35,.62,.55,.16,.21,.23,.47,.23,.77s-.05,.55-.16,.77c-.11,.22-.26,.39-.46,.54-.2,.14-.44,.25-.71,.32-.27,.07-.58,.11-.91,.11-.45,0-.85-.05-1.19-.16-.34-.11-.64-.23-.9-.35-.25-.13-.47-.25-.64-.35-.17-.11-.3-.16-.39-.16-.06,0-.11,.01-.15,.04-.04,.03-.08,.07-.1,.14-.02,.06-.04,.15-.06,.25-.02,.1-.02,.23-.02,.38,0,.25,.02,.45,.06,.59s.1,.26,.19,.34c.09,.08,.23,.17,.42,.27,.19,.1,.43,.2,.7,.29,.28,.09,.59,.17,.94,.23,.35,.06,.72,.09,1.1,.09,.63,0,1.2-.08,1.72-.23,.52-.15,.97-.38,1.35-.67,.38-.3,.67-.66,.87-1.1,.2-.43,.31-.93,.31-1.48,0-.47-.08-.87-.23-1.2-.16-.34-.36-.63-.62-.87Z"/>
      <path class="cls-1" d="M27.67,81.21c14.74,0,26.82-11.58,27.62-26.12,6.08-1.89,12.6-1.88,18.68,.03,.82,14.52,12.9,26.09,27.62,26.09s27.67-12.41,27.67-27.67-12.41-27.67-27.67-27.67-26.82,11.58-27.63,26.11c-6.1-1.74-12.57-1.75-18.68-.03-.82-14.52-12.9-26.08-27.62-26.08S0,38.28,0,53.54s12.41,27.67,27.67,27.67ZM101.59,28.46c13.83,0,25.08,11.25,25.08,25.08s-11.25,25.08-25.08,25.08-25.08-11.25-25.08-25.08,11.25-25.08,25.08-25.08Zm-73.92,0c13.83,0,25.08,11.25,25.08,25.08s-11.25,25.08-25.08,25.08S2.59,67.36,2.59,53.54,13.84,28.46,27.67,28.46Z"/>
      <rect class="cls-1" x="36.78" y="50.19" width="6.68" height="6.68" rx="3.34" ry="3.34"/>
      <rect class="cls-1" x="85.9" y="50.19" width="6.68" height="6.68" rx="3.34" ry="3.34"/>
      <path class="cls-1" d="M71.82,3.65c-.09-.75-.35-1.44-.83-2.03-1.08-1.33-2.48-1.84-4.16-1.52-.84,.16-1.56,.59-2.13,1.23-.1,.12-.15,.09-.24,0-.68-.75-1.53-1.19-2.53-1.3-1.27-.14-2.39,.23-3.34,1.1-1.23,1.13-1.62,2.99-.97,4.52,.44,1.03,1.12,1.89,1.9,2.68,1.43,1.44,3.07,2.61,4.81,3.62,.17,.1,.32,.09,.49,0,1.12-.64,2.2-1.36,3.2-2.16,1-.8,1.94-1.67,2.7-2.72,.44-.61,.8-1.27,.99-2.01,.05-.18,.04-.37,.12-.54v-.8s-.03-.05-.03-.07Z"/>
    </g>
  </g>
</svg>