<?xml version="1.0" encoding="UTF-8"?>
<svg id="Capa_2" data-name="Capa 2" xmlns="http://www.w3.org/2000/svg" viewBox="0 0 135.05 124.93">
  <defs>
    <style>
      .cls-1 {
        font-family: FranklinGothic-MediumCond, 'Franklin Gothic Medium Cond';
        font-size: 19.43px;
      }

      .cls-1, .cls-2 {
        fill: #f2f2f2;
      }

      .cls-3 {
        letter-spacing: .01em;
      }

      .cls-4 {
        letter-spacing: -.02em;
      }

      .cls-5 {
        letter-spacing: 0em;
      }
    </style>
  </defs>
  <g id="Capa_1-2" data-name="Capa 1">
    <g>
      <text class="cls-1" transform="translate(6.08 118.97)"><tspan x="0" y="0">NIR</tspan><tspan class="cls-4" x="25.81" y="0">V</tspan><tspan x="34.34" y="0">A</tspan><tspan class="cls-3" x="43.94" y="0">N</tspan><tspan x="55.1" y="0">A SQ</tspan><tspan class="cls-5" x="89.19" y="0">U</tspan><tspan x="99.65" y="0">AD</tspan></text>
      <path class="cls-2" d="M43.22,53.34v45.02h-10.49c-2.54-5.1-5.07-10.2-7.61-15.3-1.7-3.42-3.4-6.84-5.1-10.26,.11,2.24,.16,3.36,.27,5.6v19.96H10.07v-20.21l-3.98-2.3,3.98-2.3v-20.21h10.32c4.33,8.65,8.65,17.31,12.98,25.97-.15-1.94-.22-2.91-.37-4.85v-21.11h10.22m3.04-3.04H29.96v15.38c-2.28-4.57-4.57-9.13-6.85-13.7l-.84-1.68H7.02v21.5l-2.46,1.42-4.56,2.63,4.56,2.63,2.46,1.42v21.5H23.32v-15.12l2.87,5.78,3.81,7.65,.84,1.69h15.41V50.3h0Z"/>
      <path class="cls-2" d="M85.51,53.34c-2.97,9.9-5.95,19.81-8.93,29.72-1.53,5.1-3.06,10.2-4.6,15.3h-9.48c-1.56-5.1-3.12-10.2-4.68-15.3-3.03-9.9-6.06-19.81-9.08-29.72h10.66c1.85,6.63,3.71,13.26,5.56,19.9,.82,3.25,1.65,6.49,2.12,9.82,.01,.09,.02,.18,.04,.26h.14c.01-.09,.02-.18,.04-.26,.33-2.33,.69-4.26,1.08-5.77,2.07-7.98,4.14-15.96,6.21-23.94h10.93m4.09-3.04h-17.37l-.59,2.28-3.38,13.04-1.09,4.2-.38-1.37c-1.48-5.31-2.97-10.61-4.45-15.92l-.62-2.22h-17.08l1.2,3.93,4.39,14.37c1.56,5.11,3.13,10.23,4.69,15.34,.78,2.55,1.56,5.1,2.34,7.65,.78,2.55,1.56,5.1,2.34,7.65l.66,2.15h13.99l.65-2.17,.02-.07c1.53-5.08,3.05-10.16,4.58-15.24,2.36-7.84,4.72-15.69,7.07-23.54l1.85-6.17,1.18-3.92h0Z"/>
      <path class="cls-2" d="M124.15,53.34v19.73l4.81,2.78-4.81,2.78v19.73h-10.49c-2.54-5.1-5.07-10.2-7.61-15.3-1.7-3.42-3.4-6.84-5.1-10.26,.11,2.24,.16,3.36,.27,5.6v19.96h-10.22V53.34h10.32c4.33,8.65,8.66,17.31,12.99,25.97-.15-1.94-.23-2.91-.37-4.85v-21.11h10.22m3.04-3.04h-16.3v15.38l-.38-.76-6.47-12.95-.84-1.68h-15.24v51.1h16.3v-15.11c2.23,4.48,4.45,8.95,6.68,13.43l.84,1.69h15.41v-21.02l3.29-1.9,4.56-2.63-4.56-2.63-3.29-1.9v-21.02h0Z"/>
      <path class="cls-2" d="M122.5,41.11c-.4-1.02-.77-1.99-1.01-2.98-1.07-4.46-2.65-6.67-4.32-9.01-.46-.64-.92-1.3-1.4-2.03-4.98-7.65-13.03-14.55-23.29-19.95-6.62-3.49-13.87-5.21-18.78-6.05-3.98-.68-6.89-.86-7.59-.89-1.11-.14-5.4-.54-14.36,.39-9.58,1-17.42,5.21-24.66,13.25-5.06,5.63-7.17,9.92-8.44,13.03-.33,.81-.65,1.59-.96,2.29-.27,.59-.67,1.37-1.14,2.27-2.4,4.61-4.32,9.49-5.82,14.75h6.79c1.72-5.05,3.63-8.72,4.99-11.34,.52-1,.97-1.86,1.29-2.57,.36-.8,.7-1.63,1.06-2.51,1.38-3.39,2.95-7.24,6.94-11.67,6.13-6.81,12.68-10.37,20.61-11.19,9.3-.97,12.94-.4,13.13-.38,.14,0,13.24,.57,24,6.24,10.1,5.32,17.79,11.52,21.67,17.47,2.05,3.15,3.01,4.75,4.13,9.4,.49,2.05,.87,4.42,1.2,6.57h7.39c-.05-.3-.1-.62-.15-.94-.22-1.45-.76-2.81-1.27-4.13Z"/>
      <path class="cls-2" d="M53.03,23.04c-.36-.51-.87-.83-1.5-.89-1.2-.12-2.28,.82-2.45,.98l-4.27,3.7c-.49-1.41-1.23-3.23-2.05-4.14-.79-.88-1.61-.85-2.02-.76-1.29,.29-1.84,1.86-1.98,2.33l-.03,.14c-.24,1.4,1.25,4.23,2.44,6.21-.75,.81-1.99,2.14-2.68,2.79-1.53,1.45-2.23,2.65-2.22,3.77,0,.67,.28,1.28,.78,1.74,1.46,1.34,3.15,.61,3.97-.27l2.89-3.48c.6,1.22,1.47,2.84,2.42,4.19,1.04,1.47,1.76,2.39,2.79,2.56,.03,0,.06,0,.1,.01,.92,.11,1.66-.44,2.27-.96,.58-.5,.89-1.16,.87-1.87-.04-1.26-1.1-2.25-1.53-2.61l-3.91-4.92,4.91-4.25c1.18-1.09,2.21-2.87,1.22-4.28Z"/>
      <path class="cls-2" d="M90.04,32.24c-.06-.05-.1-.1-.15-.15,.89-.86,2.98-2.88,3.93-3.75,1.61-1.47,1.89-2.88,.85-4.17-.8-1.01-2.17-1-3.09-.7l-.29,.1-.21,.23s-3.03,3.23-4.01,4.28c-.87-1.1-2.78-3.53-3.32-4.3-.92-1.3-2.46-1.31-3.5-.79l-.16,.09c-1.23,.87-1.22,2.4-.52,3.56,.55,.76,3.34,4.59,4.38,5.48,.03,.03,.06,.05,.08,.07-1.24,1.22-4.33,4.23-4.82,4.68-.56,.51-.86,1.28-.81,2.12,.04,.83,.44,1.6,1.05,2.05,.26,.19,.56,.31,.88,.36,1.31,.22,2.93-.63,3.8-1.38,.62-.53,1.58-1.84,3.26-4.48,.68,1.08,1.8,2.84,2.62,3.94,1.49,1.99,3.8,2.17,5,1.81,.53-.16,.92-.54,1.09-1.02,.28-.83-.21-1.61-.45-1.93-.18-.2-4.37-4.89-5.61-6.09Z"/>
    </g>
  </g>
</svg>