<?xml version="1.0" encoding="UTF-8"?>
<svg id="Capa_2" data-name="Capa 2" xmlns="http://www.w3.org/2000/svg" viewBox="0 0 92.41 134.52">
  <defs>
    <style>
      .cls-1 {
        fill: #f2f2f2;
      }
    </style>
  </defs>
  <g id="Capa_1-2" data-name="Capa 1">
    <g>
      <path class="cls-1" d="M29.56,62.75c-3.59,1.37-7.98-.07-10.14-3.08-1.6-2.23-2.16-5.57-1.11-6.25,1.44-.94,4.25,4.16,9.22,4.19,4.26,.03,6.75-3.71,7.54-2.99,.88,.79-.99,6.42-5.51,8.14Z"/>
      <path class="cls-1" d="M62.62,62.75c3.59,1.37,7.98-.07,10.14-3.08,1.6-2.23,2.16-5.57,1.11-6.25-1.44-.94-4.25,4.16-9.22,4.19-4.26,.03-6.75-3.71-7.54-2.99-.88,.79,.99,6.42,5.51,8.14Z"/>
      <path class="cls-1" d="M46.23,19.97c-3.95,0-8.01-2.34-10.61-6.27-.86-1.3-.5-3.04,.8-3.9,1.3-.86,3.04-.5,3.9,.8,1.73,2.62,4.58,4.15,6.79,3.65,1.34-.3,2.65-1.42,3.5-2.99,1.2-2.21,1.35-4.93,.4-7.47-.54-1.46,.21-3.08,1.66-3.61,1.46-.54,3.08,.21,3.61,1.66,1.5,4.06,1.23,8.48-.74,12.11-1.64,3.02-4.27,5.13-7.21,5.8-.69,.16-1.4,.23-2.11,.23Z"/>
      <path class="cls-1" d="M60.04,69.75c.9,.48,2.69,1.43,2.87,3.17,.1,.94-.27,2.23-1.12,2.57-.97,.39-1.64-.85-4.07-1.84-2.44-.99-3.72-.54-4.31-1.6-.43-.78-.22-1.89,.32-2.55,1.29-1.57,4.56-.69,6.3,.24Z"/>
      <g>
        <path class="cls-1" d="M16.67,130.55c-.16,0-.27-.08-.35-.23-.08-.16-.12-.38-.12-.66v-.16c0-.06,0-.18,.03-.35,.03-.66,.35-1.04,.98-1.15l.32-.03c.21-.03,.38-.09,.49-.2,.12-.11,.21-.25,.26-.45,.16-.52,.31-1.05,.47-1.58,.16-.53,.32-1.06,.49-1.58,.09-.29,.19-.61,.28-.94,.1-.33,.2-.67,.32-1,.11-.33,.25-.65,.4-.98,.15-.32,.32-.61,.52-.88,.08-.11,.2-.22,.34-.34,.15-.12,.31-.23,.5-.32,.19-.1,.39-.17,.6-.23,.21-.06,.43-.09,.64-.09,.27,0,.54,.09,.81,.26,.36,.25,.71,.54,1.06,.89,.35,.35,.74,.79,1.17,1.33,.43,.54,.93,1.19,1.5,1.96,.57,.76,1.25,1.69,2.05,2.77,.12,.14,.24,.24,.38,.31,.13,.07,.29,.1,.47,.1h.78c.32,0,.57,.08,.75,.23s.27,.36,.27,.62c0,.05,0,.12,0,.19,0,.07-.02,.15-.05,.22l-.26,.77c-.02,.07-.03,.14-.04,.19,0,.05-.01,.11-.01,.16,0,.19,.06,.39,.19,.59l1.47,2.01c.16,.25,.25,.48,.25,.7,0,.33-.19,.62-.56,.87l-.52,.37c-.13,.08-.25,.15-.36,.19-.11,.05-.23,.07-.35,.07-.16,0-.32-.05-.46-.14-.14-.1-.28-.23-.41-.39-.44-.62-.88-1.24-1.33-1.84-.44-.6-.9-1.2-1.35-1.8-.21-.29-.49-.44-.84-.44-1.12,.05-2.22,.11-3.32,.19-1.09,.08-2.19,.17-3.29,.28-.39,.04-.64,.25-.74,.63l-.62,2.27c-.16,.6-.53,.91-1.1,.91h-.22l-.43-.05c-.31-.03-.55-.12-.71-.29-.16-.16-.24-.38-.24-.65,0-.05,0-.11,.01-.18,0-.06,.02-.13,.04-.21,.05-.18,.09-.37,.14-.56,.05-.19,.1-.38,.16-.56,.02-.07,.03-.14,.04-.2,0-.06,.01-.12,.01-.17,0-.28-.11-.43-.33-.43h-.18Zm6.54-7.25c-.09-.08-.17-.15-.25-.21-.07-.05-.15-.08-.23-.08-.23,0-.39,.16-.48,.48-.18,.54-.36,1.07-.53,1.6-.17,.53-.34,1.06-.52,1.61-.02,.05-.03,.09-.03,.12v.12c0,.34,.18,.51,.54,.51h.14c.55-.07,1.1-.13,1.65-.17s1.1-.08,1.65-.1c.18-.02,.33-.07,.43-.14,.11-.08,.16-.18,.16-.31,0-.12-.05-.26-.16-.43-.38-.51-.77-1.02-1.16-1.52-.39-.5-.79-1-1.2-1.49Z"/>
        <path class="cls-1" d="M35.69,123.24c-.17,0-.38,.03-.6,.09-.23,.06-.47,.13-.71,.21-.25,.08-.49,.15-.73,.21-.24,.06-.46,.09-.65,.09s-.36-.03-.47-.1c-.11-.07-.2-.16-.25-.27s-.09-.23-.1-.36c0-.13-.01-.25-.01-.37,0-.35,.1-.63,.31-.85s.5-.41,.89-.56,.85-.28,1.39-.38c.54-.11,1.16-.22,1.85-.35,1.08-.2,2.07-.36,2.96-.47,.89-.11,1.74-.19,2.55-.24,.81-.05,1.6-.08,2.38-.09,.78,0,1.6-.01,2.46-.01,.26,0,.46,.03,.6,.1,.15,.06,.25,.15,.32,.25,.07,.1,.11,.22,.12,.34,.01,.13,.02,.26,.02,.38,0,.15-.02,.3-.06,.47-.04,.17-.11,.33-.21,.47-.1,.14-.22,.26-.38,.35-.16,.09-.36,.14-.58,.14h-1.1c-.44,0-.91,0-1.4,0-.49,0-.98,.01-1.47,.03-.49,.01-.95,.03-1.39,.06-.44,.03-.84,.07-1.18,.12-.34,.05-.62,.11-.82,.19-.2,.07-.3,.16-.3,.27s.04,.29,.12,.55c.08,.26,.18,.53,.3,.83,.12,.3,.24,.59,.36,.88l.31,.72c.07,.16,.16,.26,.25,.32,.09,.05,.21,.08,.37,.08,.38,0,.76-.02,1.15-.07,.39-.05,.79-.1,1.19-.16,.4-.06,.8-.11,1.19-.16,.4-.05,.79-.07,1.19-.07,.22,0,.4,.04,.54,.12,.14,.08,.25,.17,.34,.29,.08,.11,.14,.24,.17,.36,.03,.13,.05,.24,.05,.33,0,.41-.13,.72-.38,.93-.26,.21-.6,.36-1.04,.46-.44,.1-.95,.17-1.53,.21-.58,.04-1.2,.09-1.85,.15l-.33,.03c-.12,.02-.21,.06-.27,.12s-.1,.15-.1,.25c0,.03,0,.05,.01,.07,0,.02,.01,.04,.01,.07,.08,.3,.18,.64,.29,1.01s.21,.74,.31,1.11c.1,.37,.18,.71,.24,1.04,.06,.33,.1,.6,.1,.81,0,.42-.16,.74-.47,.96s-.76,.33-1.34,.33c-.21,0-.41-.05-.61-.14-.2-.1-.32-.27-.36-.53-.15-.75-.31-1.49-.49-2.2-.18-.72-.38-1.44-.58-2.15-.08-.25-.24-.37-.48-.37-.27,0-.58,0-.93-.03-.34-.02-.69-.05-1.05-.11s-.7-.13-1.04-.21c-.33-.09-.63-.2-.89-.35-.26-.15-.47-.32-.63-.52-.16-.2-.24-.44-.24-.71,0-.17,.04-.35,.12-.52,.08-.17,.19-.32,.32-.45,.13-.13,.27-.24,.42-.32s.3-.12,.43-.12c.16,0,.34,.04,.54,.12s.4,.17,.62,.27c.22,.1,.46,.19,.71,.27,.25,.08,.52,.12,.82,.12,.15,0,.22-.08,.22-.23,0-.15-.03-.34-.08-.58-.05-.24-.12-.49-.2-.75s-.18-.52-.28-.77c-.11-.25-.22-.46-.34-.64-.07-.11-.15-.2-.23-.26-.08-.06-.2-.1-.36-.1Z"/>
        <path class="cls-1" d="M52.1,127.65c0,.55,.14,1.06,.41,1.53,.27,.47,.62,.88,1.06,1.24,.44,.35,.94,.63,1.51,.82,.57,.2,1.15,.3,1.74,.3,.18,0,.37-.02,.56-.05,.19-.03,.37-.09,.52-.17,.16-.08,.28-.19,.38-.32,.1-.13,.15-.3,.15-.5,0-.38-.14-.76-.41-1.14-.27-.38-.62-.75-1.06-1.12s-.94-.74-1.51-1.11c-.57-.37-1.14-.74-1.73-1.11-.59-.37-1.16-.73-1.73-1.11-.57-.37-1.07-.74-1.51-1.11s-.79-.75-1.06-1.13c-.27-.38-.41-.76-.41-1.15s.09-.71,.28-1.02c.19-.32,.44-.6,.75-.86,.31-.26,.67-.49,1.09-.69,.41-.2,.84-.37,1.29-.51,.45-.14,.9-.24,1.35-.31s.89-.1,1.3-.1c.3,0,.63,0,1,.02,.36,.01,.7,.05,1.02,.12s.58,.17,.79,.31c.21,.14,.32,.33,.32,.59,0,.08-.01,.19-.04,.31s-.11,.33-.23,.61c-.13,.27-.28,.46-.45,.6-.17,.13-.39,.2-.65,.2-.38,0-.77-.04-1.19-.13-.42-.09-.84-.13-1.26-.13-.23,0-.46,.01-.69,.03-.23,.02-.45,.06-.64,.12-.19,.06-.35,.15-.47,.26-.12,.11-.18,.26-.18,.43s.13,.37,.38,.59c.25,.22,.59,.46,1,.73,.42,.27,.89,.56,1.42,.87,.53,.32,1.07,.65,1.63,1.02,.55,.36,1.1,.75,1.63,1.15,.53,.41,1,.84,1.42,1.29,.42,.45,.75,.93,1,1.44,.25,.5,.38,1.03,.38,1.57,0,.66-.15,1.24-.45,1.74-.3,.5-.69,.93-1.17,1.26-.48,.34-1,.59-1.58,.76-.58,.17-1.14,.25-1.69,.25s-1.12-.07-1.7-.2c-.57-.13-1.12-.32-1.66-.56-.53-.24-1.03-.54-1.49-.88-.46-.34-.86-.73-1.2-1.15-.34-.43-.61-.89-.8-1.38-.2-.49-.3-1.01-.3-1.55,0-.23,.02-.46,.05-.69,.03-.23,.09-.44,.17-.62s.2-.32,.34-.44c.15-.11,.33-.17,.56-.17,.07,0,.16,0,.25,.02,.09,.01,.25,.06,.48,.13,.27,.08,.5,.21,.71,.39s.31,.41,.31,.69Z"/>
        <path class="cls-1" d="M63.74,129.9s-.07,0-.13,.01c-.06,0-.12,.02-.19,.03-.07,0-.14,.02-.2,.03-.06,0-.11,.01-.15,.01-.26,0-.48-.11-.67-.32-.19-.21-.29-.5-.29-.86,0-.24,.08-.47,.23-.69,.16-.22,.4-.4,.73-.55,.1-.05,.18-.1,.24-.16s.09-.14,.09-.25c0-.29,0-.61-.02-.94-.01-.33-.03-.73-.06-1.17,0-.09-.04-.18-.09-.26-.05-.08-.11-.18-.16-.28-.06-.11-.11-.22-.16-.35-.05-.13-.07-.29-.07-.48,0-.17,.03-.37,.08-.6,.05-.22,.16-.43,.32-.63,.16-.2,.38-.36,.67-.49,.29-.13,.67-.2,1.13-.2,.19,0,.35,.02,.48,.05,.13,.04,.24,.08,.34,.13,.1,.05,.18,.09,.26,.13,.08,.04,.16,.05,.24,.05,.15,0,.44-.03,.88-.08s.97-.13,1.59-.23c.62-.1,1.3-.21,2.05-.34,.75-.13,1.5-.27,2.27-.42s1.52-.3,2.25-.46c.73-.16,1.4-.31,1.99-.45,.18-.05,.34-.07,.48-.07,.19,0,.35,.04,.46,.13,.11,.09,.2,.19,.25,.32,.05,.13,.09,.27,.1,.43,.01,.16,.02,.31,.02,.45,0,.24-.08,.46-.24,.67-.16,.21-.42,.37-.79,.49-.91,.27-1.82,.5-2.74,.69-.92,.2-1.85,.38-2.78,.54-.93,.16-1.87,.3-2.82,.43-.94,.13-1.88,.26-2.82,.38-.13,.02-.22,.07-.29,.14-.06,.08-.1,.18-.1,.31v.56c0,.16,0,.32,.01,.48,0,.16,.03,.32,.06,.45,.03,.14,.08,.25,.13,.34,.05,.09,.13,.13,.22,.13,.22,0,.56-.05,1.02-.14,.46-.09,.98-.2,1.57-.34,.58-.13,1.19-.28,1.83-.44,.64-.16,1.24-.31,1.81-.44,.57-.13,1.07-.24,1.5-.34,.43-.09,.73-.14,.91-.14,.26,0,.45,.09,.58,.28,.13,.19,.22,.42,.27,.71,0,.05,0,.09,.01,.12,0,.04,.01,.08,.01,.12,0,.27-.08,.51-.24,.73-.16,.22-.45,.39-.86,.5-.11,.04-.33,.09-.66,.17-.33,.08-.72,.17-1.17,.27-.45,.11-.93,.22-1.46,.34-.52,.12-1.03,.24-1.54,.35-.5,.11-.97,.22-1.41,.33-.43,.11-.79,.19-1.06,.25-.25,.06-.4,.11-.45,.15-.05,.04-.08,.08-.08,.14,.02,.2,.12,.39,.31,.56,.19,.17,.43,.33,.71,.48,.29,.15,.61,.28,.98,.4,.36,.12,.74,.22,1.13,.3,.39,.08,.77,.14,1.15,.19,.38,.05,.72,.07,1.04,.07h.59c.26,0,.54,0,.84-.02,.31-.01,.62-.03,.95-.06,.32-.03,.62-.07,.88-.12,.26-.05,.48-.11,.65-.19,.17-.08,.25-.17,.25-.28,0-.1-.03-.21-.1-.32s-.1-.23-.1-.36c0-.18,.05-.36,.15-.54,.1-.18,.23-.34,.39-.48,.16-.14,.34-.26,.55-.34,.21-.09,.41-.13,.62-.13,.27,0,.51,.05,.73,.16,.22,.11,.41,.24,.57,.41,.16,.17,.28,.36,.37,.58,.09,.22,.13,.44,.13,.67,0,.6-.22,1.13-.67,1.57-.44,.44-1.02,.8-1.74,1.09-.71,.29-1.52,.5-2.42,.65-.9,.14-1.8,.21-2.71,.21-1.06,0-2.03-.07-2.91-.21-.88-.14-1.67-.37-2.36-.68-.7-.31-1.3-.72-1.8-1.22-.5-.5-.92-1.11-1.24-1.82-.11-.21-.23-.32-.36-.32Z"/>
      </g>
      <path class="cls-1" d="M36.28,81.08c-3.72-6.54,2.69-15.24,3.83-16.78,1.02-1.38,5.37-7.35,9.38-6.34,.86,.22,1.45,.64,1.74,.88,3.03,2.52,1.09,9.09,.44,11.32-1.61,5.53-6.14,15.1-11.08,14.52-2.43-.29-3.92-2.91-4.31-3.59Z"/>
      <path class="cls-1" d="M92.39,67.3c-.04-.56-.09-1.07-.15-1.51-.1-.85-.3-1.49-.49-1.98,0-.18,0-.36,0-.54,0-9.59-3.08-18.49-8.31-25.8-2.95-5.08-6.8-9.57-11.35-13.18-4.14-3.3-8.86-5.76-13.83-7.23-2.48-.74-5.02-1.25-7.58-1.54-2.56-.28-5.13-.31-7.7-.15-2.57,.16-5.13,.54-7.64,1.15-2.52,.61-5,1.42-7.42,2.43-.6,.27-1.21,.51-1.81,.8-.59,.29-1.19,.58-1.78,.87-.58,.32-1.17,.63-1.75,.95-.58,.33-1.15,.68-1.73,1.02-2.28,1.41-4.49,3.02-6.6,4.81-.2,.18-.41,.36-.62,.54-.21,.19-.43,.37-.63,.58-.42,.41-.85,.84-1.29,1.3-.43,.46-.86,.96-1.3,1.46-.11,.13-.22,.25-.33,.38-.11,.13-.21,.27-.32,.4-.21,.27-.43,.54-.64,.82-1.71,2.23-3.32,4.83-4.63,7.55-1.32,2.72-2.35,5.56-3.08,8.23-.17,.67-.35,1.32-.5,1.96-.13,.64-.26,1.27-.39,1.87-.12,.6-.2,1.19-.29,1.75-.04,.28-.09,.55-.13,.82-.04,.27-.06,.53-.09,.78-.01,.69-.02,1.31,.01,1.87,.04,.56,.09,1.07,.15,1.51,.05,.38,.11,.71,.18,1.01-.07,1-.11,2-.11,3.02,0,14.01,6.56,26.54,16.82,34.79,.29,.28,.59,.55,.91,.83,1.04,.91,2.17,1.81,3.37,2.65,3.89,2.91,8.24,5.09,12.8,6.43,.95,.28,1.91,.53,2.87,.75,2.91,.8,5.92,1.22,8.99,1.22,1.9,0,3.78-.16,5.63-.47,1.82-.2,3.63-.52,5.42-.95,2.52-.61,5-1.42,7.42-2.43,.6-.27,1.21-.51,1.81-.8,.59-.29,1.19-.58,1.78-.87,.58-.32,1.17-.63,1.75-.95,.58-.33,1.15-.68,1.73-1.02,2.28-1.41,4.49-3.02,6.6-4.81,.2-.18,.41-.36,.62-.54,.21-.19,.43-.37,.63-.58,.42-.41,.85-.84,1.29-1.3,.43-.46,.86-.96,1.3-1.46,.11-.13,.22-.25,.33-.38,.11-.13,.21-.27,.32-.4,.21-.27,.43-.54,.64-.82,1.71-2.23,3.32-4.83,4.63-7.55,1.32-2.72,2.35-5.56,3.08-8.23,.17-.67,.35-1.32,.5-1.96,.13-.64,.26-1.27,.39-1.87,.12-.6,.2-1.19,.29-1.75,.04-.28,.09-.55,.13-.82,.04-.27,.06-.53,.09-.78,.01-.69,.02-1.31-.01-1.87Zm-21.91,27.78c-.1-.1-.21-.18-.33-.23,.11-.12,.22-.23,.33-.35,.23-.24,.47-.47,.71-.72,.18-.23,.4-.07,.68-.12-.46,.49-.92,.97-1.4,1.43Zm-44.63,1.38c.24,.22,.42,.4,.55,.54,.05,.05,.08,.09,.11,.13-.24-.23-.46-.45-.66-.67Zm12.34,5.91c-.82-.21-1.64-.39-2.43-.67-.4-.13-.79-.25-1.18-.4-.38-.16-.77-.31-1.15-.46-.38-.15-.76-.32-1.13-.5-.38-.17-.77-.33-1.15-.51-.67-.34-1.37-.65-2.06-1.02-1.05-.65-2.13-1.42-3.24-2.35-1.37-1.46-2.06-2.59-3.12-2.43-.14,.02-.28,.06-.41,.12-2.16-1.94-4.11-4.08-5.82-6.37-.23-.44-.44-.87-.61-1.29-1.02-2.5-2.13-5.14-3.16-7.96-.13-.35-.27-.7-.39-1.06-.12-.36-.24-.72-.36-1.09-.06-.18-.13-.36-.19-.55-.06-.19-.11-.37-.17-.56-.11-.37-.23-.74-.34-1.12-.11-.38-.2-.76-.31-1.14-.1-.38-.22-.76-.3-1.15-.17-.78-.38-1.56-.51-2.36-.07-.4-.16-.8-.22-1.2-.06-.4-.12-.81-.17-1.21l-.09-.61-.06-.61c-.04-.41-.08-.82-.12-1.23-.03-.41-.04-.83-.07-1.24-.02-.41-.06-.83-.04-1.24,0-.83-.02-1.66,.05-2.49,.02-.41,.04-.83,.07-1.24,.05-.41,.09-.82,.14-1.23l.07-.61,.1-.61c.07-.4,.14-.81,.21-1.21,.34-1.6,.75-3.16,1.33-4.63,.54-1.48,1.17-2.98,1.86-4.53,.72-1.54,1.55-3.11,2.58-4.68,2.82-3.97,6.2-7.37,10.03-10.08,3.82-2.7,8.09-4.7,12.64-5.8,4.53-1.1,9.36-1.32,14.12-.51,4.75,.81,9.44,2.67,13.61,5.59,2.23,1.52,4.26,3.06,6.11,4.69,1.85,1.63,3.51,3.36,4.94,5.22,.78,1.11,1.47,2.33,2.06,3.56,2.43,5.91,3.81,12.56,3.81,19.58s-1.31,13.39-3.65,19.2c0,0,0,0,0,.01-.51,1.02-1.05,1.91-1.54,2.77-.26,.42-.52,.82-.77,1.22-.12,.2-.25,.39-.39,.58-.13,.19-.26,.38-.39,.57-.5,.77-1.08,1.47-1.64,2.21-.6,.71-1.21,1.46-1.93,2.2-.85,1-1.74,1.96-2.68,2.87-.07-.03-.15-.05-.22-.06-.64-.06-.95,.86-1.85,1.92-.07,.05-.13,.11-.2,.16-1.64,.81-3.33,1.63-5.12,2.39-.36,.15-.72,.3-1.09,.45-.18,.07-.36,.16-.55,.23-.19,.07-.37,.14-.56,.21-.37,.14-.75,.29-1.12,.43-.38,.13-.77,.26-1.15,.39-.19,.07-.39,.13-.58,.2-.19,.06-.39,.12-.59,.17-.39,.12-.79,.24-1.19,.36-.4,.11-.8,.2-1.21,.31-.4,.1-.81,.21-1.22,.29-.41,.09-.82,.17-1.24,.26-.41,.08-.84,.13-1.25,.2-.84,.15-1.69,.21-2.54,.31-.43,.05-.86,.05-1.28,.08-.43,.02-.86,.06-1.29,.05h-1.29s-.32,0-.32,0l-.32-.02-.64-.04c-1.72-.08-3.41-.36-5.07-.71Z"/>
      <path class="cls-1" d="M78.74,95.54c-1.21,.08-2.29,0-3.28-.17-1-.16-1.92-.41-2.81-.72-.89-.32-1.76-.7-2.63-1.2-.87-.5-1.74-1.11-2.6-1.93-.27-.29-.66-.66-1.11-1.27-.44-.62-.99-1.47-1.42-2.77-.33-.98-.55-2.19-.54-3.54,0-.67,.08-1.38,.2-2.09,.09-.35,.14-.72,.26-1.07,.05-.18,.1-.36,.16-.54,.07-.17,.13-.35,.2-.53,.29-.7,.62-1.38,1.07-2.02,.44-.64,.95-1.25,1.51-1.8,.56-.55,1.18-1.04,1.83-1.45,.65-.4,1.33-.75,2.02-.98,.69-.23,1.38-.39,2.05-.46,.17-.02,.33-.02,.5-.03,.08,0,.17,0,.25-.01,.09,0,.18,0,.27,0,.34,0,.66,.02,.97,.06,.61,.07,1.17,.21,1.66,.39,.49,.19,.91,.41,1.26,.66,.68,.52,1.17,1.05,1.44,1.49,.07,.11,.14,.19,.19,.28,.05,.09,.09,.16,.12,.22,.07,.12,.1,.18,.1,.18,0,0,.03,.05,.08,.15,.05,.11,.11,.26,.2,.47,.1,.2,.16,.47,.27,.77,.06,.15,.08,.32,.12,.5,.02,.09,.04,.18,.06,.27,.02,.09,.03,.19,.04,.3,.13,.81,.17,1.81,0,2.9-.18,1.08-.57,2.25-1.24,3.28-.69,1.03-1.73,2.09-2.85,2.78-.56,.35-1.15,.6-1.71,.72-.57,.12-1.1,.11-1.62-.02-1.04-.24-1.97-1.06-2.58-2.08-.61-1.02-.91-2.2-.92-3.21-.01-.81,.16-1.5,.4-2,.26-.52,.65-.99,1-1.33,.36-.34,.71-.55,.99-.68,.28-.13,.5-.18,.68-.2,.09-.02,.17,0,.26-.02,.08,.01,.16,0,.25,.02,.17,.02,.34,.07,.51,.13,.34,.12,.64,.32,.88,.54,.12,.11,.23,.23,.32,.36,.05,.06,.09,.13,.13,.19,.03,.07,.08,.14,.11,.22,.14,.31,.23,.67,.26,1.04,.03,.37,0,.74-.08,1.09-.09,.35-.23,.67-.5,.93-.26,.27-.65,.47-1.14,.54-.49,.07-1.06,.02-1.64-.16,.43,.43,.94,.77,1.54,.98,.59,.21,1.3,.24,1.97,.01,.17-.05,.32-.13,.49-.21,.16-.08,.3-.18,.45-.29,.27-.22,.53-.46,.73-.74,.42-.55,.7-1.18,.86-1.84,.15-.67,.19-1.37,.07-2.12-.12-.75-.46-1.54-.96-2.2-.51-.66-1.18-1.23-2-1.62-.41-.2-.86-.35-1.35-.45-.24-.05-.5-.06-.76-.09-.26,0-.52,0-.78,.03-.52,.05-1.13,.21-1.78,.5-.65,.29-1.32,.73-1.97,1.33-.32,.3-.64,.64-.94,1.03-.3,.39-.6,.83-.86,1.36-.53,1.07-.8,2.33-.78,3.66,.02,1.66,.47,3.42,1.44,5.07,.49,.82,1.13,1.6,1.94,2.27,.4,.33,.85,.63,1.33,.89,.48,.25,1,.47,1.55,.59,1.08,.29,2.26,.29,3.32,.06,1.07-.23,2.02-.67,2.86-1.19,.84-.52,1.58-1.13,2.24-1.78,.66-.65,1.24-1.34,1.75-2.11,1.01-1.56,1.55-3.21,1.79-4.72,.24-1.52,.19-2.9,0-4.04-.02-.14-.04-.28-.07-.42-.03-.13-.06-.27-.09-.39-.06-.25-.1-.5-.18-.72-.15-.44-.25-.82-.39-1.12-.13-.3-.23-.53-.3-.69-.08-.15-.13-.23-.13-.23,0,0-.05-.1-.15-.28-.05-.09-.11-.2-.19-.33-.07-.13-.18-.27-.29-.44-.42-.67-1.19-1.57-2.36-2.43-.59-.41-1.29-.8-2.07-1.09-.78-.29-1.64-.5-2.53-.61-.45-.05-.91-.08-1.36-.08-.11,0-.22,0-.33,0-.12,0-.24,0-.35,.01-.24,.01-.48,.02-.72,.04-.97,.1-1.95,.32-2.91,.65-3.84,1.35-7.14,4.56-8.63,8.35-.09,.24-.18,.47-.27,.7-.08,.24-.14,.47-.22,.71-.15,.47-.23,.95-.34,1.41-.16,.94-.26,1.86-.26,2.75-.01,1.77,.29,3.39,.73,4.72,.58,1.76,1.35,2.95,1.96,3.8,.63,.85,1.15,1.35,1.54,1.74,1.19,1.11,2.45,1.86,3.68,2.35,1.23,.49,2.44,.72,3.6,.77,1.16,.05,2.28-.08,3.37-.37,1.09-.29,2.16-.74,3.19-1.38Z"/>
      <path class="cls-1" d="M15.25,95.54c1.21,.08,2.29,0,3.28-.17,1-.16,1.92-.41,2.81-.72,.89-.32,1.76-.7,2.63-1.2,.87-.5,1.74-1.11,2.6-1.93,.27-.29,.66-.66,1.11-1.27,.44-.62,.99-1.47,1.42-2.77,.33-.98,.55-2.19,.54-3.54,0-.67-.08-1.38-.2-2.09-.09-.35-.14-.72-.26-1.07-.05-.18-.1-.36-.16-.54-.07-.17-.13-.35-.2-.53-.29-.7-.62-1.38-1.07-2.02-.44-.64-.95-1.25-1.51-1.8-.56-.55-1.18-1.04-1.83-1.45-.65-.4-1.33-.75-2.02-.98-.69-.23-1.38-.39-2.05-.46-.17-.02-.33-.02-.5-.03-.08,0-.17,0-.25-.01-.09,0-.18,0-.27,0-.34,0-.66,.02-.97,.06-.61,.07-1.17,.21-1.66,.39-.49,.19-.91,.41-1.26,.66-.68,.52-1.17,1.05-1.44,1.49-.07,.11-.14,.19-.19,.28-.05,.09-.09,.16-.12,.22-.07,.12-.1,.18-.1,.18,0,0-.03,.05-.08,.15-.05,.11-.11,.26-.2,.47-.1,.2-.16,.47-.27,.77-.06,.15-.08,.32-.12,.5-.02,.09-.04,.18-.06,.27-.02,.09-.03,.19-.04,.3-.13,.81-.17,1.81,0,2.9,.18,1.08,.57,2.25,1.24,3.28,.69,1.03,1.73,2.09,2.85,2.78,.56,.35,1.15,.6,1.71,.72,.57,.12,1.1,.11,1.62-.02,1.04-.24,1.97-1.06,2.58-2.08,.61-1.02,.91-2.2,.92-3.21,.01-.81-.16-1.5-.4-2-.26-.52-.65-.99-1-1.33-.36-.34-.71-.55-.99-.68-.28-.13-.5-.18-.68-.2-.09-.02-.17,0-.26-.02-.08,.01-.16,0-.25,.02-.17,.02-.34,.07-.51,.13-.34,.12-.64,.32-.88,.54-.12,.11-.23,.23-.32,.36-.05,.06-.09,.13-.13,.19-.03,.07-.08,.14-.11,.22-.14,.31-.23,.67-.26,1.04-.03,.37,0,.74,.08,1.09,.09,.35,.23,.67,.5,.93,.26,.27,.65,.47,1.14,.54,.49,.07,1.06,.02,1.64-.16-.43,.43-.94,.77-1.54,.98-.59,.21-1.3,.24-1.97,.01-.17-.05-.32-.13-.49-.21-.16-.08-.3-.18-.45-.29-.27-.22-.53-.46-.73-.74-.42-.55-.7-1.18-.86-1.84-.15-.67-.19-1.37-.07-2.12,.12-.75,.46-1.54,.96-2.2,.51-.66,1.18-1.23,2-1.62,.41-.2,.86-.35,1.35-.45,.24-.05,.5-.06,.76-.09,.26,0,.52,0,.78,.03,.52,.05,1.13,.21,1.78,.5,.65,.29,1.32,.73,1.97,1.33,.32,.3,.64,.64,.94,1.03,.3,.39,.6,.83,.86,1.36,.53,1.07,.8,2.33,.78,3.66-.02,1.66-.47,3.42-1.44,5.07-.49,.82-1.13,1.6-1.94,2.27-.4,.33-.85,.63-1.33,.89-.48,.25-1,.47-1.55,.59-1.08,.29-2.26,.29-3.32,.06-1.07-.23-2.02-.67-2.86-1.19-.84-.52-1.58-1.13-2.24-1.78-.66-.65-1.24-1.34-1.75-2.11-1.01-1.56-1.55-3.21-1.79-4.72-.24-1.52-.19-2.9,0-4.04,.02-.14,.04-.28,.07-.42,.03-.13,.06-.27,.09-.39,.06-.25,.1-.5,.18-.72,.15-.44,.25-.82,.39-1.12,.13-.3,.23-.53,.3-.69,.08-.15,.13-.23,.13-.23,0,0,.05-.1,.15-.28,.05-.09,.11-.2,.19-.33,.07-.13,.18-.27,.29-.44,.42-.67,1.19-1.57,2.36-2.43,.59-.41,1.29-.8,2.07-1.09,.78-.29,1.64-.5,2.53-.61,.45-.05,.91-.08,1.36-.08,.11,0,.22,0,.33,0,.12,0,.24,0,.35,.01,.24,.01,.48,.02,.72,.04,.97,.1,1.95,.32,2.91,.65,3.84,1.35,7.14,4.56,8.63,8.35,.09,.24,.18,.47,.27,.7,.08,.24,.14,.47,.22,.71,.15,.47,.23,.95,.34,1.41,.16,.94,.26,1.86,.26,2.75,.01,1.77-.29,3.39-.73,4.72-.58,1.76-1.35,2.95-1.96,3.8-.63,.85-1.15,1.35-1.54,1.74-1.19,1.11-2.45,1.86-3.68,2.35-1.23,.49-2.44,.72-3.6,.77-1.16,.05-2.28-.08-3.37-.37-1.09-.29-2.16-.74-3.19-1.38Z"/>
    </g>
  </g>
</svg>