<?xml version="1.0" encoding="UTF-8"?>
<svg id="Capa_2" data-name="Capa 2" xmlns="http://www.w3.org/2000/svg" viewBox="0 0 125.77 131.22">
  <defs>
    <style>
      .cls-1 {
        fill: #f2f2f2;
      }
    </style>
  </defs>
  <g id="Capa_1-2" data-name="Capa 1">
    <g>
      <polygon class="cls-1" points="125.77 40.01 73.83 40 69.33 31.41 69.32 31.41 69.31 31.41 38.59 31.41 47.32 48.04 26.38 48.04 41.11 20.37 86.04 20.37 97.04 0 20.16 0 9.15 20.37 19.4 20.37 0 56.81 51.93 56.82 56.44 65.41 56.45 65.41 56.45 65.41 87.18 65.41 78.44 48.77 99.39 48.77 84.66 76.45 39.73 76.45 28.73 96.82 105.61 96.82 116.61 76.45 106.37 76.45 125.77 40.01"/>
      <g>
        <path class="cls-1" d="M12.2,120.12c-.02-1.06-.46-1.8-1.33-2.22-.48-.23-1.05-.35-1.71-.35-1.25,0-2.38,.47-3.39,1.42-1.01,.95-1.71,2.37-2.12,4.27-.4,1.91-.25,3.27,.45,4.06,.7,.79,1.6,1.19,2.72,1.19s2.05-.31,2.88-.94c.83-.63,1.44-1.45,1.81-2.47h-3.6l.56-2.59h6.47l-1.77,8.34h-2.15l.08-1.94c-.79,.74-1.46,1.26-2.02,1.56-.97,.53-2.08,.79-3.33,.79-2.06,0-3.6-.71-4.61-2.14-1.06-1.43-1.33-3.4-.8-5.88,.53-2.52,1.66-4.53,3.36-6.05,1.71-1.52,3.7-2.28,5.98-2.28,1.98,0,3.46,.5,4.44,1.5s1.41,2.25,1.27,3.75h-3.2Z"/>
        <path class="cls-1" d="M24.03,115.27h3.67l2.2,15.54h-3.52l-.33-3.2h-5.73l-1.75,3.2h-3.4l8.85-15.54Zm-2.26,9.67h3.94l-.64-6.12-3.3,6.12Z"/>
        <path class="cls-1" d="M46.56,116.75c.25,.39,.43,.83,.52,1.31,.09,.48,.08,1.02-.05,1.63-.16,.74-.5,1.46-1.03,2.18-.52,.71-1.25,1.22-2.17,1.51,.65,.29,1.07,.7,1.26,1.23,.19,.53,.16,1.34-.07,2.43l-.22,1.04c-.15,.71-.22,1.19-.22,1.44,0,.4,.13,.7,.4,.89l-.07,.39h-3.57c-.03-.34-.04-.62-.04-.83,0-.44,.06-.88,.15-1.34l.28-1.44c.2-.99,.16-1.65-.12-1.98-.28-.33-.89-.5-1.85-.5h-3.35l-1.29,6.09h-3.17l3.3-15.54h7.62c1.08,.02,1.89,.15,2.43,.4,.53,.25,.96,.61,1.27,1.09Zm-8.72,1.21l-.89,4.18h3.68c.73,0,1.3-.08,1.7-.25,.71-.3,1.16-.88,1.35-1.75,.2-.94,.02-1.57-.54-1.9-.32-.18-.83-.27-1.53-.27h-3.77Z"/>
        <path class="cls-1" d="M55.22,115.27h3.67l2.2,15.54h-3.52l-.33-3.2h-5.73l-1.75,3.2h-3.4l8.85-15.54Zm-2.26,9.67h3.94l-.64-6.12-3.3,6.12Z"/>
        <path class="cls-1" d="M75.78,120.12c-.02-1.06-.46-1.8-1.33-2.22-.48-.23-1.05-.35-1.71-.35-1.25,0-2.38,.47-3.39,1.42-1.01,.95-1.71,2.37-2.12,4.27-.4,1.91-.25,3.27,.45,4.06,.7,.79,1.6,1.19,2.72,1.19s2.05-.31,2.88-.94c.83-.63,1.44-1.45,1.81-2.47h-3.6l.56-2.59h6.47l-1.77,8.34h-2.15l.08-1.94c-.79,.74-1.46,1.26-2.02,1.56-.97,.53-2.08,.79-3.33,.79-2.06,0-3.6-.71-4.61-2.14-1.06-1.43-1.33-3.4-.8-5.88,.53-2.52,1.66-4.53,3.36-6.05,1.71-1.52,3.7-2.28,5.98-2.28,1.98,0,3.46,.5,4.44,1.5,.98,1,1.41,2.25,1.27,3.75h-3.2Z"/>
        <path class="cls-1" d="M94.07,118.02h-8.23l-.7,3.3h7.55l-.58,2.7h-7.55l-.84,4h8.6l-.59,2.79h-11.78l3.3-15.54h11.4l-.59,2.75Z"/>
        <path class="cls-1" d="M108.47,118.02h-8.23l-.7,3.3h7.55l-.58,2.7h-7.55l-.84,4h8.6l-.59,2.79h-11.78l3.3-15.54h11.4l-.59,2.75Z"/>
        <path class="cls-1" d="M112.03,115.27h3.2l-1.36,6.4,7.36-6.4h4.2l-7.73,6.4,4.76,9.14h-4.18l-3.36-6.79-1.89,1.59-1.1,5.2h-3.2l3.3-15.54Z"/>
      </g>
    </g>
  </g>
</svg>