<?xml version="1.0" encoding="UTF-8"?>
<svg id="Capa_2" data-name="Capa 2" xmlns="http://www.w3.org/2000/svg" viewBox="0 0 320.24 27.95">
  <defs>
    <style>
      .cls-1 {
        fill: #f2f2f2;
      }
    </style>
  </defs>
  <g id="Capa_1-2" data-name="Capa 1">
    <g>
      <g>
        <path class="cls-1" d="M59.97,15.93V.96h4.75V15.78c0,4.33,2.81,7.44,6.76,7.44s6.8-3.11,6.8-7.44V.96h4.71V15.93c0,6.8-4.75,11.58-11.51,11.58s-11.51-4.79-11.51-11.58Z"/>
        <path class="cls-1" d="M93.2,5.29v6.3h13.48v4.33h-13.48v6.8h14.89v4.33h-19.64V.96h19.64V5.29h-14.89Z"/>
        <path class="cls-1" d="M111.13,23.26l2.73-3.38c2.39,2.16,5.17,3.53,8.58,3.53,3.23,0,4.9-1.6,4.9-3.46,0-2.16-1.86-2.89-6.04-3.87-5.39-1.25-9.15-2.81-9.15-7.71,0-4.56,3.87-7.9,9.38-7.9,4.14,0,7.25,1.41,9.87,3.65l-2.58,3.49c-2.28-1.98-4.9-3.08-7.48-3.08s-4.41,1.6-4.41,3.42c0,2.13,1.94,2.89,6.08,3.84,5.43,1.22,9.08,2.96,9.08,7.71s-3.57,7.98-9.8,7.98c-4.48,0-8.28-1.52-11.17-4.22Z"/>
        <path class="cls-1" d="M143.45,5.29h-8.36V.96h21.42V5.29h-8.36V27.06h-4.71V5.29Z"/>
        <path class="cls-1" d="M160.65,.96h4.71V27.06h-4.71V.96Z"/>
        <path class="cls-1" d="M169.84,13.99c0-7.33,6.27-13.48,13.71-13.48s13.67,6.15,13.67,13.48-6.27,13.52-13.67,13.52-13.71-6.19-13.71-13.52Zm22.52,0c0-4.98-4.03-9.15-8.81-9.15s-8.89,4.18-8.89,9.15,4.06,9.19,8.89,9.19,8.81-4.18,8.81-9.19Z"/>
        <path class="cls-1" d="M201.93,.96h4.75l13.79,18.34V.96h4.71V27.06h-4.71l-13.79-18.34V27.06h-4.75V.96Z"/>
        <path class="cls-1" d="M248.8,22.35h-12.61l-1.98,4.71h-5.28L239.84,.96h5.28l10.9,26.09h-5.24l-1.98-4.71Zm-1.71-4.1l-4.6-10.98-4.6,10.98h9.19Z"/>
        <path class="cls-1" d="M275.43,27.06l-6.15-8.77h-5.05v8.77h-4.75V.96h11.36c5.58,0,9.76,3.57,9.76,8.66,0,3.95-2.54,6.99-6.3,8.17l6.53,9.27h-5.39Zm-11.2-13.14h6.08c3.23,0,5.47-1.63,5.47-4.29s-2.24-4.29-5.47-4.29h-6.08V13.92Z"/>
        <path class="cls-1" d="M284.96,.96h4.71V27.06h-4.71V.96Z"/>
        <path class="cls-1" d="M313.02,22.35h-12.61l-1.98,4.71h-5.28L304.06,.96h5.28l10.9,26.09h-5.24l-1.98-4.71Zm-1.71-4.1l-4.6-10.98-4.6,10.98h9.19Z"/>
      </g>
      <path class="cls-1" d="M54.16,21.83c.8-1.13,1.43-2.37,1.85-3.69,.21-.65,.38-1.33,.49-2.01,0-.05,.02-.1,.02-.15,.05-.29,.08-.59,.11-.9,.03-.36,.05-.72,.05-1.08,0-.24,0-.47-.02-.71,0-.2-.02-.39-.04-.58-.02-.19-.04-.37-.07-.56-.81-5.72-5.27-10.46-10.91-11.78-.45-.1-.92-.19-1.38-.25-.18-.03-.37-.05-.56-.06-.19-.02-.39-.03-.58-.04-.19,0-.37-.02-.56-.02h-.08c-.22,0-.45,0-.68,.02-.24,.02-.47,.03-.71,.06-.23,.02-.47,.05-.7,.09-.23,.04-.46,.08-.69,.12,0,0,0,0,0,0-.22,.05-.45,.1-.67,.16-.23,.06-.45,.12-.67,.19-.19,.06-.37,.12-.55,.19-.11,.04-.22,.08-.33,.12-.1,.03-.2,.07-.29,.12-.16,.07-.32,.13-.48,.21-.14,.07-.28,.13-.42,.2-.29,.15-.58,.3-.86,.47-1.22-.71-2.55-1.25-3.95-1.58-.45-.1-.92-.19-1.38-.25-.18-.03-.37-.05-.55-.06-.19-.02-.39-.03-.58-.04-.19,0-.37-.02-.56-.02h-.08c-.22,0-.45,0-.68,.02-.24,.02-.47,.03-.71,.06-.23,.02-.47,.05-.7,.09-.23,.04-.46,.08-.69,.12,0,0,0,0,0,0-.22,.05-.45,.1-.67,.16-.23,.06-.45,.12-.67,.19-.19,.06-.37,.12-.55,.19-.11,.04-.22,.08-.33,.12-.1,.03-.2,.07-.29,.12-.16,.07-.32,.13-.48,.21-.14,.07-.28,.13-.42,.2-.29,.15-.58,.3-.86,.47-1.22-.71-2.55-1.25-3.95-1.58-.45-.1-.92-.19-1.38-.25-.18-.03-.37-.05-.55-.06-.19-.02-.39-.03-.58-.04-.19,0-.37-.02-.56-.02h-.08c-.22,0-.46,0-.68,.02-.24,.02-.47,.03-.71,.06-.23,.02-.47,.05-.7,.09-.23,.04-.46,.08-.69,.12,0,0,0,0,0,0-.22,.05-.46,.1-.67,.16-.23,.06-.45,.12-.67,.19-.19,.06-.37,.12-.55,.19-.11,.04-.22,.08-.33,.12-.1,.03-.2,.07-.29,.12-.16,.07-.32,.13-.48,.21-.14,.07-.28,.13-.42,.2-.85,.43-1.66,.93-2.41,1.51h0c-1.06,.81-2.01,1.77-2.81,2.84l.02,.03C1.24,7.85,.27,10.27,.05,12.87c-.03,.36-.05,.72-.05,1.08v.04c0,.22,0,.44,.02,.66,.02,.39,.06,.77,.11,1.16,.74,5.37,4.71,9.87,9.86,11.48,.34,.11,.69,.21,1.04,.28,.46,.11,.92,.2,1.38,.25,.19,.03,.38,.05,.57,.06,.19,.02,.37,.03,.56,.04,.19,0,.37,.01,.56,.01h.08c.23,0,.45,0,.68-.02,.24-.01,.48-.03,.71-.06,.23-.02,.47-.05,.7-.09s.46-.08,.69-.13c.23-.05,.46-.1,.68-.16,.22-.06,.45-.12,.67-.19,.19-.06,.38-.13,.57-.19,.15-.06,.3-.11,.45-.17,.18-.07,.35-.15,.53-.22,.48-.21,.93-.45,1.38-.71,.91,.53,1.89,.97,2.91,1.29,.34,.11,.69,.21,1.04,.28,.45,.11,.92,.2,1.38,.25,.19,.03,.38,.05,.58,.06,.19,.02,.37,.03,.56,.04,.19,0,.37,.01,.56,.01h.08c.23,0,.45,0,.68-.02,.24-.01,.48-.03,.71-.06,.23-.02,.47-.05,.7-.09s.46-.08,.69-.13c.23-.05,.46-.1,.68-.16,.22-.06,.45-.12,.67-.19,.19-.06,.38-.13,.58-.19,.15-.06,.3-.11,.45-.17,.18-.07,.35-.15,.53-.22,.47-.21,.93-.45,1.38-.71,.91,.53,1.89,.97,2.9,1.29,.34,.11,.69,.21,1.05,.28,.45,.11,.92,.2,1.38,.25,.19,.03,.38,.05,.58,.06,.19,.02,.37,.03,.56,.04,.19,0,.37,.01,.56,.01h.08c.23,0,.45,0,.68-.02,.24-.01,.48-.03,.71-.06,.23-.02,.47-.05,.7-.09s.46-.08,.69-.13c.23-.05,.46-.1,.68-.16,.22-.06,.45-.12,.67-.19,.19-.06,.38-.13,.57-.19,.15-.06,.3-.11,.45-.17,.18-.07,.35-.15,.53-.22,1.05-.46,2.04-1.06,2.93-1.75,.1-.07,.19-.15,.29-.22l.26,.22,.99,.85,1.91,1.66,2.6-3.03-3.03-2.62Zm-39.97,1.64h-.04c-.14,0-.29,0-.43-.02-.17,0-.35-.02-.52-.04-.13-.01-.26-.03-.38-.05-.25-.04-.5-.09-.75-.15-.37-.09-.74-.21-1.09-.35-.23-.09-.47-.2-.69-.31-.15-.07-.3-.16-.45-.24-.65-.37-1.26-.82-1.8-1.34-.12-.11-.23-.22-.34-.34-1.67-1.73-2.71-4.1-2.71-6.68,0-3.23,1.66-6.14,4.13-7.86h0c1.46-1.02,3.19-1.62,5.03-1.62,.15,0,.31,0,.47,.01,.15,0,.31,.02,.46,.04,.14,.01,.27,.03,.4,.05,.68,.11,1.34,.3,1.97,.55-.19,.22-.37,.46-.55,.7l.02,.03c-1.51,1.99-2.48,4.41-2.7,7.01-.03,.36-.05,.72-.05,1.08v.04c0,.22,0,.44,.02,.66,.02,.39,.06,.77,.11,1.16,.36,2.62,1.49,5.03,3.15,7-1.02,.42-2.12,.65-3.26,.65Zm14.17,0h-.04c-.14,0-.28,0-.43-.02-.17,0-.35-.02-.52-.04-.13-.01-.26-.03-.38-.05-.25-.04-.5-.09-.75-.15-.37-.09-.74-.21-1.09-.35l-.1-.04c-.2-.08-.4-.17-.59-.27-.15-.07-.3-.16-.45-.24-.65-.37-1.26-.82-1.8-1.34-.12-.11-.23-.22-.34-.34-.22-.22-.42-.46-.62-.7-1.31-1.64-2.1-3.73-2.1-5.98s.79-4.3,2.09-5.94c.59-.74,1.27-1.39,2.04-1.92h0c.55-.39,1.13-.71,1.75-.96,1.02-.42,2.13-.65,3.28-.65,.15,0,.31,0,.47,.01,.16,0,.31,.02,.46,.04,.14,.01,.27,.03,.4,.05,.69,.11,1.35,.3,1.98,.55-.19,.22-.37,.46-.55,.7l.02,.03c-1.51,1.99-2.48,4.41-2.7,7.01-.03,.36-.05,.72-.05,1.08v.04c0,.22,0,.44,.02,.66,.02,.39,.06,.77,.11,1.16,.36,2.62,1.49,5.03,3.15,7-1.02,.42-2.11,.65-3.26,.65Zm19.2-1.62c-1.45,1.01-3.18,1.61-5.02,1.62h-.04c-.14,0-.29,0-.43-.02-.17,0-.35-.02-.52-.04-.13-.01-.26-.03-.38-.05-.25-.04-.5-.09-.75-.15-.37-.09-.74-.21-1.09-.35-.04-.01-.07-.03-.1-.04-.2-.08-.4-.17-.59-.27-.15-.07-.3-.16-.45-.24-.65-.37-1.26-.82-1.8-1.34-.12-.11-.23-.22-.34-.34-.21-.22-.42-.46-.62-.7-1.31-1.64-2.1-3.73-2.1-5.98s.79-4.3,2.09-5.94c.59-.74,1.27-1.39,2.04-1.92h0c.55-.39,1.13-.71,1.75-.96,1.03-.42,2.13-.65,3.28-.65,.15,0,.31,0,.47,.01,.15,0,.31,.02,.46,.04,.13,.01,.26,.03,.39,.05,.93,.14,1.81,.44,2.62,.85,.27,.13,.53,.28,.78,.44,.2,.13,.39,.26,.58,.4,.41,.31,.79,.64,1.15,1.02,1.68,1.72,2.74,4.11,2.74,6.71,0,3.23-1.66,6.14-4.13,7.86Z"/>
    </g>
  </g>
</svg>