<?xml version="1.0" encoding="UTF-8"?>
<svg id="Capa_2" data-name="Capa 2" xmlns="http://www.w3.org/2000/svg" viewBox="0 0 290.74 64.3">
  <defs>
    <style>
      .cls-1 {
        fill: #f2f2f2;
      }
    </style>
  </defs>
  <g id="Capa_1-2" data-name="Capa 1">
    <g>
      <path class="cls-1" d="M5.99,62.67c-2.44-1.08-4.43-2.63-5.99-4.64l5.53-6.63c2.33,3.15,4.99,4.73,7.98,4.73,4.05,0,6.08-2.37,6.08-7.12V28.56H4.48v-7.98H29.47v27.88c0,5.28-1.31,9.24-3.93,11.88-2.62,2.64-6.47,3.96-11.54,3.96-2.91,0-5.58-.54-8.01-1.63Z"/>
      <path class="cls-1" d="M48.05,61.41c-3.58-1.92-6.39-4.57-8.41-7.95-2.03-3.38-3.04-7.17-3.04-11.39s1.01-8.01,3.04-11.39c2.03-3.38,4.83-6.03,8.41-7.95,3.58-1.92,7.6-2.89,12.07-2.89s8.47,.96,12.04,2.89c3.56,1.92,6.36,4.57,8.41,7.95,2.05,3.38,3.07,7.17,3.07,11.39s-1.02,8.01-3.07,11.39c-2.05,3.38-4.85,6.03-8.41,7.95-3.56,1.92-7.57,2.89-12.04,2.89s-8.48-.96-12.07-2.89Zm18.94-7.34c2.05-1.17,3.65-2.79,4.82-4.88,1.17-2.09,1.75-4.46,1.75-7.12s-.58-5.03-1.75-7.12c-1.17-2.09-2.77-3.72-4.82-4.88-2.05-1.17-4.34-1.75-6.88-1.75s-4.83,.58-6.88,1.75c-2.05,1.17-3.65,2.79-4.82,4.88-1.17,2.09-1.75,4.46-1.75,7.12s.58,5.04,1.75,7.12c1.17,2.09,2.77,3.71,4.82,4.88,2.05,1.17,4.34,1.75,6.88,1.75s4.83-.58,6.88-1.75Z"/>
      <path class="cls-1" d="M109.91,48.34v15.23h-9.95v-15.35l-16.64-27.63h10.56l11.48,19.1,11.48-19.1h9.76l-16.7,27.75Z"/>
      <path class="cls-1" d="M158.88,22.48c2.8,1.27,4.96,3.07,6.48,5.4,1.51,2.33,2.27,5.1,2.27,8.29s-.76,5.9-2.27,8.26c-1.51,2.35-3.67,4.15-6.48,5.4-2.8,1.25-6.11,1.87-9.92,1.87h-8.66v11.85h-9.95V20.58h18.61c3.81,0,7.11,.63,9.92,1.9Zm-3.65,19.19c1.56-1.29,2.33-3.12,2.33-5.49s-.78-4.27-2.33-5.56-3.83-1.93-6.82-1.93h-8.11v14.92h8.11c2.99,0,5.26-.64,6.82-1.93Z"/>
      <path class="cls-1" d="M200.85,54.35h-19.96l-3.81,9.21h-10.19l19.16-42.98h9.82l19.22,42.98h-10.44l-3.81-9.21Zm-3.13-7.55l-6.82-16.46-6.82,16.46h13.63Z"/>
      <path class="cls-1" d="M223.84,62.92c-3.17-.92-5.72-2.12-7.65-3.59l3.38-7.49c1.84,1.35,4.03,2.44,6.57,3.25,2.54,.82,5.08,1.23,7.61,1.23,2.82,0,4.91-.42,6.26-1.26,1.35-.84,2.03-1.95,2.03-3.35,0-1.02-.4-1.87-1.2-2.55-.8-.68-1.82-1.22-3.07-1.63-1.25-.41-2.94-.86-5.07-1.35-3.28-.78-5.96-1.55-8.04-2.33-2.09-.78-3.88-2.03-5.37-3.75-1.49-1.72-2.24-4.01-2.24-6.88,0-2.5,.68-4.76,2.03-6.79s3.39-3.63,6.11-4.82c2.72-1.19,6.05-1.78,9.98-1.78,2.74,0,5.42,.33,8.04,.98,2.62,.65,4.91,1.6,6.88,2.82l-3.07,7.55c-3.97-2.25-7.94-3.38-11.91-3.38-2.78,0-4.84,.45-6.17,1.35-1.33,.9-2,2.09-2,3.56s.77,2.57,2.3,3.28c1.53,.72,3.88,1.42,7.03,2.12,3.27,.78,5.96,1.56,8.04,2.33s3.88,2.01,5.37,3.68c1.49,1.68,2.24,3.95,2.24,6.82,0,2.46-.69,4.7-2.06,6.72-1.37,2.03-3.43,3.63-6.17,4.82-2.74,1.19-6.08,1.78-10.01,1.78-3.4,0-6.68-.46-9.85-1.38Z"/>
      <path class="cls-1" d="M267.04,28.69h-13.75v-8.11h37.46v8.11h-13.75V63.56h-9.95V28.69Z"/>
      <polygon class="cls-1" points="19.47 8.68 17.93 10.06 17.93 6.98 19.47 8.68"/>
      <polygon class="cls-1" points="23.42 11.31 17.93 13.43 17.93 11.56 21.04 8.77 17.93 5.33 17.93 2.76 20.13 2.76 23.42 11.31"/>
      <polygon class="cls-1" points="28.93 2.76 28.93 13.76 20.7 13.76 25.1 12.06 21.53 2.76 28.93 2.76"/>
      <polygon class="cls-1" points="17.93 10.06 13.04 14.48 9.43 5.1 14.48 3.15 17.93 6.98 19.47 8.68 17.93 10.06"/>
      <polygon class="cls-1" points="23.42 11.31 17.93 13.43 14.34 14.81 17.93 11.56 21.04 8.77 17.93 5.33 15.59 2.73 19.53 1.21 20.13 2.76 23.42 11.31"/>
      <polygon class="cls-1" points="19.47 8.68 17.93 10.06 13.04 14.48 12 15.41 10.78 16.52 2.94 7.84 11.62 0 13.54 2.13 14.48 3.15 17.93 6.98 19.47 8.68"/>
      <polygon class="cls-1" points="19.47 8.68 17.93 10.06 13.04 14.48 12 15.41 10.78 16.52 2.94 7.84 11.62 0 13.54 2.13 14.48 3.15 17.93 6.98 19.47 8.68"/>
      <polygon class="cls-1" points="13.04 14.48 12 15.41 7.75 4.35 13.54 2.13 14.48 3.15 17.93 6.98 19.47 8.68 17.93 10.06 13.04 14.48"/>
      <polygon class="cls-1" points="23.42 11.31 17.93 13.43 14.34 14.81 17.93 11.56 21.04 8.77 17.93 5.33 15.59 2.73 19.53 1.21 20.13 2.76 23.42 11.31"/>
    </g>
  </g>
</svg>