<?xml version="1.0" encoding="UTF-8"?>
<svg id="Capa_2" data-name="Capa 2" xmlns="http://www.w3.org/2000/svg" viewBox="0 0 93.67 22.58">
  <defs>
    <style>
      .cls-1 {
        font-family: Gotham-Book, Gotham;
        font-size: 20.64px;
      }

      .cls-1, .cls-2 {
        fill: #b3b3b3;
      }
    </style>
  </defs>
  <g id="Capa_1-2" data-name="Capa 1">
    <g>
      <text class="cls-1" transform="translate(0 17.54)"><tspan x="0" y="0" xml:space="preserve">SCR    LL</tspan></text>
      <g>
        <g>
          <path class="cls-2" d="M53.59,11.07c.39,0,.72-.99,.73-2.21,.01-1.23-.3-2.22-.69-2.23-.39,0-.72,.99-.73,2.21-.01,1.23,.3,2.22,.69,2.23Z"/>
          <path class="cls-2" d="M57.95,11.03c.39,0,.72-.99,.73-2.21s-.3-2.22-.69-2.23c-.39,0-.72,.99-.73,2.21-.01,1.23,.3,2.22,.69,2.23Z"/>
        </g>
        <path class="cls-2" d="M55.79,20.9c-5.43,0-9.85-4.42-9.85-9.85S50.36,1.2,55.79,1.2s9.85,4.42,9.85,9.85-4.42,9.85-9.85,9.85Zm0-19.22c-5.17,0-9.37,4.21-9.37,9.37s4.21,9.37,9.37,9.37,9.37-4.21,9.37-9.37S60.96,1.67,55.79,1.67Z"/>
        <g>
          <path class="cls-2" d="M60.88,10.18c-.86,0-1.63,.5-1.98,1.28-.89-.06-1.88-.1-2.94-.1s-2.06,.03-2.93,.1c-.35-.78-1.12-1.28-1.98-1.28-1.21,0-2.19,.98-2.19,2.19s.98,2.19,2.19,2.19c.86,0,1.63-.5,1.98-1.28,.92,.06,1.93,.1,2.93,.1s2.02-.03,2.94-.1c.35,.78,1.12,1.28,1.98,1.28,1.21,0,2.19-.98,2.19-2.19s-.98-2.19-2.19-2.19Zm-9.84,4.06c-1.03,0-1.87-.84-1.87-1.87s.84-1.87,1.87-1.87c.7,0,1.32,.38,1.64,.98-.03,0-.06,0-.1,0-.07,0-.13,.01-.19,.02-.07,0-.13,.01-.2,.02-.06,0-.12,.01-.18,.02-.06,0-.12,.01-.18,.02-.06,0-.12,.01-.17,.02-.06,0-.11,.01-.17,.02-.05,0-.11,.01-.16,.02-.05,0-.11,.02-.16,.02-.05,0-.1,.01-.15,.02-.05,0-.1,.02-.14,.02-.04,0-.09,.02-.13,.02-.05,0-.09,.02-.13,.03-.04,0-.08,.02-.12,.03-.04,0-.08,.02-.12,.03-.04,0-.07,.02-.11,.03-.04,0-.07,.02-.11,.03-.03,0-.06,.02-.09,.03-.03,.01-.06,.02-.09,.03-.03,0-.06,.02-.08,.03-.03,.01-.05,.02-.08,.03-.02,0-.05,.02-.07,.03-.02,.01-.05,.02-.07,.04-.02,0-.04,.02-.05,.03-.02,.01-.04,.03-.05,.04-.01,.01-.03,.02-.04,.03-.02,.01-.03,.03-.04,.04,0,0-.02,.02-.03,.03-.01,.02-.02,.03-.03,.05,0,0-.01,.02-.01,.03,0,.03-.01,.05-.01,.08,0,0,0,.01,0,.02,0,0,0,0,0,.01,0,0,0,0,0,0,0,0,0,0,0,.01,0,0,0,0,0,.01,0,0,0,0,0,.01,0,0,0,0,0,.01,0,0,0,0,0,.01,0,0,0,0,0,.01,0,0,0,0,0,.01s0,0,0,.01c0,0,0,0,0,.01,0,0,0,0,0,.01,0,0,0,0,0,.01,0,0,0,0,.01,.01,0,0,0,0,.01,.01,0,0,0,0,.01,.01,0,0,0,0,.01,.01,0,0,.01,0,.02,.01,0,0,.01,0,.02,.01,0,0,.01,.01,.02,.02,0,0,.01,0,.02,.01,0,0,.02,.01,.02,.02,0,0,.02,0,.02,.01,0,0,.02,.01,.03,.02,0,0,.02,.01,.03,.02,.01,0,.02,.01,.03,.02,.01,0,.02,.01,.03,.02,.01,0,.02,.01,.04,.02,.01,0,.03,.01,.04,.02,.01,0,.03,.01,.04,.02,.01,0,.03,.01,.04,.02,.01,0,.03,.01,.04,.02,.02,0,.03,.01,.05,.02,.02,0,.03,.01,.05,.02,.02,0,.04,.01,.06,.02,.02,0,.04,0,.05,.01,.02,0,.04,.01,.06,.02,.02,0,.04,.01,.06,.02,.02,0,.05,.01,.07,.02,.02,0,.04,.01,.07,.02,.03,0,.05,.01,.08,.02,.02,0,.05,0,.07,.01,.03,0,.06,.01,.09,.02,.02,0,.05,0,.07,.01,.03,0,.07,.01,.1,.02,.03,0,.05,0,.08,.01,.04,0,.07,.01,.11,.02,.03,0,.06,0,.09,.01,.04,0,.08,.01,.11,.02,.03,0,.06,0,.09,.01,.04,0,.08,.01,.12,.02,.03,0,.07,0,.1,.01,.05,0,.09,.01,.14,.02,.03,0,.07,0,.1,.01,.05,0,.1,.01,.15,.02,.04,0,.08,0,.11,.01,.05,0,.1,.01,.16,.02,.04,0,.08,0,.12,.01,.06,0,.11,.01,.17,.01,.04,0,.08,0,.12,.01,.02,0,.03,0,.05,0-.32,.6-.95,.98-1.64,.98Zm1.9-1.29c-2.46-.18-3.14-.49-3.2-.57,.01-.02,.04-.05,.11-.08,.27-.14,1.09-.38,3.09-.52,.89-.07,1.94-.1,3.02-.1s2.12,.03,3.03,.1c.15,.01,.29,.02,.43,.03,.06,0,.12,.01,.18,.02,.07,0,.14,.01,.21,.02,.08,0,.16,.02,.23,.02,.04,0,.08,0,.11,.01,1.43,.17,1.93,.38,2.01,.48,0,0,0,0,0,0,0,0,0,0-.01,.01,0,0-.01,0-.02,.01s-.01,0-.02,.01c0,0-.02,0-.03,.01,0,0-.02,.01-.03,.02-.01,0-.02,.01-.03,.02-.01,0-.03,.01-.04,.02-.01,0-.03,.01-.04,.02-.02,0-.03,.01-.05,.02-.02,0-.04,.01-.06,.02-.02,0-.04,.01-.06,.02-.02,0-.04,.01-.07,.02-.02,0-.05,.01-.08,.02-.03,0-.05,.01-.08,.02-.03,0-.06,.01-.09,.02-.03,0-.06,.01-.1,.02-.03,0-.06,.01-.1,.02-.04,0-.08,.01-.11,.02-.04,0-.07,.01-.11,.02-.04,0-.09,.02-.13,.02-.04,0-.08,.01-.12,.02-.05,0-.1,.02-.16,.02-.04,0-.09,.01-.13,.02-.06,0-.12,.02-.18,.02-.05,0-.09,.01-.14,.02-.07,0-.15,.02-.22,.02-.04,0-.09,0-.13,.01-.09,0-.18,.02-.28,.03-.04,0-.08,0-.12,.01-.14,.01-.28,.02-.43,.03h0c-1.88,.13-4.17,.13-6.04,0Zm7.94,1.29c-.7,0-1.32-.38-1.64-.98,.02,0,.03,0,.05,0,.04,0,.09,0,.13-.01,.06,0,.11,0,.17-.01,.04,0,.08,0,.12-.01,.05,0,.11-.01,.16-.02,.04,0,.07,0,.11-.01,.05,0,.1-.01,.15-.02,.04,0,.07,0,.1-.01,.05,0,.09-.01,.14-.02,.03,0,.07,0,.1-.01,.04,0,.09-.01,.13-.02,.03,0,.06,0,.09-.01,.04,0,.08-.01,.12-.02,.03,0,.06,0,.08-.01,.04,0,.07-.01,.11-.02,.03,0,.05,0,.08-.01,.03,0,.07-.01,.1-.02,.02,0,.05,0,.07-.01,.03,0,.06-.01,.09-.02,.02,0,.05,0,.07-.01,.03,0,.06-.01,.08-.02,.02,0,.04,0,.06-.01,.03,0,.05-.01,.08-.02,.02,0,.04,0,.05-.01,.02,0,.05-.01,.07-.02,.02,0,.03,0,.05-.01,.02,0,.04-.01,.06-.02,.02,0,.03,0,.05-.01,.02,0,.04-.01,.05-.02,.01,0,.03,0,.04-.01,.02,0,.03-.01,.05-.02,.01,0,.02,0,.04-.01,.01,0,.03-.01,.04-.02,.01,0,.02,0,.03-.01,.01,0,.02-.01,.04-.02,0,0,.02,0,.03-.01,.01,0,.02-.01,.03-.02,0,0,.02,0,.02-.01,0,0,.02-.01,.03-.02,0,0,.01,0,.02-.01,0,0,.02-.01,.02-.02,0,0,.01,0,.02-.01,0,0,.01-.01,.02-.02,0,0,.01,0,.01-.01,0,0,.01-.01,.02-.02,0,0,0,0,.01-.01,0,0,0-.01,.01-.02,0,0,0,0,0-.01,0,0,0-.01,.01-.01,0,0,0,0,0-.01,0,0,0,0,0-.01,0,0,0,0,0-.01,0,0,0,0,0-.01,0,0,0,0,0-.01,0,0,0,0,0-.01,0,0,0,0,0,0,0,0,0,0,0-.01,0,0,0,0,0,0,0,0,0,0,0-.01,0,0,0,0,0,0,0,0,0,0,0-.01,0,0,0-.02,0-.02,0-.03,0-.05-.01-.08,0,0,0-.02-.01-.03,0-.02-.02-.03-.03-.05,0,0-.02-.02-.03-.03-.01-.01-.02-.03-.04-.04-.01-.01-.03-.02-.04-.03-.02-.01-.03-.03-.05-.04-.02-.01-.04-.02-.05-.03-.02-.01-.04-.02-.07-.04-.02-.01-.04-.02-.07-.03-.03-.01-.05-.02-.08-.03-.02,0-.05-.02-.08-.03-.03-.01-.06-.02-.09-.03-.03,0-.06-.02-.09-.03-.03-.01-.07-.02-.11-.03-.03,0-.07-.02-.11-.03-.04,0-.08-.02-.12-.03-.04,0-.08-.02-.12-.03-.04,0-.09-.02-.13-.03-.04,0-.09-.02-.13-.02-.05,0-.09-.02-.14-.02-.05,0-.1-.02-.15-.02-.05,0-.1-.01-.15-.02-.05,0-.11-.01-.16-.02-.05,0-.11-.01-.17-.02-.06,0-.12-.01-.17-.02-.06,0-.12-.01-.18-.02-.06,0-.13-.01-.19-.02-.06,0-.13-.01-.19-.02-.07,0-.13-.01-.2-.02-.03,0-.06,0-.09,0,.32-.6,.95-.98,1.64-.98,1.03,0,1.87,.84,1.87,1.87s-.84,1.87-1.87,1.87Z"/>
          <path class="cls-2" d="M59.07,12.23c-.01-.09-.1-.15-.18-.13-.96,.15-1.94,.23-2.92,.23h-.01c-.98,0-1.96-.08-2.93-.23-.08-.01-.17,.05-.18,.13-.01,.09,.05,.17,.13,.18,.98,.15,1.98,.23,2.98,.23h.01c.99,0,1.99-.08,2.97-.23,.09-.01,.15-.1,.13-.18Z"/>
        </g>
      </g>
    </g>
  </g>
</svg>